<?xml version="1.0" standalone="no"?>
<!DOCTYPE svg PUBLIC "-//W3C//DTD SVG 1.1//EN" "http://www.w3.org/Graphics/SVG/1.1/DTD/svg11.dtd" >
<svg xmlns="http://www.w3.org/2000/svg" xmlns:xlink="http://www.w3.org/1999/xlink" version="1.1">
<metadata></metadata>
<defs>
<font id="dialog_cond_semiboldregular" horiz-adv-x="880" >
<font-face units-per-em="2048" ascent="1638" descent="-410" />
<missing-glyph horiz-adv-x="362" />
<glyph horiz-adv-x="0" />
<glyph unicode="&#xd;" horiz-adv-x="362" />
<glyph unicode=" "  horiz-adv-x="362" />
<glyph unicode="&#x09;" horiz-adv-x="362" />
<glyph unicode="&#xa0;" horiz-adv-x="362" />
<glyph unicode="!" horiz-adv-x="432" d="M92 119q0 59 34 105t91 46t93 -46t36 -105t-35 -103q-37 -49 -94 -49t-92 49q-33 43 -33 103zM102 1311h228l-45 -903h-138z" />
<glyph unicode="&#x22;" horiz-adv-x="667" d="M88 1356h199l-31 -471h-139zM379 1356h199l-29 -471h-141z" />
<glyph unicode="#" horiz-adv-x="1368" d="M49 418l19 110h276l92 332h-330l17 113h342l129 442h117l-129 -442h358l129 442h117l-129 -442h258l-19 -113h-268l-90 -332h319l-18 -110h-332l-125 -441h-118l127 441h-359l-127 -441h-119l127 441h-264zM461 528h360l90 332h-358z" />
<glyph unicode="$" horiz-adv-x="817" d="M55 70v196q41 -41 147.5 -77.5t168.5 -34.5v383q-164 94 -226 163q-88 102 -88 263q0 141 88 251.5t226 124.5v88h67v-86q59 -4 137 -30q90 -33 119 -70v-139q-33 14 -103.5 31.5t-103.5 17.5t-49 -2v-350q6 -6 21 -15q152 -88 217 -161q92 -103 92 -248q0 -156 -88 -266 q-90 -119 -242 -138v-127h-67v123q-68 2 -164 31q-111 33 -152 72zM272 981q1 -79 99 -147v301q-98 -45 -99 -154zM438 162q117 39 117 162q0 117 -117 184v-346z" />
<glyph unicode="%" horiz-adv-x="1253" d="M72 993q0 137 47 226q61 109 188 108q232 0 232 -334q0 -133 -50 -225q-61 -117 -182 -117q-125 0 -186 115q-49 92 -49 227zM190 -6l744 1356l121 -29l-744 -1358zM227 993q0 -199 80 -198q78 -1 78 198q0 188 -78 189q-80 0 -80 -189zM711 324q0 137 49 225 q61 111 188 110q127 0 187 -110q47 -88 47 -225q0 -133 -49 -226q-61 -115 -185 -114q-123 0 -186 114q-51 92 -51 226zM868 324q0 -197 80 -197q78 0 78 197q0 186 -78 186q-80 0 -80 -186z" />
<glyph unicode="&#x26;" horiz-adv-x="1064" d="M51 346q0 256 236 395q-98 154 -99 303q0 131 82 215t213 84q123 0 204 -75.5t81 -198.5q0 -207 -227 -340q125 -197 229 -387q80 80 98 115l76 -58q-16 -57 -102 -166q49 -81 149 -233h-254q-37 45 -51 78q-143 -111 -287 -111q-156 0 -254 113q-94 106 -94 266z M266 393q0 -90 60 -164q63 -80 153 -79q53 0 125 51q-6 8 -10 24q-31 51 -92 156q-45 80 -140 231q-96 -86 -96 -219zM399 1057q0 -70 68 -215q113 121 113 217q0 123 -91 123q-43 0 -69 -43q-20 -35 -21 -82z" />
<glyph unicode="'" horiz-adv-x="374" d="M84 1356h205l-33 -482h-139z" />
<glyph unicode="(" horiz-adv-x="499" d="M63 610q0 207 72 404q76 213 215 346l86 -66q-158 -197 -157 -682q-1 -485 157 -682l-86 -65q-137 129 -215 346q-72 197 -72 399z" />
<glyph unicode=")" horiz-adv-x="499" d="M66 -70q160 199 159 682q0 483 -159 682l84 68q135 -125 215 -346q73 -203 73 -404t-73 -403q-80 -217 -215 -344z" />
<glyph unicode="*" horiz-adv-x="475" d="M41 1149l145 70l-141 69l45 92l115 -112l-19 180h95l-25 -170l115 102l45 -92l-148 -69l152 -70l-43 -94l-123 106l27 -180h-95l19 186l-121 -112z" />
<glyph unicode="+" horiz-adv-x="1183" d="M61 535v112h474v477h110v-477h477v-112h-475v-478h-112v478h-474z" />
<glyph unicode="," horiz-adv-x="432" d="M115 231h211q0 -215 -41 -333q-29 -53 -82 -160l-80 43q2 29 24 110q18 72 19 123q0 72 -51 217z" />
<glyph unicode="-" horiz-adv-x="497" d="M70 469v195h356v-195h-356z" />
<glyph unicode="." horiz-adv-x="432" d="M92 119q0 59 34 105t91 46t93 -46t36 -105t-35 -103q-37 -49 -94 -49t-92 49q-33 43 -33 103z" />
<glyph unicode="/" horiz-adv-x="772" d="M-8 -98l635 1470l155 -49l-635 -1470z" />
<glyph unicode="0" d="M33 657q0 272 69 445q100 244 334 244q408 -1 408 -689q0 -264 -76 -442q-104 -246 -332 -246q-229 0 -332 246q-72 172 -71 442zM231 657q0 -508 205 -507q207 -1 207 507q0 492 -207 492q-205 0 -205 -492z" />
<glyph unicode="1" d="M98 958v119l328 234h141v-1311h-205v1077z" />
<glyph unicode="2" d="M70 1051v131q145 162 340 161q172 0 272 -99t100 -271q0 -160 -94 -297q-39 -57 -199 -223q-133 -137 -182 -246h475v-207h-704v152q45 100 178 264q176 217 211 266q102 150 102 258q0 96 -55 156.5t-152 60.5q-43 0 -149.5 -40t-142.5 -66z" />
<glyph unicode="3" d="M78 63v146q39 -20 145 -43q100 -23 142 -23q98 0 155 72q55 66 55 166q0 129 -110 207q-100 70 -234 63v107q92 55 183 110q109 78 108 166q0 66 -46 103t-111 37q-129 0 -263 -80v123q135 129 314 129q145 0 225 -80t80 -226q0 -100 -54.5 -183t-146.5 -120q23 0 31 -12 q106 -43 171.5 -132t65.5 -200q0 -186 -102 -301q-106 -123 -291 -123q-168 0 -317 94z" />
<glyph unicode="4" d="M4 309v176l459 836h242v-836h124v-176h-124v-309h-205v309h-496zM184 485h316v598z" />
<glyph unicode="5" d="M70 63v146q33 -16 135 -42t139 -26q102 -2 163.5 66.5t61.5 173.5q0 127 -72.5 204t-197.5 77q-88 0 -166 -37v688h612v-217h-458v-285q98 16 80 16q180 0 297.5 -111.5t117.5 -289.5q0 -193 -98 -320q-109 -137 -297 -137q-168 0 -317 94z" />
<glyph unicode="6" d="M43 621q0 725 449 725q131 0 270 -109v-119q-150 41 -258 41q-141 0 -207 -172q-45 -119 -47 -293q115 156 250 156q162 0 252 -135q75 -115 75 -287q0 -186 -92 -315q-104 -143 -282 -144q-410 0 -410 652zM256 451q0 -106 45 -199q57 -113 154 -113q90 0 139 97 q39 76 39 174q0 106 -37 180q-47 96 -143 96q-88 0 -146 -76q-51 -68 -51 -159z" />
<glyph unicode="7" d="M82 1079v234h756v-150q-178 -377 -267 -600q-182 -465 -188 -561l-221 -10q14 113 200 549q94 223 261 538h-541z" />
<glyph unicode="8" d="M41 334q0 264 213 356l-4 4q-174 78 -174 301q0 158 105.5 254.5t262.5 96.5q162 0 259.5 -84t97.5 -244q0 -219 -195 -318l-6 -4q227 -88 227 -352q0 -164 -114.5 -269.5t-280.5 -105.5q-168 0 -279.5 99.5t-111.5 265.5zM238 358q0 -96 51 -157.5t145 -61.5 q90 0 144.5 55.5t54.5 145.5q0 100 -76 168q-20 16 -80 51q-66 37 -82 37t-45 -18q-113 -59 -112 -220zM266 987q0 -150 193 -217q70 25 109.5 86t39.5 135q0 80 -46 127t-126 47q-74 0 -122 -51t-48 -127z" />
<glyph unicode="9" d="M43 885q0 186 96 315q104 145 285 146q229 0 332 -226q71 -164 71 -428q0 -723 -442 -723q-135 0 -272 109v117q150 -41 256 -41q240 0 258 469q-90 -160 -252 -160q-164 0 -254 135q-78 115 -78 287zM238 903q0 -106 38 -180q49 -96 146 -96q88 0 143 75q49 70 49 160 q0 109 -43 199q-53 113 -151 113q-90 0 -139 -95q-43 -78 -43 -176z" />
<glyph unicode=":" horiz-adv-x="432" d="M92 119q0 59 34 105t91 46t93 -46t36 -105t-35 -103q-37 -49 -94 -49t-92 49q-33 43 -33 103zM92 805q0 59 34 105t91 46t93 -46t36 -105t-35 -103q-37 -49 -94 -49t-92 49q-33 43 -33 103z" />
<glyph unicode=";" horiz-adv-x="432" d="M92 805q0 59 34 105t91 46t93 -46t36 -105t-35 -103q-37 -49 -94 -49t-92 49q-33 43 -33 103zM115 231h211q0 -215 -41 -333q-29 -53 -82 -160l-80 43q2 29 24 110q18 72 19 123q0 72 -51 217z" />
<glyph unicode="&#x3c;" horiz-adv-x="1196" d="M61 537v106l1057 475v-125l-907 -407l907 -398v-118z" />
<glyph unicode="=" horiz-adv-x="1124" d="M61 356v105h990v-105h-990zM61 715v106h990v-106h-990z" />
<glyph unicode="&#x3e;" horiz-adv-x="1220" d="M82 70v118l909 396l-909 409v125l1059 -477v-106z" />
<glyph unicode="?" horiz-adv-x="800" d="M84 1108v139q121 96 293 96q147 0 247.5 -90t100.5 -237q0 -123 -72 -223q-68 -76 -137 -152q-76 -86 -82 -170q-2 -16 0 -45q2 -35 2 -45h-194q-2 10 -2 29q0 82 128 238.5t128 266.5q0 98 -78 170t-176 74q-78 0 -158 -51zM211 119q0 59 36 105t93 46t92 -47t35 -104 t-35 -104.5t-92 -47.5t-94 49q-35 43 -35 103z" />
<glyph unicode="@" horiz-adv-x="1941" d="M121 489q0 397 280.5 673t677.5 276q324 0 527 -181q211 -186 211 -505q0 -240 -136 -445q-152 -229 -381 -229q-176 0 -176 176q0 29 4 68l-2 4q-170 -250 -364 -250q-102 0 -157.5 73.5t-55.5 178.5q2 225 143 430q158 227 373 227q162 0 199 -166l4 4l24 92l148 3 l-156 -556q-16 -59 -16 -106q0 -37 16 -74q23 -47 59 -47q111 0 228 139q92 111 141 239t49 255q0 276 -196 451q-188 168 -469 167q-381 0 -629 -274q-242 -266 -242 -651q0 -346 230 -559q223 -207 571 -207q449 0 711 381l41 -19q-121 -199 -324 -309t-436 -110 q-383 0 -637 231q-260 240 -260 620zM700 334q0 -162 134 -162q158 0 280 221q109 195 109 369q0 70 -39 124t-107 54q-141 0 -266 -238q-111 -211 -111 -368z" />
<glyph unicode="A" horiz-adv-x="1048" d="M23 0l385 1319h221l385 -1319h-254l-98 352h-361l-104 -352h-174zM358 543h248l-123 483z" />
<glyph unicode="B" horiz-adv-x="956" d="M119 0v1311h469q131 0 211 -85t80 -216t-75 -218t-204 -112v-4q305 -33 305 -324q0 -172 -100 -262t-273 -90h-413zM348 182q12 0 60 -4q37 -4 59 -4q88 0 147.5 53.5t59.5 141.5q0 96 -51.5 155.5t-145.5 59.5l-129 -6v-396zM348 758q41 -4 125 -10h5q78 0 126 61 q45 57 45 143q0 182 -186 183q-23 0 -115 -11v-366z" />
<glyph unicode="C" horiz-adv-x="970" d="M49 659q0 262 125 457q143 227 391 227q180 0 318 -86v-153q-154 59 -240 59q-188 0 -285 -172q-77 -137 -77 -339v-5q0 -195 65 -323q84 -166 260 -166q168 0 318 57v-170q-156 -78 -363 -78q-244 0 -389 234q-123 199 -123 458z" />
<glyph unicode="D" horiz-adv-x="1116" d="M119 0v1311h489q217 0 344 -207q107 -175 107 -406q0 -270 -123 -467q-143 -231 -397 -231h-420zM348 205q123 -10 150 -10q176 0 260 170q65 130 65 325q0 168 -73 289q-88 139 -248 139q-29 0 -76 -4q-61 -4 -78 -4v-905z" />
<glyph unicode="E" horiz-adv-x="899" d="M119 0v1311h706v-195h-477v-354h430v-184h-430v-385h490v-193h-719z" />
<glyph unicode="F" horiz-adv-x="884" d="M119 0v1311h706v-195h-477v-354h430v-184h-430v-578h-229z" />
<glyph unicode="G" horiz-adv-x="1040" d="M49 659q0 262 125 457q143 227 391 227q180 0 318 -86v-153q-154 59 -258 59q-178 0 -271 -178q-73 -139 -73 -333v-5q0 -195 65 -323q84 -166 260 -166q37 0 84 14v446h230v-546q-72 -41 -179 -72q-113 -33 -190 -33q-238 0 -381 238q-121 201 -121 454z" />
<glyph unicode="H" horiz-adv-x="1124" d="M119 0v1311h229v-531h424v531h229v-1311h-229v578h-424v-578h-229z" />
<glyph unicode="I" horiz-adv-x="464" d="M119 0v1311h229v-1311h-229z" />
<glyph unicode="J" horiz-adv-x="667" d="M20 -299q33 -25 105 -25q80 0 137 101q49 86 49 172v1362h230v-1336q0 -186 -68 -307q-85 -149 -254 -149h-2q-74 0 -197 55v127z" />
<glyph unicode="K" horiz-adv-x="1030" d="M119 0v1311h229v-604l365 604h229l-387 -598l436 -713h-272l-371 621v-621h-229z" />
<glyph unicode="L" horiz-adv-x="806" d="M119 0v1311h229v-1116h438v-195h-667z" />
<glyph unicode="M" horiz-adv-x="1327" d="M119 0v1311h307l244 -905l248 905h284v-1311h-188v1102l-285 -1030h-164l-258 942v-1014h-188z" />
<glyph unicode="N" horiz-adv-x="1095" d="M119 0v1311h239l430 -928v928h189v-1315h-229l-441 954v-950h-188z" />
<glyph unicode="O" horiz-adv-x="1128" d="M51 645q0 264 123 463q142 235 389 235h2q258 0 396 -231q114 -191 114 -467q0 -264 -119 -455q-141 -223 -391 -223q-252 0 -393 221q-121 190 -121 457zM285 662q0 -188 51 -320q72 -184 229 -184q156 0 228 186q49 132 49 318q0 184 -49 307q-72 176 -228 176 t-229 -174q-51 -125 -51 -309z" />
<glyph unicode="P" horiz-adv-x="952" d="M119 0v1311h450q170 0 256 -111q78 -100 78 -274q0 -190 -118.5 -317.5t-307.5 -127.5h-129v-481h-229zM348 670q14 0 64 -4q41 -4 63 -4q90 0 148 81q49 74 49 168q0 109 -44 158t-151 49q-43 0 -129 -8v-440z" />
<glyph unicode="Q" horiz-adv-x="1128" d="M51 645q0 264 123 463q142 235 389 235h2q258 0 396 -231q114 -191 114 -467q0 -203 -71 -369q-84 -201 -246 -272q20 -59 116 -123q86 -55 158 -69l-174 -64q-274 53 -377 227l-4 -2q-219 33 -332 248q-94 178 -94 424zM285 662q0 -188 51 -320q72 -184 229 -184 q154 0 226 186q51 134 51 318q0 182 -51 307q-70 176 -226 176t-229 -174q-51 -127 -51 -309z" />
<glyph unicode="R" horiz-adv-x="1013" d="M119 0v1311h469q141 0 229 -101q82 -96 82 -241q0 -147 -61 -244q-70 -113 -207 -135l352 -590h-278l-302 563h-55v-563h-229zM348 717q12 0 60 -4q37 -4 61 -4q90 0 147 71q52 66 52 158q0 184 -170 184q-29 0 -74 -4q-59 -4 -76 -4v-397z" />
<glyph unicode="S" horiz-adv-x="817" d="M57 49v201q37 -35 140 -64q91 -26 152 -26h5q82 0 138 39q63 45 63 123q0 109 -129 188q-233 145 -240 149q-129 115 -129 304q0 154 102.5 267t256.5 113q135 0 278 -71v-148q-143 25 -180 25q-94 0 -160 -35q-82 -45 -82 -133q0 -84 129 -168q217 -141 238 -160 q129 -114 129 -278q0 -170 -108.5 -289t-276.5 -119q-66 0 -170 25q-113 27 -156 57z" />
<glyph unicode="T" horiz-adv-x="942" d="M18 1118v193h906v-193h-336v-1118h-232v1118h-338z" />
<glyph unicode="U" horiz-adv-x="1083" d="M115 508v803h229v-768q0 -178 27 -254q45 -137 188 -137t186 129q23 66 23 247v783h201v-791q0 -553 -420 -553q-434 0 -434 541z" />
<glyph unicode="V" horiz-adv-x="1026" d="M23 1311h258l268 -987l278 987h174l-385 -1319h-206z" />
<glyph unicode="W" horiz-adv-x="1437" d="M23 1311h245l187 -967l192 967h211l182 -967l195 967h164l-289 -1319h-205l-192 889l-191 -889h-205z" />
<glyph unicode="X" horiz-adv-x="983" d="M25 0l327 659l-307 652h258l217 -480l238 480h190l-319 -631l323 -680h-258l-231 504l-246 -504h-192z" />
<glyph unicode="Y" horiz-adv-x="993" d="M25 1311h254l245 -574l267 574h186l-369 -764v-547h-229v518z" />
<glyph unicode="Z" horiz-adv-x="872" d="M57 0v186l484 926h-471v199h735v-195l-477 -921h483v-195h-754z" />
<glyph unicode="[" horiz-adv-x="499" d="M106 -131v1487h322v-142l-127 -2v-1200h127v-143h-322z" />
<glyph unicode="\" horiz-adv-x="772" d="M-8 1323l155 49l635 -1470l-155 -49z" />
<glyph unicode="]" horiz-adv-x="499" d="M72 12h127v1200l-127 2v142h323v-1487h-323v143z" />
<glyph unicode="^" horiz-adv-x="915" d="M72 403l352 873h80l338 -873h-158l-227 586l-226 -586h-159z" />
<glyph unicode="_" horiz-adv-x="714" d="M-8 -72h733v-94h-733v94z" />
<glyph unicode="`" horiz-adv-x="675" d="M117 1413h213l121 -235h-99z" />
<glyph unicode="a" horiz-adv-x="876" d="M188 569q113 70 347 80v62q0 78 -41 127t-115 49q-141 0 -258 -47v135q154 88 301 88q154 0 246 -86t92 -238v-393q0 -231 18 -248q6 -6 27 -6v-92q-160 -12 -158 -12q-53 0 -74 59q-2 8 -18 105q-45 -72 -113 -121q-76 -57 -149 -58q-115 0 -187 90q-65 83 -65 199 q0 217 147 307zM260 297q0 -59 27 -102q29 -49 86 -50q72 0 121 74q41 63 41 139v148q-109 -8 -183 -53q-92 -57 -92 -156z" />
<glyph unicode="b" horiz-adv-x="976" d="M115 0v1427h229v-534q119 170 272 170q174 0 252 -191q56 -135 56 -340t-68 -356q-90 -203 -268 -203q-121 0 -244 62v-35h-229zM344 188q77 -28 147 -28h5q106 0 159 127q39 94 39 219q0 330 -178 330q-80 0 -126 -62.5t-46 -144.5v-441z" />
<glyph unicode="c" horiz-adv-x="821" d="M51 526q0 213 103 363q117 174 321 174q133 0 270 -88v-135q-94 39 -206 39q-135 0 -203 -117q-55 -92 -55 -236q0 -143 63 -243q74 -119 211 -127q11 -1 23 -1q101 0 208 48v-160q-121 -70 -303 -70q-209 0 -327 179q-104 156 -105 374z" />
<glyph unicode="d" horiz-adv-x="983" d="M57 502q0 215 66 362q88 199 274 199q92 0 148 -41q45 -33 92 -119v524h229v-1427h-229v96q-106 -123 -260 -123q-178 0 -260 187q-59 135 -60 342zM287 506q0 -119 39 -215q51 -131 149 -131q78 0 162 76v372q0 88 -41 154q-49 74 -133 74q-176 0 -176 -330z" />
<glyph unicode="e" horiz-adv-x="886" d="M51 526q0 219 90 365q109 172 314 172q193 0 286 -178q74 -139 74 -350q0 2 -6 -72h-528q6 -303 278 -307h10q118 0 222 47v-160q-121 -70 -304 -70q-209 0 -329 179q-106 156 -107 374zM281 633h346q-4 98 -39 166q-47 90 -133 90q-80 0 -129 -92q-41 -74 -45 -164z" />
<glyph unicode="f" horiz-adv-x="647" d="M23 868v162h133q0 145 59 254q74 131 207 131q94 0 194 -43v-133q-47 10 -86 10q-145 0 -145 -219h225v-162h-225v-868h-229v868h-133z" />
<glyph unicode="g" horiz-adv-x="882" d="M49 -211q121 -92 301 -92q100 0 176 37q98 45 99 135q0 90 -99 113q-39 10 -170 10q-268 0 -268 129q0 72 102 217q-135 113 -135 334q0 391 361 391q78 0 137 -23l274 31v-188q-16 4 -96 14q51 -100 51 -233q0 -160 -110.5 -277t-270.5 -117q-43 0 -96 15 q-29 -41 -29 -70q0 -57 95 -57q213 0 303 -35q149 -61 149 -238q0 -176 -157 -272q-133 -82 -320 -82q-156 0 -297 102v156zM266 672q0 -90 31 -162q41 -92 121 -92t121 92q32 72 32 162q0 86 -32 149q-41 80 -121 80q-78 0 -119 -80q-33 -63 -33 -149z" />
<glyph unicode="h" horiz-adv-x="989" d="M119 0v1427h229v-520q141 156 281 156q133 0 198 -121q51 -96 52 -242v-700h-232v623q0 223 -112 223q-96 0 -187 -82v-764h-229z" />
<glyph unicode="i" horiz-adv-x="458" d="M146.5 1404q33.5 44 86.5 44q55 0 89 -44t34 -99t-33.5 -99.5t-89.5 -44.5q-53 0 -88 47q-32 40 -32 94q0 58 33.5 102zM119 0v1030h229v-1030h-229z" />
<glyph unicode="j" horiz-adv-x="481" d="M-88 -444l2 112q45 -6 92 -6q100 0 127 107q8 39 8 188v1073h230v-1055q0 -452 -274 -452h-1q-78 0 -184 33zM137 1305q0 55 35 99t88 44t87 -45t34 -98t-34 -98.5t-87 -45.5t-88 44t-35 100z" />
<glyph unicode="k" horiz-adv-x="913" d="M119 0v1427h229v-878l303 481h211l-309 -473l332 -557h-273l-264 492v-492h-229z" />
<glyph unicode="l" horiz-adv-x="464" d="M119 0v1427h229v-1427h-229z" />
<glyph unicode="m" horiz-adv-x="1466" d="M119 0v1030h229v-102q127 135 256 135q154 0 213 -154q180 154 285 154q133 0 198 -121q49 -96 50 -242v-700h-230v623q0 233 -121 233q-74 0 -155 -70q4 -29 4 -86v-700h-230v623q0 233 -114 233q-88 0 -156 -72v-784h-229z" />
<glyph unicode="n" horiz-adv-x="989" d="M119 0v1030h229v-102q139 135 281 135q133 0 198 -121q51 -96 52 -242v-700h-232v623q0 233 -112 233q-96 0 -187 -72v-784h-229z" />
<glyph unicode="o" horiz-adv-x="960" d="M53 526q0 236 92 375q109 162 334 162q217 0 330 -166q96 -144 96 -371q0 -238 -92 -381q-111 -172 -334 -172t-334 172q-92 143 -92 381zM281 522q0 -137 34 -235q51 -141 164 -142q113 0 166 142q35 98 35 235q0 131 -37 226q-53 131 -164 131q-113 0 -164 -131 q-34 -89 -34 -219v-7z" />
<glyph unicode="p" horiz-adv-x="983" d="M117 -397v1427h231v-96q139 123 268 123q176 0 254 -189q56 -135 56 -342t-68 -358q-88 -201 -268 -201q-74 0 -145.5 46t-96.5 114v-524h-231zM348 422q0 -88 41 -152q48 -75 129 -75h2h1q179 0 179 329q0 115 -38 215q-53 131 -152 131q-78 0 -162 -75v-373z" />
<glyph unicode="q" horiz-adv-x="976" d="M57 498q0 205 68 356q90 203 270 203q113 0 240 -62v35h231v-1427h-231v534q-41 -63 -119 -114q-86 -55 -154 -56q-174 0 -249 191q-55 135 -56 340zM287 524q0 -329 175 -329h1q82 0 129 65q43 57 43 141v441q-72 28 -145 28h-5q-106 0 -159 -127q-39 -94 -39 -219z" />
<glyph unicode="r" horiz-adv-x="684" d="M119 0v1030h229v-135q121 170 250 170q20 0 31 -2v-244q-41 31 -97 31q-49 0 -107 -37t-77 -80v-733h-229z" />
<glyph unicode="s" horiz-adv-x="770" d="M66 49v187q168 -90 296 -91q57 0 94.5 35t37.5 90q0 70 -109 121q-174 84 -203 107q-108 85 -108 232q0 150 93 241.5t241 91.5q129 0 243 -88v-135q-47 20 -166 41h-10q-64 0 -115 -23q-71 -33 -71 -92q0 -78 108 -129q182 -84 203 -100q109 -80 109 -230 q0 -145 -94.5 -239.5t-239.5 -94.5q-182 0 -309 76z" />
<glyph unicode="t" horiz-adv-x="626" d="M31 868v97q154 68 217 288l123 25v-248h217v-162h-221v-508q0 -104 26 -153q33 -59 117 -60q31 0 96 13v-127q-88 -59 -205 -60q-264 0 -264 363v532h-106z" />
<glyph unicode="u" horiz-adv-x="989" d="M109 330v700h231v-622q0 -98 14 -142q23 -82 99 -82q98 0 184 82v764h229v-1030h-229v123q-53 -61 -127 -105q-84 -51 -152 -51q-133 0 -198 121q-51 94 -51 242z" />
<glyph unicode="v" horiz-adv-x="899" d="M18 1030h256l205 -727l234 727h170l-340 -1036h-193z" />
<glyph unicode="w" horiz-adv-x="1288" d="M18 1030h234l168 -719l174 719h178l168 -719l174 719h148l-263 -1036h-188l-168 649l-164 -649h-188z" />
<glyph unicode="x" horiz-adv-x="847" d="M6 0l295 508l-274 522h252l165 -346l199 346h182l-276 -485l285 -545h-246l-185 367l-208 -367h-189z" />
<glyph unicode="y" horiz-adv-x="899" d="M16 1036h256l209 -710l232 710h172l-502 -1517h-231l206 504z" />
<glyph unicode="z" horiz-adv-x="837" d="M76 0v186l422 670l-416 2v178h666v-192l-422 -668l432 -2v-174h-682z" />
<glyph unicode="{" horiz-adv-x="489" d="M82 639v12q70 33 70 121v604q0 115 129 115h143v-98q-76 0 -97.5 -20.5t-21.5 -94.5v-496q0 -49 -31.5 -87t-80.5 -46v-10q49 -6 80.5 -45t31.5 -90v-492q0 -74 21.5 -94t97.5 -20v-101h-143q-129 0 -129 117v602q0 90 -70 123z" />
<glyph unicode="|" horiz-adv-x="692" d="M313 -279v1885h66v-1885h-66z" />
<glyph unicode="}" horiz-adv-x="442" d="M45 -102q78 0 100.5 19.5t22.5 94.5v492q0 53 30.5 92t82.5 45v8q-49 8 -81 46t-32 89v494q0 76 -22.5 95.5t-100.5 19.5v98h148q129 0 129 -115v-604q0 -90 67 -121v-12q-68 -31 -67 -123v-602q0 -117 -129 -117h-148v101z" />
<glyph unicode="~" horiz-adv-x="921" d="M131 516v156q66 55 182 55q53 0 153.5 -34t151.5 -34q96 0 168 68v-154q-70 -55 -188 -55q-53 0 -152.5 33t-150.5 33q-106 0 -164 -68z" />
<glyph unicode="&#xa1;" horiz-adv-x="407" d="M82 891q0 57 35 104t92 47t93 -46t36 -105t-35 -103q-37 -49 -94 -49t-92 47.5t-35 104.5zM96 -301l49 905h136l45 -905h-230z" />
<glyph unicode="&#xa2;" horiz-adv-x="821" d="M51 526q0 219 92 365q109 172 314 172v100h67l-2 -104q111 -10 223 -86l-2 -174q-18 33 -100 57q-68 20 -119 23v-723h25q53 0 123 10q94 14 114 37v-119q-115 -96 -262 -109v-92h-67v92q-197 12 -310 189q-96 154 -96 362zM281 526q0 -111 41 -204q47 -111 135 -150v698 q-176 -47 -176 -344z" />
<glyph unicode="&#xa3;" horiz-adv-x="884" d="M111 180q29 33 59.5 68t42.5 71.5t18 251.5l-96 2v160l90 -2q-4 27 -4 133q4 467 293 467q152 0 289 -82l-53 -125q-49 39 -142 39q-164 0 -164 -219q0 -176 2 -211h199v-160l-205 -4q0 -33 -2 -55q-8 -98 -55 -171t-96 -142h6q23 0 71 9t72 9q29 0 86.5 -9t85.5 -9 q35 0 110 21.5t97 41.5v-227q-20 -14 -102 -27q-74 -10 -111 -10q-43 0 -129 10t-129 10q-147 0 -194 -36z" />
<glyph unicode="&#xa5;" horiz-adv-x="993" d="M25 1311h254l245 -572l267 572h186l-268 -572l151 -2v-96h-203l-49 -94v-86h252v-94l-252 -2v-365h-229v365l-273 2v94h271q-12 96 -55 180h-216v96l168 2z" />
<glyph unicode="&#xa6;" horiz-adv-x="489" d="M184 -33v602h121v-602h-121zM184 803v602h121v-602h-121z" />
<glyph unicode="&#xa7;" horiz-adv-x="821" d="M127 606q0 174 125 264q-125 82 -125 248q0 131 81 223.5t212 92.5q117 0 237 -68v-125q-84 51 -182 53q-76 0 -129 -34q-59 -43 -59 -117q0 -82 108 -133q184 -90 201 -103q109 -82 109 -237q0 -170 -127 -264q127 -80 127 -246q0 -139 -86.5 -230.5t-225.5 -91.5 q-141 0 -260 96v164q43 -47 120 -79.5t142 -32.5q63 0 104.5 42t41.5 105q0 84 -107 137q-188 92 -201 101q-106 82 -106 235zM287 629q0 -82 102 -131h6q63 0 104.5 42t41.5 105q0 88 -99 133q-156 -18 -155 -149z" />
<glyph unicode="&#xa8;" horiz-adv-x="675" d="M94 1284q0 43 26.5 75t67.5 32q43 0 69 -34t26 -77t-26 -74.5t-69 -31.5q-41 0 -67.5 33.5t-26.5 76.5zM391 1284q0 43 25.5 75t66.5 32t69 -34t28 -75q0 -43 -27 -75.5t-68 -32.5t-67.5 34.5t-26.5 75.5z" />
<glyph unicode="&#xa9;" horiz-adv-x="1587" d="M86 678q0 293 208 499.5t501 206.5t500.5 -206.5t207.5 -499.5t-208 -501t-500 -208q-293 0 -501 208t-208 501zM158 678q0 -264 186 -450.5t451 -186.5q262 0 449.5 187.5t187.5 449.5t-187.5 448.5t-449.5 186.5t-449.5 -186.5t-187.5 -448.5zM401 657q0 190 122 314.5 t313 126.5q35 0 101.5 -15.5t98.5 -15.5q39 0 47 31h39l15 -271l-41 -2q-27 96 -92 156q-72 61 -168 61q-135 0 -215 -135q-70 -115 -70 -260q0 -141 63 -229q74 -102 209 -103q170 0 281 125l43 -18q-135 -174 -338 -172q-182 0 -295 113.5t-113 293.5z" />
<glyph unicode="&#xaa;" horiz-adv-x="565" d="M23 934q0 121 106 170q68 31 215 41v33q0 39 -27.5 67.5t-66.5 28.5q-88 0 -162 -27l-4 60q94 66 186 65q135 0 185 -72q37 -53 37 -176v-71q-2 -49 -3 -74q0 -111 -2 -78q4 -59 31 -61v-49q-12 0 -48 -4.5t-54 -4.5q-47 0 -58 95h-2q-18 -43 -69 -73t-99 -30 q-70 0 -117.5 45t-47.5 115zM166 963q0 -90 70 -91q47 0 76.5 31t29.5 78v84q-98 -23 -109 -27q-68 -25 -67 -75z" />
<glyph unicode="&#xab;" horiz-adv-x="745" d="M57 565l207 357l121 -39l-123 -318l123 -321l-121 -37zM356 565l205 357l123 -39l-125 -318l125 -321l-123 -37z" />
<glyph unicode="&#xad;" horiz-adv-x="497" d="M70 469v195h356v-195h-356z" />
<glyph unicode="&#xae;" horiz-adv-x="1587" d="M86 672q0 293 207 500.5t500 207.5t500.5 -207.5t207.5 -500.5t-208 -500t-500 -207q-293 0 -500 207t-207 500zM158 672q0 -264 185 -450.5t450 -186.5q264 0 450.5 186.5t186.5 450.5t-186.5 450.5t-450.5 186.5t-449.5 -186.5t-185.5 -450.5zM422 279v32 q57 0 79.5 21.5t22.5 77.5v555q0 66 -14 83t-76 17v37h363q111 0 188 -53q90 -61 90 -168q0 -82 -57 -136.5t-144 -66.5l228 -305q43 -57 98 -60v-34h-190l-283 383h-65v-287q0 -61 108 -62v-34h-348zM659 707q281 27 281 170q0 156 -240 155q-27 0 -38 -2z" />
<glyph unicode="&#xaf;" horiz-adv-x="675" d="M98 1198v148h477v-148h-477z" />
<glyph unicode="&#xb0;" horiz-adv-x="657" d="M88 1214q0 102 72.5 174t173.5 72q98 0 169.5 -72.5t71.5 -170.5q0 -102 -69.5 -176t-171.5 -74t-174 72.5t-72 174.5zM156 1210q0 -74 52 -127t126 -53t124 54t50 130q0 72 -52.5 125.5t-123.5 53.5q-74 0 -125 -54.5t-51 -128.5z" />
<glyph unicode="&#xb2;" horiz-adv-x="485" d="M25 1114v117q92 96 208 96q102 0 164 -58.5t62 -154.5q0 -84 -45 -151q-25 -39 -98.5 -110t-102.5 -118h246v-147h-430v102q27 55 164 217q106 123 106 189q0 94 -92 94q-23 0 -82 -24.5t-100 -51.5z" />
<glyph unicode="&#xb3;" horiz-adv-x="485" d="M25 627v121q96 -47 180 -48q94 0 94 103q0 57 -54.5 90t-133.5 31v88q47 27 96 53q63 41 63 78q0 53 -65 53q-66 0 -166 -57v108q88 78 194 78q188 0 189 -178q0 -101 -84 -156q121 -61 121 -182q0 -102 -63.5 -171t-174.5 -69q-98 0 -196 58z" />
<glyph unicode="&#xb4;" horiz-adv-x="675" d="M225 1178l119 235h215l-237 -235h-97z" />
<glyph unicode="&#xb6;" horiz-adv-x="962" d="M49 1038q0 340 373 340q39 0 116.5 -3t114.5 -3t109 4t106 4v-22q-43 -25 -43 -121v-1262q0 -100 43 -120v-23l-141 6v1448h-70v-1448q-74 0 -151 -6v23q43 20 43 120v1311q-39 8 -88 8q-211 0 -211 -268q0 -133 63 -215q37 -47 117 -90q63 -35 64 -57q0 -37 -41 -37 q-29 0 -105 26q-299 104 -299 385z" />
<glyph unicode="&#xb7;" horiz-adv-x="432" d="M94 571q0 53 32 94.5t81 41.5q59 0 97 -51.5t38 -110.5q0 -53 -30.5 -92t-82.5 -39q-59 0 -97 49t-38 108z" />
<glyph unicode="&#xb8;" horiz-adv-x="739" d="M233 -252q2 0 29 -6q90 0 90 70q0 53 -63 86l63 100h74l-47 -82q78 -16 78 -106q0 -59 -42 -97.5t-102 -38.5q-59 0 -80 21v53z" />
<glyph unicode="&#xb9;" horiz-adv-x="485" d="M92 1073v105l195 131h106v-721h-155v549z" />
<glyph unicode="&#xba;" horiz-adv-x="616" d="M31 1077q0 295 276 295q131 0 206 -81t75 -214q0 -139 -72 -221t-209 -82q-135 0 -205.5 82t-70.5 221zM178 1075q0 -203 129 -203t129 203q0 188 -129 189q-129 0 -129 -189z" />
<glyph unicode="&#xbb;" horiz-adv-x="745" d="M59 246l125 319l-125 318l121 39l207 -357l-207 -358zM358 246l123 319l-123 318l121 39l207 -357l-207 -358z" />
<glyph unicode="&#xbc;" horiz-adv-x="1253" d="M117 1073v105l194 131h107v-721h-156v549zM172 -6l743 1356l121 -29l-743 -1358zM639 160v119l262 448h166v-434h70v-133h-70v-160h-156v160h-272zM795 293h116v209z" />
<glyph unicode="&#xbd;" horiz-adv-x="1253" d="M100 1073v105l195 131h106v-721h-155v549zM156 -6l743 1356l121 -29l-744 -1358zM719 526v117q92 96 209 96q102 0 163.5 -58t61.5 -155q0 -84 -45 -151q-25 -39 -98.5 -109.5t-102.5 -118.5h246v-147h-430v102q27 55 164 217q106 123 106 189q0 94 -92 94q-23 0 -80 -24 q-63 -25 -102 -52z" />
<glyph unicode="&#xbe;" horiz-adv-x="1253" d="M78 627v121q96 -47 180 -48q94 0 94 103q0 57 -54 90t-136 31v88q49 27 98 53q61 41 62 78q0 53 -64 53q-66 0 -166 -57v108q86 78 193 78q190 0 190 -178q0 -101 -84 -156q121 -61 121 -182q0 -102 -63.5 -171t-174.5 -69q-98 0 -196 58zM213 -6l743 1356l121 -29 l-743 -1358zM678 160v119l262 448h166v-434h70v-133h-70v-160h-156v160h-272zM836 293h114v209z" />
<glyph unicode="&#xbf;" horiz-adv-x="800" d="M82 8q0 125 72 223q68 76 135 152q76 86 82 170v90h196q2 -16 2 -49q0 -125 -69 -221q-63 -72 -127 -146q-70 -80 -70 -170t68 -141q59 -47 153 -47q145 0 199 47v-119q-123 -117 -291 -116q-150 0 -250 89t-100 238zM340 905q0 57 35 104.5t92 47.5t92 -47.5t35 -104.5 t-35 -104t-92 -47t-92 47t-35 104z" />
<glyph unicode="&#xc0;" horiz-adv-x="1048" d="M23 0l385 1319h221l385 -1319h-254l-98 352h-361l-104 -352h-174zM293 1681h215l119 -235h-97zM358 543h248l-123 483z" />
<glyph unicode="&#xc1;" horiz-adv-x="1048" d="M23 0l385 1319h221l385 -1319h-254l-98 352h-361l-104 -352h-174zM358 543h248l-123 483zM453 1446l118 235h215l-235 -235h-98z" />
<glyph unicode="&#xc2;" horiz-adv-x="1048" d="M23 0l385 1319h221l385 -1319h-254l-98 352h-361l-104 -352h-174zM311 1446l109 235h215l104 -235h-86l-129 145l-129 -145h-84zM358 543h248l-123 483z" />
<glyph unicode="&#xc3;" horiz-adv-x="1048" d="M23 0l385 1319h221l385 -1319h-254l-98 352h-361l-104 -352h-174zM279 1434v174q41 55 122 55q39 0 110 -35t97 -35q63 0 111 64v-174q-51 -51 -127 -51q-33 0 -102.5 32.5t-104.5 32.5q-70 0 -106 -63zM358 543h248l-123 483z" />
<glyph unicode="&#xc4;" horiz-adv-x="1048" d="M20 2l386 1319h221l385 -1319h-254l-99 352h-360l-104 -352h-175zM295 1550q0 43 26.5 76t67.5 33t67.5 -35t26.5 -76q0 -43 -26.5 -74.5t-67.5 -31.5q-43 0 -68.5 32.5t-25.5 75.5zM356 545h248l-123 483zM588 1550q0 41 27.5 76t68.5 35t67.5 -34t26.5 -77t-25.5 -74.5 t-68.5 -31.5q-41 0 -68.5 32.5t-27.5 73.5z" />
<glyph unicode="&#xc5;" horiz-adv-x="1048" d="M23 0l385 1319h221l385 -1319h-254l-98 352h-361l-104 -352h-174zM358 543h248l-123 483zM379 1604q0 63 38 113t99 50t98 -50t37 -113t-36.5 -114.5t-98.5 -51.5q-61 0 -99 51t-38 115zM451 1604q0 -86 65 -86q68 0 68 86q0 33 -18.5 58.5t-49.5 25.5t-48 -27t-17 -57z " />
<glyph unicode="&#xc6;" horiz-adv-x="1427" d="M-33 0l594 1311h789v-195h-476v-352l429 -2v-184h-429v-383l486 -2v-193h-717v352h-342l-160 -352h-174zM389 543h254v579z" />
<glyph unicode="&#xc7;" horiz-adv-x="970" d="M49 659q0 262 125 457q143 227 391 227q180 0 318 -86v-153q-154 59 -240 59q-188 0 -285 -172q-78 -139 -77 -344q0 -195 65 -323q84 -166 260 -166q168 0 318 57v-170q-156 -78 -363 -78h-10l-29 -51q78 -16 78 -106q0 -59 -42 -97.5t-101 -38.5t-80 21v53q2 0 29 -6 q90 0 90 70q0 53 -64 86q24 36 47 75q-205 39 -325 260q-104 190 -105 426z" />
<glyph unicode="&#xc8;" horiz-adv-x="899" d="M119 0v1311h706v-195h-477v-352l430 -2v-184h-430v-383l490 -2v-193h-719zM215 1681h211l123 -235h-96z" />
<glyph unicode="&#xc9;" horiz-adv-x="899" d="M119 0v1311h706v-195h-477v-352l430 -2v-184h-430v-383l490 -2v-193h-719zM395 1446l119 235h215l-237 -235h-97z" />
<glyph unicode="&#xca;" horiz-adv-x="899" d="M119 0v1311h706v-195h-477v-352l430 -2v-184h-430v-383l490 -2v-193h-719zM246 1446l104 235h219l103 -235h-84l-129 145l-131 -145h-82z" />
<glyph unicode="&#xcb;" horiz-adv-x="899" d="M115 2v1311h706v-195h-477v-352l430 -2v-184h-430v-383l490 -2v-193h-719zM215 1552q0 41 25.5 74t66.5 33t67.5 -34t26.5 -77t-26.5 -74.5t-69.5 -31.5q-41 0 -65.5 33.5t-24.5 76.5zM514 1550q0 43 25.5 76t66.5 33q43 0 68.5 -34t25.5 -77t-26.5 -73.5t-67.5 -30.5 t-66.5 32.5t-25.5 73.5z" />
<glyph unicode="&#xcc;" horiz-adv-x="464" d="M-4 1681h213l119 -235h-97zM119 0v1311h229v-1311h-229z" />
<glyph unicode="&#xcd;" horiz-adv-x="464" d="M119 0v1311h229v-1311h-229zM141 1446l121 235h215l-239 -235h-97z" />
<glyph unicode="&#xce;" horiz-adv-x="464" d="M25 1446l106 235h217l105 -235h-86l-129 145l-129 -145h-84zM119 0v1311h229v-1311h-229z" />
<glyph unicode="&#xcf;" horiz-adv-x="464" d="M-16 1550q0 41 27.5 76t68.5 35t67.5 -35t26.5 -78t-26.5 -74.5t-69.5 -31.5q-41 0 -67.5 33.5t-26.5 74.5zM119 0v1311h229v-1311h-229zM283 1550q0 43 25.5 76t66.5 33t67.5 -34t26.5 -77q0 -41 -26.5 -72.5t-67.5 -31.5t-66.5 32.5t-25.5 73.5z" />
<glyph unicode="&#xd0;" horiz-adv-x="1116" d="M70 551v194h49v566h489q217 0 344 -207q106 -174 107 -406q0 -270 -123 -467q-143 -231 -397 -231h-420v551h-49zM348 205q123 -10 150 -10q176 0 260 170q66 131 65 325q0 168 -73 289q-88 139 -248 139q-29 0 -76 -4q-61 -4 -78 -4v-365h78v-194h-78v-346z" />
<glyph unicode="&#xd1;" horiz-adv-x="1095" d="M121 0v1311h239l431 -928v928h188v-1315h-229l-441 954v-950h-188zM303 1434l2 174q39 55 121 55q39 0 109.5 -35t95.5 -35q66 0 112 64v-174q-41 -51 -125 -51q-31 0 -100 32.5t-102 32.5q-72 0 -113 -63z" />
<glyph unicode="&#xd2;" horiz-adv-x="1128" d="M51 645q0 264 123 463q143 236 391 235q258 0 396 -231q114 -191 114 -467q0 -264 -119 -455q-141 -223 -391 -223q-252 0 -393 221q-121 190 -121 457zM285 662q0 -188 51 -320q72 -184 229 -184q156 0 228 186q49 132 49 318q0 184 -49 307q-72 176 -228 176t-229 -174 q-51 -125 -51 -309zM336 1681h213l119 -235h-97z" />
<glyph unicode="&#xd3;" horiz-adv-x="1128" d="M51 645q0 264 123 463q143 236 391 235q258 0 396 -231q114 -191 114 -467q0 -264 -119 -455q-141 -223 -391 -223q-252 0 -393 221q-121 190 -121 457zM285 662q0 -188 51 -320q72 -184 229 -184q156 0 228 186q49 132 49 318q0 184 -49 307q-72 176 -228 176t-229 -174 q-51 -125 -51 -309zM496 1446l118 235h215l-237 -235h-96z" />
<glyph unicode="&#xd4;" horiz-adv-x="1128" d="M51 645q0 264 123 463q143 236 391 235q258 0 396 -231q114 -191 114 -467q0 -264 -119 -455q-141 -223 -391 -223q-252 0 -393 221q-121 190 -121 457zM285 662q0 -188 51 -320q72 -184 229 -184q156 0 228 186q49 132 49 318q0 184 -49 307q-72 176 -228 176t-229 -174 q-51 -125 -51 -309zM356 1446l105 235h219l100 -235h-84l-127 145l-131 -145h-82z" />
<glyph unicode="&#xd5;" horiz-adv-x="1128" d="M51 645q0 264 123 463q143 236 391 235q258 0 396 -231q114 -191 114 -467q0 -264 -119 -455q-141 -223 -391 -223q-252 0 -393 221q-121 190 -121 457zM285 662q0 -188 51 -320q72 -184 229 -184q156 0 228 186q49 132 49 318q0 184 -49 307q-72 176 -228 176t-229 -174 q-51 -125 -51 -309zM342 1434v174q45 55 123 55q39 0 110.5 -35t98.5 -35q68 0 110 64v-174q-47 -51 -125 -51q-35 0 -102.5 32.5t-103.5 32.5q-70 0 -111 -63z" />
<glyph unicode="&#xd6;" horiz-adv-x="1128" d="M49 645q0 264 123 463q143 236 391 235q258 0 395 -231q115 -191 115 -467q0 -264 -119 -455q-141 -223 -391 -223q-252 0 -393 221q-121 190 -121 457zM283 662q0 -188 51 -320q72 -184 229 -184q156 0 228 186q49 132 49 318q0 184 -49 307q-72 176 -228 176t-229 -174 q-51 -125 -51 -309zM338 1550q0 43 25.5 76t66.5 33t67.5 -34t26.5 -75q0 -43 -26.5 -75.5t-67.5 -32.5t-66.5 33.5t-25.5 74.5zM635 1548q0 43 26.5 77t65.5 34q43 0 68.5 -35t25.5 -78q0 -41 -26.5 -72.5t-65.5 -31.5q-41 0 -67.5 32.5t-26.5 73.5z" />
<glyph unicode="&#xd7;" horiz-adv-x="1024" d="M133 102l301 306l-301 301l76 79l303 -303l305 308l76 -78l-303 -307l303 -306l-76 -79l-305 307l-303 -307z" />
<glyph unicode="&#xd8;" horiz-adv-x="1128" d="M51 645q0 264 121 463q143 236 391 235q139 0 244 -71q16 43 70 145l92 -45l-82 -162q188 -190 188 -565q0 -264 -119 -455q-141 -223 -391 -223q-143 0 -254 80l-69 -147l-90 49l79 160q-180 195 -180 536zM285 662q0 -211 59 -343l367 766q-55 59 -146 60 q-156 0 -229 -174q-51 -125 -51 -309zM410 229q61 -72 157 -71q156 0 228 186q49 132 49 318q0 207 -64 339z" />
<glyph unicode="&#xd9;" horiz-adv-x="1083" d="M115 508v803h229v-768q0 -178 27 -254q45 -137 188 -137t186 129q23 66 23 247v783h201v-791q0 -553 -420 -553q-434 0 -434 541zM311 1681h213l121 -235h-96z" />
<glyph unicode="&#xda;" horiz-adv-x="1083" d="M115 508v803h229v-768q0 -178 27 -254q45 -137 188 -137t186 129q23 66 23 247v783h201v-791q0 -553 -420 -553q-434 0 -434 541zM471 1446l121 235h213l-236 -235h-98z" />
<glyph unicode="&#xdb;" horiz-adv-x="1083" d="M115 508v803h229v-768q0 -178 27 -254q45 -137 188 -137t186 129q23 66 23 247v783h201v-791q0 -553 -420 -553q-434 0 -434 541zM342 1446l109 235h217l100 -235h-84l-127 145l-131 -145h-84z" />
<glyph unicode="&#xdc;" horiz-adv-x="1083" d="M115 508v803h229v-768q0 -178 27 -254q45 -137 188 -137t186 129q23 66 23 247v783h201v-791q0 -553 -420 -553q-434 0 -434 541zM315 1552q0 41 26 74t67 33t67.5 -34t26.5 -77t-25.5 -75.5t-68.5 -32.5q-41 0 -67 33.5t-26 78.5zM608 1552q0 43 27 75t67 32 q41 0 68 -33t27 -76t-26 -75.5t-66 -32.5q-41 0 -69 33.5t-28 76.5z" />
<glyph unicode="&#xdd;" horiz-adv-x="993" d="M25 1311h254l245 -574l267 574h186l-369 -764v-547h-229v518zM449 1446l120 235h215l-239 -235h-96z" />
<glyph unicode="&#xde;" horiz-adv-x="952" d="M119 0v1311h229v-246h221q170 0 256 -111q78 -100 78 -274q0 -190 -118.5 -317t-307.5 -127h-129v-236h-229zM348 424q14 0 64 -4q41 -4 63 -4q90 0 148 82q49 74 49 168q0 109 -44 157.5t-151 48.5q-43 0 -129 -8v-440z" />
<glyph unicode="&#xdf;" horiz-adv-x="958" d="M119 0v932q0 193 84 319q98 145 280 146q143 0 236 -70q98 -76 98 -215q0 -84 -59 -162q-16 -25 -107 -114q-59 -57 -59 -95q0 -29 86 -88q117 -80 162 -129q86 -96 86 -211q0 -137 -76 -233q-82 -104 -215 -105q-57 0 -191 60v127q18 0 58.5 -10.5t62.5 -10.5 q72 0 116 51.5t44 122.5q0 80 -74 148q-70 53 -139 106q-74 68 -74 154q0 94 87 172t87 168q0 61 -33.5 102t-95.5 41q-135 0 -135 -258v-948h-229z" />
<glyph unicode="&#xe0;" horiz-adv-x="876" d="M41 266q0 213 147 303q113 70 347 80v62q0 78 -41 127t-115 49q-141 0 -258 -47v114q152 109 301 109q154 0 246 -86t92 -238v-393q0 -231 18 -248q6 -6 27 -6v-92q-160 -12 -158 -12q-53 0 -74 59q-2 8 -18 105q-45 -72 -113 -121q-76 -57 -149 -58q-115 0 -187 90 q-66 84 -65 203zM209 1395h213l119 -234h-97zM260 297q0 -59 27 -102q29 -49 86 -50q72 0 121 74q41 63 41 139v148q-109 -8 -183 -53q-92 -57 -92 -156z" />
<glyph unicode="&#xe1;" horiz-adv-x="876" d="M41 266q0 213 147 303q113 70 347 80v62q0 78 -41 127t-115 49q-141 0 -258 -47v114q152 109 301 109q154 0 246 -86t92 -238v-393q0 -231 18 -248q6 -6 27 -6v-92q-160 -12 -158 -12q-53 0 -74 59q-2 8 -18 105q-45 -72 -113 -121q-76 -57 -149 -58q-115 0 -187 90 q-66 84 -65 203zM260 297q0 -59 27 -102q29 -49 86 -50q72 0 121 74q41 63 41 139v148q-109 -8 -183 -53q-92 -57 -92 -156zM379 1161l119 234h215l-236 -234h-98z" />
<glyph unicode="&#xe2;" horiz-adv-x="876" d="M41 266q0 213 147 303q113 70 347 80v62q0 78 -41 127t-115 49q-141 0 -258 -47v114q152 109 301 109q154 0 246 -86t92 -238v-393q0 -231 18 -248q6 -6 27 -6v-92q-160 -12 -158 -12q-53 0 -74 59q-2 8 -18 105q-45 -72 -113 -121q-76 -57 -149 -58q-115 0 -187 90 q-66 84 -65 203zM231 1161l107 234h217l102 -234h-84l-129 146l-131 -146h-82zM260 297q0 -59 27 -102q29 -49 86 -50q72 0 121 74q41 63 41 139v148q-109 -8 -183 -53q-92 -57 -92 -156z" />
<glyph unicode="&#xe3;" horiz-adv-x="876" d="M41 266q0 213 147 303q113 70 347 80v62q0 78 -41 127t-115 49q-141 0 -258 -47v114q152 109 301 109q154 0 246 -86t92 -238v-393q0 -231 18 -248q6 -6 27 -6v-92q-160 -12 -158 -12q-53 0 -74 59q-2 8 -18 105q-45 -72 -113 -121q-76 -57 -149 -58q-115 0 -187 90 q-66 84 -65 203zM221 1149v174q41 53 123 53q37 0 108.5 -34.5t98.5 -34.5q63 0 111 63v-172q-51 -51 -127 -51q-33 0 -103 32.5t-104 32.5q-70 0 -107 -63zM260 297q0 -59 27 -102q29 -49 86 -50q72 0 121 74q41 63 41 139v148q-109 -8 -183 -53q-92 -57 -92 -156z" />
<glyph unicode="&#xe4;" horiz-adv-x="876" d="M39 266q0 213 147 303q113 70 346 80v62q0 78 -40.5 127t-114.5 49q-141 0 -258 -47v114q152 109 301 109q154 0 246 -86t92 -238v-393q0 -231 18 -248q6 -6 27 -6v-92q-160 -12 -158 -12q-53 0 -74 59q-2 8 -18 105q-45 -72 -113 -121q-76 -57 -149 -58q-115 0 -187 90 q-66 84 -65 203zM201 1268q0 43 26.5 75.5t67.5 32.5q43 0 68.5 -33.5t25.5 -76.5t-25.5 -75t-68.5 -32t-68.5 33t-25.5 76zM258 297q0 -59 27 -102q29 -49 86 -50q72 0 121 74q40 63 40 139v148q-109 -8 -182 -53q-92 -57 -92 -156zM500 1266q0 43 26.5 75.5t67.5 32.5 t67.5 -34.5t26.5 -77.5q0 -41 -27.5 -73t-66.5 -32q-41 0 -67.5 34t-26.5 75z" />
<glyph unicode="&#xe5;" horiz-adv-x="876" d="M41 266q0 213 147 303q113 70 347 80v62q0 78 -41 127t-115 49q-141 0 -258 -47v114q152 109 301 109q154 0 246 -86t92 -238v-393q0 -231 18 -248q6 -6 27 -6v-92q-160 -12 -158 -12q-53 0 -74 59q-2 8 -18 105q-45 -72 -113 -121q-76 -57 -149 -58q-115 0 -187 90 q-66 84 -65 203zM260 297q0 -59 27 -102q29 -49 86 -50q72 0 121 74q41 63 41 139v148q-109 -8 -183 -53q-92 -57 -92 -156zM307 1337q0 63 38 114.5t99 51.5t98.5 -51.5t37.5 -114.5t-37 -114.5t-99 -51.5q-61 0 -99 51.5t-38 114.5zM377 1337q0 -31 17.5 -58.5t47.5 -27.5 q31 0 48.5 27.5t17.5 58.5t-17.5 57.5t-48.5 26.5t-48 -26.5t-17 -57.5z" />
<glyph unicode="&#xe6;" horiz-adv-x="1351" d="M41 266q0 213 147 303q113 70 347 80v62q0 78 -43 127t-119 49q-135 0 -252 -47l-2 114q111 61 143 76q80 33 160 33q168 0 260 -107q102 106 256 107q193 0 287 -178q74 -139 73 -350q0 -23 -4 -72h-530q4 -133 82 -220t194 -87q128 0 232 47v-160q-121 -70 -303 -70 q-223 0 -340 201q-49 -72 -150 -133q-106 -68 -186 -68q-115 0 -187 90q-66 84 -65 203zM260 322q0 -174 115 -175q49 0 112 43q55 39 88 84q-37 100 -43 232q-145 -35 -174 -49q-98 -45 -98 -135zM764 633h346q-4 98 -39 166q-45 90 -131 90q-78 0 -129 -92 q-41 -76 -47 -164z" />
<glyph unicode="&#xe7;" horiz-adv-x="821" d="M51 526q0 213 103 363q117 174 321 174q133 0 270 -88v-135q-94 39 -206 39q-135 0 -203 -117q-55 -92 -55 -236q0 -143 63 -243q74 -119 211 -127q111 -6 231 47v-160q-117 -66 -292 -70l-33 -57q78 -16 78 -106q0 -59 -42 -97.5t-102 -38.5q-59 0 -80 21v53q2 0 29 -6 q90 0 90 70q0 53 -63 86l51 79q-180 27 -281 197q-90 152 -90 352z" />
<glyph unicode="&#xe8;" horiz-adv-x="886" d="M51 526q0 219 90 365q109 172 314 172q193 0 286 -178q74 -139 74 -350q0 2 -6 -72h-528q6 -303 278 -307q123 -2 232 47v-160q-121 -70 -304 -70q-209 0 -329 179q-106 156 -107 374zM215 1395h213l121 -234h-96zM281 633h346q-4 98 -39 166q-47 90 -133 90 q-80 0 -129 -92q-41 -74 -45 -164z" />
<glyph unicode="&#xe9;" horiz-adv-x="886" d="M51 526q0 219 90 365q109 172 314 172q193 0 286 -178q74 -139 74 -350q0 2 -6 -72h-528q6 -303 278 -307q123 -2 232 47v-160q-121 -70 -304 -70q-209 0 -329 179q-106 156 -107 374zM281 633h346q-4 98 -39 166q-47 90 -133 90q-80 0 -129 -92q-41 -74 -45 -164z M387 1161l117 234h217l-238 -234h-96z" />
<glyph unicode="&#xea;" horiz-adv-x="886" d="M51 526q0 219 90 365q109 172 314 172q193 0 286 -178q74 -139 74 -350q0 2 -6 -72h-528q6 -303 278 -307q123 -2 232 47v-160q-121 -70 -304 -70q-209 0 -329 179q-106 156 -107 374zM238 1161l108 234h215l105 -234h-86l-127 146l-129 -146h-86zM281 633h346 q-4 98 -39 166q-47 90 -133 90q-80 0 -129 -92q-41 -74 -45 -164z" />
<glyph unicode="&#xeb;" horiz-adv-x="886" d="M51 526q0 219 90 365q109 172 314 172q193 0 286 -178q74 -139 74 -350q0 2 -6 -72h-528q6 -303 278 -307q123 -2 232 47v-160q-121 -70 -304 -70q-209 0 -329 179q-106 156 -107 374zM209 1266q0 41 26.5 75.5t67.5 34.5t66.5 -34.5t25.5 -77.5t-24.5 -75t-65.5 -32 t-68.5 34t-27.5 75zM281 633h346q-4 98 -39 166q-47 90 -133 90q-80 0 -129 -92q-41 -74 -45 -164zM506 1266q0 43 26.5 75.5t67.5 32.5t67.5 -33.5t26.5 -74.5q0 -43 -25.5 -76t-66.5 -33q-43 0 -69.5 34t-26.5 75z" />
<glyph unicode="&#xec;" horiz-adv-x="458" d="M16 1395h213l119 -234h-96zM119 0v1030h229v-1030h-229z" />
<glyph unicode="&#xed;" horiz-adv-x="458" d="M119 0v1030h229v-1030h-229zM123 1161l121 234h215l-238 -234h-98z" />
<glyph unicode="&#xee;" horiz-adv-x="458" d="M20 1161l109 234h217l100 -234h-84l-126 146l-130 -146h-86zM119 0v1030h229v-1030h-229z" />
<glyph unicode="&#xef;" horiz-adv-x="458" d="M-18 1264q0 41 26.5 74.5t67.5 33.5t66.5 -33.5t25.5 -74.5q0 -43 -25.5 -76t-68.5 -33q-39 0 -65.5 34t-26.5 75zM119 -2v1030h229v-1030h-229zM276 1266q0 43 27 75.5t68 32.5t67.5 -33.5t26.5 -74.5q0 -43 -25.5 -77t-66.5 -34q-43 0 -70 34t-27 77z" />
<glyph unicode="&#xf0;" horiz-adv-x="960" d="M53 526q0 238 92 375q109 162 334 162q26 0 51 -2q-88 129 -215 201l-53 -86l-84 51l53 82q-37 16 -90 26l33 72q59 -8 109 -21l45 68l86 -33l-39 -63q260 -94 399 -328q131 -217 131 -504q0 -238 -92 -381q-111 -172 -334 -172t-334 172q-92 143 -92 381zM281 522 q0 -137 34 -235q51 -141 164 -142q113 0 166 142q35 98 35 235q0 131 -37 226q-53 131 -164 131q-113 0 -164 -131q-35 -92 -34 -226z" />
<glyph unicode="&#xf1;" horiz-adv-x="989" d="M119 0v1030h229v-102q139 135 281 135q133 0 198 -121q51 -96 52 -242v-700h-232v623q0 233 -112 233q-96 0 -187 -72v-784h-229zM303 1149v174q47 53 123 53q39 0 109.5 -34.5t97.5 -34.5q66 0 112 63v-172q-47 -51 -127 -51q-31 0 -101.5 32.5t-102.5 32.5 q-70 0 -111 -63z" />
<glyph unicode="&#xf2;" horiz-adv-x="960" d="M53 526q0 236 92 375q109 162 334 162q217 0 330 -166q96 -144 96 -371q0 -238 -92 -381q-111 -172 -334 -172t-334 172q-92 143 -92 381zM254 1395h213l121 -234h-96zM281 522q0 -137 34 -235q51 -141 164 -142q113 0 166 142q35 98 35 235q0 131 -37 226 q-53 131 -164 131q-113 0 -164 -131q-35 -92 -34 -226z" />
<glyph unicode="&#xf3;" horiz-adv-x="960" d="M53 526q0 236 92 375q109 162 334 162q217 0 330 -166q96 -144 96 -371q0 -238 -92 -381q-111 -172 -334 -172t-334 172q-92 143 -92 381zM281 522q0 -137 34 -235q51 -141 164 -142q113 0 166 142q35 98 35 235q0 131 -37 226q-53 131 -164 131q-113 0 -164 -131 q-35 -92 -34 -226zM426 1161l121 234h213l-238 -234h-96z" />
<glyph unicode="&#xf4;" horiz-adv-x="960" d="M53 526q0 236 92 375q109 162 334 162q217 0 330 -166q96 -144 96 -371q0 -238 -92 -381q-111 -172 -334 -172t-334 172q-92 143 -92 381zM266 1161l109 234h215l102 -234h-84l-127 146l-131 -146h-84zM281 522q0 -137 34 -235q51 -141 164 -142q113 0 166 142 q35 98 35 235q0 131 -37 226q-53 131 -164 131q-113 0 -164 -131q-35 -92 -34 -226z" />
<glyph unicode="&#xf5;" horiz-adv-x="960" d="M53 526q0 236 92 375q109 162 334 162q217 0 330 -166q96 -144 96 -371q0 -238 -92 -381q-111 -172 -334 -172t-334 172q-92 143 -92 381zM266 1149v174q43 53 123 53q39 0 109.5 -34.5t95.5 -34.5q66 0 113 63v-172q-47 -51 -125 -51q-33 0 -102.5 32.5t-104.5 32.5 q-72 0 -109 -63zM281 522q0 -137 34 -235q51 -141 164 -142q113 0 166 142q35 98 35 235q0 131 -37 226q-53 131 -164 131q-113 0 -164 -131q-35 -92 -34 -226z" />
<glyph unicode="&#xf6;" horiz-adv-x="960" d="M53 526q0 236 92 375q109 162 334 162q217 0 330 -166q96 -144 96 -371q0 -238 -92 -381q-111 -172 -334 -172t-334 172q-92 143 -92 381zM248 1266q0 41 26.5 75.5t67.5 34.5t66.5 -34.5t25.5 -77.5t-24.5 -75t-65.5 -32t-68.5 34t-27.5 75zM281 522q0 -137 34 -235 q51 -141 164 -142q113 0 166 142q35 98 35 235q0 131 -37 226q-53 131 -164 131q-113 0 -164 -131q-35 -92 -34 -226zM545 1266q0 43 26.5 75.5t67.5 32.5t67.5 -32.5t26.5 -75.5t-25.5 -77t-66.5 -34q-43 0 -69.5 34t-26.5 77z" />
<glyph unicode="&#xf8;" horiz-adv-x="960" d="M53 526q0 238 92 375q111 162 336 162q117 0 211 -57l66 120l76 -36l-72 -132q143 -141 143 -432q0 -238 -92 -381q-111 -172 -336 -172q-102 0 -184 41l-66 -137l-75 37l71 143q-170 139 -170 469zM281 522q0 -172 47 -268l268 565q-47 59 -117 60q-113 0 -164 -131 q-35 -92 -34 -226zM383 184q37 -39 96 -39q113 0 166 142q35 98 35 235q0 125 -33 217z" />
<glyph unicode="&#xf9;" horiz-adv-x="989" d="M109 330v700h231v-622q0 -98 14 -142q23 -82 99 -82q98 0 184 82v764h229v-1030h-229v123q-53 -61 -127 -105q-84 -51 -152 -51q-133 0 -198 121q-51 94 -51 242zM223 1413h213l119 -235h-96z" />
<glyph unicode="&#xfa;" horiz-adv-x="989" d="M109 330v700h231v-622q0 -98 14 -142q23 -82 99 -82q98 0 184 82v764h229v-1030h-229v123q-53 -61 -127 -105q-84 -51 -152 -51q-133 0 -198 121q-51 94 -51 242zM418 1161l119 234h215l-238 -234h-96z" />
<glyph unicode="&#xfb;" horiz-adv-x="989" d="M109 330v700h231v-622q0 -98 14 -142q23 -82 99 -82q98 0 184 82v764h229v-1030h-229v123q-53 -61 -127 -105q-84 -51 -152 -51q-133 0 -198 121q-51 94 -51 242zM291 1178l108 235h217l103 -235h-86l-125 147l-131 -147h-86z" />
<glyph unicode="&#xfc;" horiz-adv-x="989" d="M106 330v700h232v-622q0 -98 14 -142q23 -82 99 -82q98 0 184 82v764h229v-1030h-229v123q-53 -61 -127 -105q-84 -51 -152 -51q-133 0 -198 121q-51 94 -52 242zM264 1284q0 43 24.5 75t65.5 32q43 0 70 -34t27 -75q0 -43 -26 -75.5t-69 -32.5q-41 0 -66.5 34.5 t-25.5 75.5zM559 1286q0 41 25.5 73t66.5 32t69 -34t28 -75q0 -43 -26 -75.5t-67 -32.5q-43 0 -69.5 34.5t-26.5 77.5z" />
<glyph unicode="&#xfd;" horiz-adv-x="899" d="M16 1036h256l209 -710l232 710h172l-502 -1517h-231l206 504zM430 1178l119 235h215l-238 -235h-96z" />
<glyph unicode="&#xfe;" horiz-adv-x="983" d="M117 -397v1824h231v-493q139 123 268 123q176 0 254 -189q56 -135 56 -342t-68 -358q-88 -201 -268 -201q-74 0 -145.5 46t-96.5 114v-524h-231zM348 422q0 -88 41 -152q49 -76 131 -75q180 -1 180 329q0 115 -38 215q-53 131 -152 131q-78 0 -162 -75v-373z" />
<glyph unicode="&#xff;" horiz-adv-x="899" d="M14 1036h256l209 -710l232 710h172l-502 -1517h-231l206 504zM217 1284q0 41 24.5 74t67.5 33q41 0 67.5 -34t26.5 -75q0 -43 -26.5 -75.5t-69.5 -32.5q-41 0 -65.5 34.5t-24.5 75.5zM512 1284q0 43 25.5 75t64.5 32q43 0 70.5 -34t27.5 -75q0 -43 -26.5 -75.5 t-67.5 -32.5t-67.5 33.5t-26.5 76.5z" />
<glyph unicode="&#x152;" horiz-adv-x="1589" d="M51 645q0 264 123 463q143 236 391 235q141 0 252 -65v33h707v-195h-475v-352l428 -2v-184h-428v-383l485 -2v-193h-717v35q-113 -68 -252 -68q-252 0 -393 221q-121 190 -121 457zM285 662q0 -188 51 -320q72 -184 229 -184q256 0 256 504q0 483 -256 483 q-156 0 -229 -174q-51 -125 -51 -309z" />
<glyph unicode="&#x153;" horiz-adv-x="1492" d="M53 526q0 236 92 375q109 162 334 162q199 0 312 -150q109 150 292 150q195 0 287 -176q72 -137 72 -352v-35q-2 -25 -2 -37h-531q10 -309 277 -307q127 0 229 47v-160q-121 -70 -303 -70q-190 0 -309 162q-111 -162 -324 -162q-223 0 -334 172q-92 143 -92 381zM281 524 q0 -137 34 -235q51 -141 164 -142q113 0 166 142q35 98 35 235q0 131 -37 226q-53 131 -164 131q-113 0 -164 -131q-35 -92 -34 -226zM911 633h344q-2 98 -36 168q-45 88 -134 88q-80 0 -129 -92q-41 -76 -45 -164z" />
<glyph unicode="&#x178;" horiz-adv-x="993" d="M25 1307h254l245 -574l267 574h186l-369 -764v-547h-229v518zM266 1548q0 43 25.5 77t68.5 34q41 0 67 -34t26 -77t-26 -75.5t-69 -32.5q-41 0 -66.5 33.5t-25.5 74.5zM561 1552q0 43 26.5 75t67.5 32t68 -34t27 -75q0 -43 -26 -75.5t-69 -32.5q-41 0 -67.5 33.5 t-26.5 76.5z" />
<glyph unicode="&#x2c6;" horiz-adv-x="675" d="M123 1178l108 235h215l105 -235h-86l-125 147l-131 -147h-86z" />
<glyph unicode="&#x2dc;" horiz-adv-x="604" d="M78 1167v172q43 55 125 56q39 0 108.5 -35t94.5 -35q66 0 112 64v-172q-47 -51 -125 -52q-35 0 -102.5 33t-104.5 33q-72 0 -108 -64z" />
<glyph unicode="&#x2000;" horiz-adv-x="883" />
<glyph unicode="&#x2001;" horiz-adv-x="1767" />
<glyph unicode="&#x2002;" horiz-adv-x="883" />
<glyph unicode="&#x2003;" horiz-adv-x="1767" />
<glyph unicode="&#x2004;" horiz-adv-x="589" />
<glyph unicode="&#x2005;" horiz-adv-x="441" />
<glyph unicode="&#x2006;" horiz-adv-x="294" />
<glyph unicode="&#x2007;" horiz-adv-x="294" />
<glyph unicode="&#x2008;" horiz-adv-x="220" />
<glyph unicode="&#x2009;" horiz-adv-x="353" />
<glyph unicode="&#x200a;" horiz-adv-x="98" />
<glyph unicode="&#x2010;" horiz-adv-x="497" d="M70 469v195h356v-195h-356z" />
<glyph unicode="&#x2011;" horiz-adv-x="497" d="M70 469v195h356v-195h-356z" />
<glyph unicode="&#x2012;" horiz-adv-x="497" d="M70 469v195h356v-195h-356z" />
<glyph unicode="&#x2013;" horiz-adv-x="759" d="M-8 469v190h774v-190h-774z" />
<glyph unicode="&#x2014;" horiz-adv-x="1452" d="M-8 469v190h1466v-190h-1466z" />
<glyph unicode="&#x2018;" horiz-adv-x="374" d="M70 944q0 215 41 334q18 55 82 160l77 -41q-41 -147 -41 -238q1 -41 52 -215h-211z" />
<glyph unicode="&#x2019;" horiz-adv-x="374" d="M98 1436h211q-4 -223 -41 -334q-18 -55 -82 -160l-80 41q41 160 41 236q0 43 -20 110q-25 78 -29 107z" />
<glyph unicode="&#x201a;" horiz-adv-x="432" d="M115 231h211q0 -215 -41 -333q-29 -53 -82 -160l-80 43q2 29 24 110q18 72 19 123q0 45 -21 111q-27 86 -30 106z" />
<glyph unicode="&#x201c;" horiz-adv-x="667" d="M70 942q0 158 22 256q27 117 101 240l77 -41q-41 -147 -41 -236q0 -35 9 -74q6 -29 20 -71q19 -60 23 -72zM362 946q0 158 23 254q27 117 100 240l80 -43q-43 -141 -43 -236q0 -45 21 -108q28 -99 30 -109z" />
<glyph unicode="&#x201d;" horiz-adv-x="667" d="M100 1440h211q0 -215 -41 -334q-29 -53 -82 -162l-77 43q41 160 41 236q0 35 -9 73q-6 29 -20 72q-18 59 -23 72zM395 1440h211q0 -219 -41 -334q-29 -51 -84 -160l-78 41q41 160 41 236q0 45 -18 110q-29 92 -31 107z" />
<glyph unicode="&#x201e;" horiz-adv-x="714" d="M121 231h211q0 -215 -41 -333q-10 -27 -82 -162l-80 43q14 59 29 117q14 68 14 118q0 43 -22 111q-25 78 -29 106zM401 231h211q0 -215 -41 -333q-29 -53 -82 -160l-79 43q2 29 24 110q18 72 19 123q0 45 -21 111q-27 86 -31 106z" />
<glyph unicode="&#x2022;" horiz-adv-x="843" d="M145 623q0 127 72 225q80 106 203 106t203 -106q71 -98 71 -225q0 -129 -71 -226q-80 -109 -203 -108q-123 0 -203 108q-72 98 -72 226z" />
<glyph unicode="&#x2026;" horiz-adv-x="1452" d="M92 119q0 59 34 105t91 46t93 -46t36 -105t-35 -103q-37 -49 -94 -49t-92 49q-33 43 -33 103zM586 119q0 57 34.5 104t92.5 47q57 0 93 -46t36 -105t-35 -103q-37 -49 -94 -49t-92 47t-35 105zM1073 119q0 57 35 104t92 47t92 -47t35 -104t-35 -104.5t-92 -47.5t-92 47 t-35 105z" />
<glyph unicode="&#x202f;" horiz-adv-x="353" />
<glyph unicode="&#x2039;" horiz-adv-x="452" d="M59 565l207 357l123 -39l-127 -318l127 -321l-123 -37z" />
<glyph unicode="&#x203a;" horiz-adv-x="452" d="M61 246l127 319l-127 318l123 39l205 -357l-205 -358z" />
<glyph unicode="&#x205f;" horiz-adv-x="441" />
<glyph unicode="&#x20ac;" d="M35 516l22 86h54v62v36h-76l24 86h58q23 242 121 392q113 166 297 165q133 0 270 -88v-135q-94 39 -207 39q-219 0 -254 -373h356l-24 -86h-336v-36v-62h309l-22 -86h-279q41 -346 266 -360q111 -6 232 47v-160q-121 -70 -303 -70q-377 0 -426 543h-82z" />
<glyph unicode="&#x2122;" horiz-adv-x="1914" d="M33 1167l14 199h688l15 -199l-33 -2q-6 102 -84 133q-41 14 -170 17v-608q0 -57 22.5 -76t81.5 -21v-37h-350v37q59 4 80.5 21.5t21.5 73.5v610q-129 -2 -167 -17q-74 -29 -84 -133zM815 1329v37h258l273 -580l262 580h254v-37q-59 0 -80 -14q-27 -20 -27 -78v-530 q0 -59 22.5 -77t84.5 -20v-37h-363v37q63 2 84 17q29 18 29 78v528l-291 -660h-35l-299 639l-2 -505q0 -68 27 -84q20 -12 90 -13v-37h-285v37q59 0 80 15q29 20 29 80v520q0 68 -20.5 86t-90.5 18z" />
<glyph unicode="&#x25fc;" horiz-adv-x="1034" d="M0 0v1034h1034v-1034h-1034z" />
</font>
</defs>
</svg>
