<?xml version="1.0" standalone="no"?>
<!DOCTYPE svg PUBLIC "-//W3C//DTD SVG 1.1//EN" "http://www.w3.org/Graphics/SVG/1.1/DTD/svg11.dtd" >
<svg xmlns="http://www.w3.org/2000/svg" xmlns:xlink="http://www.w3.org/1999/xlink" version="1.1">
<metadata></metadata>
<defs>
<font id="palatino_ltitalic" horiz-adv-x="1024" >
<font-face units-per-em="2048" ascent="1638" descent="-410" />
<missing-glyph horiz-adv-x="512" />
<glyph horiz-adv-x="0" />
<glyph unicode="&#xd;" horiz-adv-x="681" />
<glyph unicode=" "  horiz-adv-x="512" />
<glyph unicode="&#x09;" horiz-adv-x="512" />
<glyph unicode="&#xa0;" horiz-adv-x="512" />
<glyph unicode="!" horiz-adv-x="681" d="M156 82q0 53 33 96q35 45 90 45q41 0 66 -28q26 -29 26 -70q0 -20 -9 -49q-7 -23 -23 -45q-14 -20 -39 -34q-23 -13 -52 -13q-39 0 -65 22q-27 22 -27 76zM272 397l43 316q33 255 46 370q29 253 40 365l174 53l23 -18q-6 -22 -40 -150q-20 -73 -36 -147l-176 -760 l-61 -35z" />
<glyph unicode="&#x22;" d="M287 1040l127 383q13 34 30 54q21 24 60 24q41 0 63 -23q23 -25 23 -55q0 -21 -4 -37t-15 -32l-223 -314h-61zM629 1040l127 383q13 34 30 54q21 24 60 24q41 0 63 -23q23 -25 23 -55q0 -21 -4 -37t-15 -32l-223 -314h-61z" />
<glyph unicode="#" d="M8 465v115h238l43 286h-226v115h242l64 436h118l-63 -436h272l62 436h119l-62 -436h199v-115h-215l-41 -286h205v-115h-224l-63 -465h-119l64 465h-275l-67 -465h-119l67 465h-219zM365 580h274l41 286h-272z" />
<glyph unicode="$" d="M31 61q14 57 26 145q14 105 19 152h53v-184q46 -54 110 -76q59 -21 126 -32l90 559q-67 13 -119 31q-55 19 -97 54q-44 36 -67 84q-25 52 -25 123q0 92 35 170q35 77 93 134q58 56 137 96q79 39 161 57l19 127h76l-21 -123q77 0 144 -14q72 -15 131 -55l4 -21 q-14 -45 -28 -112q-14 -63 -24 -123h-49v147q-30 37 -89 60q-55 21 -105 26l-84 -526q65 -10 132 -29q63 -18 109 -52q48 -35 74 -88q27 -54 27 -136q0 -95 -42 -178q-42 -82 -110 -147t-151 -105q-88 -42 -166 -48l-29 -208h-84l41 206q-92 10 -179 27t-138 59zM285 981 q0 -92 55 -140q56 -48 139 -69l82 514h-6q-63 0 -112 -25q-51 -26 -85 -69q-35 -44 -54 -98t-19 -113zM434 66q63 0 120 27q53 25 96 73q40 45 64 104q23 58 23 121q0 107 -53 155q-51 47 -162 70z" />
<glyph unicode="%" horiz-adv-x="1820" d="M152 1071q0 73 30 139q29 63 82 115q50 49 118 78q67 29 138 29q38 0 84 -15q49 -16 88 -46q41 -32 70 -85t29 -133q0 -74 -26 -143q-25 -68 -72 -120q-48 -54 -110 -83q-67 -31 -145 -31q-61 0 -115 23q-56 24 -91 62q-39 42 -59 94q-21 54 -21 116zM295 1022 q0 -59 13 -95q14 -39 34 -62t46 -32q28 -10 50 -10q62 0 104 42q41 41 66 103q24 60 36 125q11 59 11 109q0 108 -42 145q-41 37 -93 37q-63 0 -106 -37q-42 -36 -70 -94q-26 -52 -38 -118q-11 -58 -11 -113zM422 -14l868 1468h90l-874 -1468h-84zM1018 295q0 71 31 139 q29 63 82 115q51 49 117 78q65 28 139 28q40 0 83 -14q51 -16 89 -46q40 -31 69 -85q29 -53 29 -133q0 -75 -26 -144q-26 -68 -71 -119q-47 -53 -111 -83q-67 -31 -144 -31q-62 0 -116 23t-90 62q-40 44 -60 94q-21 54 -21 116zM1161 246q0 -56 14 -95q15 -41 33 -62 q21 -24 46 -33q26 -9 51 -9q61 0 103 42q44 44 67 102q22 55 35 125q12 65 12 110q0 106 -42 144q-43 38 -94 38q-62 0 -106 -38q-43 -37 -70 -93q-25 -52 -38 -119q-11 -58 -11 -112z" />
<glyph unicode="&#x26;" horiz-adv-x="1593" d="M96 354q0 100 36 172q37 73 95 123q61 52 137 86q87 39 160 64q-70 29 -116 80t-46 131q0 67 37 129t93 115q60 57 119 91q66 38 122 56q26 10 60 13q30 3 61 3q52 0 104 -12q56 -13 95 -39q-4 -7 -4 -16l-50 -228h-47v127q-33 23 -82 45q-46 21 -96 21q-53 0 -101 -18 q-49 -18 -84 -49q-38 -33 -58 -78q-21 -46 -21 -101t21 -96q22 -42 59 -67q39 -27 83 -38q47 -12 95 -12q8 0 13 1t16 1q-11 -24 -24 -48q-12 -22 -17 -50v-4h-74q-78 0 -156 -23q-77 -23 -133 -67q-57 -45 -92 -113t-35 -156q0 -91 37 -153q39 -66 97 -105q59 -40 138 -60 q78 -20 156 -20t162 26q83 26 149 72q67 47 108 110q42 65 42 141q0 79 -50 131q-49 51 -132 51q-50 0 -77 -15q-30 -17 -44 -37q-16 -23 -24 -55q-8 -30 -15 -63l-47 4l16 203q54 57 124 76q62 17 132 28l228 37q35 7 71 15q39 9 76 28q36 19 60 46t24 71q0 42 -14 64 q-15 24 -64 48l43 33q59 -23 82 -64q25 -44 25 -102q0 -54 -22 -100q-21 -44 -57 -74q-39 -32 -82 -49q-53 -21 -97 -27l-158 -22v-4q10 0 18 -2q58 -18 94 -64q33 -43 33 -108q0 -78 -41 -148q-42 -72 -103 -127q-62 -56 -136 -100q-75 -44 -137 -68q-23 -9 -65 -19 q-44 -11 -74 -17q-26 -5 -74 -11q-33 -4 -66 -4q-94 0 -184 21q-94 22 -162 66q-73 47 -116 121q-44 76 -44 183z" />
<glyph unicode="'" horiz-adv-x="681" d="M287 1040l127 383q13 34 30 54q21 24 60 24q41 0 63 -23q23 -25 23 -55q0 -21 -4 -37t-15 -32l-223 -314h-61z" />
<glyph unicode="(" horiz-adv-x="681" d="M111 547q0 141 41 273q40 128 111 248q68 114 165 225q90 103 203 208l47 -43q-118 -129 -191 -238q-81 -120 -131 -243q-49 -120 -74 -263q-24 -138 -24 -300q0 -122 23 -252q23 -128 75 -240l54 -112l-45 -27q-72 117 -109 185q-48 89 -80 176q-32 86 -49 188 q-16 96 -16 215z" />
<glyph unicode=")" horiz-adv-x="681" d="M4 -174q115 126 191 239q82 122 131 242t74 263q24 138 24 300q0 122 -23 252q-23 128 -75 240l-54 113l45 26q72 -117 109 -185q48 -89 80 -176q32 -86 49 -188q16 -96 16 -215q0 -143 -41 -274q-40 -128 -111 -247q-66 -110 -166 -225q-87 -100 -202 -208z" />
<glyph unicode="*" horiz-adv-x="796" d="M156 1245l67 117l21 -2l213 -213l45 289l20 10l127 -37l2 -16l-145 -269l287 52l14 -11l12 -118l-12 -13l-297 39l133 -246l-8 -16l-119 -57l-14 8l-45 291l-219 -201l-25 2l-53 117l8 14l260 115l-262 127z" />
<glyph unicode="+" horiz-adv-x="1241" d="M104 459v114h459v459h115v-459h459v-114h-459v-459h-115v459h-459z" />
<glyph unicode="," horiz-adv-x="512" d="M16 -272q71 84 112 188q38 97 67 211l16 66l186 59l19 -27q-57 -134 -140 -257q-82 -122 -174 -234l-71 -27z" />
<glyph unicode="-" horiz-adv-x="681" d="M39 457l39 118h545l-37 -118h-547z" />
<glyph unicode="." horiz-adv-x="512" d="M109 88q0 53 33 96q34 45 89 45q42 0 67 -28q26 -29 26 -70q0 -20 -9 -49q-7 -23 -23 -45q-14 -20 -39 -34q-23 -13 -52 -13q-39 0 -65 22q-27 23 -27 76z" />
<glyph unicode="/" horiz-adv-x="606" d="M-82 -244l762 1745h123l-762 -1745h-123z" />
<glyph unicode="0" d="M74 479q0 60 6 132q7 82 20 152q16 85 37 159q22 76 56 153q35 77 74 139q41 64 97 114q57 51 119 76q68 28 144 28q97 0 167 -41q66 -39 110 -108q44 -68 61 -150q18 -84 18 -170q0 -62 -6 -137q-6 -72 -21 -156q-17 -96 -35 -165q-20 -77 -55 -159q-35 -83 -74 -144 q-43 -67 -97 -117q-55 -51 -121 -79q-67 -29 -146 -29q-104 0 -175 46q-69 45 -109 116t-55 161q-15 88 -15 179zM229 365q0 -54 8 -116q8 -63 29 -106q22 -45 65 -76q42 -30 113 -30q58 0 104 33t83 89q36 54 65 130q32 83 52 153q18 71 35 166q17 98 26 160q8 62 14 139 q4 56 4 105q0 48 -5 118q-4 63 -26 118q-21 54 -65 89t-119 35q-55 0 -103 -31q-47 -30 -81 -79q-36 -51 -59 -111q-27 -70 -43 -125q-21 -75 -31 -123q-3 -15 -10.5 -50.5t-10.5 -51.5q-19 -92 -32 -218q-13 -125 -13 -218z" />
<glyph unicode="1" d="M111 -6l10 55l174 21q53 6 71 39q16 29 27 100l176 1079q-46 -20 -106 -42q-55 -20 -105 -44l-172 -84l-14 10l23 121q38 10 170 43q77 19 165 56l205 84l31 -23q-8 -40 -26 -118q-10 -45 -23 -117l-152 -895q-8 -46 -11 -67q-5 -35 -5 -54q0 -56 23 -76t98 -25l145 -8 l-10 -55q-175 6 -346 6q-174 0 -348 -6z" />
<glyph unicode="2" d="M25 -6v37q124 132 254 275q121 134 235 280q34 45 72 102q30 46 66 121q28 59 49 128q20 66 20 124q0 110 -61 174q-60 63 -171 63q-50 0 -89 -16t-75 -46q-38 -31 -67 -71q-27 -37 -57 -88l-45 19l123 245q64 49 127 69q71 22 141 22q159 0 253 -87q95 -87 95 -247 q0 -118 -52 -225q-53 -108 -130 -193l-494 -537l2 -14h416q59 0 121 6q57 6 114 17l13 -17l-35 -141q-70 3 -206 5q-68 1 -206 1q-204 0 -413 -6z" />
<glyph unicode="3" d="M45 68l57 297l50 -11q-6 -30 -7 -45q-2 -30 -2 -45q0 -58 22 -100t56 -67q35 -26 82 -38t100 -12q80 0 143 39q62 38 105 98q44 60 66 133q22 72 22 146q0 142 -74 210t-212 68q-42 0 -78 -10q-45 -13 -72 -22l-12 24l37 88q15 -1 47 -3q16 -1 47 -1q63 0 121 23t100 62 q45 42 69 96q25 56 25 122q0 86 -57 136q-59 51 -139 51q-42 0 -74 -8q-35 -9 -56 -21q-28 -17 -50 -37q-15 -14 -50 -53l-43 -49l-39 26l119 203q70 32 121 47q57 17 113 17q58 0 117 -17q57 -17 102 -48q43 -30 71 -82q27 -49 27 -118q0 -71 -27 -127q-27 -55 -67 -98 q-38 -41 -94 -76q-34 -22 -105 -59v-4q74 -16 126 -38q55 -23 97 -62t64 -92t22 -130q0 -111 -48 -202q-49 -93 -126 -160q-79 -68 -179 -105q-101 -37 -206 -37q-73 0 -157 19q-78 18 -154 72z" />
<glyph unicode="4" d="M31 393v64l690 944l141 31l17 -11l-170 -913h262l8 -10l-33 -113q-10 1 -28 2.5t-26 1.5q-34 2 -54 2h-150l-18 -108q-10 -60 -15 -101q-4 -35 -4 -76q0 -16 22 -24q20 -7 52 -12l178 -21l-10 -55q-56 3 -169 5q-55 1 -169 1q-167 0 -340 -6l10 55l176 21q48 5 70 25 t37 89l41 209h-518zM162 518l4 -10h403l133 743l-8 4z" />
<glyph unicode="5" d="M29 84q15 51 31 132q20 102 28 153l47 -11q-6 -38 -6 -67q0 -112 67 -176t193 -64q88 0 154 42q62 40 108 109q43 65 64 147q20 77 20 159q0 130 -61 209q-62 80 -199 80q-79 0 -137 -38q-54 -36 -102 -85l-43 18l131 717l16 10q78 -5 162 -9q93 -5 170 -5q50 0 158 2 q80 1 163 6l13 -18l-72 -119q-52 -3 -154 -7q-77 -3 -153 -3q-59 0 -121 3q-79 4 -121 7l-102 -485l4 -5q52 55 128 78q83 25 146 25q161 0 255 -90q95 -90 95 -256q0 -77 -21 -146q-20 -67 -56 -135q-33 -66 -85 -118q-51 -51 -115 -89q-58 -35 -133 -57q-71 -21 -143 -21 q-91 0 -175 23q-82 22 -154 84z" />
<glyph unicode="6" d="M100 410q0 205 72 400q72 196 201 353q103 126 214 196q116 73 273 73q18 0 52 -2q20 -1 49 -9l-33 -121l-17 -2q-25 14 -59 28q-28 11 -66 11q-122 0 -209 -71q-90 -73 -149 -178q-56 -99 -96 -226q-36 -113 -58 -213l5 -4q33 44 69 79q41 40 83 67q41 27 95 46 q48 17 107 17q146 0 215 -87q70 -88 70 -224q0 -152 -72 -287q-30 -55 -75 -103q-51 -55 -103 -90q-52 -36 -121 -62q-63 -24 -125 -24q-91 0 -155 38q-59 35 -99 99q-37 59 -52 138q-16 83 -16 158zM256 350q0 -55 13 -103q13 -49 41 -89q26 -38 70 -63q40 -23 99 -23 q77 0 130 40q54 41 88 101t49 134q16 77 16 136q0 55 -12 101q-12 48 -39 82q-26 34 -69 55q-40 20 -101 20q-78 0 -130 -36q-53 -37 -88 -95q-34 -56 -51 -127q-16 -67 -16 -133z" />
<glyph unicode="7" d="M109 10q53 84 105 165q19 30 101 161l570 919h-496q-52 0 -101 -3q-72 -4 -102 -7l-12 8l33 164q22 -1 68 -3.5t69 -4.5q60 -4 137 -4h328q74 0 110 1q72 2 109 3v-72l-258 -415q-52 -83 -129 -219q-61 -106 -128 -236q-68 -131 -120 -242q-60 -129 -106 -231 q-7 1 -20.5 2.5t-19.5 1.5q-26 2 -40 2q-13 0 -41 -2q-5 0 -21 -1.5t-26 -2.5z" />
<glyph unicode="8" d="M74 268q0 85 32 152q34 70 85 126q51 55 119 100q72 47 134 75q-84 43 -144 114t-60 171q0 80 40 156q42 78 103 137q65 62 142 97q79 36 157 36q116 0 198 -62q81 -62 81 -188q0 -75 -27 -135q-27 -61 -70 -108q-43 -48 -97 -88q-36 -27 -112 -77q57 -31 96 -56 q38 -24 71 -64q30 -36 45 -82q16 -50 16 -111q0 -94 -42 -181q-42 -88 -111 -155q-69 -68 -157 -108q-87 -40 -182 -40q-64 0 -126 19q-59 18 -100 55q-44 39 -67 91q-24 54 -24 126zM229 315q0 -118 55 -185t175 -67q65 0 115 30q49 30 84 77q34 45 52 105q17 55 17 118 q0 57 -10 94q-11 41 -31 68q-22 31 -52 53q-36 28 -75 49l-59 35q-57 -24 -107 -65q-47 -38 -86 -90q-34 -45 -57 -107q-21 -57 -21 -115zM379 1063q0 -78 43 -127q45 -51 104 -90l70 -39q40 23 81 57q39 33 73 78q32 43 52 91q19 47 19 100q0 95 -51 154t-147 59 q-60 0 -105 -24q-47 -25 -76 -64q-31 -42 -47 -91t-16 -104z" />
<glyph unicode="9" d="M66 227l43 17q36 -76 91 -121q58 -47 142 -47q114 0 193 74q78 73 129 182q50 106 79 225q28 115 45 203l-4 4q-28 -39 -63 -75q-33 -34 -76 -63q-41 -27 -88 -44q-48 -17 -98 -17q-157 0 -236 97q-78 96 -78 247q0 99 39 192q39 92 106 167q65 72 155 118t192 46 q95 0 156 -37q60 -37 98 -99q37 -61 52 -139t15 -158q0 -203 -54 -398q-54 -196 -177 -359q-45 -58 -90 -102q-49 -48 -105 -84t-115 -57q-63 -22 -122 -22q-41 0 -87 11q-47 11 -79 28q-12 41 -28 105q-14 59 -35 106zM301 965q0 -61 12 -113q12 -51 40 -92q27 -39 73 -62 q44 -22 111 -22q57 0 103 26q48 27 85 76q35 46 57 116q21 66 21 146q0 54 -12 107t-39 96t-70 70q-42 26 -104 26q-72 0 -124 -34q-50 -33 -86 -91q-35 -56 -51 -121q-16 -64 -16 -128z" />
<glyph unicode=":" horiz-adv-x="512" d="M90 88q0 52 34 96q34 45 89 45q42 0 67 -28t25 -70q0 -23 -8 -49q-6 -20 -24 -45q-14 -20 -39 -34q-23 -13 -52 -13q-38 0 -64 22q-28 23 -28 76zM209 797q0 52 34 96q35 45 89 45q40 0 66 -29t26 -69q0 -23 -8 -49q-7 -22 -24 -46q-13 -18 -39 -33q-25 -14 -52 -14 q-36 0 -64 23t-28 76z" />
<glyph unicode=";" horiz-adv-x="512" d="M-18 -279q68 81 111 189q38 97 67 211l16 65l186 60l19 -27q-58 -138 -139 -257q-82 -122 -174 -234l-72 -27zM233 793q0 52 34 96q35 45 89 45q41 0 67 -29t26 -69q0 -21 -9 -50q-7 -23 -23 -45q-13 -18 -39 -33q-25 -14 -52 -14q-37 0 -65 23t-28 76z" />
<glyph unicode="&#x3c;" horiz-adv-x="1241" d="M109 467v111l1026 479v-123l-885 -416l885 -407v-123z" />
<glyph unicode="=" horiz-adv-x="1241" d="M104 258v115h1033v-115h-1033zM104 659v115h1033v-115h-1033z" />
<glyph unicode="&#x3e;" horiz-adv-x="1241" d="M109 -12v123l884 407l-884 416v123l1026 -479v-111z" />
<glyph unicode="?" d="M233 82q0 52 34 96q35 45 89 45q42 0 67 -28q26 -29 26 -70q0 -20 -9 -49q-7 -23 -23 -45q-14 -20 -39 -34q-23 -13 -52 -13q-39 0 -65 22q-28 23 -28 76zM236 1169q5 17 14 39l16 37l51 125q50 33 110 55q57 21 120 21q61 0 123 -17q60 -16 105 -50q47 -35 73 -86 t26 -122q0 -94 -43 -164q-47 -76 -108 -133l-213 -204q-31 -29 -67 -70q-35 -39 -35 -88q0 -28 15 -54q14 -24 40 -50l-51 -13q-37 22 -58 57q-20 33 -20 72q0 65 35 123q39 64 77 105l144 161q42 48 79 109q38 62 38 127q0 37 -16 71q-14 30 -41 55q-25 24 -59 37 q-33 13 -71 13q-78 0 -118 -21q-38 -20 -80 -85l-41 -62z" />
<glyph unicode="@" horiz-adv-x="1529" d="M55 690q0 158 57 295q59 141 155 240q98 101 237 162q134 59 297 59q127 0 248 -42t214 -120t150 -186t57 -244q0 -115 -35 -216q-35 -102 -114 -185q-32 -32 -67 -60q-42 -33 -81 -55q-49 -27 -88 -40q-45 -15 -86 -15q-37 0 -65 15t-47 40t-29 56q-10 30 -10 65h-4 q-50 -68 -106 -118q-52 -46 -138 -46q-61 0 -113 26t-86 66t-54 95q-19 53 -19 114q0 86 32 163t89 142q58 67 142 113q86 47 175 47q81 0 124 -46q44 -47 56 -120h4l39 147h154l-158 -577q-5 -16 -6 -26q-2 -16 -2 -27q0 -32 18 -53t49 -21q25 0 83 32q56 31 114 95 q57 63 101 160t44 227q0 110 -50 204q-49 91 -132 158q-82 65 -184 103q-101 37 -207 37q-141 0 -262 -48q-118 -47 -211 -135q-90 -85 -141 -204q-52 -121 -52 -262q0 -143 54 -266q52 -119 144 -205t215 -132q126 -47 265 -47q169 0 308 82q140 83 231 223h96 q-46 -92 -113 -162q-71 -74 -154 -125q-86 -53 -181 -81q-98 -29 -197 -29q-155 0 -294 53q-134 51 -241 150q-104 96 -164 230q-61 136 -61 294zM483 545q0 -37 7 -71q7 -35 24 -64q18 -31 43 -48q27 -18 66 -18q72 0 126 58q53 57 91 140q36 79 55 167q18 86 18 143 q0 27 -6 54q-7 29 -20 51q-15 25 -37 39q-24 16 -53 16q-72 0 -129 -51q-59 -53 -99 -124t-63 -154t-23 -138z" />
<glyph unicode="A" horiz-adv-x="1478" d="M-39 -6v61l41 11q20 6 32 10q19 6 39 22q19 15 48 47q21 24 61 84l764 1215h94l179 -1280q3 -15 9 -43q3 -16 13 -35q5 -9 31 -17q24 -8 61 -12l53 -6v-57q-21 1 -62.5 2.5t-61.5 1.5q-82 2 -125 2q-40 0 -124 -2q-21 0 -63 -2t-63 -2v57l90 6q88 6 88 56q0 16 -3 34 q-4 24 -5 35l-51 385h-504l-209 -358q-9 -17 -23 -41.5t-16 -28.5q-14 -25 -14 -43q0 -16 20 -26q23 -12 43 -13l107 -6v-57l-111 4q-74 2 -111 2q-35 0 -111 -2q-18 0 -56.5 -1.5t-59.5 -2.5zM553 641h442l-75 584h-5z" />
<glyph unicode="B" horiz-adv-x="1251" d="M53 -6l10 53q32 6 77 19q36 11 42 47l178 1032q12 66 14 94q1 8 2 20.5t2 21t1 15.5v7q0 23 -15 37q-16 14 -57 16l-108 4l6 57q26 -1 77 -2.5t76 -1.5q102 -2 154 -2t154 2q25 0 76 1.5t77 2.5h8q54 0 105 -11q57 -12 103 -41q49 -31 79 -83q31 -54 31 -137 q0 -73 -33 -138q-34 -66 -85 -116q-53 -52 -118 -87q-66 -36 -129 -54v-5q65 -7 128 -23q59 -15 106 -46q43 -28 71 -82q27 -51 27 -131q0 -93 -41 -173q-40 -78 -107 -139q-68 -62 -150 -102q-81 -40 -167 -55q-37 -6 -78 -6q-23 0 -69 2q-12 1 -34.5 2.5t-33.5 1.5 q-15 0 -47 1.5t-49 2.5q-66 2 -96 2q-31 0 -89 -2q-11 0 -44.5 -1.5t-53.5 -2.5zM340 84q63 -4 121 -9q62 -5 110 -5q86 0 152 28q67 28 114 78q46 49 70 115q25 69 25 139q0 78 -25 131q-24 51 -66 81t-100 42q-57 12 -123 12h-174zM457 770h106q81 0 154 18q72 18 129 61 q55 41 89 107q34 65 34 162q0 61 -19 107q-18 43 -52 68t-79 37q-41 11 -100 11h-33q-20 -1 -62 -5q-40 -4 -67 -5z" />
<glyph unicode="C" horiz-adv-x="1366" d="M92 575q0 83 12 176q12 90 52 188q41 99 110 187q74 94 189 172q73 49 138 76q71 29 131 45q68 18 116 22q58 5 92 5q102 0 205 -23q102 -23 196 -61q-23 -72 -36 -147q-13 -71 -19 -152h-55v172q-83 60 -181 81q-99 21 -196 21q-154 0 -260 -59q-110 -61 -178 -160 q-71 -103 -103 -229q-33 -129 -33 -268q0 -118 29 -220q28 -100 89 -174q59 -73 154 -114q94 -41 220 -41q72 0 129 10q59 10 115 30t108 48q68 37 113 65l20 -14l-20 -74q-237 -174 -527 -174q-294 0 -452 159q-158 160 -158 453z" />
<glyph unicode="D" horiz-adv-x="1593" d="M57 -6l11 53q18 4 67 19q35 11 41 47l178 1032q12 66 14 94q1 8 2 20.5t2 21t1 15.5v7q0 23 -16 37q-16 15 -56 16l-108 4l6 57q20 0 62 -1.5t63 -2.5q84 -2 127 -2q68 0 208 2l209 4h27q144 0 256 -25q116 -26 196 -88q82 -64 126 -167q45 -105 45 -260q0 -123 -33 -236 t-93 -212q-59 -98 -145 -182q-87 -85 -186 -145q-57 -33 -100 -52q-50 -23 -97 -34q-53 -13 -101 -17q-58 -5 -114 -5h-20q-32 1 -96 2.5t-95 1.5q-126 2 -190 2q-31 0 -95 -2q-16 -1 -48.5 -2.5t-47.5 -1.5zM344 115q95 -16 172 -23q90 -8 166 -8q165 0 286 64t201 173 t120 246q40 138 40 289q0 134 -38 228t-108 151q-72 58 -173 82q-102 24 -232 24q-64 0 -115 -4q-57 -5 -114 -6l-197 -1141q-5 -18 -6 -37q-2 -26 -2 -38z" />
<glyph unicode="E" horiz-adv-x="1251" d="M61 -6l11 53q33 6 79 19q38 11 44 47l178 1032q10 55 13 94q1 8 2 20.5t2 21t1 15.5v7q0 23 -15 37q-16 14 -57 16l-110 4l6 57q49 0 72 -1q46 -2 71 -3q48 0 74 -1t80 -1q106 0 268 2q42 1 121 2.5t117 1.5q54 0 80 -1q48 -2 69 -5q-17 -63 -28 -145q-10 -79 -15 -166 h-49l-16 182q-2 19 -30 28q-29 10 -67 14q-41 5 -85 6q-30 1 -78 1q-55 0 -111 -3q-73 -4 -115 -5q-8 -18 -11 -33q-4 -22 -7 -33l-86 -487h76q229 0 448 12l8 -14l-38 -92q-67 4 -136 6q-90 2 -135 2h-239l-88 -518q-5 -20 -5 -37v-35q33 -3 132 -10q56 -4 129 -4 q137 0 272 12q61 4 84 29q22 24 39 86l33 123h55q-5 -25 -14 -72t-12 -65q-11 -60 -17 -119q-1 -11 -3 -35q-2 -26 -5 -39q-17 0 -52 -1.5t-53 -2.5q-70 -2 -100 -2q-125 0 -248 3t-248 3q-73 0 -157 -2q-19 0 -64.5 -1.5t-69.5 -2.5z" />
<glyph unicode="F" horiz-adv-x="1138" d="M0 -6l8 57l74 6q50 1 68 19q10 10 23 48q11 33 28 132l153 889q12 66 14 94q1 8 2 20.5t2 21t1 15.5v7q0 23 -16 37q-16 15 -56 16l-115 4l7 57q47 0 70 -1l69 -3q45 0 67 -1t66 -1q106 0 268 2q42 1 121 2.5t117 1.5q54 0 80 -1q48 -2 71 -5q-17 -63 -28 -145 q-10 -79 -15 -166h-49l-16 182q-2 19 -30 28q-29 10 -68 14q-41 5 -85 6q-30 1 -77 1q-29 0 -95 -2q-47 -1 -108 -6q-8 -18 -11 -33q-2 -11 -8 -33l-94 -555h76q212 0 449 13l8 -15l-39 -92q-68 4 -135 6q-90 2 -135 2h-240l-70 -426q-5 -17 -6 -34q-2 -24 -2 -39 q0 -25 13 -41q14 -17 61 -19l131 -6l-6 -57q-27 1 -76 2.5t-70 1.5q-92 2 -137 2q-47 0 -135 -2q-23 -1 -65 -2.5t-60 -1.5z" />
<glyph unicode="G" horiz-adv-x="1478" d="M102 561q0 225 88 410q89 187 279 323q130 94 254 123q125 29 238 29q108 0 215 -23q106 -23 206 -61q-20 -64 -35 -147q-15 -81 -20 -152h-55v172q-83 60 -183 81q-102 21 -221 21q-136 0 -243 -52q-110 -54 -185 -149q-74 -95 -116 -235q-41 -138 -41 -309 q0 -252 129 -394q129 -143 387 -143q67 0 145 16q76 15 137 52l37 190q3 14 10 62q5 33 5 63q0 39 -29 45q-30 7 -61 10q-70 6 -82 7l-70 4l10 57q77 -7 134 -8q86 -2 130 -2t128 2q54 1 128 8l-4 -57l-65 -12q-49 -11 -56 -43l-47 -277q-2 -10 -2 -25q0 -8 2 -28l4 -29 l-8 -14q-12 -2 -55 -13q-35 -9 -60 -18q-47 -15 -168 -52q-99 -30 -225 -30q-148 0 -265 37t-200 111q-82 73 -126 186q-44 114 -44 264z" />
<glyph unicode="H" horiz-adv-x="1593" d="M-6 -6l8 57l84 6q50 1 68 19q10 10 23 48q11 33 28 132l151 889q12 66 14 94q1 8 2 20.5t2 21t1 15.5v7q0 23 -16 37q-16 15 -56 16l-96 4l6 57q34 -1 87.5 -2.5t68.5 -1.5q90 -2 133 -2q46 0 126 2q23 1 59.5 2.5t47.5 1.5l-6 -57l-86 -6q-23 -1 -46 -7q-15 -4 -29 -16 q-11 -9 -17 -28q-5 -15 -12 -48l-86 -467h757l62 357q10 55 13 94q1 8 2 20.5t2 21t1 15.5v7q0 23 -15 37q-16 15 -56 16l-99 4l6 57q32 -1 85 -2.5t69 -1.5q90 -2 133 -2q45 0 125 2l60 2.5t40 1.5l-6 -57l-73 -6q-24 -1 -47 -7q-14 -3 -28 -16q-12 -11 -18 -28 q-5 -15 -12 -48l-188 -1065q-5 -17 -6 -34q-3 -36 -3 -39q0 -24 14 -40t60 -20l119 -6l-6 -57q-21 0 -65.5 1.5t-68.5 2.5q-92 2 -136 2q-48 0 -140 -2q-20 0 -70 -1.5t-79 -2.5l8 57l102 6q50 1 68 19q11 11 22 48q12 41 29 132l82 440l-188 4q-126 2 -189 2q-62 0 -188 -2 l-189 -4l-86 -506q-5 -17 -6 -34q-2 -24 -2 -39q0 -26 13 -40q14 -15 61 -20l100 -6l-6 -57q-13 0 -53.5 1.5t-65.5 2.5q-88 2 -133 2q-47 0 -137 -2q-23 -1 -67 -2.5t-66 -1.5z" />
<glyph unicode="I" horiz-adv-x="681" d="M14 -6l6 57l74 6q50 1 68 19q10 10 23 48q11 33 28 132l147 889q12 66 14 94q1 8 2 20.5t2 21t1 15.5v7q0 23 -15 37q-16 14 -57 16l-96 4l6 57q34 -1 87.5 -2.5t68.5 -1.5q90 -2 133 -2q46 0 124 2q23 1 58 2.5t37 1.5l-6 -57l-72 -6q-57 -4 -77 -23q-19 -18 -27 -76 l-178 -1065q-6 -22 -7 -34q-2 -24 -2 -39q0 -24 14 -40t60 -20l107 -6l-7 -57q-16 0 -57.5 1.5t-65.5 2.5q-88 2 -135 2t-135 -2q-24 -1 -65.5 -2.5t-57.5 -1.5z" />
<glyph unicode="J" horiz-adv-x="681" d="M-72 -348q13 -5 33 -7q12 -1 41 -1q53 0 101 73q49 75 73 240l178 1188q12 66 14 94q1 8 2 20.5t2 21t1 15.5v7q0 23 -16 37q-16 15 -56 16l-96 4l6 57q34 -1 87.5 -2.5t68.5 -1.5q90 -2 133 -2q46 0 126 2q23 1 59.5 2.5t47.5 1.5l-6 -57l-86 -6q-57 -4 -77 -23 q-19 -18 -27 -76l-175 -1144q-3 -24 -14 -86q-6 -36 -20 -86q-21 -69 -55 -140q-30 -62 -72 -114q-40 -48 -91 -78q-50 -29 -106 -29q-40 0 -70 21z" />
<glyph unicode="K" horiz-adv-x="1366" d="M27 -6l8 57l84 6q49 1 67 19q12 12 24 48q11 33 28 132l149 889q10 55 13 94q1 11 3 30t3 27v7q0 23 -16 37q-16 15 -56 16l-96 4l6 57q34 -1 87 -2.5t68 -1.5q90 -2 133 -2q46 0 126 2q23 1 60.5 2.5t47.5 1.5l-6 -57l-86 -6q-23 -1 -46 -7q-15 -4 -29 -16 q-11 -9 -17 -28q-8 -24 -13 -48l-92 -532q54 42 150 124q71 60 155 144l262 266q24 24 51 54t27 47v59q11 0 33.5 -1.5t34.5 -2.5q46 -2 70 -2q23 0 69 2l70 4v-55h-43q-32 0 -61 -16q-26 -14 -50 -35l-598 -559l504 -619q63 -78 131 -78h41v-61l-70 4q-46 2 -69 2t-71 -2 q-12 -1 -36 -2.5t-35 -1.5l-98 135q-45 61 -102 133l-369 434l-84 -506q-5 -17 -6 -34q-2 -24 -2 -39q0 -26 13 -40q14 -15 61 -20l100 -6l-6 -57q-13 0 -53.5 1.5t-65.5 2.5q-88 2 -133 2q-47 0 -137 -2q-23 -1 -67 -2.5t-66 -1.5z" />
<glyph unicode="L" horiz-adv-x="1138" d="M33 -6l10 53q33 6 79 19q38 11 44 47l176 1032q10 55 13 94q1 8 2 20.5t2 21t1 15.5v7q0 23 -15 37q-16 15 -56 16l-96 4l6 57q34 -1 87 -2.5t68 -1.5q90 -2 133 -2q46 0 126 2q23 1 60.5 2.5t47.5 1.5l-6 -57l-86 -6q-23 -1 -46 -7q-15 -4 -29 -16q-11 -9 -17 -28 q-8 -24 -13 -48l-188 -1089q-4 -16 -4 -37v-35q37 -3 131 -10q56 -4 129 -4q50 0 79 1q15 1 44.5 1.5t44.5 0.5q57 2 85 5q43 5 64 10q13 5 29 24q17 20 35 89l35 127h63q-17 -73 -27 -145q-4 -25 -8.5 -59.5t-5.5 -43.5q-3 -17 -5 -47q-1 -14 -1 -43q-17 0 -51.5 -1.5 t-52.5 -2.5q-70 -2 -101 -2q-125 0 -248 3t-247 3q-74 0 -158 -2q-19 0 -64 -1.5t-69 -2.5z" />
<glyph unicode="M" horiz-adv-x="1933" d="M-39 -6l6 53q42 5 70 12q26 7 49 25q20 16 34 42q12 22 23 64l297 1043q6 21 6 39q0 30 -14 45q-15 17 -36 24q-28 10 -47 11q-9 1 -24.5 2.5t-21.5 1.5l-53 4l6 57l86 -4q58 -2 86 -2q29 0 85 2q14 0 42 1.5t43 2.5l307 -1184l504 865q52 87 90 158q39 72 84 161l86 -4 q58 -2 86 -2q29 0 85 2q14 0 42 1.5t43 2.5l-6 -57l-78 -4q-88 -4 -94 -64l-84 -1087q-2 -38 -2 -47v-37q0 -24 29 -42q27 -17 82 -22l75 -6l-6 -57q-24 1 -69.5 2.5t-66.5 1.5q-88 2 -134 2q-47 0 -137 -2q-21 0 -68 -1.5t-72 -2.5l6 57l64 6q16 1 48 5q21 3 43 11 q21 8 32 22q13 16 14 42l76 1053l-4 4l-103 -170q-159 -264 -309 -528q-142 -251 -297 -533h-47l-303 1176h-4l-252 -942q-14 -46 -14 -88q0 -23 29 -35q32 -13 71 -17l78 -6l-6 -57l-111 4q-74 2 -115 2q-37 0 -113 -2q-18 0 -56.5 -1.5t-59.5 -2.5z" />
<glyph unicode="N" horiz-adv-x="1593" d="M4 -6l10 57l64 6q12 2 43 10q19 5 29 19q11 15 22 51q9 31 16 72l181 971q3 10 7 37q3 18 3 32q0 3 -8 16q-3 5 -19 23q-14 16 -22 23q-5 4 -12.5 9.5t-8.5 6.5q-23 13 -46 20q-25 7 -48 9l-72 4l11 57q13 0 41 -1.5t42 -2.5q56 -2 82 -2q27 0 83 2q14 1 42 2.5t41 1.5 l703 -1200h4l164 995q3 15 7 51q3 27 3 44q0 47 -74 49l-96 4l10 57q9 0 44 -1.5t57 -2.5q76 -2 118 -2q40 0 118 2q22 1 58 2.5t46 1.5l-11 -57l-75 -4q-10 -1 -39 -7q-20 -4 -27 -16q-6 -11 -24 -64q-15 -45 -33 -159l-193 -1133h-102l-688 1178h-4l-164 -946 q-6 -34 -6 -62q0 -34 8 -53q7 -20 32 -26q29 -7 60 -11l86 -6l-10 -57q-19 1 -57 2.5t-56 1.5q-74 2 -113 2q-37 0 -113 -2q-19 0 -57 -2t-57 -2z" />
<glyph unicode="O" horiz-adv-x="1593" d="M109 580q0 183 62 338q63 157 175 275q111 117 265 185t335 68q135 0 244 -38q106 -37 184 -110q76 -72 117 -177q41 -106 41 -242q0 -185 -63 -351q-62 -165 -175 -291q-113 -127 -270 -200q-159 -74 -348 -74q-152 0 -261 41q-107 40 -176 120q-71 81 -100 193 q-30 114 -30 263zM289 557q0 -117 25 -208q26 -94 80 -160q53 -64 141 -103q84 -37 208 -37q161 0 277 70q114 69 188 182q75 115 109 255q35 145 35 286q0 121 -27 217q-27 97 -84 163t-147 102t-217 36q-164 0 -276 -74q-113 -75 -181 -189q-72 -121 -101 -259 q-30 -144 -30 -281z" />
<glyph unicode="P" horiz-adv-x="1251" d="M18 -6l9 57l84 6q49 1 67 19q12 12 24 48q9 27 27 132l152 889q10 55 13 94q1 8 2 20.5t2 21t1 15.5v7q0 23 -15 37q-16 15 -56 16l-113 4l6 57q28 0 84 -1.5t85 -2.5q114 -2 171 -2q49 0 141 2q22 0 69.5 1.5t72.5 2.5h16q75 0 141 -15q68 -15 113 -52q49 -40 75 -97 q28 -62 28 -147q0 -101 -39 -194q-37 -89 -106 -164q-64 -70 -156 -115q-87 -43 -191 -43q-51 0 -90 12q-36 11 -84 35l-4 63q41 -16 86 -28q41 -11 74 -11q75 0 137 36q61 36 104 92q44 57 66 126q22 67 22 140q0 162 -80 225q-79 63 -233 63q-34 0 -72 -5q-23 -3 -69 -11 q-1 -6 -18 -70q-9 -35 -15 -69l-168 -998q-5 -17 -6 -34q-2 -24 -2 -39q0 -26 13 -40q14 -16 60 -20l134 -6l-7 -57q-28 1 -77.5 2.5t-69.5 1.5q-92 2 -137 2q-47 0 -137 -2q-23 -1 -67.5 -2.5t-66.5 -1.5z" />
<glyph unicode="Q" horiz-adv-x="1593" d="M109 580q0 183 62 338q63 157 175 275q111 117 265 185t335 68q135 0 244 -38q106 -37 184 -110q76 -72 117 -177q41 -106 41 -242q0 -185 -63 -351q-62 -165 -175 -291q-113 -127 -270 -200q-159 -74 -348 -74q-299 0 -433 158t-134 459zM258 -291q0 53 16 98t49 83 q34 38 77 58q46 21 104 21q44 0 74 -6q33 -7 71 -22l484 -197q37 -15 61 -22q30 -9 66 -9q71 0 103 50q31 49 36 112h51q-5 -59 -17 -104q-14 -52 -41 -93q-27 -40 -72 -65t-106 -25q-39 0 -74 5q-26 4 -60 15t-56 23q-28 15 -63 33l-297 156q-43 22 -96 42q-45 17 -101 17 q-48 0 -78 -18q-29 -17 -48 -49q-17 -28 -25 -69q-7 -35 -7 -77v-18l-49 26q-2 14 -2 19v16zM289 557q0 -117 25 -208q26 -94 80 -160q53 -64 141 -103q84 -37 208 -37q161 0 277 70q114 69 188 182q75 115 109 255q35 145 35 286q0 121 -27 217q-27 97 -84 163t-147 102 t-217 36q-164 0 -276 -74q-113 -75 -181 -189q-72 -121 -101 -259q-30 -144 -30 -281z" />
<glyph unicode="R" horiz-adv-x="1366" d="M18 -6l9 57l84 6q49 1 67 19q12 12 24 48q9 27 27 132l154 889q10 55 13 94q1 8 2 20.5t2 21t1 15.5v7q0 23 -15 37q-16 15 -56 16l-115 4l6 57q26 -1 78 -2.5t77 -1.5q102 -2 154 -2t154 2q25 0 76.5 1.5t77.5 2.5h16q68 0 127 -13q62 -14 110 -45q47 -31 76 -84 t29 -130q0 -84 -38 -157q-38 -72 -98 -128q-60 -55 -137 -90q-76 -34 -155 -45l377 -563q38 -56 67 -81q31 -26 97 -32v-55q-12 1 -34.5 2.5t-33.5 1.5q-44 2 -67 2q-24 0 -68 -2q-11 0 -33.5 -1.5t-34.5 -2.5q-28 46 -56 97q-29 54 -60 97l-375 564l6 22h90q75 0 145 25 q68 24 119 69t80 107q29 63 29 135q0 122 -72 178q-71 55 -188 55q-20 0 -74 -2q-39 -1 -94 -14q-1 -6 -18 -70q-9 -35 -15 -69l-174 -998q-5 -17 -6 -34q-2 -24 -2 -39q0 -26 13 -40q14 -16 60 -20l101 -6l-6 -57q-13 0 -53.5 1.5t-65.5 2.5q-88 2 -133 2q-47 0 -137 -2 q-23 -1 -67.5 -2.5t-66.5 -1.5z" />
<glyph unicode="S" horiz-adv-x="1138" d="M86 41q18 87 29 156q14 88 20 155h62v-202q66 -50 136 -69q72 -20 150 -20q75 0 139 24q62 23 110 68q46 43 73 105q26 59 26 137q0 171 -165 211l-195 47q-136 34 -193 111q-57 76 -57 213q0 103 49 188q50 87 127 149t174 97t193 35q72 0 141 -18q72 -19 131 -52 q-39 -123 -51 -276h-61v155q-40 51 -104 72q-63 21 -128 21q-62 0 -125 -22q-60 -21 -103 -61q-46 -42 -70 -97q-25 -56 -25 -124q0 -104 46 -162q47 -59 150 -81l133 -29q63 -12 115 -33q56 -22 93 -54q40 -34 64 -83q23 -47 23 -121q0 -118 -52 -212q-54 -97 -137 -164 q-82 -66 -192 -105q-105 -37 -215 -37q-29 0 -76 5q-35 4 -84 16q-53 13 -81 24q-42 16 -70 33z" />
<glyph unicode="T" horiz-adv-x="1251" d="M109 1081l36 336q50 -1 147.5 -2.5t144.5 -1.5q192 -2 290 -2q97 0 289 2q49 1 143.5 2.5t140.5 1.5l-55 -336h-57l8 131v17q0 51 -10 67q-6 8 -26 12q-25 5 -55 8q-45 4 -75 5q-54 2 -82 2h-149l-193 -1133q-5 -17 -6 -34q-2 -24 -2 -39q0 -26 13 -40q14 -15 61 -20 l121 -6l-7 -57q-22 0 -67.5 1.5t-68.5 2.5q-92 2 -136 2q-47 0 -139 -2q-19 0 -70.5 -1.5t-81.5 -2.5l8 57l105 6q49 1 67 19q12 12 24 48q11 33 28 132l176 1067h-230q-13 0 -49 -2q-20 -1 -51 -5q-22 -3 -43 -8q-16 -4 -22 -12q-14 -19 -22 -41q-9 -24 -15 -51l-31 -123 h-59z" />
<glyph unicode="U" horiz-adv-x="1593" d="M180 1360l6 57q16 -1 47.5 -2t46.5 -2q62 -2 93 -2t89 2q14 0 44.5 1.5t46.5 2.5l-180 -977q-7 -37 -11 -61q-4 -27 -4 -64q0 -62 25 -107q25 -46 64 -73q41 -29 93 -42q51 -13 107 -13q75 0 143 23q70 24 135 63q63 38 118 90q60 57 96 106l129 783q10 55 13 94 q1 8 2 20.5t2 21t1 15.5v7q0 23 -15 37q-16 14 -57 16l-98 4l6 57q32 -1 85 -2.5t69 -1.5q90 -2 133 -2q45 0 125 2l60 2.5t40 1.5l-6 -57l-74 -6q-56 -4 -76 -23t-28 -76l-170 -1022q-3 -12 -10 -54q-6 -36 -6 -77q0 -21 14 -29q16 -10 51 -14l123 -8l-10 -57 q-16 1 -46.5 2.5t-45.5 1.5q-60 2 -90 2q-34 0 -92 -2q-16 -1 -43.5 -2.5t-39.5 -1.5l-10 10q16 60 30 125q9 41 23 125l-4 4q-48 -62 -106 -111q-66 -55 -137 -94q-75 -41 -152 -65q-81 -25 -151 -25q-81 0 -152 20q-73 21 -120 59q-51 42 -79 103q-28 62 -28 152 q0 34 4 62q1 10 3.5 31.5t4.5 31.5l131 768q3 20 10 70q4 31 4 47q0 32 -16 39q-19 9 -53 10z" />
<glyph unicode="V" horiz-adv-x="1478" d="M154 1360v57l127 -4q84 -2 127 -2t127 2l127 4v-57l-87 -4q-46 -4 -67 -18t-21 -44q0 -5 1 -8t1 -8l144 -1073h6l592 999q5 7 21 40q12 24 12 44q0 19 -13 34q-11 12 -30 20q-21 9 -39 10l-20 2.5t-15 1.5l-53 4v57q24 -1 69.5 -2.5t66.5 -1.5q88 -2 134 -2q32 0 90 2 q14 0 44 1.5t46 2.5v-57l-37 -4q-46 -4 -71 -29q-27 -27 -56 -76l-774 -1267h-100l-180 1273q-11 64 -38 79q-28 16 -83 20z" />
<glyph unicode="W" horiz-adv-x="1933" d="M145 1360v57l119 -4q80 -2 119 -2t119 2l119 4v-57l-76 -4q-56 -5 -74 -29t-18 -57v-8l63 -983h4l455 925q10 20 55 115q23 49 51 115h37l322 -1166h4l299 940q7 23 12 46q6 25 6 57q0 29 -28 36t-56 9l-80 4l11 57q17 -1 50.5 -2.5t49.5 -1.5q66 -2 100 -2t100 2 q17 1 50 2t49 2v-57l-41 -4q-35 -5 -57 -22q-24 -19 -31 -42l-350 -1038q-24 -71 -42 -134q-20 -72 -36 -136h-104q-19 95 -37 167q-24 95 -43 164l-230 803l-458 -909q-38 -74 -55 -112q-29 -65 -48 -113h-102q-2 86 -6 170q-3 56 -11 170l-65 880q-6 82 -26 113 q-21 32 -83 39z" />
<glyph unicode="X" horiz-adv-x="1478" d="M41 -6v57l57 6q77 10 127 68l488 577l-299 553q-11 22 -26 42q-13 17 -32 30q-20 13 -44 19q-22 5 -64 10l-53 4v57q23 -1 69 -2.5t68 -1.5q90 -2 137 -2q46 0 134 2q21 0 66.5 1.5t69.5 2.5v-57l-75 -4q-29 -2 -59 -9t-30 -32q0 -14 10 -36q3 -6 9 -20t10 -22l213 -408 l330 402q21 27 33 43q14 20 14 43q0 22 -29 30q-29 7 -63 9l-68 4v57q20 -1 59.5 -2.5t58.5 -1.5q78 -2 118 -2t116 2q18 0 57 1.5t60 2.5v-57l-57 -4q-44 -4 -69 -24q-27 -20 -64 -62l-453 -516l350 -629q21 -35 48 -50q28 -15 92 -20l51 -4v-57q-139 6 -273 6 q-140 0 -276 -6v57l78 6q35 4 67 4q31 0 31 21q0 22 -9 43q-8 18 -20 39l-243 463l-373 -473q-21 -24 -21 -52q0 -12 13 -20q15 -10 28 -13q27 -7 36 -8q7 -1 19 -2.5t17 -1.5l66 -6v-57q-123 6 -244 6q-115 0 -256 -6z" />
<glyph unicode="Y" horiz-adv-x="1366" d="M106 1325q10 7 37.5 26t41.5 29q25 18 75 58l8 6h6q58 0 101 -27t76 -67q32 -40 57 -89q27 -54 43 -94q20 -48 46 -133q17 -55 49 -163q22 -76 40 -146l21 -84h4q45 120 109 229q61 104 151 228q35 47 83 105q41 49 95 97q51 45 108 78q55 32 125 49l-12 -145 q-65 -10 -121 -42q-53 -30 -103 -77q-48 -45 -89 -98t-78 -102q-41 -55 -81 -120q-39 -62 -73 -127q-32 -60 -55 -118t-29 -94l-49 -314q-5 -17 -6 -34q-2 -24 -2 -39q0 -26 13 -40q14 -15 61 -20l100 -6l-6 -57q-13 0 -53.5 1.5t-65.5 2.5q-88 2 -133 2q-46 0 -138 -2 q-20 0 -69.5 -1.5t-77.5 -2.5l9 57l98 6q49 1 67 19q12 12 24 48q11 33 28 132l43 258v10q0 33 -23 120q-18 67 -53 182q-30 96 -65 187q-38 96 -56 132q-27 51 -75 106q-43 49 -113 49q-16 0 -37 -7q-37 -12 -49 -17z" />
<glyph unicode="Z" horiz-adv-x="1366" d="M41 -6v45l1028 1296h-369q-103 0 -184 -4q-96 -5 -184 -22q-19 -59 -32 -108q-18 -70 -24 -109h-53q12 95 17 164q6 81 6 161q61 -1 182 -2t181 -2q242 -2 364 -2q56 0 166 2q27 0 82.5 1.5t83.5 2.5v-41l-1033 -1296h576q72 0 135 7q74 8 125 19q10 26 41 115 q23 66 39 115h53q-17 -92 -30 -179q-12 -80 -17 -163q-338 6 -674 6q-239 0 -479 -6z" />
<glyph unicode="[" horiz-adv-x="681" d="M37 -195q27 118 46 243q20 128 40 235q42 228 71 428q43 299 60 415q4 27 8 57.5t8.5 68t7.5 57.5q4 27 7.5 58t7.5 68t6 58l16 8q60 -2 89 -3t88 -1q60 0 89 1l87 3v-57l-181 -15q-23 -1 -31 -21t-12 -42q-38 -195 -62 -349q-36 -228 -54 -343q-37 -241 -52 -346 q-23 -168 -51 -346q-5 -22 -6 -38q-2 -24 -2 -36q0 -16 12 -27q11 -9 45 -14l162 -14l-10 -58q-22 1 -56 2.5t-44 1.5q-58 2 -84 2q-34 0 -100 -2q-16 0 -50 -1.5t-51 -2.5z" />
<glyph unicode="\" horiz-adv-x="1241" d="M166 1501h123l762 -1501h-123z" />
<glyph unicode="]" horiz-adv-x="681" d="M14 -147l181 14q23 1 31 21t12 42q37 190 62 350q36 228 54 343q37 241 52 346q23 168 51 346q5 22 6 38q2 24 2 36q0 15 -12 26t-45 15l-162 14l10 57q22 -1 56 -2.5t44 -1.5q58 -2 84 -2q34 0 100 2q16 0 50 1.5t51 2.5l4 -10q-27 -118 -46 -243q-19 -124 -40 -234 q-42 -228 -71 -428q-20 -136 -60 -416q-8 -60 -24 -182q-5 -36 -12.5 -106t-8.5 -79l-16 -8q-60 2 -89 3t-88 1q-60 0 -89 -1l-87 -3v58z" />
<glyph unicode="^" horiz-adv-x="1241" d="M104 580l449 831h135l447 -831h-125l-389 704l-392 -704h-125z" />
<glyph unicode="_" d="M0 -154h1024v-102h-1024v102z" />
<glyph unicode="`" horiz-adv-x="681" d="M176 1348q0 22 25 41q24 18 55 18q17 0 33 -10q17 -11 33 -27l313 -309h-70l-332 207q-24 17 -40 31q-17 15 -17 49z" />
<glyph unicode="a" horiz-adv-x="909" d="M8 149q0 72 23 182q23 108 57 213q34 104 80 191q45 86 90 119q64 46 99 68q38 25 76 41q33 14 66 19q35 5 70 5q48 0 85 -11q45 -13 81 -28l68 37l20 -18l-188 -777q-2 -8 -2 -22q0 -17 6 -32t25 -15q33 0 72 31q7 6 35.5 29t45.5 36l14 -43q-114 -97 -192 -146 q-73 -46 -102 -46q-30 0 -42 19t-12 48q0 49 13 109l55 245l-6 3q-42 -64 -84 -116q-51 -64 -84 -100q-28 -31 -77 -78q-38 -36 -62 -55q-64 -47 -103 -64q-37 -16 -57 -16q-21 0 -37 22q-14 20 -22 50q-7 29 -9 57q-2 38 -2 43zM156 217q0 -53 8 -75q8 -21 31 -21 q26 0 62 24q31 21 73 61q33 31 71 78q53 65 62 76q21 29 53 79q24 37 50 99q24 57 46 132q24 82 41 178q-58 20 -93 29q-39 10 -79 10q-48 0 -82 -14q-32 -13 -56 -37q-22 -22 -41 -62t-36 -82q-21 -54 -38 -108q-14 -45 -35 -126q-17 -65 -27 -127q-10 -60 -10 -114z" />
<glyph unicode="b" horiz-adv-x="948" d="M74 125q0 10 2 20l207 1129q4 15 4 29v22q0 31 -21 39q-22 8 -49 8h-98l8 43q75 5 166 25q46 11 82 25q41 16 80 36l24 -22l-174 -803l4 -4q69 95 144 163q65 59 129 96q57 33 108 45q45 11 82 11q18 0 39 -6t33 -23q14 -17 22 -44q10 -33 13 -54q5 -28 6 -57 q2 -38 2 -51q0 -88 -24 -186q-25 -103 -66 -187q-43 -89 -105 -169t-137 -130q-49 -35 -127 -70q-74 -33 -139 -33q-34 0 -73 11q-41 12 -70 28q-29 17 -52 46q-20 26 -20 63zM227 205q0 -71 42 -101t108 -30q55 0 98 22q41 21 77 59q33 34 59 82q27 50 44 93q38 95 60 186 q24 100 24 195q0 14 -2 50q-1 27 -9 51q-8 25 -23 40q-16 16 -46 16q-23 0 -52 -10q-28 -10 -61 -27q-37 -19 -64 -40q-25 -19 -58 -52q-41 -44 -73 -95q-31 -49 -48 -94q-18 -46 -30 -87q-6 -22 -19 -72q-10 -37 -18 -87q-9 -59 -9 -99z" />
<glyph unicode="c" horiz-adv-x="833" d="M51 279q0 76 16 167q15 86 45 162q29 75 70 135q40 60 90 93q53 34 110 69q54 33 83 47q44 21 69 27q34 8 68 8q8 0 42 -2q23 -1 53 -8t55 -15q27 -9 45 -24q-18 -50 -30 -124q-10 -63 -19 -138h-48v123q0 23 -14 37q-13 13 -37 26q-17 10 -49 18q-28 7 -59 7 q-30 0 -57 -3q-26 -3 -62 -20q-62 -29 -103 -92t-66 -142q-26 -80 -36 -161q-10 -79 -10 -143q0 -51 7 -92q7 -43 28 -77q21 -35 56 -55q34 -20 91 -20q34 0 72 13q43 15 77 34q42 24 74 44q38 24 66 42l31 21l16 -41l-102 -84q-65 -54 -143 -94q-79 -40 -177 -40 q-72 0 -120 24t-77 65q-27 38 -41 95q-14 56 -14 118z" />
<glyph unicode="d" d="M35 195q0 37 8 127q7 75 36 181q26 94 79 192q52 97 135 159l79 57q38 26 64 42q30 18 62 26t71 8q35 0 85 -8q38 -6 81 -21l58 316q4 15 4 29v22q0 31 -21 39q-22 8 -49 8h-98l8 43q75 5 166 25q46 11 82 25q41 16 80 36l24 -22l-256 -1203q-8 -40 -12 -59 q-6 -29 -6 -51q0 -15 6 -30t24 -15q13 0 34 9t44 26l90 63l21 -39l-166 -123q-46 -35 -83 -54q-41 -21 -64 -21q-60 0 -60 67q0 56 10 106q7 35 23 103l41 164l-8 2q-56 -89 -128 -180q-65 -81 -132 -142q-65 -59 -128 -92t-114 -33q-31 0 -50 22q-18 21 -27 54 q-10 35 -11 71q-2 50 -2 71zM182 213q0 -22 1 -33q1 -15 6 -29t17 -22q13 -8 32 -8q21 0 77 32q53 30 111 85q103 96 171 226q69 130 93 255l25 121q-51 29 -105 38q-55 9 -112 9q-33 0 -60 -4q-31 -5 -61 -27q-42 -30 -77 -104q-33 -71 -62 -171q-25 -86 -41 -194 q-15 -99 -15 -174z" />
<glyph unicode="e" horiz-adv-x="796" d="M31 240q0 36 6 79q6 45 15 89q9 43 21 88q2 8 9.5 36t11.5 41q22 71 59 137t95 111q13 9 39 29t35 26q38 28 85 54q44 24 91 41q45 16 90 16q72 0 125 -39t53 -117q0 -57 -22 -106q-21 -46 -56 -83q-34 -36 -81 -63q-56 -32 -95 -49q-30 -14 -71 -28q-58 -19 -70 -23 l-168 -41q-11 -50 -14 -90q-3 -44 -3 -82q0 -82 39 -137t125 -55q34 0 68 11q35 11 74 30q28 13 70 39q29 18 61 39l49 34l16 -39q-22 -19 -91 -71q-51 -38 -104 -68q-52 -29 -109 -51q-54 -21 -103 -21q-130 0 -190 68q-60 67 -60 195zM213 485q59 12 115 30t108 42 q36 16 65 40q30 24 57 56q26 30 41 67q15 36 15 75q0 49 -25 77q-26 29 -79 29q-19 0 -49 -8q-23 -6 -45 -16q-42 -19 -72 -56q-33 -41 -52 -81q-20 -41 -36 -91q-11 -35 -25 -88z" />
<glyph unicode="f" horiz-adv-x="569" d="M-332 -549q4 6 12 33q0 1 6.5 20.5t9.5 30.5q5 18 13 50q6 24 6 30l29 8q18 -24 40 -41q24 -18 58 -18h2q15 0 36 3q23 3 45 20q23 18 48 56q29 45 50 105q12 34 36 135q20 88 42 200q23 122 42 227q7 38 19.5 110.5t18.5 107.5q7 39 17 97.5t12 72.5q11 62 13 86h-166 l11 45q30 11 88 35q35 14 88 41l30 162q3 14 9.5 42t9.5 40q8 36 22 63q17 35 27 48q5 6 13.5 16.5t11.5 13.5q14 13 41 36q51 42 74 59q56 42 83 61q39 28 66 41q19 8 37 11t34 3q8 0 34 -2q11 -1 40 -5q16 -2 39 -8q18 -4 31 -11q-12 -35 -30 -84q-15 -41 -28 -84l-20 -9 q-19 36 -60 58t-85 22q-49 0 -83 -25t-57 -71q-7 -15 -23 -63q-12 -37 -24 -95l-43 -229h82q47 0 72 4q17 2 32 6q6 2 18 4.5t15 3.5l9 -14q-12 -28 -19 -52q-9 -29 -16 -63h-213q-25 -111 -44 -202q-9 -45 -27.5 -130.5t-26.5 -120.5q-17 -81 -55 -245q-27 -115 -48 -184 q-40 -126 -91 -213q-53 -89 -116 -146q-43 -41 -106 -75q-60 -33 -119 -33q-14 0 -39 5q-21 4 -33 11z" />
<glyph unicode="g" d="M-76 -328q0 81 39 141q41 62 98 104q62 45 130 74q70 30 137 48q-12 8 -29 29q-14 17 -14 38q0 30 18 54t37 43l80 73l-4 5q-14 -2 -23 -2h-22q-60 0 -103 14q-50 16 -82 44q-35 30 -54 76q-19 45 -19 111q0 110 44 203q44 92 130 154q96 67 164 87q66 19 110 19 q19 0 57 -5q33 -4 71 -17q37 -12 68 -36q32 -24 48 -61h37q43 0 85 3q37 3 87 16l6 -13l-19 -92q-24 -4 -50 -6q-34 -2 -52 -2q-23 0 -35 1q-24 2 -35 3q6 -29 7 -38q2 -24 2 -33q0 -97 -41 -173q-40 -73 -99 -125q-59 -51 -115 -77q-59 -27 -91 -33q-9 -14 -33 -43 q-23 -28 -23 -49q0 -40 31 -74q27 -29 65 -61l123 -101q50 -40 91 -96q40 -55 40 -123q0 -43 -16 -79q-17 -38 -43 -70q-30 -36 -61 -58q-35 -24 -70 -41q-71 -32 -146 -50q-77 -19 -153 -19q-58 0 -121 10q-66 11 -122 37q-55 26 -93 73q-37 46 -37 117zM55 -299 q0 -55 28 -97q27 -41 71 -65t94 -36q47 -11 98 -11q45 0 93 11q56 13 100 34q46 22 79 60q33 37 33 88q0 66 -43 112q-44 47 -90 84l-158 121q-54 -15 -109 -39q-56 -25 -98 -61q-44 -38 -71 -87t-27 -114zM258 598q0 -56 9 -102q9 -45 32 -81q23 -35 60 -53t94 -18 q63 0 109 34q48 36 74 86q28 54 41 113q13 58 13 115q0 108 -39 167t-143 59q-53 0 -98 -24q-44 -24 -79 -66q-33 -41 -53 -101q-20 -62 -20 -129z" />
<glyph unicode="h" d="M20 4q25 72 46 158q35 145 49 209q32 148 47 222q21 102 39 202l86 479q4 15 4 29v22q0 31 -21 39q-22 8 -49 8h-98l8 43q75 5 166 25q46 11 82 25q41 16 80 36l24 -22l-196 -916l8 -4q17 20 47.5 59t37.5 48q45 56 93 100q43 42 106 89q53 39 103 70q48 29 91 46 q41 16 69 16q41 0 53 -22q12 -23 12 -50q0 -37 -6 -74q-7 -45 -16 -79l-131 -524q-9 -34 -11 -43q-4 -19 -4 -39q0 -15 9 -29q8 -12 18 -12q19 0 54 19q39 21 71 42l53 35l21 -37q-69 -52 -114 -83q-56 -39 -110 -71q-18 -12 -51 -26q-28 -12 -51 -12q-64 0 -64 81 q0 29 9 79q8 43 18 77l105 402q15 53 23 107q7 45 7 77q0 23 -14 33t-31 10q-34 0 -84 -34q-51 -35 -107 -86q-60 -56 -110 -118q-57 -71 -88 -127q-33 -61 -52 -118q-20 -61 -36 -127q-15 -62 -24 -122q-9 -58 -15 -102l-141 -32z" />
<glyph unicode="i" horiz-adv-x="569" d="M70 795l57 41q76 54 122 83q48 30 78 45q27 14 45 19q13 4 25 4q56 0 56 -53q0 -25 -13 -74l-157 -622q-9 -34 -11 -43q-4 -19 -4 -39q0 -16 8 -29q8 -12 19 -12q19 0 54 19q39 21 71 42l53 35l21 -37q-69 -52 -114 -83q-56 -39 -110 -71q-18 -12 -51 -26 q-29 -12 -51 -12q-64 0 -64 81q0 29 9 79q8 43 18 77l135 492q11 43 12 50q5 28 5 40q0 14 -9 32q-8 15 -28 15q-16 0 -42 -18q-11 -8 -63 -39l-57 -37zM348 1325q0 22 9 46q8 22 26 43q17 20 38 32t46 12q31 0 52 -22q22 -24 22 -56q0 -60 -31 -102q-30 -41 -80 -41 q-82 0 -82 88z" />
<glyph unicode="j" horiz-adv-x="569" d="M-143 -551l16 117q21 -15 53 -28q26 -11 58 -11q17 0 32 19q15 20 27 48q15 36 22 59q8 26 13 52l203 1006q7 36 10 49q6 24 6 41q0 16 -8 32q-7 15 -29 15q-16 0 -42 -18q-17 -12 -62 -39l-58 -37l-14 41l57 41q76 54 122 83q48 30 78 45q27 14 45 19q13 4 26 4 q55 0 55 -53q0 -29 -12 -74l-156 -717q-19 -93 -39 -172q-23 -94 -45 -172q-14 -44 -42 -109q-27 -63 -63 -120q-37 -58 -79 -96q-44 -39 -86 -39q-16 0 -48 2q-23 1 -40 12zM350 1325q0 22 9 46q8 22 26 43q17 20 38 32t46 12q31 0 52 -22q22 -24 22 -56q0 -60 -31 -102 q-30 -41 -80 -41q-82 0 -82 88z" />
<glyph unicode="k" horiz-adv-x="909" d="M16 2q18 73 94 375q45 179 74 348l99 549q4 15 4 29v22q0 31 -21 39q-22 8 -49 8h-98l8 43q75 5 166 25q46 11 82 25q41 16 80 36l24 -22l-217 -994l4 -4q70 100 131 176q72 90 146 164q72 72 143 120q68 46 129 46q53 0 105 -18l-35 -129q-41 12 -78 12q-47 0 -90 -15 q-37 -13 -83 -40q-34 -20 -76 -57q-40 -35 -69 -64l-28 -29q37 -116 86 -252q46 -128 110 -241q3 -7 21 -31q12 -17 31 -17q10 0 30 6q14 4 31 15l88 49l16 -39l-94 -65q-33 -24 -39 -28q-30 -20 -46 -29q-8 -4 -45 -23q-20 -10 -34 -10q-35 0 -75 73q-16 33 -37 83 q-38 92 -52 130q-5 13 -24.5 64.5t-29.5 78.5q-30 82 -42 119q-48 -45 -86 -115q-35 -65 -51 -145l-47 -254l-137 -34z" />
<glyph unicode="l" horiz-adv-x="569" d="M74 63q0 19 3 41q4 31 10 59q7 36 21 87q2 9 13.5 53t19.5 74q9 36 30 124q17 74 36 167q16 80 36 185q1 3 32 179q20 111 26 149q4 25 8.5 57t5.5 36q1 6 2.5 16.5t1.5 12.5t1.5 10t1.5 12q0 31 -21 39q-22 8 -49 8h-98l8 43q75 5 166 25q46 11 82 25q37 14 79 36 l25 -22l-262 -1241q-3 -15 -9 -43q-5 -23 -5 -39t8 -29q8 -12 18 -12q19 0 54 19q39 21 71 42l53 35l21 -37q-69 -52 -114 -83q-62 -43 -109 -71q-17 -11 -52 -26q-28 -12 -51 -12q-63 0 -63 81z" />
<glyph unicode="m" horiz-adv-x="1593" d="M49 795l57 41q76 54 122 83q48 30 78 45q28 14 45 19q13 4 26 4q49 0 49 -67q0 -34 -12 -84l-64 -258l4 -5q15 20 42 55.5t30 39.5q35 47 67 81q38 41 74 72q35 30 94 72q32 22 102 61q60 33 114 33q32 0 44 -19q11 -18 11 -46q0 -20 -5 -45q-2 -9 -10 -39l-59 -267l4 -4 q79 118 169 195q94 80 171 131q32 22 102 61q60 33 113 33q32 0 44 -18t12 -43q0 -15 -6 -43l-9 -37l-153 -608q-9 -34 -11 -43q-4 -19 -4 -39q0 -16 8 -29q8 -12 19 -12q19 0 54 19q39 21 71 42l53 35l21 -37q-69 -52 -114 -83q-56 -39 -110 -71q-18 -12 -51 -26 q-29 -12 -51 -12q-64 0 -64 81q0 28 9 80q7 42 18 76q18 60 31 106q32 116 37 137t11 44t12.5 50t10.5 42q23 92 25 102q2 8 4.5 24.5t3.5 23.5q4 21 4 47q0 21 -5 38q-5 15 -17 15q-62 0 -121 -46q-52 -40 -125 -110q-25 -22 -58 -63q-36 -45 -64 -95q-32 -57 -60 -132 q-27 -72 -49 -171l-43 -219l-142 -30l-10 22q56 233 82 350q45 200 70 346q10 54 10 99q0 24 -4 36q-4 13 -17 13q-29 0 -64 -18q-33 -17 -67 -42q-33 -24 -60 -51q-10 -10 -25.5 -25t-20.5 -20q-97 -102 -143 -220q-44 -113 -74 -251l-45 -209l-140 -30l-6 22 q42 146 74 286q27 116 61 279q15 67 24 129q9 61 9 103q0 16 -8 32q-8 15 -29 15q-17 0 -42 -18q-17 -12 -62 -39l-58 -37z" />
<glyph unicode="n" horiz-adv-x="1138" d="M49 795l57 41q76 54 122 83q48 30 78 45q28 14 45 19q13 4 26 4q49 0 49 -67q0 -34 -12 -84l-74 -314h8q62 91 134 176q64 75 139 138q83 70 167 111q81 40 136 40q41 0 53 -22q12 -23 12 -50q0 -37 -6 -74q-7 -45 -16 -79l-125 -524q-9 -34 -11 -43q-4 -19 -4 -39 q0 -15 9 -29q8 -12 18 -12q19 0 54 19q39 21 71 42l53 35l21 -37q-69 -52 -114 -83q-56 -39 -110 -71q-18 -12 -51 -26q-28 -12 -51 -12q-63 0 -63 81q0 37 9 79q3 16 9 42t8 35l107 434q22 84 22 148q0 19 -7 33t-28 14q-30 0 -66 -18q-41 -21 -75 -44q-43 -30 -78 -66 q-41 -42 -76 -86q-36 -44 -68 -95q-30 -48 -54 -95q-47 -98 -74 -213q-25 -106 -41 -215q-36 -6 -71 -15q-39 -10 -72 -19l-15 22q42 146 74 286q27 116 61 279q15 67 24 129q9 61 9 103q0 16 -8 32q-8 15 -29 15q-17 0 -42 -18q-17 -12 -62 -39l-58 -37z" />
<glyph unicode="o" horiz-adv-x="909" d="M35 305q0 207 81 373q81 168 246 252q47 24 97 41q48 16 110 16q71 0 124 -24q51 -23 85 -68q33 -44 48 -100q16 -61 16 -123q0 -57 -13 -132q-13 -74 -34 -136q-22 -63 -56 -129q-33 -62 -71 -111q-27 -35 -73 -73q-39 -32 -90 -59q-45 -24 -101 -40q-52 -15 -101 -15 q-76 0 -127 27t-83 71t-45 103q-13 58 -13 127zM190 317q0 -40 9 -96q7 -45 29 -84q19 -35 60 -59q38 -23 95 -23q92 0 149 68q41 47 68 110q28 66 48 138q20 75 29 144q9 72 9 132q0 44 -8 94q-7 43 -30 84q-21 37 -58 61q-36 23 -94 23q-35 0 -67 -7q-35 -8 -58 -28 q-47 -38 -81 -107q-34 -71 -57 -153q-21 -76 -32 -161q-11 -83 -11 -136z" />
<glyph unicode="p" d="M-14 -553q7 33 21 97q11 48 30 137q18 85 33 161q6 32 17 92.5t15 81.5l95 553q4 20 7.5 42t8 47.5t6.5 39.5q10 59 10 103q0 15 -8 29t-29 14q-14 0 -41 -16q-6 -3 -17.5 -10t-23 -13.5t-22.5 -13.5l-57 -37l-15 41l58 41q76 54 122 83q52 33 77 45q27 14 45 19 q13 4 26 4q47 0 47 -67q0 -17 -3 -38q-5 -36 -7 -46l-45 -230l4 -4q29 55 85 125q53 66 122 126q68 59 142 96q76 38 145 38q39 0 64 -28q24 -27 36 -67q12 -41 15 -83q3 -44 3 -74q0 -56 -13 -118q-12 -58 -35 -130q-18 -56 -49 -127q-25 -56 -56 -104q-51 -76 -134 -136 q-86 -62 -163 -100q-18 -9 -70 -29q-36 -14 -74 -14q-25 0 -61 11q-40 12 -61 18l-86 -536l-75 -15q-33 -7 -75 -20zM256 121q38 -26 84 -37q43 -10 90 -10q54 0 104 21q49 21 80 69q35 54 72 127q37 74 62 145q27 78 42 152q15 76 15 143q0 8 -2 40q-1 24 -9 45 q-8 23 -22 37q-15 15 -37 15q-33 0 -58 -6q-27 -6 -54 -22q-65 -39 -119 -94q-55 -57 -98 -123t-72 -142q-29 -75 -41 -143z" />
<glyph unicode="q" horiz-adv-x="948" d="M49 162q0 90 13 169q14 89 34 161q22 85 40 136q20 54 45 96q26 43 66 80q47 43 105 87q45 34 105 65q59 31 116 31q62 0 110 -13q49 -14 105 -36l68 45l29 -12q-14 -44 -31 -118q-13 -57 -25 -124l-151 -807q-22 -114 -39 -225q-18 -124 -25 -227q-30 -4 -88 -16 t-88 -19l-18 28q24 24 38 60q11 29 17 57l154 834l-4 4q-25 -44 -60 -91q-43 -57 -81 -100q-37 -42 -95 -95q-53 -48 -100 -81q-43 -30 -74 -49q-41 -25 -96 -25q-22 0 -37 20q-14 19 -22 48t-9 60q-2 42 -2 57zM197 238q0 -17 1 -30q2 -26 5 -39q5 -20 13 -34t26 -14 q22 0 43 10q24 11 44 24q28 18 41 29t31 29q63 61 97 96q48 49 84 109q7 11 17.5 30t14.5 26q7 11 26 50q11 22 19 51q16 58 17 62l43 194q-65 28 -102 40q-50 16 -93 16q-37 0 -83 -10q-47 -10 -70 -39q-40 -51 -71 -127q-30 -75 -55 -163q-24 -86 -36 -168t-12 -142z" />
<glyph unicode="r" horiz-adv-x="796" d="M53 795l58 41q83 59 121 83q48 30 78 45q28 14 45 19q13 4 26 4q49 0 49 -67q0 -34 -12 -84q-19 -78 -32 -141q-14 -66 -30 -150l4 -4q29 65 72 128q23 34 78 113q17 24 45 65q23 34 53 66q32 33 64 53q34 21 73 21q12 0 21 -4l20 -8q-7 -35 -19 -111q-8 -52 -13 -116 h-29q-15 19 -33 29q-16 9 -43 9q-26 0 -48 -14q-26 -16 -46 -35q-27 -25 -41 -44q-16 -21 -33 -40q-70 -86 -111 -186t-63 -209l-53 -246q-46 -8 -69 -13q-43 -9 -68 -17l-21 14q23 71 50 173q21 81 43 178q16 71 34 165q11 59 25 137q5 29 14 101q4 31 4 51q0 15 -8 29 t-29 14q-15 0 -42 -16q-17 -10 -62 -37l-57 -37z" />
<glyph unicode="s" horiz-adv-x="796" d="M18 33q33 128 45 270h52v-172q34 -32 87 -52q54 -20 101 -20q105 0 174 57q70 58 70 167q0 66 -31 94q-30 27 -92 39l-129 24q-86 16 -143 64q-56 47 -56 143q0 55 18 97q19 44 58 83q62 61 147 111q85 49 179 49q55 0 103 -13q52 -14 106 -42q-21 -103 -23 -116 q-10 -52 -16 -116h-47v113q-11 21 -35 40q-20 16 -49 29q-22 10 -56 17q-28 6 -53 6q-43 0 -79 -13q-35 -13 -67 -38q-30 -24 -48 -60q-17 -34 -17 -79q0 -43 13 -66q14 -26 36 -40q24 -16 51 -23q46 -12 62 -15l88 -16q39 -7 82 -20q36 -11 68 -35t49 -57q18 -34 18 -83 q0 -92 -40 -151q-42 -63 -107 -113q-63 -48 -139 -85q-71 -34 -158 -34q-57 0 -114 15q-61 16 -108 41z" />
<glyph unicode="t" horiz-adv-x="681" d="M84 799l4 26q41 12 88 34l44 20t48 22l51 348q26 9 78 32q43 19 82 42l23 -31q-31 -94 -53 -196q-21 -99 -39 -207q111 0 225 12l-23 -102h-219q-18 -82 -33 -160q-6 -29 -16 -83t-15 -78q-15 -76 -27 -141q-7 -38 -15 -99q-5 -23 -6 -43q-2 -28 -2 -39q0 -17 6 -29 t22 -12q19 0 54 18q29 15 69 43l92 64l21 -37q-84 -66 -144 -114q-64 -52 -114 -77q-26 -11 -56 -21q-29 -9 -51 -9q-63 0 -63 81q0 39 10 79q9 34 16 77l115 580h-172z" />
<glyph unicode="u" horiz-adv-x="1138" d="M66 795l57 41q76 54 122 83q48 30 78 45q27 14 45 19q13 4 25 4q47 0 47 -67q0 -17 -3 -38q-5 -36 -7 -46l-117 -555q-2 -9 -10 -55q-4 -23 -4 -54q0 -14 5 -34q4 -17 22 -17q16 0 42 8q21 6 46 25q40 30 97 83q52 49 100 109t87 123t62 121q26 68 46 140q15 55 28 118 l20 104l139 35l15 -18q-38 -144 -50 -194q-27 -115 -48 -203q-20 -81 -43 -187q-17 -79 -31 -147q-3 -15 -9 -43q-4 -19 -4 -39q0 -35 27 -35q19 0 54 16q38 17 71 39l53 35l21 -37q-69 -52 -114 -83q-56 -39 -110 -71q-18 -12 -51 -26q-28 -12 -51 -12q-64 0 -64 81 q0 32 10 79q3 16 9 42t8 35l66 244l-9 2q-42 -71 -99 -141q-46 -56 -114 -131q-48 -51 -65 -67q-40 -38 -83 -71q-41 -31 -89 -55q-46 -23 -86 -23q-18 0 -44 20t-26 56q0 17 2 53q2 28 6 52l117 553q3 8 10 43t7 47q0 13 -9 29q-8 14 -28 14q-15 0 -42 -16l-24 -14 q-24 -14 -39 -23l-57 -37z" />
<glyph unicode="v" d="M43 721q17 69 34 127q20 68 44 115q25 14 65 14q15 0 25 -2q30 -4 65 -6l70 -4q46 -2 64 -2h45q29 0 57 6t51 18l21 -37q-65 -77 -109 -143q-54 -81 -89 -158q-38 -83 -60 -169q-23 -89 -23 -177q0 -40 8 -83q7 -40 29 -71t52 -50q31 -19 81 -19q53 0 106 39q51 38 85 78 q38 47 74 112q32 59 58 133q22 64 37 141q13 68 13 134q0 23 -4 44q-4 22 -14 42q-10 21 -26 31q-18 12 -44 12q-31 0 -56 -19l-22 39l102 97q15 15 32 19q20 5 36 5q38 0 61 -20t39 -52q15 -30 21 -65q6 -34 6 -64q0 -49 -12 -106q-12 -59 -27 -107q-21 -71 -76 -178 q-52 -100 -128 -195q-76 -94 -165 -158q-91 -65 -182 -65q-58 0 -102 23q-43 22 -72 60q-28 36 -43 87q-14 46 -14 103q0 95 26 176q28 87 70 161q47 82 98 146q60 75 115 131l-2 4q-33 -4 -62 -6q-38 -2 -57 -2q-36 0 -52 1t-46 3h-17q-35 0 -64 -13q-30 -13 -42 -44 l-35 -86h-45z" />
<glyph unicode="w" horiz-adv-x="1478" d="M43 721q17 69 34 127q20 68 44 115q25 14 65 14q15 0 25 -2q30 -4 65 -6l70 -4q46 -2 64 -2h45q29 0 57 6t51 18l21 -37q-94 -102 -156 -207q-62 -106 -102 -235q-17 -54 -23 -120t-6 -124q0 -28 6 -60q6 -34 21 -60q17 -31 36 -46q22 -18 58 -18q40 0 81 40q43 41 78 94 q34 51 63 109q32 64 40 83q26 56 41 109q18 63 29 122l59 305l152 45l14 -16l-107 -377q-17 -57 -31 -160q-12 -90 -12 -168q0 -73 28 -131q27 -55 75 -55q52 0 105 39q51 38 85 78q41 51 75 112q29 54 57 133q22 64 37 141q13 68 13 134q0 23 -4 44q-5 26 -13 42 q-10 19 -27 31q-18 12 -44 12q-30 0 -55 -19l-22 39l102 97q15 15 32 19q20 5 36 5q38 0 61 -20t39 -52q13 -27 20 -65q7 -40 7 -64q0 -44 -13 -106q-15 -69 -26 -107q-21 -71 -76 -178q-52 -100 -128 -195q-76 -94 -165 -158q-91 -65 -182 -65q-72 0 -111 63t-39 153 q0 45 6 88q2 12 15 84l-4 4q-14 -28 -63 -117q-36 -65 -86 -129q-50 -63 -106 -104q-58 -42 -124 -42q-52 0 -89 28q-35 26 -57 70q-20 41 -28 91q-9 59 -9 92q0 110 37 202q38 94 88 169q47 70 103 133q55 61 82 98l6 8q-33 -4 -62 -6q-38 -2 -57 -2q-36 0 -52 1t-46 3h-17 q-35 0 -64 -13q-30 -13 -42 -44l-35 -86h-45z" />
<glyph unicode="x" d="M18 2q3 17 9 47.5t8 41.5q8 45 8 89l41 6l23 -57q4 -10 22 -14q16 -4 41 -4q28 0 58 23q37 28 61 56q28 32 52 67q16 23 38 56l82 127l-23 127q-8 51 -13 75q-9 47 -27 94q-19 49 -44 81q-27 35 -65 35q-35 0 -73 -32t-66 -66l-35 20l118 170q17 22 51 33q33 10 66 10 q62 0 97 -25q38 -27 58 -66q23 -44 31 -89q9 -49 15 -96l12 -99l76 113q26 41 52 78q30 43 70 86q37 41 81 69q44 29 88 29q19 0 34 -6q13 -5 27 -14l-30 -174l-29 -9q-6 26 -28 37q-20 10 -44 10h-8q-34 -5 -62 -23q-30 -20 -56 -47q-25 -26 -47 -58q-3 -4 -38 -52 l-71 -100l36 -207q4 -24 15 -65q14 -52 24 -78q16 -40 34 -65q19 -27 61 -27q16 0 40 12q27 13 48 29q32 23 41 31q4 4 10 8.5t9 7.5t5 4l19 -39l-101 -90q-3 -2 -15.5 -12.5t-20.5 -16.5q-18 -14 -45 -31q-16 -10 -48 -24q-25 -11 -45 -11q-40 0 -67 29q-26 28 -43 69 q-18 43 -26 84q-7 33 -13 72l-23 142l-156 -240q-43 -66 -98 -110q-57 -46 -115 -46q-15 0 -41 8q-29 9 -45 17z" />
<glyph unicode="y" d="M-16 -399q0 16 2 30l98 70l20 -8q-2 -14 -3 -20t-1 -19q0 -61 37 -97t90 -36q84 0 140 59q58 61 98 144q18 35 38 83q15 37 31 84q5 15 13 41.5t11 36.5q17 53 20 64l96 332l-4 4q-81 -124 -174 -224q-3 -3 -20.5 -21.5t-28.5 -30.5q-25 -28 -57 -55q-29 -25 -58 -43 q-28 -18 -51 -18t-42 13q-16 11 -29 30q-11 16 -16 40q-6 28 -6 42v50q0 17 2 53l35 497v31q0 46 -9 76q-9 31 -34 31q-9 0 -25 -9q-13 -7 -30 -18l-98 -59l-23 37l168 114q21 14 65 43q31 20 42 25q21 10 26 11q11 3 21 3q23 0 36 -26t13 -117q0 -20 -2 -80q-1 -45 -6 -105 l-31 -397v-24q0 -41 9 -71t32 -30q28 0 92 53q61 51 123 142q24 34 48 78q24 43 46 89q22 45 40 92t30 87l71 270q36 4 77 15q49 13 75 24l23 -18l-289 -901q-38 -114 -85 -214q-47 -99 -122 -196q-29 -36 -71 -81q-37 -40 -83 -72q-44 -31 -95 -51q-48 -19 -105 -19 q-68 0 -119 45t-51 121z" />
<glyph unicode="z" horiz-adv-x="909" d="M-2 43l713 809l-4 4q-41 -23 -89 -32q-46 -9 -94 -9q-30 0 -77 6q-20 3 -82 15q-49 10 -93 10q-14 0 -40 -2q-15 -1 -39 -8l-62 -119h-43l66 250q30 10 62 15q35 5 65 5q34 0 73 -10q12 -3 41.5 -11t46.5 -12q27 -8 63 -15q27 -6 73 -13q57 -9 72 -11q32 -4 67 -4 q21 0 38 7q15 6 31 22l48 47l18 -18l-12 -66l-686 -774l4 -4q84 39 182 39q55 0 111 -11q69 -14 102 -22q56 -14 98 -14q38 0 55 13q15 12 27 38l45 123h45q-9 -43 -13 -58q-2 -7 -14 -63q-13 -58 -16 -77q-8 -47 -18 -95q-33 -10 -54 -15q-28 -6 -44 -6q-39 0 -95 9 q-50 8 -94 18q-90 22 -136 33q-67 16 -138 16q-45 0 -91 -14q-54 -16 -94 -51z" />
<glyph unicode="{" horiz-adv-x="681" d="M31 645q51 16 84 34q34 19 57 47t35 65q13 42 20 83l60 353q15 88 45 142t77 83t106 39q57 10 138 10q-103 -24 -149 -83q-46 -60 -64 -163l-61 -352q-11 -54 -24 -95q-14 -44 -36 -73q-24 -32 -59 -53q-39 -24 -92 -35v-4q77 -21 103 -59q28 -40 28 -101q0 -28 -4 -52 q-2 -10 -4.5 -29.5t-3.5 -28.5l-58 -332q-4 -22 -6 -41q-2 -24 -2 -37q0 -66 32 -109t105 -59q-76 0 -125 7q-54 8 -87 28q-34 21 -50 56t-16 94q0 48 12 114l55 320q1 6 3 16.5t3 18t2 13.5q3 21 3 42q0 54 -28 88q-26 32 -99 53z" />
<glyph unicode="|" horiz-adv-x="1241" d="M563 -512v2048h115v-2048h-115z" />
<glyph unicode="}" horiz-adv-x="681" d="M29 -205q103 24 149 83q46 60 64 163l61 352q7 51 23 95q17 48 36 73q23 31 60 53q39 24 92 35v4q-76 21 -103 60q-28 40 -28 100q0 28 4 52q2 10 4.5 30t3.5 29l58 331q4 22 6 41q2 24 2 37q0 67 -32 110q-31 41 -105 58q76 0 125 -7q54 -8 87 -28q34 -21 50 -56t16 -93 q0 -52 -12 -115l-55 -319q-1 -6 -3 -16.5t-3 -18t-2 -13.5q-3 -21 -3 -42q0 -54 28 -88q27 -33 99 -54q-51 -16 -84 -34q-34 -19 -57 -47q-24 -28 -35 -64q-13 -41 -20 -84l-60 -352q-15 -89 -45 -143t-77 -83t-107 -39q-59 -10 -137 -10z" />
<glyph unicode="~" horiz-adv-x="1241" d="M104 426q10 18 53 85q25 39 62 76q34 34 78 55q46 22 98 22q50 0 116 -22q57 -19 124 -50q64 -30 118 -51q58 -23 97 -23q34 0 68 17q33 17 60 42q29 27 50 57q21 29 37 60l72 -82q-19 -34 -52 -81q-27 -39 -64 -71q-35 -31 -80 -51t-93 -20q-30 0 -66 10q-38 11 -74 25 q-50 20 -74 30q-18 8 -63 25q-81 33 -86 35q-45 18 -92 18q-43 0 -74 -17q-32 -17 -58 -45q-25 -26 -46 -61l-39 -65z" />
<glyph unicode="&#xa1;" horiz-adv-x="681" d="M31 -547q6 22 40 150q13 49 35 147l177 760l61 35l12 -6l-43 -316q-33 -255 -46 -370q-29 -253 -40 -365l-174 -53zM262 815q0 52 34 96q34 45 89 45q42 0 67 -28t25 -70q0 -23 -8 -49q-6 -20 -24 -45q-15 -21 -38 -34t-53 -13q-38 0 -64 22q-28 23 -28 76z" />
<glyph unicode="&#xa2;" d="M115 283q0 108 25 205t73 196q47 97 120 150t165 100q40 21 71 32q33 12 78 17l55 145h68l-55 -145q41 0 77 -12q35 -12 64 -33q-13 -56 -28 -137q-10 -50 -15 -125h-47v131q0 28 -32 43q-28 13 -58 25l-299 -783q26 -10 53 -10q89 0 181 47q90 46 165 107l15 -41 l-123 -101q-48 -40 -141 -80q-86 -37 -193 -37l-70 -174h-65l71 193q-46 7 -77 40t-49 73q-17 37 -23 87q-6 46 -6 87zM266 301q0 -40 14 -91t42 -79l286 754q-10 2 -24 2q-34 0 -76 -13q-41 -13 -68 -34q-44 -34 -61 -71q-11 -24 -37 -89q-14 -31 -28 -84q-4 -16 -24 -102 q-11 -50 -18 -104q-6 -49 -6 -89z" />
<glyph unicode="&#xa3;" d="M4 55q14 7 40 23q23 14 38 28q26 21 71 87q44 64 68 176q14 62 25 148q14 110 18 142h-194l14 72h192q17 112 43 211q23 86 57 163q33 74 70 125q39 54 82 97q56 56 119 90q62 33 137 33q70 0 113 -15t84 -42q-22 -64 -29 -122q-9 -70 -10 -128h-47v110q0 42 -52 73 q-53 32 -138 32q-29 0 -56 -10q-29 -11 -53 -33q-25 -23 -44 -60q-20 -37 -30 -90q-21 -102 -45 -213l-49 -221h291l-14 -72h-293q-4 -16 -22 -84q-11 -42 -30 -101q-24 -77 -32 -99q-20 -55 -31 -78q-10 -23 -26 -50q-15 -25 -30 -48q-4 -6 -28 -39q-12 -16 -18 -21l4 -4 q56 16 67 18q41 9 88 9q64 0 133 -9q28 -4 117 -18q34 -5 77 -7q27 -1 69 -1h36q31 0 54 13q25 14 43 63l45 123h49l-74 -324q-20 -14 -52 -22q-38 -9 -73 -9q-25 0 -66 7q-17 3 -92 17q-64 12 -94 17q-19 3 -65 13q-8 1 -46 7q-4 1 -25.5 4.5t-33.5 5.5q-40 6 -60 8 q-30 3 -52 3q-21 0 -53 -2q-24 -1 -41 -16q-46 -36 -103 -72q-16 7 -30 35q-13 26 -13 57z" />
<glyph unicode="&#xa4;" d="M29 305l110 111q-104 126 -104 291q0 83 25 158t83 136l-114 115l63 66l117 -115q61 57 139 83q82 28 164 28t164 -28q78 -26 139 -83l117 115l63 -66l-114 -115q58 -61 83 -136t25 -158q0 -165 -104 -291l110 -111l-63 -63l-113 108q-131 -114 -307 -114t-307 114 l-113 -108zM141 707q0 -78 29 -145q29 -66 80 -116q49 -48 118 -76q68 -28 144 -28q73 0 143 28q69 28 119 76q51 50 80 116q29 67 29 145q0 77 -29 144q-28 65 -79 116q-48 48 -118 76t-145 28t-145 -28t-118 -76q-51 -51 -79 -116q-29 -67 -29 -144z" />
<glyph unicode="&#xa5;" d="M72 1266v49q29 24 61 54q19 18 64 63q43 0 78 -26t60 -66q28 -44 44 -89q6 -18 18 -49.5t17 -44.5q19 -57 35 -117q17 -65 33 -137q26 -118 29 -134q13 -63 21 -110h5q33 85 37 95q7 17 51 114q31 70 55 117q21 42 53 102q31 54 65 106q39 59 72 96q39 44 83 77 q41 31 96 49l-9 -143q-50 -10 -94 -42q-40 -29 -80 -77q-36 -43 -67 -96q-40 -68 -58 -101q-22 -40 -44 -82q-28 -54 -40 -81l-39 -88h197l-12 -70h-209q-13 -32 -20 -71q-5 -27 -11 -79h228l-13 -69h-225l-33 -226q-6 -34 -6 -73q0 -26 11 -40q12 -15 53 -20l83 -6l-4 -57 q-12 0 -45.5 1.5t-54.5 2.5q-74 2 -115 2q-39 0 -117 -2q-17 0 -58.5 -1.5t-65.5 -2.5l6 57l84 6q44 1 57 19q11 13 20 48q7 30 25 132l27 160h-236l13 69h233q2 14 3 22t1 23q0 28 -4 51q-7 40 -10 54h-203l12 70h172l-18 86q-24 115 -46 195q-24 89 -48 149 q-21 53 -58 106q-34 49 -88 49q-14 0 -31 -7q-33 -14 -40 -17z" />
<glyph unicode="&#xa6;" horiz-adv-x="1241" d="M563 -358v716h115v-716h-115zM563 666v716h115v-716h-115z" />
<glyph unicode="&#xa7;" d="M29 -344l67 289l49 -4l-12 -177q53 -69 119 -95q65 -25 151 -25q56 0 103 20q51 22 87 56q37 36 60 84q23 49 23 104q0 48 -17 85t-43 63q-30 30 -61 49q-35 21 -72 42l-104 58q-47 24 -96 54q-45 27 -89 68q-38 35 -67 85q-27 46 -27 106q0 57 17 103t46 84q28 36 70 72 q36 31 91 69q-84 88 -84 174q0 55 21 115q20 57 54 102q9 11 33 37q28 30 44 46q26 26 46 42q26 20 39 29q94 55 207 55q71 0 140 -18t124 -64l-63 -264h-51l10 164q-41 47 -103 68q-64 22 -120 22q-54 0 -102 -18q-50 -19 -84 -50q-36 -33 -57 -78q-22 -47 -22 -100t26 -94 q27 -42 69 -70l86 -57l165 -99q40 -22 81 -50q39 -27 67 -56q26 -28 46 -72q17 -38 17 -96q0 -56 -17 -100q-18 -46 -48 -87q-27 -37 -71 -74q-41 -35 -83 -58q59 -50 82 -98t23 -105q0 -95 -47 -171q-46 -74 -113 -138q-69 -66 -142 -99q-78 -35 -171 -35q-76 0 -159 27 q-82 27 -138 80zM229 590q0 -39 17 -75q17 -35 43 -61q34 -34 59 -51q37 -25 66 -41l237 -135q49 39 93 94q42 53 42 121q0 42 -15 77q-15 33 -41 63q-26 29 -58 51q-37 25 -66 41l-121 67l-123 76q-52 -40 -93 -98q-40 -56 -40 -129z" />
<glyph unicode="&#xa8;" horiz-adv-x="681" d="M180 1325q0 22 9 46q8 22 26 43q17 20 38 32t46 12q31 0 52 -22q22 -24 22 -56q0 -60 -31 -102q-30 -41 -80 -41q-82 0 -82 88zM590 1325q0 22 9 46q8 22 26 43q17 20 38 32t46 12q31 0 52 -22q21 -23 21 -56q0 -62 -30 -102q-30 -41 -80 -41q-82 0 -82 88z" />
<glyph unicode="&#xa9;" horiz-adv-x="1529" d="M23 702q0 155 58 289q59 135 159 237q100 101 234 160q132 58 286 58q155 0 290 -58q134 -57 237 -159q100 -98 161 -236q59 -133 59 -288q0 -156 -59 -289q-61 -138 -161 -236q-103 -101 -236 -159q-134 -58 -289 -58q-153 0 -287 58t-235 159q-100 100 -159 236 q-58 134 -58 286zM113 702q0 -132 51 -251t139 -207q89 -89 207 -140t252 -51q136 0 254 51q119 51 208 140q88 88 141 207q52 117 52 254q0 136 -52 253q-53 118 -141 207q-89 89 -209 140t-255 51q-132 0 -251 -51q-114 -49 -206 -141q-87 -87 -139 -208 q-51 -119 -51 -254zM365 696q0 94 30 173q29 78 86 136q56 58 134 87q79 30 176 30q71 0 146 -15q70 -14 142 -38v-219h-53q-2 105 -57 162t-164 57q-74 0 -132 -29q-57 -29 -94 -77q-40 -53 -57 -114q-18 -64 -18 -134q0 -67 19 -133q19 -67 58 -121q38 -53 94 -87t130 -34 q84 0 151 41t101 117l43 -19q-18 -49 -54 -87t-81 -63q-44 -25 -97 -39t-102 -14q-91 0 -166 32q-74 32 -126 88q-53 57 -81 133q-28 75 -28 167z" />
<glyph unicode="&#xaa;" horiz-adv-x="681" d="M123 930q0 39 10 92q10 54 27 112q16 56 39 106q23 52 47 81q15 15 21 20q16 14 24 19q11 10 35 24q18 10 39 21q33 17 60 21q36 6 62 6q25 0 56 -7q28 -6 53 -16l43 23l14 -11l-123 -467v-8q0 -8 5 -21q5 -12 20 -12q18 0 42 18q9 7 26.5 19.5t25.5 18.5l8 -25 q-153 -117 -190 -117q-20 0 -28 14q-7 13 -7 29q0 11 2 33q2 17 6 33l31 145l-2 -2l-4 4q-49 -67 -112 -135q-59 -63 -144 -108l-21 -9q-9 -4 -20 -4q-15 0 -24 14q-9 13 -13 29q-5 17 -6 34q-2 24 -2 26zM219 971q0 -32 4 -43q5 -13 21 -13q14 0 40 18q28 20 51 40 q25 23 48 45q24 24 31 35q30 42 43 65q14 25 32 69q13 32 28 76q16 47 26 87q-27 8 -62 16q-27 6 -51 6q-38 0 -59 -7q-23 -7 -37 -22q-15 -15 -25 -36q-4 -9 -20 -52q-18 -42 -25 -64q-9 -28 -22 -75q-12 -43 -17 -77q-6 -37 -6 -68z" />
<glyph unicode="&#xab;" d="M117 514v33q61 54 112 96q63 52 111 98l174 160l39 -33l-281 -344l195 -350l-41 -31q-42 54 -80 104q-37 50 -82 101zM459 514v33q61 54 112 96q63 52 111 98l174 160l39 -33l-281 -344l195 -350l-41 -31q-42 54 -80 104q-37 50 -82 101z" />
<glyph unicode="&#xac;" horiz-adv-x="1241" d="M104 659v115h1033v-532h-115v417h-918z" />
<glyph unicode="&#xad;" horiz-adv-x="681" d="M39 457l39 118h545l-37 -118h-547z" />
<glyph unicode="&#xae;" horiz-adv-x="1529" d="M23 702q0 155 58 289q59 135 159 237q100 101 234 160q132 58 286 58q155 0 290 -58q134 -57 237 -159q100 -98 161 -236q59 -133 59 -288q0 -156 -59 -289q-61 -138 -161 -236q-103 -101 -236 -159q-134 -58 -289 -58q-153 0 -287 58t-235 159q-100 100 -159 236 q-58 134 -58 286zM113 702q0 -132 51 -251t139 -207q89 -89 207 -140t252 -51q136 0 254 51q119 51 208 140q88 88 141 207q52 117 52 254q0 136 -52 253q-53 118 -141 207q-89 89 -209 140t-255 51q-132 0 -251 -51q-114 -49 -206 -141q-87 -87 -139 -208 q-51 -119 -51 -254zM420 1100v35h319q43 0 110 -7q58 -6 102 -26q46 -21 76 -61q30 -41 30 -109q0 -49 -20 -87q-20 -39 -51 -64q-32 -26 -73 -41t-84 -21v-4q36 -5 63 -27q29 -24 49 -54q21 -32 38 -67q21 -43 29 -63q13 -34 28 -66q17 -37 37 -57q18 -18 34 -22 q20 -5 46 -5v-32h-84q-27 0 -50 4q-27 5 -48 20q-15 11 -27 31q-1 2 -23 43q-11 20 -21 44q-8 18 -15 38l-36 87q-21 52 -48 79q-19 19 -45 24q-21 4 -51 4h-72v-264q0 -37 8 -56q8 -18 49 -20l43 -2v-32h-311v32h33q39 0 52 12t13 52v620q0 42 -18 49q-23 10 -47 11z M633 737h55q52 0 94 7q45 8 81 27q38 21 58 55q21 36 21 96q0 90 -53 132t-139 42h-60q-42 0 -49 -21q-8 -22 -8 -51v-287z" />
<glyph unicode="&#xaf;" horiz-adv-x="681" d="M152 1102l22 104h617l-23 -104h-616z" />
<glyph unicode="&#xb0;" horiz-adv-x="819" d="M184 1104v4q0 59 25 117q24 55 66 97t98 66q53 23 119 23q60 0 118 -25q56 -24 98 -66t66 -97q25 -58 25 -119t-25 -120q-24 -56 -66 -97q-44 -43 -98 -66q-56 -24 -118 -24q-63 0 -120 24q-55 23 -98 66q-42 42 -65 97q-25 59 -25 120zM266 1104q0 -48 18 -88 q19 -43 48 -72q30 -30 71 -48q38 -17 89 -17q48 0 86 17q41 18 71 48q31 31 49 72q19 43 19 88q0 43 -19 86q-18 41 -49 72t-71 49t-89 18q-48 0 -86 -17q-41 -18 -71 -48t-48 -71t-18 -85v-4z" />
<glyph unicode="&#xb1;" horiz-adv-x="1241" d="M104 0v115h1033v-115h-1033zM104 567v115h459v350h115v-350h459v-115h-459v-344h-115v344h-459z" />
<glyph unicode="&#xb2;" horiz-adv-x="614" d="M27 569v43q79 78 160 163q85 90 147 163q26 32 45 59q24 34 41 68q21 39 31 72q12 37 12 71q0 61 -31 95q-29 32 -102 32q-64 0 -104 -30q-35 -26 -76 -95l-37 21l80 147q76 54 174 54q100 0 164 -52q63 -51 63 -149q0 -70 -34 -135q-34 -66 -85 -115l-315 -311v-13h266 q32 0 77 5q46 5 75 14l8 -23l-23 -84q-45 1 -133 3q-44 1 -133 1q-92 0 -136 -1t-134 -3z" />
<glyph unicode="&#xb3;" horiz-adv-x="614" d="M57 612l37 179l45 -7q-6 -24 -6 -53q0 -35 13 -58q13 -24 37 -37q26 -15 54 -19q33 -5 64 -5q37 0 75 22q35 20 62 55t42 76q16 45 16 85q0 71 -41 114q-41 42 -133 42q-23 0 -51 -7q-16 -4 -46 -14l-8 27l23 61q21 0 31 -1t30 -1q84 0 138 51q55 52 55 131q0 21 -13 40 q-12 18 -30 30q-17 11 -40 18q-25 7 -40 7q-41 0 -76 -16q-34 -15 -62 -54l-26 -35l-31 21l78 129q37 17 78 28q39 11 74 11q33 0 75 -10q39 -9 67 -29t47 -51q17 -28 17 -68q0 -44 -17 -77q-18 -34 -44 -59q-25 -23 -62 -46q-29 -18 -67 -35v-4q88 -16 145 -59 q56 -42 56 -132q0 -66 -31 -123q-28 -52 -82 -95q-49 -39 -117 -62q-67 -23 -133 -23q-55 0 -104 10q-54 11 -99 43z" />
<glyph unicode="&#xb4;" horiz-adv-x="681" d="M250 1061l313 309q17 16 33 27q16 10 33 10q31 0 55 -18q25 -19 25 -41q0 -34 -17 -49q-13 -12 -41 -31l-332 -207h-69z" />
<glyph unicode="&#xb5;" horiz-adv-x="1032" d="M-123 -410q116 320 182 548q72 249 103 388q4 17 11 52.5t11 54.5t12.5 56.5t12.5 56.5q12 55 21 110q14 82 16 96l143 35l14 -18l-127 -523q-21 -87 -28 -140q-6 -48 -6 -77q0 -17 1 -23t1 -20q0 -18 10 -38q10 -21 27 -21q19 0 26 4q13 8 31 21q45 33 97 82 q50 47 101 111q45 57 87 124q37 59 61 121q26 68 46 140q15 55 28 118l20 104l140 35l14 -18q-31 -115 -49 -194q-27 -115 -48 -203q-20 -81 -43 -187q-28 -128 -32 -147q-1 -7 -3.5 -21t-4.5 -22q-4 -19 -4 -39q0 -35 26 -35q19 0 54 16q38 17 71 39l53 35l21 -37 l-58 -43.5t-56 -41.5q-53 -40 -109 -73q-17 -11 -52 -26q-31 -13 -51 -13q-63 0 -63 82q0 35 8 81t18 79l66 244l-8 2q-40 -68 -95 -143q-58 -79 -108 -134q-42 -44 -61 -65q-45 -49 -67 -70q-33 -32 -65 -54q-31 -22 -55 -22q-34 0 -58 29q-25 29 -26 92q-8 -30 -23 -105 q-8 -40 -22 -124q-6 -39 -17 -123q-8 -64 -8 -98q-12 -5 -40 -17.5t-42 -18.5q-48 -21 -77 -44z" />
<glyph unicode="&#xb6;" d="M68 1055q0 107 29 174q30 70 79 111q49 42 113 60q60 17 131 17h6q36 -1 108 -2.5t107 -1.5q142 -2 215 -2q66 0 196 2q31 0 97.5 1.5t101.5 2.5l-10 -61h-47q-33 0 -57 -3q-25 -3 -44 -18q-20 -15 -33 -43q-15 -31 -22 -80l-256 -1493q-1 -7 -3 -19q-1 -6 -1 -17 q0 -56 33 -68t74 -12h88l-10 -62q-38 1 -108 2.5t-101 1.5q-134 2 -201 2q-69 0 -197 -2q-33 -1 -96 -2.5t-92 -1.5l10 62h62q26 0 46 3t35 18q13 13 26 46q11 27 22 86l129 756q-80 6 -157 50t-137 116q-63 75 -99 168q-37 95 -37 209zM293 1001q0 -183 63 -288t154 -123 l129 745q-45 7 -67 8q-3 0 -21 1.5t-27 1.5q-48 0 -93 -16q-43 -15 -73 -54q-30 -38 -48 -106q-17 -62 -17 -169zM483 -387h140l301 1733h-140z" />
<glyph unicode="&#xb7;" horiz-adv-x="512" d="M109 498q0 53 33 96q35 45 89 45q41 0 67 -29t26 -69q0 -20 -9 -49q-8 -25 -23 -46q-13 -18 -39 -33q-25 -14 -52 -14q-37 0 -65 23q-27 22 -27 76z" />
<glyph unicode="&#xb8;" horiz-adv-x="681" d="M-18 -401l34 59q23 -7 69 -19q38 -10 75 -10q42 0 74 24t32 71q0 37 -29 56t-63 19q-26 0 -41 -4q-4 -1 -14.5 -3.5t-16.5 -4.5l-18 16l125 197h78l-90 -131q4 1 11.5 2t11.5 1q8 1 22 1q69 0 120 -33q52 -34 52 -110q0 -52 -26 -86t-64 -53q-36 -18 -85 -26 q-43 -7 -87 -7q-42 0 -86 12q-40 11 -84 29z" />
<glyph unicode="&#xb9;" horiz-adv-x="614" d="M125 569l10 49l101 13q35 5 45 23q10 19 18 61l111 614q-14 -7 -58 -23q-35 -13 -67 -28l-111 -49l-10 6l14 88q51 11 112 26q65 16 107 33l142 50l20 -13q-11 -36 -18 -70q-1 -4 -7 -30.5t-8 -40.5l-96 -520q-10 -44 -10 -74q0 -32 15 -44q13 -10 63 -15l86 -7l-9 -49 q-38 1 -112 3q-37 1 -113 1q-75 0 -112 -1t-113 -3z" />
<glyph unicode="&#xba;" horiz-adv-x="681" d="M135 1024q0 67 23 141q23 73 65 131q44 61 109 98q67 38 151 38q94 0 135 -55t41 -134t-29 -160t-83 -143q-41 -47 -107 -80t-131 -33q-98 0 -136 59t-38 138zM236 1032q0 -31 6 -58q6 -29 19 -50q13 -22 38 -36t61 -14q58 0 97 41q38 39 61 98q24 60 32 116q9 60 9 100 q0 26 -5 56q-5 29 -19 50q-15 23 -39 36q-23 13 -62 13q-62 0 -100 -39q-41 -42 -61 -97q-22 -60 -29 -116q-8 -64 -8 -100z" />
<glyph unicode="&#xbb;" d="M129 176l281 344l-195 350l41 31q54 -68 80 -103q42 -56 82 -102l147 -166v-32q-74 -66 -112 -97q-63 -52 -111 -98l-174 -160zM471 176l281 344l-195 350l41 31q54 -68 80 -103q42 -56 82 -102l147 -166v-32q-74 -66 -112 -97q-63 -52 -111 -98l-174 -160z" />
<glyph unicode="&#xbc;" horiz-adv-x="1536" d="M63 569l11 49l100 13q35 5 45 23q12 22 19 61l110 614q-17 -8 -57 -23q-39 -14 -68 -28l-110 -49l-11 6l15 88q44 9 111 26q68 17 108 33l141 50l21 -13q-14 -46 -19 -70q-10 -48 -14 -71l-96 -520q-11 -49 -11 -74q0 -31 16 -44q13 -10 62 -15l86 -7l-8 -49 q-76 2 -113 3t-112 1q-76 0 -113 -1t-113 -3zM315 0l924 1432h115l-924 -1432h-115zM840 231v52l448 565l92 18l19 -14l-96 -545h155l6 -16l-22 -66q-37 6 -70 6h-88l-14 -57q-5 -21 -6 -40q-2 -26 -2 -34q0 -45 43 -49l110 -6l-8 -49q-74 2 -110 3t-109 1q-74 0 -110 -1 q-54 -1 -111 -3l6 49l104 6q29 1 47 19q16 16 27 57l27 104h-338zM915 307l281 -2l94 461h-14z" />
<glyph unicode="&#xbd;" horiz-adv-x="1536" d="M63 569l11 49l100 13q35 5 45 23q12 22 19 61l110 614q-17 -8 -57 -23q-39 -14 -68 -28l-110 -49l-11 6l15 88q44 9 111 26q68 17 108 33l141 50l21 -13q-14 -46 -19 -70q-10 -48 -14 -71l-96 -520q-11 -49 -11 -74q0 -31 16 -44q13 -10 62 -15l86 -7l-8 -49 q-76 2 -113 3t-112 1q-76 0 -113 -1t-113 -3zM266 0l924 1432h115l-924 -1432h-115zM909 -4v43q93 92 161 163q85 90 147 163q26 32 45 59q24 34 41 68q19 36 30 71q13 41 13 72q0 60 -31 94q-30 33 -103 33q-61 0 -103 -31q-38 -28 -77 -94l-37 20l80 148q74 53 174 53 q102 0 165 -51t63 -150q0 -70 -34 -135q-33 -64 -85 -114l-316 -312v-12h267q40 0 76 4q46 5 75 14l8 -22l-22 -84q-45 1 -133 3q-44 1 -133 1q-93 0 -137 -1t-134 -3z" />
<glyph unicode="&#xbe;" horiz-adv-x="1536" d="M72 612l37 179l45 -7q-7 -28 -7 -53q0 -33 14 -58q13 -24 37 -37q27 -15 53 -19q33 -5 64 -5q37 0 75 22q37 21 63 55q27 35 42 76q15 42 15 85q0 71 -41 114q-40 42 -133 42q-22 0 -50 -7q-16 -4 -46 -14l-9 27l23 61q22 0 32 -1t29 -1q85 0 139 51t54 131q0 22 -12 40 q-11 17 -31 30q-17 11 -40 18q-25 7 -40 7q-41 0 -76 -16q-32 -15 -61 -54l-27 -35l-31 21l78 129q37 17 78 28q39 11 74 11q34 0 76 -10q37 -9 66 -29q28 -20 47 -51q18 -30 18 -68q0 -42 -18 -77q-18 -34 -44 -59t-61 -46q-27 -16 -68 -35v-4q90 -16 146 -59 q55 -42 55 -132q0 -66 -31 -123q-28 -52 -82 -95q-50 -39 -116 -62q-67 -23 -134 -23q-55 0 -104 10q-53 11 -98 43zM315 0l924 1432h115l-924 -1432h-115zM840 231v52l448 565l92 18l19 -14l-96 -545h155l6 -16l-22 -66q-37 6 -70 6h-88l-14 -57q-5 -21 -6 -40 q-2 -26 -2 -34q0 -45 43 -49l110 -6l-8 -49q-74 2 -110 3t-109 1q-74 0 -110 -1q-54 -1 -111 -3l6 49l104 6q29 1 47 19q16 16 27 57l27 104h-338zM915 307l281 -2l94 461h-14z" />
<glyph unicode="&#xbf;" d="M117 -229q0 94 43 164q47 76 108 133l213 204q31 29 67 70q36 40 36 88q0 27 -16 54t-40 51l52 12q35 -21 57 -57q20 -33 20 -72q0 -67 -34 -123q-37 -61 -78 -105l-144 -161q-38 -44 -78 -109q-38 -62 -38 -127q0 -39 15 -71q14 -30 41 -55q25 -24 59 -37q33 -13 71 -13 q76 0 118 22q40 20 81 85l41 61l45 -12q-3 -10 -15 -39l-16 -37l-51 -125q-50 -33 -110 -55q-57 -21 -120 -21t-123 17q-61 17 -105 50q-46 34 -73 85q-26 49 -26 123zM543 815q0 52 34 96q35 45 89 45q41 0 66 -28q26 -29 26 -70q0 -23 -8 -49q-6 -20 -24 -45 q-14 -20 -39 -34q-23 -13 -52 -13q-39 0 -65 22q-27 23 -27 76z" />
<glyph unicode="&#xc0;" horiz-adv-x="1478" d="M-39 -6v61l41 11q20 6 32 10q19 6 39 22q19 15 48 47q21 24 61 84l764 1215h94l179 -1280q3 -15 9 -43q3 -16 13 -35q5 -9 31 -17q24 -8 61 -12l53 -6v-57q-21 1 -62.5 2.5t-61.5 1.5q-82 2 -125 2q-40 0 -124 -2q-21 0 -63 -2t-63 -2v57l90 6q88 6 88 56q0 16 -3 34 q-4 24 -5 35l-51 385h-504l-209 -358q-9 -17 -23 -41.5t-16 -28.5q-14 -25 -14 -43q0 -16 20 -26q23 -12 43 -13l107 -6v-57l-111 4q-74 2 -111 2q-35 0 -111 -2q-18 0 -56.5 -1.5t-59.5 -2.5zM553 641h442l-75 584h-5zM657 1778q0 22 25 41q24 18 55 18q17 0 33 -10 q16 -11 33 -27l313 -309h-69l-332 207q-24 16 -41 32q-17 15 -17 48z" />
<glyph unicode="&#xc1;" horiz-adv-x="1478" d="M-39 -6v61l41 11q20 6 32 10q19 6 39 22q19 15 48 47q21 24 61 84l764 1215h94l179 -1280q3 -15 9 -43q3 -16 13 -35q5 -9 31 -17q24 -8 61 -12l53 -6v-57q-21 1 -62.5 2.5t-61.5 1.5q-82 2 -125 2q-40 0 -124 -2q-21 0 -63 -2t-63 -2v57l90 6q88 6 88 56q0 16 -3 34 q-4 24 -5 35l-51 385h-504l-209 -358q-9 -17 -23 -41.5t-16 -28.5q-14 -25 -14 -43q0 -16 20 -26q23 -12 43 -13l107 -6v-57l-111 4q-74 2 -111 2q-35 0 -111 -2q-18 0 -56.5 -1.5t-59.5 -2.5zM553 641h442l-75 584h-5zM805 1491l313 309q16 16 33 27q16 10 33 10 q31 0 55 -18q25 -19 25 -41q0 -33 -17 -48q-17 -16 -41 -32l-332 -207h-69z" />
<glyph unicode="&#xc2;" horiz-adv-x="1478" d="M-39 -6v61l41 11q20 6 32 10q19 6 39 22q19 15 48 47q21 24 61 84l764 1215h94l179 -1280q3 -15 9 -43q3 -16 13 -35q5 -9 31 -17q24 -8 61 -12l53 -6v-57q-21 1 -62.5 2.5t-61.5 1.5q-82 2 -125 2q-40 0 -124 -2q-21 0 -63 -2t-63 -2v57l90 6q88 6 88 56q0 16 -3 34 q-4 24 -5 35l-51 385h-504l-209 -358q-9 -17 -23 -41.5t-16 -28.5q-14 -25 -14 -43q0 -16 20 -26q23 -12 43 -13l107 -6v-57l-111 4q-74 2 -111 2q-35 0 -111 -2q-18 0 -56.5 -1.5t-59.5 -2.5zM553 641h442l-75 584h-5zM649 1475l322 346h100l180 -346h-73l-168 213 l-281 -213h-80z" />
<glyph unicode="&#xc3;" horiz-adv-x="1478" d="M-39 -6v61l41 11q20 6 32 10q19 6 39 22q19 15 48 47q21 24 61 84l764 1215h94l179 -1280q3 -15 9 -43q3 -16 13 -35q5 -9 31 -17q24 -8 61 -12l53 -6v-57q-21 1 -62.5 2.5t-61.5 1.5q-82 2 -125 2q-40 0 -124 -2q-21 0 -63 -2t-63 -2v57l90 6q88 6 88 56q0 16 -3 34 q-4 24 -5 35l-51 385h-504l-209 -358q-9 -17 -23 -41.5t-16 -28.5q-14 -25 -14 -43q0 -16 20 -26q23 -12 43 -13l107 -6v-57l-111 4q-74 2 -111 2q-35 0 -111 -2q-18 0 -56.5 -1.5t-59.5 -2.5zM553 641h442l-75 584h-5zM651 1526q6 30 24 75q15 38 39 68q26 33 57 49 q36 19 81 19q33 0 67 -8q23 -6 62 -21l123 -49q26 -10 53 -10q13 0 21 2q31 5 51 33q8 12 20.5 31.5t14.5 21.5h57q-6 -38 -22 -79q-16 -39 -39 -67q-24 -29 -61 -47q-36 -18 -83 -18q-18 0 -54 10q-34 9 -71 23l-78 30q-32 14 -46 19q-22 8 -50 8q-47 0 -68 -26 q-22 -27 -38 -64h-60z" />
<glyph unicode="&#xc4;" horiz-adv-x="1478" d="M-39 -6v61l41 11q20 6 32 10q19 6 39 22q19 15 48 47q21 24 61 84l764 1215h94l179 -1280q3 -15 9 -43q3 -16 13 -35q5 -9 31 -17q24 -8 61 -12l53 -6v-57q-21 1 -62.5 2.5t-61.5 1.5q-82 2 -125 2q-40 0 -124 -2q-21 0 -63 -2t-63 -2v57l90 6q88 6 88 56q0 16 -3 34 q-4 24 -5 35l-51 385h-504l-209 -358q-9 -17 -23 -41.5t-16 -28.5q-14 -25 -14 -43q0 -16 20 -26q23 -12 43 -13l107 -6v-57l-111 4q-74 2 -111 2q-35 0 -111 -2q-18 0 -56.5 -1.5t-59.5 -2.5zM553 641h442l-75 584h-5zM702 1602q0 19 10 46q9 24 25 43q15 18 38 31t46 13 q31 0 52 -23q22 -24 22 -55q0 -61 -31 -103q-30 -41 -80 -41q-82 0 -82 89zM1112 1602q0 22 9 46q8 22 26 43q15 18 38 31t46 13q31 0 52 -23q22 -24 22 -55q0 -61 -31 -103q-30 -41 -80 -41q-82 0 -82 89z" />
<glyph unicode="&#xc5;" horiz-adv-x="1478" d="M-39 -6v61l41 11q20 6 32 10q19 6 39 22q19 15 48 47q21 24 61 84l764 1215h94l179 -1280q3 -15 9 -43q3 -16 13 -35q5 -9 31 -17q24 -8 61 -12l53 -6v-57q-21 1 -62.5 2.5t-61.5 1.5q-82 2 -125 2q-40 0 -124 -2q-21 0 -63 -2t-63 -2v57l90 6q88 6 88 56q0 16 -3 34 q-4 24 -5 35l-51 385h-504l-209 -358q-9 -17 -23 -41.5t-16 -28.5q-14 -25 -14 -43q0 -16 20 -26q23 -12 43 -13l107 -6v-57l-111 4q-74 2 -111 2q-35 0 -111 -2q-18 0 -56.5 -1.5t-59.5 -2.5zM553 641h442l-75 584h-5zM807 1671v8q0 42 16 78q17 37 44 65q28 28 66 43 t79 15q42 0 79 -15t65 -43t44 -65q17 -39 17 -78v-8q0 -39 -17 -78q-16 -36 -44 -64t-65 -43q-40 -16 -79 -16t-79 16q-38 15 -66 43t-44 64t-16 78zM885 1675q0 -58 35 -95q34 -36 92 -36t92 36q35 37 35 95t-35 95q-34 36 -92 36t-92 -36q-35 -37 -35 -95z" />
<glyph unicode="&#xc6;" horiz-adv-x="1927" d="M-8 -6v61l69 11q24 5 41 22q18 18 33 39l754 1116q26 39 26 76q0 17 -26 27t-49 10h-135v61q71 0 108 -1q62 -2 115 -3q81 0 125 -1t139 -1q106 0 268 2q42 1 121 2.5t117 1.5q54 0 80 -1q48 -2 69 -5q-17 -63 -28 -145q-10 -79 -15 -166h-49l-16 182q-2 19 -30 28 q-29 10 -63 14q-36 4 -72 6q-24 1 -54 1q-56 0 -111 -3q-73 -4 -115 -5q-8 -18 -11 -33q-4 -22 -7 -33l-86 -487h35q229 0 448 12l8 -14l-39 -92q-68 4 -135 6q-90 2 -135 2h-198l-89 -518q-4 -16 -4 -37v-35q26 -2 126 -10q52 -4 93 -4q78 0 138 4l135 8q61 4 84 29 q22 24 39 86l33 123h55q-4 -25 -13.5 -72t-12.5 -65q-11 -60 -17 -119q-1 -11 -3 -35q-2 -26 -5 -39q-17 0 -52 -1.5t-53 -2.5q-70 -2 -100 -2q-94 0 -212 3t-243 3q-69 0 -153 -2q-19 0 -64.5 -1.5t-69.5 -2.5l11 53q6 1 19.5 3.5t20.5 4.5q13 3 35 13q17 8 29 23 q13 16 17 44l77 436h-454q-17 -29 -33 -54q-22 -34 -33 -52l-156 -264q-2 -4 -7 -12t-9.5 -16t-8.5 -15q-15 -24 -15 -47q0 -21 14 -32q16 -13 34 -17q19 -4 41 -6q14 -1 35 -1h50v-61l-111 4q-74 2 -111 2q-35 0 -113 -2q-17 0 -59.5 -1.5t-66.5 -2.5zM594 653h414l110 688 h-28q-21 0 -39 -21q-21 -24 -37 -50z" />
<glyph unicode="&#xc7;" horiz-adv-x="1366" d="M92 575q0 83 12 176q12 90 52 188q41 99 110 187q74 94 189 172q73 49 138 76q71 29 131 45q68 18 116 22q58 5 92 5q102 0 205 -23q102 -23 196 -61q-23 -72 -36 -147q-13 -71 -19 -152h-55v172q-83 60 -181 81q-99 21 -196 21q-154 0 -260 -59q-110 -61 -178 -160 q-71 -103 -103 -229q-33 -129 -33 -268q0 -118 29 -220q28 -100 89 -174q59 -73 154 -114q94 -41 220 -41q72 0 129 10q59 10 115 30t108 48q68 37 113 65l20 -14l-20 -74q-118 -86 -243 -128q-128 -43 -267 -44l-66 -96l24 3q8 1 21 1q70 0 121 -33t51 -110q0 -54 -25 -86 q-26 -33 -65 -53q-36 -18 -85 -26q-43 -7 -87 -7q-42 0 -86 12q-40 11 -84 29l35 59q23 -7 69 -19q38 -10 74 -10q44 0 75 24q32 24 32 71q0 37 -30 56q-29 19 -62 19q-26 0 -41 -4q-4 -1 -14.5 -3.5t-16.5 -4.5l-18 16l104 164q-269 15 -411 171q-142 155 -142 437z" />
<glyph unicode="&#xc8;" horiz-adv-x="1251" d="M61 -6l11 53q33 6 79 19q38 11 44 47l178 1032q10 55 13 94q1 8 2 20.5t2 21t1 15.5v7q0 23 -15 37q-16 14 -57 16l-110 4l6 57q49 0 72 -1q46 -2 71 -3q48 0 74 -1t80 -1q106 0 268 2q42 1 121 2.5t117 1.5q54 0 80 -1q48 -2 69 -5q-17 -63 -28 -145q-10 -79 -15 -166 h-49l-16 182q-2 19 -30 28q-29 10 -67 14q-41 5 -85 6q-30 1 -78 1q-55 0 -111 -3q-73 -4 -115 -5q-8 -18 -11 -33q-4 -22 -7 -33l-86 -487h76q229 0 448 12l8 -14l-38 -92q-67 4 -136 6q-90 2 -135 2h-239l-88 -518q-5 -20 -5 -37v-35q33 -3 132 -10q56 -4 129 -4 q137 0 272 12q61 4 84 29q22 24 39 86l33 123h55q-5 -25 -14 -72t-12 -65q-11 -60 -17 -119q-1 -11 -3 -35q-2 -26 -5 -39q-17 0 -52 -1.5t-53 -2.5q-70 -2 -100 -2q-125 0 -248 3t-248 3q-73 0 -157 -2q-19 0 -64.5 -1.5t-69.5 -2.5zM518 1778q0 22 25 41q24 18 55 18 q17 0 33 -10q17 -11 33 -27l313 -309h-70l-332 207q-20 14 -40 32q-17 15 -17 48z" />
<glyph unicode="&#xc9;" horiz-adv-x="1251" d="M61 -6l11 53q33 6 79 19q38 11 44 47l178 1032q10 55 13 94q1 8 2 20.5t2 21t1 15.5v7q0 23 -15 37q-16 14 -57 16l-110 4l6 57q49 0 72 -1q46 -2 71 -3q48 0 74 -1t80 -1q106 0 268 2q42 1 121 2.5t117 1.5q54 0 80 -1q48 -2 69 -5q-17 -63 -28 -145q-10 -79 -15 -166 h-49l-16 182q-2 19 -30 28q-29 10 -67 14q-41 5 -85 6q-30 1 -78 1q-55 0 -111 -3q-73 -4 -115 -5q-8 -18 -11 -33q-4 -22 -7 -33l-86 -487h76q229 0 448 12l8 -14l-38 -92q-67 4 -136 6q-90 2 -135 2h-239l-88 -518q-5 -20 -5 -37v-35q33 -3 132 -10q56 -4 129 -4 q137 0 272 12q61 4 84 29q22 24 39 86l33 123h55q-5 -25 -14 -72t-12 -65q-11 -60 -17 -119q-1 -11 -3 -35q-2 -26 -5 -39q-17 0 -52 -1.5t-53 -2.5q-70 -2 -100 -2q-125 0 -248 3t-248 3q-73 0 -157 -2q-19 0 -64.5 -1.5t-69.5 -2.5zM657 1491l314 309q17 16 33 27 q16 10 32 10q32 0 56 -18t24 -41q0 -33 -16 -48q-17 -16 -41 -32l-332 -207h-70z" />
<glyph unicode="&#xca;" horiz-adv-x="1251" d="M61 -6l11 53q33 6 79 19q38 11 44 47l178 1032q10 55 13 94q1 8 2 20.5t2 21t1 15.5v7q0 23 -15 37q-16 14 -57 16l-110 4l6 57q49 0 72 -1q46 -2 71 -3q48 0 74 -1t80 -1q106 0 268 2q42 1 121 2.5t117 1.5q54 0 80 -1q48 -2 69 -5q-17 -63 -28 -145q-10 -79 -15 -166 h-49l-16 182q-2 19 -30 28q-29 10 -67 14q-41 5 -85 6q-30 1 -78 1q-55 0 -111 -3q-73 -4 -115 -5q-8 -18 -11 -33q-4 -22 -7 -33l-86 -487h76q229 0 448 12l8 -14l-38 -92q-67 4 -136 6q-90 2 -135 2h-239l-88 -518q-5 -20 -5 -37v-35q33 -3 132 -10q56 -4 129 -4 q137 0 272 12q61 4 84 29q22 24 39 86l33 123h55q-5 -25 -14 -72t-12 -65q-11 -60 -17 -119q-1 -11 -3 -35q-2 -26 -5 -39q-17 0 -52 -1.5t-53 -2.5q-70 -2 -100 -2q-125 0 -248 3t-248 3q-73 0 -157 -2q-19 0 -64.5 -1.5t-69.5 -2.5zM481 1475l322 346h100l180 -346h-73 l-168 213l-281 -213h-80z" />
<glyph unicode="&#xcb;" horiz-adv-x="1251" d="M61 -6l11 53q33 6 79 19q38 11 44 47l178 1032q10 55 13 94q1 8 2 20.5t2 21t1 15.5v7q0 23 -15 37q-16 14 -57 16l-110 4l6 57q49 0 72 -1q46 -2 71 -3q48 0 74 -1t80 -1q106 0 268 2q42 1 121 2.5t117 1.5q54 0 80 -1q48 -2 69 -5q-17 -63 -28 -145q-10 -79 -15 -166 h-49l-16 182q-2 19 -30 28q-29 10 -67 14q-41 5 -85 6q-30 1 -78 1q-55 0 -111 -3q-73 -4 -115 -5q-8 -18 -11 -33q-4 -22 -7 -33l-86 -487h76q229 0 448 12l8 -14l-38 -92q-67 4 -136 6q-90 2 -135 2h-239l-88 -518q-5 -20 -5 -37v-35q33 -3 132 -10q56 -4 129 -4 q137 0 272 12q61 4 84 29q22 24 39 86l33 123h55q-5 -25 -14 -72t-12 -65q-11 -60 -17 -119q-1 -11 -3 -35q-2 -26 -5 -39q-17 0 -52 -1.5t-53 -2.5q-70 -2 -100 -2q-125 0 -248 3t-248 3q-73 0 -157 -2q-19 0 -64.5 -1.5t-69.5 -2.5zM547 1602q0 22 9 46q8 22 26 43 q15 18 38 31t46 13q31 0 52 -23q21 -22 21 -55q0 -63 -30 -103q-30 -41 -80 -41q-82 0 -82 89zM956 1602q0 19 10 46q9 24 25 43q15 18 38 31t46 13q31 0 52 -23q22 -24 22 -55q0 -61 -31 -103q-30 -41 -80 -41q-82 0 -82 89z" />
<glyph unicode="&#xcc;" horiz-adv-x="681" d="M14 -6l6 57l74 6q50 1 68 19q10 10 23 48q11 33 28 132l147 889q12 66 14 94q1 8 2 20.5t2 21t1 15.5v7q0 23 -15 37q-16 14 -57 16l-96 4l6 57q34 -1 87.5 -2.5t68.5 -1.5q90 -2 133 -2q46 0 124 2q23 1 58 2.5t37 1.5l-6 -57l-72 -6q-57 -4 -77 -23q-19 -18 -27 -76 l-178 -1065q-6 -22 -7 -34q-2 -24 -2 -39q0 -24 14 -40t60 -20l107 -6l-7 -57q-16 0 -57.5 1.5t-65.5 2.5q-88 2 -135 2t-135 -2q-24 -1 -65.5 -2.5t-57.5 -1.5zM233 1778q0 22 25 41q24 18 55 18q17 0 33 -10q16 -11 33 -27l313 -309h-69l-332 207q-24 16 -41 32 q-17 15 -17 48z" />
<glyph unicode="&#xcd;" horiz-adv-x="681" d="M14 -6l6 57l74 6q50 1 68 19q10 10 23 48q11 33 28 132l147 889q12 66 14 94q1 8 2 20.5t2 21t1 15.5v7q0 23 -15 37q-16 14 -57 16l-96 4l6 57q34 -1 87.5 -2.5t68.5 -1.5q90 -2 133 -2q46 0 124 2q23 1 58 2.5t37 1.5l-6 -57l-72 -6q-57 -4 -77 -23q-19 -18 -27 -76 l-178 -1065q-6 -22 -7 -34q-2 -24 -2 -39q0 -24 14 -40t60 -20l107 -6l-7 -57q-16 0 -57.5 1.5t-65.5 2.5q-88 2 -135 2t-135 -2q-24 -1 -65.5 -2.5t-57.5 -1.5zM373 1491l313 309q16 16 33 27q16 10 33 10q31 0 55 -18t24 -41q0 -33 -16 -48q-17 -16 -41 -32l-332 -207h-69 z" />
<glyph unicode="&#xce;" horiz-adv-x="681" d="M14 -6l6 57l74 6q50 1 68 19q10 10 23 48q11 33 28 132l147 889q12 66 14 94q1 8 2 20.5t2 21t1 15.5v7q0 23 -15 37q-16 14 -57 16l-96 4l6 57q34 -1 87.5 -2.5t68.5 -1.5q90 -2 133 -2q46 0 124 2q23 1 58 2.5t37 1.5l-6 -57l-72 -6q-57 -4 -77 -23q-19 -18 -27 -76 l-178 -1065q-6 -22 -7 -34q-2 -24 -2 -39q0 -24 14 -40t60 -20l107 -6l-7 -57q-16 0 -57.5 1.5t-65.5 2.5q-88 2 -135 2t-135 -2q-24 -1 -65.5 -2.5t-57.5 -1.5zM197 1475l321 346h100l181 -346h-74l-168 213l-281 -213h-79z" />
<glyph unicode="&#xcf;" horiz-adv-x="681" d="M14 -6l6 57l74 6q50 1 68 19q10 10 23 48q11 33 28 132l147 889q12 66 14 94q1 8 2 20.5t2 21t1 15.5v7q0 23 -15 37q-16 14 -57 16l-96 4l6 57q34 -1 87.5 -2.5t68.5 -1.5q90 -2 133 -2q46 0 124 2q23 1 58 2.5t37 1.5l-6 -57l-72 -6q-57 -4 -77 -23q-19 -18 -27 -76 l-178 -1065q-6 -22 -7 -34q-2 -24 -2 -39q0 -24 14 -40t60 -20l107 -6l-7 -57q-16 0 -57.5 1.5t-65.5 2.5q-88 2 -135 2t-135 -2q-24 -1 -65.5 -2.5t-57.5 -1.5zM262 1602q0 22 9 46q8 22 26 43q15 18 38 31t46 13q31 0 52 -23q22 -24 22 -55q0 -61 -31 -103 q-30 -41 -80 -41q-82 0 -82 89zM672 1602q0 22 9 46q8 22 26 43q16 19 37 31q23 13 47 13q31 0 52 -23q21 -22 21 -55q0 -63 -30 -103q-30 -41 -80 -41q-82 0 -82 89z" />
<glyph unicode="&#xd0;" horiz-adv-x="1593" d="M39 709l12 65h240l63 371q12 66 14 94q1 8 2 20.5t2 21t1 15.5v7q0 23 -16 37q-16 15 -56 16l-108 4l6 57q20 0 62 -1.5t63 -2.5q84 -2 127 -2q68 0 208 2l209 4h27q144 0 256 -25q116 -26 196 -88q82 -64 126 -167q45 -105 45 -260q0 -123 -33 -236t-93 -212 q-59 -98 -145 -182q-87 -85 -186 -145q-57 -33 -100 -52q-50 -23 -97 -34q-53 -13 -101 -17q-58 -5 -114 -5h-20q-32 1 -96 2.5t-95 1.5q-126 2 -190 2q-31 0 -95 -2q-16 -1 -48.5 -2.5t-47.5 -1.5l11 53q18 4 67 19q35 11 41 47l103 596h-240zM344 115q95 -16 172 -23 q90 -8 166 -8q165 0 286 64t201 173t120 246q40 138 40 289q0 134 -38 228t-108 151q-72 58 -173 82q-102 24 -232 24q-64 0 -115 -4q-57 -5 -114 -6l-94 -557h383l-13 -65h-383l-90 -519q-5 -18 -6 -37q-2 -26 -2 -38z" />
<glyph unicode="&#xd1;" horiz-adv-x="1593" d="M4 -6l10 57l64 6q12 2 43 10q18 4 28 19q13 18 23 51q9 31 16 72l181 971q3 10 7 37q3 18 3 32q0 3 -8 16q-3 5 -19 23q-14 16 -22 23q-5 4 -12.5 9.5t-8.5 6.5q-23 13 -46 20q-25 7 -48 9l-72 4l11 57q13 0 41 -1.5t42 -2.5q56 -2 82 -2q27 0 83 2q14 1 42 2.5t41 1.5 l703 -1200h4l164 995q3 15 7 51q3 27 3 44q0 47 -74 49l-96 4l10 57q9 0 44 -1.5t57 -2.5q76 -2 118 -2q40 0 118 2q22 1 58 2.5t46 1.5l-11 -57l-75 -4q-10 -1 -39 -7q-20 -4 -27 -16q-6 -11 -24 -64q-15 -45 -33 -159l-193 -1133h-102l-688 1178h-4l-164 -946 q-6 -34 -6 -62q0 -34 8 -53q7 -20 32 -26q29 -7 60 -11l86 -6l-10 -57q-19 1 -57 2.5t-56 1.5q-74 2 -113 2q-37 0 -113 -2q-19 0 -57 -2t-57 -2zM668 1526q7 35 23 75q15 38 39 68q26 33 57 49q36 19 81 19q33 0 67 -8q23 -6 62 -21l123 -49q26 -10 54 -10q12 0 20 2 q31 5 51 33q8 12 20.5 31.5t14.5 21.5h57q-6 -42 -21 -79t-40 -67q-24 -29 -61 -47q-36 -18 -82 -18q-19 0 -55 10q-29 8 -70 23l-78 30q-32 14 -46 19q-22 8 -50 8q-48 0 -69 -26q-22 -27 -38 -64h-59z" />
<glyph unicode="&#xd2;" horiz-adv-x="1593" d="M109 580q0 183 62 338q63 157 175 275q111 117 265 185t335 68q135 0 244 -38q106 -37 184 -110q76 -72 117 -177q41 -106 41 -242q0 -185 -63 -351q-62 -165 -175 -291q-113 -127 -270 -200q-159 -74 -348 -74q-152 0 -261 41q-107 40 -176 120q-71 81 -100 193 q-30 114 -30 263zM289 557q0 -117 25 -208q26 -94 80 -160q53 -64 141 -103q84 -37 208 -37q161 0 277 70q114 69 188 182q75 115 109 255q35 145 35 286q0 121 -27 217q-27 97 -84 163t-147 102t-217 36q-164 0 -276 -74q-113 -75 -181 -189q-72 -121 -101 -259 q-30 -144 -30 -281zM690 1778q0 22 25 41q24 18 55 18q17 0 33 -10q17 -11 33 -27l313 -309h-70l-331 207q-24 16 -41 32q-17 15 -17 48z" />
<glyph unicode="&#xd3;" horiz-adv-x="1593" d="M109 580q0 183 62 338q63 157 175 275q111 117 265 185t335 68q135 0 244 -38q106 -37 184 -110q76 -72 117 -177q41 -106 41 -242q0 -185 -63 -351q-62 -165 -175 -291q-113 -127 -270 -200q-159 -74 -348 -74q-152 0 -261 41q-107 40 -176 120q-71 81 -100 193 q-30 114 -30 263zM289 557q0 -117 25 -208q26 -94 80 -160q53 -64 141 -103q84 -37 208 -37q161 0 277 70q114 69 188 182q75 115 109 255q35 145 35 286q0 121 -27 217q-27 97 -84 163t-147 102t-217 36q-164 0 -276 -74q-113 -75 -181 -189q-72 -121 -101 -259 q-30 -144 -30 -281zM829 1491l314 309q17 16 33 27q16 10 32 10q32 0 56 -18t24 -41q0 -33 -16 -48q-17 -16 -41 -32l-332 -207h-70z" />
<glyph unicode="&#xd4;" horiz-adv-x="1593" d="M109 580q0 183 62 338q63 157 175 275q111 117 265 185t335 68q135 0 244 -38q106 -37 184 -110q76 -72 117 -177q41 -106 41 -242q0 -185 -63 -351q-62 -165 -175 -291q-113 -127 -270 -200q-159 -74 -348 -74q-152 0 -261 41q-107 40 -176 120q-71 81 -100 193 q-30 114 -30 263zM289 557q0 -117 25 -208q26 -94 80 -160q53 -64 141 -103q84 -37 208 -37q161 0 277 70q114 69 188 182q75 115 109 255q35 145 35 286q0 121 -27 217q-27 97 -84 163t-147 102t-217 36q-164 0 -276 -74q-113 -75 -181 -189q-72 -121 -101 -259 q-30 -144 -30 -281zM653 1475l322 346h100l180 -346h-73l-168 213l-281 -213h-80z" />
<glyph unicode="&#xd5;" horiz-adv-x="1593" d="M109 580q0 182 62 337q63 158 175 276q111 117 265 185t335 68q135 0 244 -38q106 -37 184 -110q76 -72 117 -177q41 -106 41 -242q0 -185 -63 -351q-62 -165 -175 -291q-113 -127 -270 -200q-159 -74 -348 -74q-152 0 -261 41q-107 40 -176 120q-71 81 -100 193 q-30 114 -30 263zM289 557q0 -117 25 -208q26 -94 80 -160q53 -64 141 -103q84 -37 208 -37q161 0 277 70q114 69 188 182q75 115 109 255q35 145 35 286q0 121 -27 217q-27 97 -84 163t-147 102t-217 36q-164 0 -276 -74q-113 -75 -181 -189q-72 -121 -101 -259 q-30 -144 -30 -281zM668 1526q7 35 23 75q15 38 39 68q26 33 57 49q36 19 81 19q33 0 67 -8q23 -6 62 -21l123 -49q26 -10 54 -10q12 0 20 2q31 5 51 33q8 12 20.5 31.5t14.5 21.5h57q-6 -42 -21 -79t-40 -67q-24 -29 -61 -47q-36 -18 -82 -18q-19 0 -55 10q-29 8 -70 23 l-78 30q-32 14 -46 19q-22 8 -50 8q-48 0 -69 -26q-22 -27 -38 -64h-59z" />
<glyph unicode="&#xd6;" horiz-adv-x="1593" d="M109 580q0 183 62 338q63 157 175 275q111 117 265 185t335 68q135 0 244 -38q106 -37 184 -110q76 -72 117 -177q41 -106 41 -242q0 -185 -63 -351q-62 -165 -175 -291q-113 -127 -270 -200q-159 -74 -348 -74q-152 0 -261 41q-107 40 -176 120q-71 81 -100 193 q-30 114 -30 263zM289 557q0 -117 25 -208q26 -94 80 -160q53 -64 141 -103q84 -37 208 -37q161 0 277 70q114 69 188 182q75 115 109 255q35 145 35 286q0 121 -27 217q-27 97 -84 163t-147 102t-217 36q-164 0 -276 -74q-113 -75 -181 -189q-72 -121 -101 -259 q-30 -144 -30 -281zM702 1602q0 19 10 46q9 24 25 43q15 18 38 31t46 13q31 0 52 -23q22 -24 22 -55q0 -61 -31 -103q-30 -41 -80 -41q-82 0 -82 89zM1112 1602q0 22 9 46q8 22 26 43q15 18 38 31t46 13q31 0 52 -23q22 -24 22 -55q0 -61 -31 -103q-30 -41 -80 -41 q-82 0 -82 89z" />
<glyph unicode="&#xd7;" horiz-adv-x="1241" d="M170 154l369 368l-369 369l84 80l367 -367l366 367l84 -80l-371 -369l371 -368l-84 -80l-366 366l-367 -366z" />
<glyph unicode="&#xd8;" horiz-adv-x="1593" d="M66 -31l159 170q-74 97 -95 210q-21 114 -21 231q0 183 62 338q63 157 175 275q111 117 265 185t335 68q109 0 216 -29q108 -29 192 -100l147 160l60 -54l-152 -161q71 -82 97 -177q26 -96 26 -206q0 -185 -63 -351q-62 -165 -175 -291q-113 -127 -270 -200 q-159 -74 -348 -74q-104 0 -212 27q-109 27 -190 98l-151 -168zM289 557q0 -173 55 -289l889 961q-76 76 -163 103q-90 28 -193 28q-164 0 -276 -74q-113 -75 -181 -189q-72 -121 -101 -259q-30 -144 -30 -281zM387 199q56 -72 142 -111q87 -39 214 -39q161 0 277 70 q114 69 188 182q75 115 109 255q35 145 35 286q0 77 -14 161q-13 80 -60 158z" />
<glyph unicode="&#xd9;" horiz-adv-x="1593" d="M180 1360l6 57q16 -1 47.5 -2t46.5 -2q62 -2 93 -2t89 2q14 0 44.5 1.5t46.5 2.5l-180 -977q-3 -17 -10 -61q-5 -33 -5 -64q0 -62 25 -107q25 -46 64 -73q41 -29 93 -42q51 -13 107 -13q75 0 143 23q70 24 135 63q63 38 118 90q60 57 96 106l129 783q10 55 13 94 q1 8 2 20.5t2 21t1 15.5v7q0 23 -15 37q-16 14 -57 16l-98 4l6 57q32 -1 85 -2.5t69 -1.5q90 -2 133 -2q45 0 125 2l60 2.5t40 1.5l-6 -57l-74 -6q-56 -4 -76 -23t-28 -76l-170 -1022q-3 -12 -10 -54q-6 -36 -6 -77q0 -21 14 -29q16 -10 51 -14l123 -8l-10 -57 q-16 1 -46.5 2.5t-45.5 1.5q-60 2 -90 2q-34 0 -92 -2q-16 -1 -43.5 -2.5t-39.5 -1.5l-10 10q16 60 30 125q9 41 23 125l-4 4q-48 -62 -106 -111q-66 -55 -137 -94q-75 -41 -152 -65q-81 -25 -151 -25q-81 0 -152 20q-73 21 -120 59q-51 42 -79 103q-28 62 -28 152 q0 34 4 62q1 10 3.5 31.5t4.5 31.5l131 768q3 20 10 70q4 31 4 47q0 32 -16 39q-19 9 -53 10zM657 1778q0 22 25 41q24 18 55 18q17 0 33 -10q16 -11 33 -27l313 -309h-69l-332 207q-24 16 -41 32q-17 15 -17 48z" />
<glyph unicode="&#xda;" horiz-adv-x="1593" d="M180 1360l6 57q16 -1 47.5 -2t46.5 -2q62 -2 93 -2t89 2q14 0 44.5 1.5t46.5 2.5l-180 -977q-3 -17 -10 -61q-5 -33 -5 -64q0 -62 25 -107q25 -46 64 -73q41 -29 93 -42q51 -13 107 -13q75 0 143 23q70 24 135 63q63 38 118 90q58 54 96 107l129 782q10 55 13 94 q1 8 2 20.5t2 21t1 15.5v7q0 23 -15 37q-16 14 -57 16l-98 4l6 57q32 -1 85 -2.5t69 -1.5q90 -2 133 -2q45 0 125 2l60 2.5t40 1.5l-6 -57l-74 -6q-56 -4 -76 -23t-28 -76l-170 -1022q-3 -12 -10 -54q-6 -36 -6 -77q0 -21 14 -29q16 -10 51 -14l123 -8l-10 -57 q-16 1 -46.5 2.5t-45.5 1.5q-60 2 -90 2q-34 0 -92 -2q-16 -1 -43.5 -2.5t-39.5 -1.5l-10 10q16 60 30 125q9 41 23 125l-4 4q-48 -62 -106 -111q-66 -55 -137 -94q-75 -41 -152 -65q-81 -25 -151 -25q-81 0 -152 20q-73 21 -120 59q-51 42 -79 103q-28 62 -28 152 q0 34 4 62q1 10 3.5 31.5t4.5 31.5l131 768q3 20 10 70q4 31 4 47q0 32 -16 39q-19 9 -53 10zM817 1491l313 309q16 16 33 27q16 10 33 10q31 0 55 -18q25 -19 25 -41q0 -33 -16 -48q-17 -16 -41 -32l-332 -207h-70z" />
<glyph unicode="&#xdb;" horiz-adv-x="1593" d="M180 1360l6 57q16 -1 47.5 -2t46.5 -2q62 -2 93 -2t89 2q14 0 44.5 1.5t46.5 2.5l-180 -977q-7 -37 -11 -61q-4 -27 -4 -64q0 -62 25 -107q25 -46 64 -73q41 -29 93 -42q51 -13 107 -13q75 0 143 23q70 24 135 63q63 38 118 90q60 57 96 106l129 783q10 55 13 94 q1 8 2 20.5t2 21t1 15.5v7q0 23 -15 37q-16 14 -57 16l-98 4l6 57q32 -1 85 -2.5t69 -1.5q90 -2 133 -2q45 0 125 2l60 2.5t40 1.5l-6 -57l-74 -6q-56 -4 -76 -23t-28 -76l-170 -1022q-3 -12 -10 -54q-6 -36 -6 -77q0 -21 14 -29q16 -10 51 -14l123 -8l-10 -57 q-16 1 -46.5 2.5t-45.5 1.5q-60 2 -90 2q-34 0 -92 -2q-16 -1 -43.5 -2.5t-39.5 -1.5l-10 10q16 60 30 125q9 41 23 125l-4 4q-48 -62 -106 -111q-66 -55 -137 -94q-75 -41 -152 -65q-81 -25 -151 -25q-81 0 -152 20q-73 21 -120 59q-51 42 -79 103q-28 62 -28 152 q0 34 4 62q1 10 3.5 31.5t4.5 31.5l131 768q3 20 10 70q4 31 4 47q0 32 -16 39q-19 9 -53 10zM637 1475l321 346h101l180 -346h-74l-168 213l-280 -213h-80z" />
<glyph unicode="&#xdc;" horiz-adv-x="1593" d="M180 1360l6 57q16 -1 47.5 -2t46.5 -2q62 -2 93 -2t89 2q14 0 44.5 1.5t46.5 2.5l-180 -977q-7 -37 -11 -61q-4 -27 -4 -64q0 -62 25 -107q25 -46 64 -73q41 -29 93 -42q51 -13 107 -13q75 0 143 23q70 24 135 63q63 38 118 90q60 57 96 106l129 783q10 55 13 94 q1 8 2 20.5t2 21t1 15.5v7q0 23 -15 37q-16 14 -57 16l-98 4l6 57q32 -1 85 -2.5t69 -1.5q90 -2 133 -2q45 0 125 2l60 2.5t40 1.5l-6 -57l-74 -6q-56 -4 -76 -23t-28 -76l-170 -1022q-3 -12 -10 -54q-6 -36 -6 -77q0 -21 14 -29q16 -10 51 -14l123 -8l-10 -57 q-16 1 -46.5 2.5t-45.5 1.5q-60 2 -90 2q-34 0 -92 -2q-16 -1 -43.5 -2.5t-39.5 -1.5l-10 10q16 60 30 125q9 41 23 125l-4 4q-48 -62 -106 -111q-66 -55 -137 -94q-75 -41 -152 -65q-81 -25 -151 -25q-81 0 -152 20q-73 21 -120 59q-51 42 -79 103q-28 62 -28 152 q0 34 4 62q1 10 3.5 31.5t4.5 31.5l131 768q3 20 10 70q4 31 4 47q0 32 -16 39q-19 9 -53 10zM662 1602q0 22 9 46t25 43q15 18 38 31t46 13q32 0 53 -23q21 -22 21 -55q0 -61 -31 -103q-30 -41 -80 -41q-81 0 -81 89zM1071 1602q0 22 9 46q8 22 26 43q15 18 38 31t46 13 q31 0 52 -23q22 -24 22 -55q0 -61 -31 -103q-30 -41 -80 -41q-82 0 -82 89z" />
<glyph unicode="&#xdd;" horiz-adv-x="1366" d="M107 1325q71 50 78 55q25 18 75 58l8 6h6q58 0 101 -27t76 -67q32 -40 57 -89q27 -54 43 -94q20 -48 46 -133q17 -55 49 -163q22 -76 40 -146l21 -84h4q45 120 109 229q61 104 151 228q35 47 83 105q41 49 95 97q51 45 108 78q55 32 125 49l-12 -145q-65 -10 -121 -42 q-53 -30 -103 -77q-48 -45 -89 -98t-78 -102q-41 -55 -81 -120q-39 -62 -73 -127q-32 -60 -55 -118t-29 -94l-49 -314q-5 -17 -6 -34q-2 -24 -2 -39q0 -26 13 -40q14 -15 61 -20l100 -6l-6 -57q-13 0 -53.5 1.5t-65.5 2.5q-88 2 -133 2q-46 0 -138 -2q-20 0 -69.5 -1.5 t-77.5 -2.5l9 57l98 6q49 1 67 19q12 12 24 48q11 33 28 132l43 258v10q0 33 -23 120q-18 67 -53 182q-30 96 -65 187q-38 96 -56 132q-27 51 -75 106q-43 49 -113 49q-16 0 -37 -7q-37 -12 -49 -17zM715 1491l313 309q16 16 33 27q16 10 33 10q31 0 55 -18q25 -19 25 -41 q0 -33 -17 -48q-17 -16 -41 -32l-332 -207h-69z" />
<glyph unicode="&#xde;" horiz-adv-x="1251" d="M18 -6l9 57l84 6q49 1 67 19q12 12 24 48q9 27 27 132l152 889q10 55 13 94q1 8 2 20.5t2 21t1 15.5v7q0 23 -15 37q-16 15 -56 16l-97 4l7 57q34 -1 87 -2.5t68 -1.5q90 -2 133 -2q46 0 126 2q23 1 60.5 2.5t47.5 1.5l-6 -57l-86 -6q-23 -1 -46 -7q-15 -4 -29 -16 q-12 -11 -18 -28q-5 -15 -12 -48l-26 -145h41q64 0 99 1q58 2 109 3h15q84 0 146 -17q68 -18 116 -58q51 -42 77 -102q27 -63 27 -151q0 -98 -37 -182q-38 -87 -101 -150q-67 -67 -151 -103q-88 -38 -186 -38q-104 0 -186 43l-8 66q44 -22 84 -30q38 -7 75 -7q91 0 155 29 q61 28 101 78t57 114q17 62 17 137q0 160 -80 229q-78 68 -233 68q-34 0 -72 -5q-18 -2 -72 -11l-16 -70q-10 -46 -14 -69l-119 -695q-5 -17 -6 -34q-2 -24 -2 -39q0 -26 13 -40q14 -16 60 -20l134 -6l-7 -57q-28 1 -77.5 2.5t-69.5 1.5q-92 2 -137 2q-47 0 -137 -2 q-23 -1 -67.5 -2.5t-66.5 -1.5z" />
<glyph unicode="&#xdf;" d="M-328 -557q17 42 26 82q3 12 9 41.5t10 46.5l23 4q49 -61 110 -61q55 0 101 49t67 114q4 13 14.5 50t16.5 57q21 72 39 174l139 784h-166l9 45l114 48q5 3 20.5 9.5t23.5 10.5q23 11 24 23l31 165q11 54 25 92q15 42 30 60q27 35 95 91q64 52 151 99q71 37 126 55 q58 19 97 19q25 0 60 -12q33 -11 64 -38q30 -25 49 -64q19 -38 19 -91q0 -56 -14 -101q-15 -49 -39 -92q-25 -45 -56 -85q-12 -15 -35.5 -44.5t-31.5 -39.5q-42 -53 -61 -80q-31 -45 -31 -88q0 -46 24 -96q31 -63 56 -107q19 -36 44 -78q23 -39 32 -59q12 -27 18 -48t6 -44 q0 -36 -22 -96q-22 -61 -76 -119q-50 -53 -117 -104q-63 -48 -143 -48q-46 0 -88 14q-48 16 -74 29q5 12 13 45t14 66q9 52 11 65q5 33 5 43h41v-114q22 -25 60 -41q40 -17 73 -17q22 0 54 10q28 9 55 30q25 19 44 58q17 34 17 91q0 55 -28 110l-111 215q-17 31 -26 61 t-9 46q0 42 27 83q36 54 55 81q16 23 43 61t33 47q37 53 59 93q24 44 38 90q13 43 13 96q0 12 -6 42t-25 58q-19 29 -54 51q-35 23 -89 23q-51 0 -92 -19q-39 -18 -66 -45q-29 -29 -44 -56q-19 -35 -25 -52q-12 -31 -26 -92q-5 -19 -29 -134q-14 -64 -27 -136t-18 -95 l-148 -694q-15 -73 -29 -127q-20 -74 -44 -136q-25 -63 -65 -134q-35 -62 -91 -121q-78 -83 -142 -105q-63 -22 -100 -22q-15 0 -43 2q-20 1 -37 6z" />
<glyph unicode="&#xe0;" horiz-adv-x="909" d="M8 149q0 72 23 182q23 108 57 213q34 104 80 191q45 86 90 119q64 46 99 68q38 25 76 41q33 14 66 19q35 5 70 5q48 0 85 -11q45 -13 81 -28l68 37l20 -18l-188 -777q-2 -8 -2 -22q0 -17 6 -32t25 -15q33 0 72 31q7 6 35.5 29t45.5 36l14 -43q-114 -97 -192 -146 q-73 -46 -102 -46q-30 0 -42 19t-12 48q0 49 13 109l55 245l-6 3q-42 -64 -84 -116q-51 -64 -84 -100q-28 -31 -77 -78q-38 -36 -62 -55q-64 -47 -103 -64q-37 -16 -57 -16q-21 0 -37 22q-14 20 -22 50q-7 29 -9 57q-2 38 -2 43zM156 217q0 -53 8 -75q8 -21 31 -21 q26 0 62 24q31 21 73 61q33 31 71 78q53 65 62 76q21 29 53 79q24 37 50 99q24 57 46 132q24 82 41 178q-58 20 -93 29q-39 10 -79 10q-48 0 -82 -14q-32 -13 -56 -37q-22 -22 -41 -62t-36 -82q-21 -54 -38 -108q-14 -45 -35 -126q-17 -65 -27 -127q-10 -60 -10 -114z M266 1389q0 22 25 41q24 18 55 18q17 0 33 -10q17 -10 33 -27l313 -309h-70l-331 207q-28 19 -41 31q-17 15 -17 49z" />
<glyph unicode="&#xe1;" horiz-adv-x="909" d="M8 150q0 71 23 181q23 108 57 213q34 104 80 191q45 86 90 119q64 46 99 68q38 25 76 41q33 14 66 19q35 5 70 5q48 0 85 -11q45 -13 81 -28l68 37l20 -18l-188 -777q-2 -8 -2 -22q0 -17 6 -32t25 -15q33 0 72 31q7 6 35.5 29t45.5 36l14 -43q-114 -97 -192 -146 q-73 -46 -102 -46q-30 0 -42 19t-12 48q0 49 13 109l55 245l-6 3q-42 -64 -84 -116q-51 -64 -84 -100q-28 -31 -77 -78q-38 -36 -62 -55q-64 -47 -103 -64q-37 -16 -57 -16q-21 0 -37 22q-14 20 -22 50q-7 29 -9 57q-2 38 -2 44zM156 217q0 -53 8 -75q8 -21 31 -21 q26 0 62 24q31 21 73 61q33 31 71 78q53 65 62 76q21 29 53 79q24 37 50 99q24 57 46 132q24 82 41 178q-58 20 -93 29q-39 10 -79 10q-48 0 -82 -14q-32 -13 -56 -37q-22 -22 -41 -62t-36 -82q-21 -54 -38 -108q-14 -45 -35 -126q-17 -65 -27 -127q-10 -60 -10 -114z M389 1102l313 309q16 17 33 27q16 10 33 10q31 0 55 -18q25 -19 25 -41q0 -34 -17 -49q-16 -14 -40 -31l-332 -207h-70z" />
<glyph unicode="&#xe2;" horiz-adv-x="909" d="M8 149q0 72 23 182q23 108 57 213q34 104 80 191q45 86 90 119q64 46 99 68q38 25 76 41q33 14 66 19q35 5 70 5q48 0 85 -11q45 -13 81 -28l68 37l20 -18l-188 -777q-2 -8 -2 -22q0 -17 6 -32t25 -15q33 0 72 31q7 6 35.5 29t45.5 36l14 -43q-114 -97 -192 -146 q-73 -46 -102 -46q-30 0 -42 19t-12 48q0 49 13 109l55 245l-6 3q-42 -64 -84 -116q-51 -64 -84 -100q-28 -31 -77 -78q-38 -36 -62 -55q-64 -47 -103 -64q-37 -16 -57 -16q-21 0 -37 22q-14 20 -22 50q-7 29 -9 57q-2 38 -2 43zM156 217q0 -53 8 -75q8 -21 31 -21 q26 0 62 24q31 21 73 61q33 31 71 78q53 65 62 76q21 29 53 79q24 37 50 99q24 57 46 132q24 82 41 178q-58 20 -93 29q-39 10 -79 10q-48 0 -82 -14q-32 -13 -56 -37q-22 -22 -41 -62t-36 -82q-21 -54 -38 -108q-14 -45 -35 -126q-17 -65 -27 -127q-10 -60 -10 -114z M229 1085l322 347h100l180 -347h-73l-168 213l-281 -213h-80z" />
<glyph unicode="&#xe3;" horiz-adv-x="909" d="M8 149q0 72 23 182q23 108 57 213q34 104 80 191q45 86 90 119q64 46 99 68q38 25 76 41q33 14 66 19q35 5 70 5q48 0 85 -11q45 -13 81 -28l68 37l20 -18l-188 -777q-2 -8 -2 -22q0 -17 6 -32t25 -15q33 0 72 31q7 6 35.5 29t45.5 36l14 -43q-114 -97 -192 -146 q-73 -46 -102 -46q-30 0 -42 19t-12 48q0 49 13 109l55 245l-6 2q-39 -59 -84 -115q-51 -64 -84 -100q-28 -31 -77 -78q-38 -36 -62 -55q-64 -47 -103 -64q-37 -16 -57 -16q-21 0 -37 22q-14 20 -22 50q-7 29 -9 57q-2 38 -2 43zM156 217q0 -53 8 -75q8 -21 31 -21 q26 0 62 24q31 21 73 61q33 31 71 78q53 65 62 76q21 29 53 79q24 37 50 99q24 57 46 132q24 82 41 178q-58 20 -93 29q-39 10 -79 10q-48 0 -82 -14q-32 -13 -56 -37q-22 -22 -41 -62t-36 -82q-21 -54 -38 -108q-20 -62 -36 -126q-14 -54 -26 -127q-10 -60 -10 -114z M244 1137q7 33 23 74q16 40 39 69q26 32 58 49q36 19 80 19q29 0 67 -9q30 -7 62 -20l123 -49q26 -10 54 -10q12 0 20 2q31 5 51 33q8 12 20.5 31.5t14.5 21.5h57q-6 -42 -21 -79t-40 -67q-25 -29 -60 -47q-36 -18 -83 -18q-19 0 -55 10q-41 12 -70 22l-78 31q-32 14 -46 19 q-22 8 -50 8q-48 0 -69 -26q-22 -27 -38 -64h-59z" />
<glyph unicode="&#xe4;" horiz-adv-x="909" d="M8 149q0 72 23 182q23 108 57 213q34 104 80 191q45 86 90 119q64 46 99 68q38 25 76 41q33 14 66 19q35 5 70 5q48 0 85 -11q45 -13 81 -28l68 37l20 -18l-188 -777q-2 -8 -2 -22q0 -17 6 -32t25 -15q33 0 72 31q7 6 35.5 29t45.5 36l14 -43q-114 -97 -192 -146 q-73 -46 -102 -46q-30 0 -42 19t-12 48q0 49 13 109l55 245l-6 3q-42 -64 -84 -116q-51 -64 -84 -100q-28 -31 -77 -78q-38 -36 -62 -55q-64 -47 -103 -64q-37 -16 -57 -16q-21 0 -37 22q-14 20 -22 50q-7 29 -9 57q-2 38 -2 43zM156 217q0 -53 8 -75q8 -21 31 -21 q26 0 62 24q31 21 73 61q33 31 71 78q53 65 62 76q21 29 53 79q24 37 50 99q24 57 46 132q24 82 41 178q-58 20 -93 29q-39 10 -79 10q-48 0 -82 -14q-32 -13 -56 -37q-22 -22 -41 -62t-36 -82q-21 -54 -38 -108q-14 -45 -35 -126q-17 -65 -27 -127q-10 -60 -10 -114z M295 1212q0 22 9 46t26 44q15 18 38 31t46 13q31 0 52 -23t21 -55q0 -62 -30 -103t-80 -41q-82 0 -82 88zM705 1212q0 22 9 46q10 26 25 44t38 31t46 13q32 0 53 -23q21 -22 21 -55q0 -61 -31 -103q-30 -41 -80 -41q-81 0 -81 88z" />
<glyph unicode="&#xe5;" horiz-adv-x="909" d="M8 149q0 72 23 182q23 108 57 213q34 104 80 191q45 86 90 119q64 46 99 68q38 25 76 41q33 14 66 19q35 5 70 5q48 0 85 -11q45 -13 81 -28l68 37l20 -18l-188 -777q-2 -8 -2 -22q0 -17 6 -32t25 -15q33 0 72 31q7 6 35.5 29t45.5 36l14 -43q-114 -97 -192 -146 q-73 -46 -102 -46q-30 0 -42 19t-12 48q0 49 13 109l55 245l-6 3q-42 -64 -84 -116q-51 -64 -84 -100q-28 -31 -77 -78q-38 -36 -62 -55q-64 -47 -103 -64q-37 -16 -57 -16q-21 0 -37 22q-14 20 -22 50q-7 29 -9 57q-2 38 -2 43zM156 217q0 -53 8 -75q8 -21 31 -21 q26 0 62 24q31 21 73 61q33 31 71 78q53 65 62 76q21 29 53 79q24 37 50 99q24 57 46 132q24 82 41 178q-58 20 -93 29q-39 10 -79 10q-48 0 -82 -14q-32 -13 -56 -37q-22 -22 -41 -62t-36 -82q-21 -54 -38 -108q-14 -45 -35 -126q-17 -65 -27 -127q-10 -60 -10 -114z M399 1282v8q0 39 17 78q16 38 44 65q28 28 65 43t79 15q41 0 79 -15t66 -43q27 -27 44 -65q16 -36 16 -78v-8q0 -42 -16 -78t-44 -64t-66 -43q-40 -16 -79 -16t-79 16q-37 15 -65 43t-44 64q-17 39 -17 78zM477 1286q0 -58 35 -95q35 -36 92 -36q58 0 92 36q35 37 35 95 t-35 95q-34 36 -92 36t-92 -36q-35 -37 -35 -95z" />
<glyph unicode="&#xe6;" horiz-adv-x="1306" d="M2 186q0 101 37 165q38 65 98 102q59 36 142 50q77 13 163 13h140q9 26 10 47q2 32 2 49v29q0 109 -54 178q-55 70 -171 70q-57 0 -109 -19q-15 -6 -22 -28l-41 -119l-37 10l-13 139q32 19 72 47q25 17 62 36q35 18 66 24q38 8 87 8q109 0 176 -46q69 -48 109 -146 q26 23 80 64q43 33 95 63q51 29 101 47q51 18 99 18q78 0 130 -40t52 -124q0 -42 -19 -85q-17 -38 -48 -74q-36 -41 -66 -63q-44 -31 -74 -46q-72 -37 -171 -58q-101 -22 -183 -26q-14 -66 -19 -100q-8 -54 -8 -103q0 -85 44 -140q44 -54 132 -54q39 0 75 13q40 14 73 33 q27 15 68 42l65 43l41 26l14 -45q-9 -7 -40.5 -32t-49.5 -39q-49 -39 -99 -68q-55 -31 -108 -50q-57 -20 -112 -20q-86 0 -150 38q-63 38 -92 151q-31 -31 -74 -69q-34 -31 -82 -60q-42 -26 -90 -43t-98 -17q-107 0 -155 53q-48 52 -48 156zM152 207q0 -69 38 -101t105 -32 q37 0 74 17q40 19 74 51q37 35 66 85q30 50 48 121q15 52 21 119h-78q-72 0 -132 -10q-63 -11 -111 -39t-77 -79q-28 -49 -28 -132zM723 522q57 1 131 19q72 17 130 49q59 33 100 84q40 50 40 125q0 52 -31 77t-81 25q-65 0 -118 -38q-50 -36 -89 -95q-38 -58 -59 -123 q-22 -68 -23 -123z" />
<glyph unicode="&#xe7;" horiz-adv-x="833" d="M39 -401l35 59q29 -9 68 -19q38 -10 75 -10q43 0 75 24t32 71q0 37 -30 56q-29 19 -63 19q-26 0 -41 -4l-14 -3.5t-16 -4.5l-19 16l115 179q-57 8 -96 33q-41 27 -64 66q-25 42 -35 90q-10 47 -10 108q0 76 16 167q15 86 45 162q29 75 70 135q40 60 90 93q53 34 110 69 q54 33 83 47q44 21 69 27q34 8 68 8q8 0 42 -2q23 -1 53 -8t55 -15q27 -9 45 -24q-18 -50 -30 -124q-10 -63 -19 -138h-48v123q0 23 -14 37q-13 13 -37 26q-17 10 -49 18q-28 7 -59 7q-30 0 -57 -3q-26 -3 -62 -20q-62 -29 -103 -92t-66 -142q-26 -80 -36 -161 q-10 -79 -10 -143q0 -51 7 -92q7 -43 28 -77q21 -35 56 -55q34 -20 91 -20q34 0 72 13q43 15 77 34q42 24 74 44q38 24 66 42l31 21l16 -41l-102 -84q-64 -49 -130 -86q-69 -38 -161 -43l-78 -113l24 3q8 1 21 1q70 0 121 -33t51 -110q0 -52 -26 -86t-64 -53 q-36 -18 -85 -26q-43 -7 -87 -7q-43 0 -86 12q-40 11 -84 29z" />
<glyph unicode="&#xe8;" horiz-adv-x="796" d="M31 240q0 36 6 79q6 45 15 89q9 43 21 88q2 8 9.5 36t11.5 41q22 71 59 137t95 111q13 9 39 29t35 26q38 28 85 54q44 24 91 41q45 16 90 16q72 0 125 -39t53 -117q0 -57 -22 -106q-21 -46 -56 -83q-34 -36 -81 -63q-56 -32 -95 -49q-30 -14 -71 -28q-58 -19 -70 -23 l-168 -41q-11 -50 -14 -90q-3 -44 -3 -82q0 -82 39 -137t125 -55q34 0 68 11q35 11 74 30q28 13 70 39q29 18 61 39l49 34l16 -39q-22 -19 -91 -71q-51 -38 -104 -68q-52 -29 -109 -51q-54 -21 -103 -21q-130 0 -190 68q-60 67 -60 195zM209 1389q0 23 24 41t56 18 q17 0 33 -10q14 -9 32 -27l314 -309h-70l-332 207q-28 19 -41 31q-16 15 -16 49zM213 485q59 12 115 30t108 42q36 16 65 40q30 24 57 56q26 30 41 67q15 36 15 75q0 49 -25 77q-26 29 -79 29q-19 0 -49 -8q-23 -6 -45 -16q-42 -19 -72 -56q-33 -41 -52 -81q-20 -41 -36 -91 q-11 -35 -25 -88z" />
<glyph unicode="&#xe9;" horiz-adv-x="796" d="M31 240q0 36 6 79q6 45 15 89q9 43 21 88q2 8 9.5 36t11.5 41q22 71 59 137t95 111q13 9 39 29t35 26q38 28 85 54q44 24 91 41q45 16 90 16q72 0 125 -39t53 -117q0 -57 -22 -106q-21 -46 -56 -83q-34 -36 -81 -63q-56 -32 -95 -49q-30 -14 -71 -28q-58 -19 -70 -23 l-168 -41q-11 -50 -14 -90q-3 -44 -3 -82q0 -82 39 -137t125 -55q34 0 68 11q35 11 74 30q28 13 70 39q29 18 61 39l49 34l16 -39q-22 -19 -91 -71q-51 -38 -104 -68q-52 -29 -109 -51q-54 -21 -103 -21q-130 0 -190 68q-60 67 -60 195zM213 485q59 12 115 30t108 42 q36 16 65 40q30 24 57 56q26 30 41 67q15 36 15 75q0 49 -25 77q-26 29 -79 29q-19 0 -49 -8q-23 -6 -45 -16q-42 -19 -72 -56q-33 -41 -52 -81q-20 -41 -36 -91q-11 -35 -25 -88zM348 1102l314 309q18 18 32 27q16 10 33 10q31 0 55 -18q25 -19 25 -41q0 -34 -16 -49 q-13 -12 -41 -31l-332 -207h-70z" />
<glyph unicode="&#xea;" horiz-adv-x="796" d="M31 240q0 36 6 79q6 45 15 89q9 43 21 88q2 8 9.5 36t11.5 41q22 71 59 137t95 111q13 9 39 29t35 26q38 28 85 54q44 24 91 41q45 16 90 16q72 0 125 -39t53 -117q0 -57 -22 -106q-21 -46 -56 -83q-34 -36 -81 -63q-56 -32 -95 -49q-30 -14 -71 -28q-58 -19 -70 -23 l-168 -41q-11 -50 -14 -90q-3 -44 -3 -82q0 -82 39 -137t125 -55q34 0 68 11q35 11 74 30q28 13 70 39q29 18 61 39l49 34l16 -39q-22 -19 -91 -71q-51 -38 -104 -68q-52 -29 -109 -51q-54 -21 -103 -21q-130 0 -190 68q-60 67 -60 195zM213 485q59 12 115 30t108 42 q36 16 65 40q30 24 57 56q26 30 41 67q15 36 15 75q0 49 -25 77q-26 29 -79 29q-19 0 -49 -8q-23 -6 -45 -16q-42 -19 -72 -56q-33 -41 -52 -81q-20 -41 -36 -91q-11 -35 -25 -88zM213 1085l322 347h100l180 -347h-74l-168 213l-280 -213h-80z" />
<glyph unicode="&#xeb;" horiz-adv-x="796" d="M31 240q0 36 6 79q6 45 15 89q9 43 21 88q2 8 9.5 36t11.5 41q22 71 59 137t95 111q13 9 39 29t35 26q38 28 85 54q44 24 91 41q45 16 90 16q72 0 125 -39t53 -117q0 -57 -22 -106q-21 -46 -56 -83q-34 -36 -81 -63q-56 -32 -95 -49q-30 -14 -71 -28q-58 -19 -70 -23 l-168 -41q-11 -50 -14 -90q-3 -44 -3 -82q0 -82 39 -137t125 -55q34 0 68 11q35 11 74 30q28 13 70 39q29 18 61 39l49 34l16 -39q-22 -19 -91 -71q-51 -38 -104 -68q-52 -29 -109 -51q-54 -21 -103 -21q-130 0 -190 68q-60 67 -60 195zM213 485q59 12 115 30t108 42 q36 16 65 40q30 24 57 56q26 30 41 67q15 36 15 75q0 49 -25 77q-26 29 -79 29q-19 0 -49 -8q-23 -6 -45 -16q-42 -19 -72 -56q-33 -41 -52 -81q-20 -41 -36 -91q-11 -35 -25 -88zM238 1212q0 22 9 46q10 26 25 44t38 31t46 13q32 0 53 -23t21 -55q0 -61 -31 -103 q-30 -41 -80 -41q-81 0 -81 88zM647 1212q0 22 9 46t26 44q15 18 38 31t46 13q31 0 52 -23q22 -24 22 -55q0 -61 -31 -103q-30 -41 -80 -41q-82 0 -82 88z" />
<glyph unicode="&#xec;" horiz-adv-x="569" d="M70 795l57 41q76 54 122 83q48 30 78 45q27 14 45 19q13 4 25 4q56 0 56 -53q0 -25 -13 -74l-157 -622q-9 -34 -11 -43q-4 -19 -4 -39q0 -16 8 -29q8 -12 19 -12q19 0 54 19q39 21 71 42l53 35l21 -37q-69 -52 -114 -83q-56 -39 -110 -71q-18 -12 -51 -26 q-29 -12 -51 -12q-64 0 -64 81q0 29 9 79q8 43 18 77l135 492q11 43 12 50q5 28 5 40q0 13 -9 29q-8 14 -28 14q-15 0 -42 -16q-6 -3 -17.5 -10t-23 -13.5t-22.5 -13.5l-57 -37zM94 1389q0 22 25 41q24 18 55 18q17 0 33 -10q17 -10 33 -27l313 -309h-70l-331 207 q-28 19 -41 31q-17 15 -17 49z" />
<glyph unicode="&#xed;" horiz-adv-x="569" d="M70 795l57 41q76 54 122 83q48 30 78 45q27 14 45 19q13 4 25 4q56 0 56 -53q0 -25 -13 -74l-157 -622q-9 -34 -11 -43q-4 -19 -4 -39q0 -16 8 -29q8 -12 19 -12q19 0 54 19q39 21 71 42l53 35l21 -37q-69 -52 -114 -83q-56 -39 -110 -71q-18 -12 -51 -26 q-29 -12 -51 -12q-64 0 -64 81q0 29 9 79q8 43 18 77l135 492q11 43 12 50q5 28 5 40q0 13 -9 29q-8 14 -28 14q-15 0 -42 -16q-6 -3 -17.5 -10t-23 -13.5t-22.5 -13.5l-57 -37zM217 1102l313 309q16 17 33 27q16 10 33 10q31 0 55 -18q25 -19 25 -41q0 -34 -17 -49 q-13 -12 -41 -31l-331 -207h-70z" />
<glyph unicode="&#xee;" horiz-adv-x="569" d="M59 1085l322 347h100l181 -347h-74l-168 213l-281 -213h-80zM70 795l57 41q76 54 122 83q48 30 78 45q27 14 45 19q13 4 25 4q56 0 56 -53q0 -25 -13 -74l-157 -622q-9 -34 -11 -43q-4 -19 -4 -39q0 -16 8 -29q8 -12 19 -12q19 0 54 19q39 21 71 42l53 35l21 -37 q-69 -52 -114 -83q-56 -39 -110 -71q-18 -12 -51 -26q-29 -12 -51 -12q-64 0 -64 81q0 29 9 79q8 43 18 77l135 492q11 43 12 50q5 28 5 40q0 13 -9 29q-8 14 -28 14q-15 0 -42 -16q-6 -3 -17.5 -10t-23 -13.5t-22.5 -13.5l-57 -37z" />
<glyph unicode="&#xef;" horiz-adv-x="569" d="M70 795l57 41q76 54 122 83q48 30 78 45q27 14 45 19q13 4 25 4q56 0 56 -53q0 -25 -13 -74l-157 -622q-9 -34 -11 -43q-4 -19 -4 -39q0 -16 8 -29q8 -12 19 -12q19 0 54 19q39 21 71 42l53 35l21 -37q-69 -52 -114 -83q-56 -39 -110 -71q-18 -12 -51 -26 q-29 -12 -51 -12q-64 0 -64 81q0 29 9 79q8 43 18 77l135 492q11 43 12 50q5 28 5 40q0 13 -9 29q-8 14 -28 14q-15 0 -42 -16q-6 -3 -17.5 -10t-23 -13.5t-22.5 -13.5l-57 -37zM125 1212q0 22 9 46t26 44q15 18 38 31t46 13q31 0 52 -23t21 -55q0 -62 -30 -103t-80 -41 q-82 0 -82 88zM535 1212q0 22 9 46q10 26 25 44t38 31t46 13q32 0 53 -23t21 -55q0 -61 -31 -103q-30 -41 -80 -41q-81 0 -81 88z" />
<glyph unicode="&#xf0;" horiz-adv-x="909" d="M35 305q0 116 34 236q35 125 99 220q67 100 161 163t220 63q33 0 65 -8q26 -6 74 -33q0 55 -16 119q-16 65 -51 127l-277 -135l-25 59l265 133q-45 64 -104 106q-55 39 -111 54l41 92q85 -45 152 -95q66 -50 116 -116l276 135l25 -59l-266 -129q27 -50 48 -115 q24 -74 38 -133q15 -62 25 -134q10 -73 10 -120q0 -85 -15 -173q-16 -95 -44 -173q-30 -84 -75 -159q-44 -74 -103 -131q-57 -55 -132 -89q-73 -33 -162 -33q-76 0 -127 27t-83 71t-45 103q-13 58 -13 127zM190 317q0 -40 9 -96q7 -45 29 -84q19 -35 60 -59q38 -23 95 -23 q58 0 105 32q45 30 80 84q34 51 58 118q23 63 37 132q13 61 19 129q6 63 6 109q0 118 -39 184t-153 66q-65 0 -112 -31q-46 -31 -82 -83q-33 -49 -55 -116q-23 -72 -34 -130q-13 -71 -17 -127q-6 -82 -6 -105z" />
<glyph unicode="&#xf1;" horiz-adv-x="1138" d="M49 795l57 41q76 54 122 83q48 30 78 45q28 14 45 19q13 4 26 4q49 0 49 -67q0 -34 -12 -84l-74 -314h8q62 91 134 176q64 75 139 138q83 70 167 111q81 40 136 40q41 0 53 -22q12 -23 12 -50q0 -37 -6 -74q-7 -45 -16 -79l-125 -524q-9 -34 -11 -43q-4 -19 -4 -39 q0 -15 9 -29q8 -12 18 -12q19 0 54 19q39 21 71 42l53 35l21 -37q-69 -52 -114 -83q-56 -39 -110 -71q-18 -12 -51 -26q-28 -12 -51 -12q-63 0 -63 81q0 37 9 79q3 16 9 42t8 35l107 434q22 84 22 148q0 19 -7 33t-28 14q-30 0 -66 -18q-41 -21 -75 -44q-43 -30 -78 -66 q-41 -42 -76 -86q-36 -44 -68 -95q-30 -48 -54 -95q-47 -98 -74 -213q-25 -106 -41 -215q-36 -6 -71 -15q-39 -10 -72 -19l-15 22q42 146 74 286q27 116 61 279q15 67 24 129q9 61 9 103q0 16 -8 32q-8 15 -29 15q-17 0 -42 -18q-17 -12 -62 -39l-58 -37zM358 1137 q6 28 24 74q16 40 39 69q26 33 57 49q36 19 81 19q29 0 67 -9q30 -7 62 -20l123 -49q26 -10 53 -10q13 0 21 2q31 5 51 33q8 12 20.5 31.5t14.5 21.5h57q-6 -42 -21 -79t-40 -67q-24 -28 -61 -47q-36 -18 -83 -18q-18 0 -54 10q-46 13 -71 22l-77 31q-28 12 -47 19 q-22 8 -50 8q-47 0 -68 -26q-22 -27 -38 -64h-60z" />
<glyph unicode="&#xf2;" horiz-adv-x="909" d="M35 305q0 207 81 373q81 167 247 252q49 25 96 41q48 16 110 16q71 0 124 -24q51 -23 85 -68q33 -44 48 -100q16 -61 16 -123q0 -57 -13 -132q-13 -74 -34 -136q-22 -63 -56 -129q-33 -62 -71 -111q-27 -35 -73 -73q-39 -32 -90 -59q-45 -24 -101 -40q-52 -15 -101 -15 q-76 0 -127 27t-83 71t-45 103q-13 58 -13 127zM190 317q0 -40 9 -96q7 -45 29 -84q19 -35 60 -59q38 -23 95 -23q92 0 149 68q41 47 68 110q28 66 48 138q20 75 29 144q9 72 9 132q0 44 -8 94q-7 43 -30 84q-21 37 -58 61q-36 23 -94 23q-35 0 -67 -7q-35 -8 -58 -28 q-47 -38 -81 -107q-34 -71 -57 -153q-21 -76 -32 -161q-11 -83 -11 -136zM250 1389q0 23 24 41t56 18q16 0 32 -10t33 -27l314 -309h-70l-332 207q-28 19 -41 31q-16 15 -16 49z" />
<glyph unicode="&#xf3;" horiz-adv-x="909" d="M35 305q0 207 81 373q81 167 247 252q49 25 96 41q48 16 110 16q71 0 124 -24q51 -23 85 -68q33 -44 48 -100q16 -61 16 -123q0 -57 -13 -132q-13 -74 -34 -136q-22 -63 -56 -129q-33 -62 -71 -111q-27 -35 -73 -73q-39 -32 -90 -59q-45 -24 -101 -40q-52 -15 -101 -15 q-76 0 -127 27t-83 71t-45 103q-13 58 -13 127zM190 317q0 -40 9 -96q7 -45 29 -84q19 -35 60 -59q38 -23 95 -23q92 0 149 68q41 47 68 110q28 66 48 138q20 75 29 144q9 72 9 132q0 44 -8 94q-7 43 -30 84q-21 37 -58 61q-36 23 -94 23q-35 0 -67 -7q-35 -8 -58 -28 q-47 -38 -81 -107q-34 -71 -57 -153q-21 -76 -32 -161q-11 -83 -11 -136zM389 1102l313 309q16 17 33 27q16 10 33 10q31 0 55 -18q25 -19 25 -41q0 -34 -17 -49q-16 -14 -40 -31l-332 -207h-70z" />
<glyph unicode="&#xf4;" horiz-adv-x="909" d="M35 305q0 207 81 373q81 168 246 252q47 24 97 41q48 16 110 16q71 0 124 -24q51 -23 85 -68q33 -44 48 -100q16 -61 16 -123q0 -57 -13 -132q-13 -74 -34 -136q-22 -63 -56 -129q-33 -62 -71 -111q-27 -35 -73 -73q-39 -32 -90 -59q-45 -24 -101 -40q-52 -15 -101 -15 q-76 0 -127 27t-83 71t-45 103q-13 58 -13 127zM190 317q0 -40 9 -96q7 -45 29 -84q19 -35 60 -59q38 -23 95 -23q92 0 149 68q41 47 68 110q28 66 48 138q20 75 29 144q9 72 9 132q0 44 -8 94q-7 43 -30 84q-21 37 -58 61q-36 23 -94 23q-35 0 -67 -7q-35 -8 -58 -28 q-47 -38 -81 -107q-34 -71 -57 -153q-21 -76 -32 -161q-11 -83 -11 -136zM229 1085l322 347h100l180 -347h-73l-168 213l-281 -213h-80z" />
<glyph unicode="&#xf5;" horiz-adv-x="909" d="M35 305q0 207 81 373q81 168 246 252q47 24 97 41q48 16 110 16q71 0 124 -24q51 -23 85 -68q33 -44 48 -100q16 -61 16 -123q0 -57 -13 -132q-13 -74 -34 -136q-22 -63 -56 -129q-33 -62 -71 -111q-27 -35 -73 -73q-39 -32 -90 -59q-45 -24 -101 -40q-52 -15 -101 -15 q-76 0 -127 27t-83 71t-45 103q-13 58 -13 127zM190 317q0 -40 9 -96q7 -45 29 -84q19 -35 60 -59q38 -23 95 -23q92 0 149 68q41 47 68 110q28 66 48 138q20 75 29 144q9 72 9 132q0 44 -8 94q-7 43 -30 84q-21 37 -58 61q-36 23 -94 23q-35 0 -67 -7q-35 -8 -58 -28 q-47 -38 -81 -107q-34 -71 -57 -153q-21 -76 -32 -161q-11 -83 -11 -136zM244 1137q7 33 23 74q16 40 39 69q26 32 58 49q36 19 80 19q29 0 67 -9q30 -7 62 -20l123 -49q26 -10 54 -10q12 0 20 2q31 5 51 33q8 12 20.5 31.5t14.5 21.5h57q-6 -42 -21 -79t-40 -67 q-25 -29 -60 -47q-36 -18 -83 -18q-19 0 -55 10q-41 12 -70 22l-78 31q-32 14 -46 19q-22 8 -50 8q-48 0 -69 -26q-22 -27 -38 -64h-59z" />
<glyph unicode="&#xf6;" horiz-adv-x="909" d="M35 305q0 207 81 373q81 168 246 252q47 24 97 41q48 16 110 16q71 0 124 -24q51 -23 85 -68q33 -44 48 -100q16 -61 16 -123q0 -57 -13 -132q-13 -74 -34 -136q-22 -63 -56 -129q-33 -62 -71 -111q-27 -35 -73 -73q-39 -32 -90 -59q-45 -24 -101 -40q-52 -15 -101 -15 q-76 0 -127 27t-83 71t-45 103q-13 58 -13 127zM190 317q0 -40 9 -96q7 -45 29 -84q19 -35 60 -59q38 -23 95 -23q92 0 149 68q41 47 68 110q28 66 48 138q20 75 29 144q9 72 9 132q0 44 -8 94q-7 43 -30 84q-21 37 -58 61q-36 23 -94 23q-35 0 -67 -7q-35 -8 -58 -28 q-47 -38 -81 -107q-34 -71 -57 -153q-21 -76 -32 -161q-11 -83 -11 -136zM295 1212q0 22 9 46t26 44q15 18 38 31t46 13q31 0 52 -23t21 -55q0 -62 -30 -103t-80 -41q-82 0 -82 88zM705 1212q0 22 9 46q10 26 25 44t38 31t46 13q32 0 53 -23q21 -22 21 -55q0 -61 -31 -103 q-30 -41 -80 -41q-81 0 -81 88z" />
<glyph unicode="&#xf7;" horiz-adv-x="1241" d="M104 459v114h1033v-114h-1033zM518 102q0 47 28 75t75 28q46 0 74 -28t28 -75q0 -46 -28 -74t-74 -28q-47 0 -75 28t-28 74zM518 930q0 47 28 75q27 27 75 27q47 0 74 -27q28 -28 28 -75t-28 -75t-74 -28q-47 0 -75 28t-28 75z" />
<glyph unicode="&#xf8;" horiz-adv-x="909" d="M-37 -8l109 123q-22 40 -29 88q-8 53 -8 102q0 116 34 236q35 123 101 220q68 100 167 163t232 63q69 0 119 -21q47 -20 82 -61l123 139l49 -40l-135 -154q35 -75 35 -178q0 -57 -13 -132q-13 -74 -34 -136q-22 -63 -56 -129q-33 -62 -71 -111q-27 -35 -73 -73 q-39 -32 -90 -59q-45 -24 -101 -40q-52 -15 -101 -15q-130 0 -196 82l-95 -108zM190 317q0 -21 1 -31q0 -5 1.5 -15.5t2.5 -16.5l471 532q-18 53 -59 88t-111 35q-65 0 -112 -31q-46 -31 -82 -83q-33 -49 -55 -116q-23 -72 -34 -130q-13 -71 -17 -127q-6 -82 -6 -105z M211 176q22 -54 60 -87q40 -34 112 -34q58 0 105 32q44 30 80 83q34 51 57 117q21 60 35 131t20 126q6 60 6 103q0 21 -1 31q-2 20 -3 31z" />
<glyph unicode="&#xf9;" horiz-adv-x="1138" d="M66 795l57 41q76 54 122 83q48 30 78 45q27 14 45 19q13 4 25 4q47 0 47 -67q0 -17 -3 -38q-5 -36 -7 -46l-117 -555q-2 -9 -10 -55q-4 -23 -4 -54q0 -14 5 -34q4 -17 22 -17q16 0 42 8q21 6 46 25q40 30 97 83q52 49 100 109t87 123t62 121q26 68 46 140q15 55 28 118 l20 104l139 35l15 -18q-38 -144 -50 -194q-27 -115 -48 -203q-20 -81 -43 -187q-17 -79 -31 -147q-3 -15 -9 -43q-4 -19 -4 -39q0 -35 27 -35q19 0 54 16q38 17 71 39l53 35l21 -37q-69 -52 -114 -83q-56 -39 -110 -71q-18 -12 -51 -26q-28 -12 -51 -12q-64 0 -64 81 q0 32 10 79q3 16 9 42t8 35l66 244l-9 2q-42 -71 -99 -141q-46 -56 -114 -131q-48 -51 -65 -67q-40 -38 -83 -71q-41 -31 -89 -55q-46 -23 -86 -23q-18 0 -44 20t-26 56q0 17 2 53q2 28 6 52l117 553q3 8 10 43t7 47q0 13 -9 29q-8 14 -28 14q-15 0 -42 -16l-24 -14 q-24 -14 -39 -23l-57 -37zM381 1389q0 22 25 41q24 18 55 18q17 0 33 -10q14 -9 32 -27l314 -309h-70l-332 207q-28 19 -41 31q-16 15 -16 49z" />
<glyph unicode="&#xfa;" horiz-adv-x="1138" d="M66 795l57 41q76 54 122 83q48 30 78 45q27 14 45 19q13 4 25 4q47 0 47 -67q0 -17 -3 -38q-5 -36 -7 -46l-117 -555q-2 -9 -10 -55q-4 -23 -4 -54q0 -14 5 -34q4 -17 22 -17q16 0 42 8q21 6 46 25q40 30 97 83q52 49 100 109t87 123t62 121q26 68 46 140q15 55 28 118 l20 104l139 35l15 -18q-38 -144 -50 -194q-27 -115 -48 -203q-20 -81 -43 -187q-17 -79 -31 -147q-3 -15 -9 -43q-4 -19 -4 -39q0 -35 27 -35q19 0 54 16q38 17 71 39l53 35l21 -37q-69 -52 -114 -83q-56 -39 -110 -71q-18 -12 -51 -26q-28 -12 -51 -12q-64 0 -64 81 q0 32 10 79q3 16 9 42t8 35l66 244l-9 2q-42 -71 -99 -141q-46 -56 -114 -131q-48 -51 -65 -67q-40 -38 -83 -71q-41 -31 -89 -55q-46 -23 -86 -23q-18 0 -44 20t-26 56q0 17 2 53q2 28 6 52l117 553q3 8 10 43t7 47q0 13 -9 29q-8 14 -28 14q-15 0 -42 -16l-24 -14 q-24 -14 -39 -23l-57 -37zM606 1102l314 309q18 18 32 27q16 10 33 10q31 0 55 -18q25 -19 25 -41q0 -34 -16 -49q-13 -12 -41 -31l-332 -207h-70z" />
<glyph unicode="&#xfb;" horiz-adv-x="1138" d="M66 795l57 41q76 54 122 83q48 30 78 45q27 14 45 19q13 4 25 4q47 0 47 -67q0 -17 -3 -38q-5 -36 -7 -46l-117 -555q-2 -9 -10 -55q-4 -23 -4 -54q0 -14 5 -34q4 -17 22 -17q16 0 42 8q21 6 46 25q40 30 97 83q52 49 100 109t87 123t62 121q26 68 46 140q15 55 28 118 l20 104l139 35l15 -18q-38 -144 -50 -194q-27 -115 -48 -203q-20 -81 -43 -187q-17 -79 -31 -147q-3 -15 -9 -43q-4 -19 -4 -39q0 -35 27 -35q19 0 54 16q38 17 71 39l53 35l21 -37q-69 -52 -114 -83q-56 -39 -110 -71q-18 -12 -51 -26q-28 -12 -51 -12q-64 0 -64 81 q0 32 10 79q3 16 9 42t8 35l66 244l-9 2q-42 -71 -99 -141q-46 -56 -114 -131q-48 -51 -65 -67q-40 -38 -83 -71q-41 -31 -89 -55q-46 -23 -86 -23q-18 0 -44 20t-26 56q0 17 2 53q2 28 6 52l117 553q3 8 10 43t7 47q0 13 -9 29q-8 14 -28 14q-15 0 -42 -16l-24 -14 q-24 -14 -39 -23l-57 -37zM344 1085l322 347h100l180 -347h-74l-167 213l-281 -213h-80z" />
<glyph unicode="&#xfc;" horiz-adv-x="1138" d="M66 795l57 41q76 54 122 83q48 30 78 45q27 14 45 19q13 4 25 4q47 0 47 -67q0 -17 -3 -38q-5 -36 -7 -46l-117 -555q-2 -9 -10 -55q-4 -23 -4 -54q0 -14 5 -34q4 -17 22 -17q16 0 42 8q21 6 46 25q40 30 97 83q52 49 100 109t87 123t62 121q26 68 46 140q15 55 28 118 l20 104l139 35l15 -18q-38 -144 -50 -194q-27 -115 -48 -203q-20 -81 -43 -187q-17 -79 -31 -147q-3 -15 -9 -43q-4 -19 -4 -39q0 -35 27 -35q19 0 54 16q38 17 71 39l53 35l21 -37q-69 -52 -114 -83q-56 -39 -110 -71q-18 -12 -51 -26q-28 -12 -51 -12q-64 0 -64 81 q0 32 10 79q3 16 9 42t8 35l66 244l-9 2q-42 -71 -99 -141q-46 -56 -114 -131q-48 -51 -65 -67q-40 -38 -83 -71q-41 -31 -89 -55q-46 -23 -86 -23q-18 0 -44 20t-26 56q0 17 2 53q2 28 6 52l117 553q3 8 10 43t7 47q0 13 -9 29q-8 14 -28 14q-15 0 -42 -16l-24 -14 q-24 -14 -39 -23l-57 -37zM410 1212q0 22 9 46q10 26 25 44t38 31t46 13q32 0 53 -23t21 -55q0 -61 -31 -103q-30 -41 -79 -41q-82 0 -82 88zM819 1212q0 22 9 46t26 44q15 18 38 31t46 13q31 0 52 -23q22 -24 22 -55q0 -61 -31 -103q-30 -41 -80 -41q-82 0 -82 88z" />
<glyph unicode="&#xfd;" d="M-16 -399q0 16 2 30l98 70l20 -8q-2 -14 -3 -20t-1 -19q0 -61 37 -97t90 -36q84 0 140 59q58 61 98 144q18 35 38 83q15 37 31 84q5 15 13 41.5t11 36.5q17 53 20 64l96 332l-4 4q-81 -124 -174 -224q-34 -36 -48 -52q-22 -24 -58 -55q-29 -25 -58 -43q-28 -18 -51 -18 t-42 13q-16 11 -29 30q-11 16 -16 40q-6 28 -6 42v50q0 17 2 53l35 497v31q0 46 -9 76q-9 31 -34 31q-9 0 -25 -9q-13 -7 -30 -18l-98 -59l-23 37l168 114q21 14 65 43q31 20 42 25q21 10 26 11q11 3 21 3q23 0 36 -26t13 -117q0 -20 -2 -80q-1 -45 -6 -105l-31 -397v-24 q0 -41 9 -71t32 -30q28 0 92 53q61 51 123 142q24 34 48 78q24 43 46 89q22 45 40 92t30 87l71 270q36 4 77 15q49 13 75 24l23 -18l-289 -901q-38 -114 -85 -214q-47 -99 -122 -196q-29 -36 -71 -81q-37 -40 -83 -72q-44 -31 -95 -51q-48 -19 -105 -19q-68 0 -119 45 t-51 121zM549 1102l313 309q16 17 33 27q16 10 33 10q31 0 55 -18q25 -19 25 -41q0 -34 -17 -49q-13 -12 -41 -31l-332 -207h-69z" />
<glyph unicode="&#xfe;" d="M-80 -553q3 14 10.5 47.5t11.5 50.5q7 31 28 137q13 65 33 160q14 65 34 174l229 1258q4 15 4 29v22q0 32 -20 39q-22 8 -49 8h-99l9 43q73 5 165 25q46 11 82 25q41 16 80 36l25 -22l-189 -873l5 -4q29 58 81 125q50 65 121 126q67 58 143 96t144 38q40 0 65 -28 q23 -26 35 -67q13 -45 16 -83q3 -44 3 -74q0 -51 -14 -118q-14 -68 -34 -130q-15 -48 -50 -127q-25 -56 -56 -104q-51 -76 -134 -136q-86 -62 -163 -100q-23 -11 -69 -29q-36 -14 -74 -14q-26 0 -62 11q-40 12 -61 18l-86 -536l-150 -35zM190 121q38 -26 84 -37 q43 -10 91 -10q53 0 103 21t81 69q35 54 72 127q33 67 61 145q27 78 42 152q15 76 15 143q0 8 -2 40q-1 24 -9 45q-9 25 -21 37q-15 15 -37 15q-34 0 -59 -6q-27 -6 -54 -22q-65 -39 -119 -94q-55 -57 -98 -123t-72 -142q-29 -75 -41 -143z" />
<glyph unicode="&#xff;" d="M-16 -399q0 16 2 30l98 70l20 -8q-2 -14 -3 -20t-1 -19q0 -61 37 -97t90 -36q84 0 140 59q58 61 98 144q18 35 38 83q15 37 31 84q5 15 13 41.5t11 36.5q17 53 20 64l96 332l-4 4q-81 -124 -174 -224q-3 -3 -20.5 -21.5t-28.5 -30.5q-25 -28 -57 -55q-29 -25 -58 -43 q-28 -18 -51 -18t-42 13q-16 11 -29 30q-11 16 -16 40q-6 28 -6 42v50q0 17 2 53l35 497v31q0 46 -9 76q-9 31 -34 31q-9 0 -25 -9q-13 -7 -30 -18l-98 -59l-23 37l168 114q21 14 65 43q31 20 42 25q21 10 26 11q11 3 21 3q23 0 36 -26t13 -117q0 -20 -2 -80q-1 -45 -6 -105 l-31 -397v-24q0 -41 9 -71t32 -30q28 0 92 53q61 51 123 142q24 34 48 78q24 43 46 89q22 45 40 92t30 87l71 270q36 4 77 15q49 13 75 24l23 -18l-289 -901q-38 -114 -85 -214q-47 -99 -122 -196q-29 -36 -71 -81q-37 -40 -83 -72q-44 -31 -95 -51q-48 -19 -105 -19 q-68 0 -119 45t-51 121zM352 1212q0 22 9 46t26 44q15 18 38 31t46 13q31 0 52 -23q22 -24 22 -55q0 -61 -31 -103q-30 -41 -80 -41q-82 0 -82 88zM762 1212q0 22 9 46t26 44q15 18 38 31t46 13q31 0 52 -23q21 -22 21 -55q0 -62 -30 -103t-80 -41q-82 0 -82 88z" />
<glyph unicode="&#x152;" horiz-adv-x="2105" d="M115 539q0 173 54 337q53 159 158 289q103 127 251 204t333 77q123 0 217 -36q95 -36 172 -134l15 100q2 17 6 29q5 12 22 12h5q20 0 30 -1q20 -2 31 -3q22 0 34 -1t36 -1q29 0 173 2q34 0 108.5 1.5t115.5 2.5q54 0 80 -1q48 -2 69 -5q-17 -63 -28 -145 q-10 -79 -15 -166h-49l-16 182q-2 19 -30 28q-29 10 -67 14q-41 5 -85 6q-30 1 -78 1q-57 0 -106 -3q-76 -5 -85 -5q-8 -18 -11 -33q-4 -22 -7 -33l-80 -487h35q229 0 448 12l9 -14l-39 -92q-67 4 -135 6q-90 2 -136 2h-198l-88 -518q-4 -16 -4 -37v-35q32 -5 95 -10 q52 -4 124 -4q77 0 137 4l135 8q61 4 84 29q22 24 39 86l33 123h55q-4 -25 -13.5 -72t-12.5 -65q-11 -60 -17 -119q-1 -11 -3 -35q-2 -26 -5 -39q-17 0 -52 -1.5t-53 -2.5q-70 -2 -100 -2q-93 0 -212 3q-118 3 -243 3q-13 0 -65 -2q-13 0 -39.5 -1.5t-40.5 -2.5h-4 q-25 0 -25 18q0 5 2 19q1 10 6 22l27 121l-4 4q-82 -94 -196 -154q-116 -61 -277 -61q-134 0 -232 43t-162 119q-67 79 -96 181q-30 105 -30 233zM295 569q0 -104 22 -196t68 -166q44 -70 115 -115q68 -43 162 -43q107 0 193 46q87 47 152 119q63 70 105 162q40 88 57 177 l60 346q7 37 8 62q2 38 2 57q0 164 -92 253t-281 89q-154 0 -262 -75q-109 -75 -177 -190q-68 -114 -100 -256q-32 -143 -32 -270z" />
<glyph unicode="&#x153;" horiz-adv-x="1370" d="M35 313q0 135 42 266q41 129 134 232q65 71 159 124q92 52 191 52q87 0 154 -45q66 -44 104 -131q10 7 22.5 16t28.5 20.5t26 18.5q52 37 88 58q46 27 93 45t92 18q76 0 123 -44t47 -122q0 -87 -52 -149q-55 -66 -134 -109q-86 -47 -179 -77q-104 -34 -188 -56 q-10 -59 -13 -86q-5 -48 -5 -88q0 -79 41 -131q41 -51 127 -51q72 0 145 40t129 81l45 32l13 -47q-12 -10 -26.5 -21t-32.5 -25t-29 -22q-42 -32 -99 -66q-49 -29 -105 -49q-55 -20 -108 -20q-86 0 -151 40q-66 40 -82 128q-67 -71 -147 -120q-79 -48 -181 -48 q-79 0 -133 26t-84 71q-32 47 -43 106q-12 62 -12 133zM190 301q0 -40 9 -94q7 -44 30 -79q22 -33 60 -53t96 -20q47 0 92 21t82 80q29 46 51 110q24 71 38 136q18 84 24 140q8 74 8 122q0 52 -9 95q-9 42 -32 78q-22 33 -61 53q-38 19 -97 19q-53 0 -92 -24 q-38 -24 -66 -62q-32 -44 -47 -82q-12 -30 -32 -88q-17 -51 -27 -91q-9 -37 -16 -84t-8 -85q-3 -87 -3 -92zM795 479q117 24 225 80q66 35 117 93t51 139q0 47 -21 78q-21 32 -73 32q-59 0 -110 -31t-85 -77q-24 -30 -41 -70q-18 -42 -29 -80q-13 -44 -20 -83 q-11 -62 -14 -81z" />
<glyph unicode="&#x178;" horiz-adv-x="1366" d="M106 1325q10 7 37.5 26t41.5 29q25 18 75 58l8 6h6q58 0 101 -27t76 -67q32 -40 57 -89q27 -54 43 -94q20 -48 46 -133q17 -55 49 -163q22 -76 40 -146l21 -84h4q45 120 109 229q61 104 151 228q35 47 83 105q41 49 95 97q51 45 108 78q55 32 125 49l-12 -145 q-65 -10 -121 -42q-53 -30 -103 -77q-48 -45 -89 -98t-78 -102q-41 -55 -81 -120q-39 -62 -73 -127q-32 -60 -55 -118t-29 -94l-49 -314q-5 -17 -6 -34q-2 -24 -2 -39q0 -26 13 -40q14 -15 61 -20l100 -6l-6 -57q-13 0 -53.5 1.5t-65.5 2.5q-88 2 -133 2q-46 0 -138 -2 q-20 0 -69.5 -1.5t-77.5 -2.5l9 57l98 6q49 1 67 19q12 12 24 48q11 33 28 132l43 258v10q0 33 -23 120q-18 67 -53 182q-30 96 -65 187q-38 96 -56 132q-27 51 -75 106q-43 49 -113 49q-16 0 -37 -7q-37 -12 -49 -17zM563 1602q0 22 9 46q8 22 26 43q15 18 38 31t46 13 q31 0 52 -23q22 -24 22 -55q0 -61 -31 -103q-30 -41 -80 -41q-82 0 -82 89zM973 1602q0 22 9 46q8 22 26 43q15 18 38 31t46 13q31 0 52 -23q21 -22 21 -55q0 -63 -30 -103q-30 -41 -80 -41q-82 0 -82 89z" />
<glyph unicode="&#x2c6;" horiz-adv-x="681" d="M115 1044l321 347h101l180 -347h-74l-168 213l-280 -213h-80z" />
<glyph unicode="&#x2dc;" horiz-adv-x="681" d="M129 1096q6 28 24 74q17 43 38 69q26 32 58 49q36 19 81 19q28 0 66 -9q32 -8 63 -20l123 -49q26 -10 53 -10q12 0 20 2q32 5 52 33q8 11 19.5 29.5t14.5 23.5h58q-6 -38 -22 -79q-15 -37 -40 -67q-25 -29 -60 -47q-36 -18 -83 -18q-18 0 -54 10q-46 13 -71 22l-78 31 q-32 14 -46 19q-22 8 -50 8q-48 0 -69 -26q-22 -27 -38 -64h-59z" />
<glyph unicode="&#x2000;" horiz-adv-x="940" />
<glyph unicode="&#x2001;" horiz-adv-x="1880" />
<glyph unicode="&#x2002;" horiz-adv-x="940" />
<glyph unicode="&#x2003;" horiz-adv-x="1880" />
<glyph unicode="&#x2004;" horiz-adv-x="626" />
<glyph unicode="&#x2005;" horiz-adv-x="470" />
<glyph unicode="&#x2006;" horiz-adv-x="313" />
<glyph unicode="&#x2007;" horiz-adv-x="313" />
<glyph unicode="&#x2008;" horiz-adv-x="235" />
<glyph unicode="&#x2009;" horiz-adv-x="376" />
<glyph unicode="&#x200a;" horiz-adv-x="104" />
<glyph unicode="&#x2010;" horiz-adv-x="681" d="M39 457l39 118h545l-37 -118h-547z" />
<glyph unicode="&#x2011;" horiz-adv-x="681" d="M39 457l39 118h545l-37 -118h-547z" />
<glyph unicode="&#x2012;" horiz-adv-x="681" d="M39 457l39 118h545l-37 -118h-547z" />
<glyph unicode="&#x2013;" d="M-20 467l20 102h1044l-20 -102h-1044z" />
<glyph unicode="&#x2014;" horiz-adv-x="2048" d="M-20 467l20 102h2068l-20 -102h-2068z" />
<glyph unicode="&#x2018;" horiz-adv-x="569" d="M160 1036q65 126 130 229q70 111 159 210l65 26l14 -18q-65 -97 -109 -207t-59 -225q-41 -7 -94 -22q-50 -15 -88 -30z" />
<glyph unicode="&#x2019;" horiz-adv-x="569" d="M160 1018q65 97 109 207t59 225q49 8 94 21q50 15 88 30l18 -37q-62 -121 -130 -228q-73 -115 -158 -210l-66 -27z" />
<glyph unicode="&#x201a;" horiz-adv-x="569" d="M55 -236q37 50 63 103q30 62 49 113q25 69 37 112q11 39 25 103l181 51l22 -25q-50 -106 -128 -229q-74 -117 -165 -217l-65 -25z" />
<glyph unicode="&#x201c;" d="M201 1036q65 126 130 229q73 115 158 210l66 26l14 -18q-65 -97 -109 -207t-59 -225q-41 -7 -94 -22q-50 -15 -88 -30zM604 1036q65 126 130 229q70 111 159 210l65 26l15 -18q-67 -101 -110 -207t-58 -225q-41 -7 -94 -22q-50 -15 -88 -30z" />
<glyph unicode="&#x201d;" d="M201 1018q65 97 109 207t59 225q49 8 94 21q50 15 88 30l18 -37q-62 -121 -130 -228q-73 -115 -158 -210l-66 -27zM604 1018q67 101 110 207t58 225q49 8 94 21q50 15 88 30l19 -37q-62 -121 -130 -228q-71 -111 -159 -210l-65 -27z" />
<glyph unicode="&#x201e;" d="M88 -236q37 50 63 103q30 62 49 113q25 69 37 112q11 39 25 103l180 51l23 -25q-50 -106 -128 -229q-74 -117 -165 -217l-66 -25zM492 -236q35 47 62 103q30 62 49 113q25 69 37 112q17 62 26 103l180 51l22 -25q-50 -106 -128 -229q-74 -117 -165 -217l-65 -25z" />
<glyph unicode="&#x2022;" d="M176 725q0 69 28 136q27 64 76 113q50 50 112 76q64 27 136 27t137 -27q62 -26 112 -76q49 -49 76 -113q28 -67 28 -136t-28 -136q-27 -64 -76 -113q-50 -50 -112 -76q-65 -27 -137 -27t-136 27q-62 26 -112 76q-49 49 -76 113q-28 67 -28 136z" />
<glyph unicode="&#x2026;" horiz-adv-x="2048" d="M209 88q0 52 34 96q35 45 89 45q41 0 66 -28q26 -29 26 -70q0 -23 -8 -49q-6 -20 -24 -45q-14 -20 -39 -34q-23 -13 -52 -13q-38 0 -64 22q-28 23 -28 76zM891 88q0 52 34 96q35 45 89 45q41 0 66 -28q26 -29 26 -70q0 -23 -8 -49q-6 -20 -24 -45q-14 -20 -39 -34 q-23 -13 -52 -13q-38 0 -64 22q-28 23 -28 76zM1573 88q0 52 34 96q34 45 89 45q41 0 66 -28q26 -29 26 -70q0 -23 -8 -49q-6 -20 -24 -45q-14 -20 -39 -34q-23 -13 -52 -13q-38 0 -64 22q-28 23 -28 76z" />
<glyph unicode="&#x202f;" horiz-adv-x="376" />
<glyph unicode="&#x2039;" horiz-adv-x="681" d="M117 514v33q61 54 112 96q63 52 111 98l174 160l39 -33l-281 -344l195 -350l-41 -31q-42 54 -80 104q-37 50 -82 101z" />
<glyph unicode="&#x203a;" horiz-adv-x="681" d="M129 176l281 344l-195 350l41 31q54 -68 80 -103q42 -56 82 -102l147 -166v-32q-74 -66 -112 -97q-63 -52 -111 -98l-174 -160z" />
<glyph unicode="&#x205f;" horiz-adv-x="470" />
<glyph unicode="&#x20ac;" d="M41 496l22 79h80q0 88 19 199h-107l25 80h98q29 118 85 226q58 113 157 206q53 48 101 76q51 30 96 44q49 16 86 20q54 6 69 6q77 0 148 -23t141 -61q-22 -71 -36 -146q-13 -69 -19 -149h-54v184q-57 63 -114 87t-125 24q-67 0 -129 -39t-113 -107q-52 -68 -89 -158 q-37 -88 -58 -190h540l-24 -80h-531q-7 -45 -8 -83q-2 -56 -2 -83v-33h477l-22 -79h-451q17 -198 98 -310q83 -114 238 -114q46 0 89 8q41 8 77 25q35 17 74 45q40 29 77 63l21 -14l-21 -74q-87 -87 -177 -124q-93 -38 -195 -38q-92 0 -171 33q-80 33 -137 99 q-58 67 -92 167q-35 102 -41 234h-102z" />
<glyph unicode="&#x2122;" horiz-adv-x="2048" d="M106 1214v197h693v-197h-47q0 90 -35 119t-123 29h-84v-666q0 -15 3 -33q3 -19 19 -26q16 -9 50 -11q20 -1 57 -1v-41h-373v41q38 0 58 1q33 2 49 11q16 7 19 26q3 18 3 33v666h-84q-44 0 -74 -6q-31 -6 -49 -23q-19 -17 -26 -45q-8 -30 -8 -74h-48zM938 584v41 q59 5 77 15q21 12 21 52v606q0 54 -14 65t-39 11h-29v37h224l264 -631l270 631h230v-37h-44q-23 0 -38 -7q-17 -8 -17 -34v-614q0 -52 12 -73t70 -21h23v-41h-324v41h23q57 0 69 21q13 23 13 73v610h-5l-307 -745h-16l-311 745h-3v-637q0 -39 22 -52q18 -10 77 -15v-41h-248 z" />
<glyph unicode="&#x25fc;" horiz-adv-x="983" d="M0 0v983h983v-983h-983z" />
<glyph unicode="&#xfb01;" horiz-adv-x="1081" d="M-332 -549q6 9 13 33t15 51q5 18 13 50q6 24 6 30l29 8q18 -24 40 -41q24 -18 58 -18h2q15 0 36 3q23 3 45 20q23 18 48 56q29 45 50 105q12 34 36 135q20 88 42 200q23 122 42 227q7 38 19.5 110.5t18.5 107.5q7 39 17 97.5t12 72.5q11 62 13 86h-166l11 45q30 11 88 35 q35 14 88 41l30 162q3 14 9.5 42t9.5 40q8 36 22 63q17 35 27 48q5 6 13.5 16.5t11.5 13.5q8 8 41 38q48 44 70 63q33 29 75 61q40 30 53 35q19 8 37 11t35 3q20 0 45 -5q15 -3 45 -13q-15 -40 -24 -83q-4 -19 -19 -100l-25 -6q-12 42 -43 63q-30 21 -59 21q-32 0 -61 -25 q-32 -27 -54 -71q-7 -15 -23 -63q-12 -37 -24 -95l-43 -229l182 -10h11q47 0 95 19q66 26 97 40q25 11 60 28q30 15 53 15q15 0 23 -21q8 -22 8 -51q0 -45 -11 -84l-123 -598q-1 -7 -3.5 -21t-4.5 -22q-4 -19 -4 -38q0 -41 27 -41q19 0 44 11q31 14 52 32l70 53l18 -41 q-102 -84 -211 -150q-17 -11 -48 -24q-24 -10 -48 -10q-35 0 -53 21q-19 22 -19 73q0 27 7 65q8 43 18 76l108 510q2 6 5.5 18.5t5.5 18.5q6 21 6 41q0 45 -39 45q-15 0 -28 -6q-4 -2 -12.5 -6.5t-14.5 -6.5l-107 -47h-184q-25 -111 -44 -202q-9 -45 -27.5 -130.5 t-26.5 -120.5q-17 -81 -55 -245q-27 -115 -48 -184q-40 -126 -91 -213q-53 -89 -116 -146q-43 -41 -106 -75q-60 -33 -119 -33q-14 0 -39 5q-21 4 -33 11zM836 1325q0 22 9 46t25 43q17 20 38 32t46 12q23 0 48 -22q26 -23 26 -56q0 -60 -31 -102q-30 -41 -79 -41 q-82 0 -82 88z" />
<glyph unicode="&#xfb02;" horiz-adv-x="1116" d="M-332 -549q4 6 12 33q0 1 6.5 20.5t9.5 30.5q5 18 13 50q6 24 6 30l29 8q18 -24 40 -41q24 -18 58 -18h2q15 0 36 3q23 3 45 20q23 18 48 56q29 45 50 105q12 34 36 135q20 88 42 200q23 122 42 227q7 38 19.5 110.5t18.5 107.5q7 39 17 97.5t12 72.5q11 62 13 86h-166 l11 45q30 11 88 35q35 14 88 41l30 162q3 14 9.5 42t9.5 40q8 36 22 63q17 35 27 48q5 6 13.5 16.5t11.5 13.5q14 13 41 36q51 42 74 59q56 42 83 61q39 28 66 41q32 14 80 14q20 0 41 -6q22 -6 32 -10l-14 -58q22 0 56 4q28 3 55 9q42 8 80 25q42 19 71 36l33 -16 l-252 -1178q-13 -59 -17 -97q-3 -32 -3 -52q0 -18 8 -31q7 -12 24 -12t34 7q18 8 48 30l99 69l18 -43q-65 -46 -119 -89q-55 -44 -102 -71q-23 -13 -61 -26q-30 -10 -54 -10q-59 0 -59 81q0 37 9 79q3 16 9 42t8 35l172 817q0 3 1.5 8.5t4 15.5t4.5 19q7 31 15 74 q9 48 14 85q6 43 6 77q0 33 -12 45q-8 8 -26 11q-23 4 -41 5l-33 2l-12 -84h-21q-15 48 -48 62q-32 14 -67 14q-36 0 -72 -20q-38 -21 -59 -68q-9 -20 -22 -63q-12 -42 -23 -95l-43 -229h82q47 0 72 4q17 2 32 6q6 2 18 4.5t15 3.5l9 -14q-12 -28 -19 -52q-9 -29 -16 -63 h-213q-25 -111 -44 -202q-9 -45 -27.5 -130.5t-26.5 -120.5q-17 -81 -55 -245q-27 -115 -48 -184q-40 -126 -91 -213q-53 -89 -116 -146q-43 -41 -106 -75q-60 -33 -119 -33q-14 0 -39 5q-21 4 -33 11z" />
</font>
</defs>
</svg>
