<?xml version="1.0" standalone="no"?>
<!DOCTYPE svg PUBLIC "-//W3C//DTD SVG 1.1//EN" "http://www.w3.org/Graphics/SVG/1.1/DTD/svg11.dtd" >
<svg xmlns="http://www.w3.org/2000/svg" xmlns:xlink="http://www.w3.org/1999/xlink" version="1.1">
<metadata></metadata>
<defs>
<font id="palatino_lt_stdblack" horiz-adv-x="1212" >
<font-face units-per-em="2048" ascent="1487" descent="-561" />
<missing-glyph horiz-adv-x="606" />
<glyph horiz-adv-x="0" />
<glyph horiz-adv-x="0" />
<glyph unicode="&#xd;" horiz-adv-x="0" />
<glyph unicode=" "  horiz-adv-x="606" />
<glyph unicode="&#x09;" horiz-adv-x="606" />
<glyph unicode="&#xa0;" horiz-adv-x="606" />
<glyph unicode="!" horiz-adv-x="757" d="M176 1339q0 -173 41 -450q4 -33 26.5 -143.5t44.5 -214t23 -109.5q3 -2 11.5 -7t11.5 -7l104 59q47 271 97 483q29 135 38 229.5t9 231.5h-125zM182 156q0 -80 58 -137.5t137 -57.5t136.5 57.5t57.5 137.5t-57.5 137t-136.5 57q-80 0 -137.5 -57.5t-57.5 -136.5z" />
<glyph unicode="&#x22;" horiz-adv-x="1138" d="M170 1296q0 -70 10 -155q34 -248 39 -287q9 -84 94 -84q86 0 95 84q6 45 19.5 147t18.5 140q11 94 11 155q0 74 -36 114t-108 40q-143 0 -143 -154zM682 1296q0 -70 10 -155q34 -248 39 -287q9 -84 94 -84q86 0 95 84q6 45 19.5 147t18.5 140q11 94 11 155q0 74 -36 114 t-108 40q-143 0 -143 -154z" />
<glyph unicode="#" d="M98 395h170l-55 -395h199l55 395h192l-55 -395h199l55 395h197v183h-170l33 229h196v182h-170l55 395h-198l-56 -395h-192l55 395h-198l-56 -395h-196v-182h170l-33 -229h-197v-183zM494 578l32 229h193l-33 -229h-192z" />
<glyph unicode="$" d="M82 946q0 -54 10 -100.5t25 -81.5t41.5 -65t50.5 -50t61.5 -38t64 -28t69 -20t66.5 -14.5t65 -11.5v-428q-192 0 -246 118q-10 23 -18.5 78t-8.5 86l-10 10h-100l-11 -10q0 -14 -1.5 -47.5t-1.5 -42.5t-1 -34t-1.5 -32.5t-1.5 -26.5t-2 -27.5t-2.5 -24.5t-3 -28.5 t-3.5 -28t-4 -33.5l18 -33q63 -30 162.5 -48t151 -21t84.5 -3v-207l10 -10h110l11 10v207q222 37 343 170.5t121 345.5q0 82 -25 145.5t-65.5 104t-103.5 70t-125 45.5t-145 28v394q64 0 115 -22t72.5 -44t25.5 -37q6 -9 13 -64t7 -98l10 -10h101l10 10q3 72 4 90.5t4 61 t7.5 75.5t13.5 93q-4 6 -12 16.5t-9 12.5q-64 29 -174.5 46t-187.5 17v156l-11 10h-110l-10 -10v-156q-31 -4 -52.5 -8t-73 -19t-89 -34t-85.5 -55.5t-79 -82t-52.5 -114.5t-21.5 -152zM369 1065q0 86 41 131t125 68v-369q-22 5 -35.5 8.5t-41.5 16.5t-44.5 29.5t-30.5 47 t-14 68.5zM666 113v403q27 -7 39.5 -11t36 -14t36 -22.5t27 -32t20.5 -48t6 -64.5q0 -153 -165 -211z" />
<glyph unicode="%" horiz-adv-x="1705" d="M66 1026q0 -183 95.5 -278t260.5 -95t260.5 95t95.5 278t-95.5 278t-260.5 95t-260.5 -95t-95.5 -278zM311 1026q0 35 0.5 54.5t3.5 53t10 53t18.5 40.5t31.5 31t47 10q23 0 41 -9t29.5 -20.5t19.5 -34.5t12 -39.5t6 -46.5t2 -45.5v-46.5v-46.5t-2 -45.5t-6 -46.5 t-12 -39.5t-19.5 -34.5t-29.5 -20.5t-41 -9q-27 0 -47 10t-31.5 31t-18.5 40.5t-10 53t-3.5 53t-0.5 54.5zM360 -72l7 -6h127l14 8l835 1497l-4 11h-127l-14 -8zM928 334q0 -183 95.5 -278t260.5 -95t260.5 95t95.5 278t-95.5 278t-260.5 95t-260.5 -95t-95.5 -278z M1174 287.5v46.5v46t2 45.5t6 47t12 39t19.5 34.5t29.5 20.5t41 8.5q27 0 47 -10t31.5 -31t18.5 -40.5t10 -53t3.5 -52.5t0.5 -54t-0.5 -54.5t-3.5 -53t-10 -53t-18.5 -40.5t-31.5 -31t-47 -10q-23 0 -41 9t-29.5 20.5t-19.5 34.5t-12 39.5t-6 46.5t-2 45.5z" />
<glyph unicode="&#x26;" horiz-adv-x="1820" d="M94 360q0 -81 28 -151.5t84 -126.5t149.5 -88.5t215.5 -32.5q291 0 482 121q187 -121 374 -121q75 0 156 19q110 141 193 202v11l-43 90h-19q-25 -30 -69.5 -48t-94.5 -18q-94 0 -260 74q152 138 152 360q39 0 117.5 -6t117.5 -6q2 1 5 4t5.5 5t4.5 3q25 127 49 174 q-5 3 -14.5 9t-12.5 8q-59 1 -169 -5t-161 -6q-26 0 -284 11q-12 -34 -41.5 -83t-59.5 -85q6 -5 18 -15.5t13 -11.5l158 4q26 -43 26 -110q0 -40 -18 -83.5t-51 -76.5q-200 160 -389 422q74 32 130.5 68t104.5 83t73.5 108t25.5 132q0 53 -17.5 95t-45.5 68.5t-67.5 43.5 t-79.5 24t-85 7q-115 0 -183.5 -35.5t-160.5 -139.5q-59 -68 -80 -114t-21 -99q0 -55 18 -109t72 -159q-159 -61 -252.5 -166t-93.5 -250zM436 469q0 93 76 180q72 -121 178 -247t213 -207q-87 -27 -162 -27q-66 0 -125 30t-97 76t-60.5 98t-22.5 97zM616 1153q0 51 27.5 86 t81.5 35q47 0 76.5 -32.5t29.5 -80.5q0 -117 -153 -229l-25 55q-37 88 -37 166z" />
<glyph unicode="'" horiz-adv-x="606" d="M160 1296q0 -70 10 -155q34 -248 39 -287q9 -84 94 -84t94 84q34 248 39 287q10 85 10 155q0 154 -143 154t-143 -154z" />
<glyph unicode="(" horiz-adv-x="796" d="M174 578q0 -139 30 -265.5t80.5 -225t121.5 -186t146.5 -151t162.5 -115.5h10l61 64v10q-73 73 -127 174.5t-82 194.5t-44.5 199t-20.5 172t-4 129t4 129t20.5 172t44.5 198.5t82 194t127 174.5v10l-61 64h-10q-87 -52 -162.5 -115.5t-146.5 -150.5t-121.5 -186 t-80.5 -225t-30 -265z" />
<glyph unicode=")" horiz-adv-x="796" d="M10 -291v-10l62 -64h10q87 52 162.5 115.5t146.5 151t121.5 186t80.5 225t30 265.5t-30 265t-80.5 225t-121.5 186t-146.5 150.5t-162.5 115.5h-10l-62 -64v-10q73 -73 127 -174t82 -194t45 -199t21 -172t4 -129t-4 -129t-21 -172t-45 -199t-82 -194.5t-127 -174.5z" />
<glyph unicode="*" horiz-adv-x="1024" d="M111 1165q267 -92 292 -100v-4q-55 -20 -146 -54t-134 -49q-5 -22 -6 -26q27 -35 116 -195l27 -6q62 86 199 219q17 -171 24 -303q8 -3 23 -8q114 61 221 98q7 20 10 25q-79 108 -153 219q174 -28 313 -63q2 3 8 9t8 9q-3 17 -5 31t-4 25t-3.5 24t-2 20t-2 21t-2 19.5 t-1.5 23t-1 23t-1.5 28t-1.5 31.5q-15 6 -21 10q-171 -58 -276 -84q60 117 160 266q-2 4 -7 12t-6 11q-64 10 -106 20q-20 5 -60 16.5t-59 16.5q-2 -2 -9.5 -7l-10.5 -7q0 -40 -2.5 -82.5t-8.5 -104.5t-8 -96q-99 99 -221 231h-18q-61 -106 -125 -200v-19z" />
<glyph unicode="+" horiz-adv-x="1228" d="M96 395h396v-395h245v395h396v246h-396v395h-245v-395h-396v-246z" />
<glyph unicode="," horiz-adv-x="606" d="M0 -301q3 -4 29 -33q31 18 82.5 36.5t81.5 23.5q52 69 140 216t156 283q32 62 48 94l-29 31q-112 -55 -365 -59q-5 -265 -143 -592z" />
<glyph unicode="-" horiz-adv-x="872" d="M53 383q11 -20 19 -33q245 10 317 10q42 0 172.5 -3.5t167.5 -6.5q22 97 35 138t55 139q-3 7 -9 20t-7 15q-56 -2 -155 -6.5t-169 -4.5q-125 0 -340 11q-16 -84 -33 -137t-53 -142z" />
<glyph unicode="." horiz-adv-x="606" d="M109 156q0 -80 57.5 -137.5t136.5 -57.5t137 57.5t58 137.5q0 79 -57.5 136.5t-137.5 57.5q-79 0 -136.5 -57t-57.5 -137z" />
<glyph unicode="/" horiz-adv-x="720" d="M49 -29l8 -10h203l12 10l400 1469l-8 10h-203l-12 -10z" />
<glyph unicode="0" d="M72 674q0 -86 5.5 -158t21 -147t40.5 -133.5t66 -111.5t96 -87.5t132.5 -55t172.5 -20.5q535 0 535 713q0 95 -4.5 169t-18.5 152.5t-38.5 136t-64.5 110t-96 85.5t-135 52.5t-178 19.5q-126 0 -222 -40.5t-154 -106.5t-94.5 -162.5t-50 -196t-13.5 -219.5zM451 674 q0 349 28.5 467.5t126.5 118.5t127 -119t29 -467q0 -339 -29 -456.5t-127 -117.5t-126.5 117t-28.5 457z" />
<glyph unicode="1" d="M86 1139q37 -167 37 -211q8 -4 18 -8q293 170 310 170q12 0 15 -10t3 -40v-598q0 -225 -12 -270q-3 -13 -9.5 -19t-35.5 -13.5t-74.5 -13t-140.5 -15.5l-11 -11v-100l11 -10q275 10 448 10q144 0 449 -10l10 10v100l-10 11q-157 8 -205 26q-41 14 -41 74v694 q0 275 24 467q-10 9 -28 27q-142 -63 -371 -140.5t-387 -119.5z" />
<glyph unicode="2" d="M96 0l10 -10q305 10 498 10q32 0 502 -10l10 10q-6 114 -6 141q0 19 6 160q-7 15 -10 21q-253 -11 -322 -11h-317v4q132 104 193.5 153.5t147 122.5t120.5 113.5t74.5 95.5t52 101.5t12.5 99.5q0 43 -9 88.5t-39.5 103.5t-79.5 101.5t-138.5 74t-206.5 30.5 q-249 0 -438 -131q-5 -75 -41 -375l10 -10h104l13 10l53 178q30 20 71 32.5t65 15.5t40 3q108 0 173 -53.5t65 -159.5q0 -67 -39 -147.5t-95.5 -152.5t-145 -159t-162 -150.5t-171.5 -143.5v-156z" />
<glyph unicode="3" d="M74 334q25 -102 34 -161.5t15 -154.5q167 -57 321 -57q184 0 335 66.5t236 181t85 252.5q0 81 -27.5 142.5t-75 98t-101 56.5t-116.5 28v5q38 18 64.5 32.5t60.5 41t54.5 54.5t35.5 70.5t15 91.5q0 83 -38 146.5t-101 99.5t-135 54t-150 18q-118 0 -212 -28.5t-194 -82.5 q-6 -35 -49 -338q4 -4 8 -10h105l12 12q25 108 80.5 149.5t142.5 41.5q89 0 149 -46t60 -132q0 -62 -41 -104.5t-96.5 -59.5t-118.5 -17q-27 0 -67 7q-23 -122 -52 -181q26 -13 35 -18q9 2 29.5 7t40 8t45.5 3q20 0 34 -0.5t46.5 -5t56.5 -13t54 -27t49.5 -43.5t33 -65.5 t13.5 -90.5q0 -100 -64.5 -173t-185.5 -73q-55 0 -101 16t-75 36.5t-59 60t-44.5 65.5t-38.5 74q-10 4 -14 6l-84 -29z" />
<glyph unicode="4" d="M41 487q8 -27 24.5 -84.5t22.5 -78.5h522v-62v-33.5t-4 -27t-5.5 -21.5t-12 -17t-16.5 -13.5t-25 -10t-32 -8t-43.5 -7t-53 -6.5t-66.5 -7l-10 -11v-100l10 -10q328 10 414 10q88 0 410 -10l10 10v100l-10 11q-129 11 -153 19q-32 12 -39 47q-3 18 -5 75v72h172l10 10 q-6 81 -6 104q0 22 6 103l-10 10h-172v242q0 203 20 579l-26 27q-74 -25 -203.5 -46.5t-161.5 -21.5q-26 -40 -247.5 -353.5t-319.5 -490.5zM240 551q67 118 185.5 303.5t199.5 296.5h6q-1 -86 -11 -288.5t-10 -311.5h-370z" />
<glyph unicode="5" d="M74 313q18 -46 37.5 -148t19.5 -149q160 -55 303 -55q150 0 267.5 39.5t185.5 97.5t112 132.5t59 135.5t15 115q0 84 -26.5 154.5t-78.5 125t-138 85.5t-197 31q-179 0 -283 -76v268q230 8 342 8q156 0 332 -6q2 2 7 6t7 6q-8 140 -8 148q0 23 8 141l-26 27 q-62 -9 -203 -18t-264 -9q-104 0 -204.5 9t-137.5 18l-27 -27q8 -250 8 -360q0 -236 -8 -414q10 -6 33 -20t31 -19q53 40 100 60t121 20q118 0 190 -66.5t72 -183.5t-65.5 -193.5t-180.5 -76.5q-98 0 -169.5 66t-114.5 163q-2 2 -7 4.5t-6 3.5l-96 -28z" />
<glyph unicode="6" d="M70 590q0 -301 134 -465t406 -164q235 0 384 144.5t149 377.5q0 111 -31.5 198.5t-84 139t-115.5 77.5t-132 26q-90 0 -156.5 -32.5t-158.5 -121.5q6 108 43 195.5t94 146.5q37 37 82.5 63.5t83.5 39.5t89.5 20.5t80 9t74.5 2.5q6 11 28 51l-100 101h-74 q-158 0 -300 -52.5t-253.5 -151.5t-177 -255.5t-65.5 -349.5zM449 455q0 34 6 67t22 71t50.5 61.5t84.5 23.5q55 0 92 -30t53 -79t21.5 -88.5t5.5 -81.5q0 -45 -1 -73t-5.5 -66t-15 -61t-27 -46t-44 -33.5t-64.5 -10.5q-40 0 -71.5 18t-49.5 50t-30.5 66.5t-18 78t-7 72.5 t-1.5 61z" />
<glyph unicode="7" d="M147 866l11 -10h100l10 10q0 3 1.5 16t2 21t2.5 22.5t4 25t5 24.5t6.5 23.5t8 19t10 15t11.5 7.5q34 11 177 11q128 0 331 6q3 -3 8 -9t7 -8l-279 -442q-210 -336 -383 -567q9 -21 19 -41q143 10 174 10q45 0 162 -10q13 8 16 10q71 223 279.5 649t338.5 619v104l-10 14 q-120 -14 -563 -14q-93 0 -180 3t-155.5 7t-82.5 4q-5 -3 -16 -7.5t-15 -6.5q6 -127 9 -291q1 -53 -4 -132t-5 -83z" />
<glyph unicode="8" d="M80 340q0 -53 15 -103.5t52 -101.5t92 -89t143 -61.5t198 -23.5q95 0 175.5 16.5t136 43t99.5 64t70 76.5t43 83t23 81.5t6 73.5q0 79 -16 137t-55 105t-84.5 80.5t-123.5 79.5q21 12 30.5 17t36.5 22.5t43 31.5t39 38t36 47.5t22.5 55.5t9.5 66q0 165 -127 242.5 t-352 77.5q-101 0 -182 -20t-131.5 -49t-88 -71.5t-54.5 -78t-27 -78t-11.5 -62t-1.5 -39.5q0 -230 240 -339q-256 -93 -256 -322zM346 367q0 50 10 87.5t32.5 63.5t37.5 38.5t45 31.5q57 -27 115 -53q124 -60 169.5 -109.5t45.5 -124.5q0 -96 -60.5 -148.5t-160.5 -52.5 q-109 0 -171.5 78t-62.5 189zM418 1106q0 22 8 46t26 49.5t54.5 42t85.5 16.5q98 0 155.5 -47.5t57.5 -143.5q0 -39 -8.5 -71.5t-27 -59.5t-31.5 -41.5t-38 -38.5q-26 12 -74 36t-57 28q-86 40 -118.5 83.5t-32.5 100.5z" />
<glyph unicode="9" d="M70 877q0 -90 20.5 -164.5t55.5 -125t82 -85t98 -50.5t106 -16q90 0 157 32.5t159 121.5q-6 -107 -43.5 -195t-94.5 -147q-46 -46 -99.5 -75t-114.5 -40.5t-98.5 -15t-96.5 -4.5q-12 -20 -29 -52l100 -100h74q126 0 242.5 32.5t217.5 99.5t176 162t118 227.5t43 287.5 q0 301 -134.5 465t-406.5 164q-235 0 -383.5 -144.5t-148.5 -377.5zM428 961q0 44 1.5 72.5t6 66.5t15 61.5t27 46t44 33t64.5 10.5q40 0 71.5 -18t49.5 -50t30.5 -66.5t18 -78t7 -72.5t1.5 -61q0 -26 -3.5 -52t-14 -58t-27.5 -56t-48 -40.5t-71 -16.5q-55 0 -92 30t-53 79 t-21.5 88.5t-5.5 81.5z" />
<glyph unicode=":" horiz-adv-x="606" d="M109 156q0 -80 57.5 -137.5t136.5 -57.5t137 57.5t58 137.5q0 79 -57.5 136.5t-137.5 57.5q-79 0 -136.5 -57t-57.5 -137zM109 762q0 -80 57.5 -137.5t136.5 -57.5t137 57.5t58 137.5q0 79 -57.5 136.5t-137.5 57.5q-79 0 -136.5 -57t-57.5 -137z" />
<glyph unicode=";" horiz-adv-x="606" d="M0 -301q3 -4 29 -33q31 18 82.5 36.5t81.5 23.5q52 69 140 216t156 283q32 62 48 94l-29 31q-112 -55 -365 -59q-5 -265 -143 -592zM129 762q0 -80 57.5 -137.5t137.5 -57.5q79 0 136.5 57.5t57.5 137.5t-57 137t-137 57t-137.5 -57.5t-57.5 -136.5z" />
<glyph unicode="&#x3c;" horiz-adv-x="1228" d="M96 422l1037 -438v237l-715 297l715 297v238l-1037 -439v-192z" />
<glyph unicode="=" horiz-adv-x="1228" d="M96 176h1037v246h-1037v-246zM96 614h1037v246h-1037v-246z" />
<glyph unicode="&#x3e;" horiz-adv-x="1228" d="M96 -16l1037 438v192l-1037 439v-238l715 -297l-715 -297v-237z" />
<glyph unicode="?" horiz-adv-x="1062" d="M94 1020l8 -12h99l16 12l37 98q24 31 78.5 53.5t99.5 22.5q68 0 113 -41t45 -109q0 -46 -19 -81.5t-104 -151.5q-57 -79 -75.5 -126t-18.5 -89q0 -65 49 -147q10 -6 16 -9l107 33l8 12q-1 7 -2.5 20t-2.5 23t-1 15q0 38 24 73t109 103q20 16 61.5 48.5t61 49.5t52 47 t48 54t33.5 57.5t25.5 71t7.5 81.5q0 82 -35.5 145.5t-96.5 101t-135 56.5t-157 19q-89 0 -205.5 -34t-169.5 -87q-4 -4 -16 -59.5t-29 -131.5t-31 -118zM281 156q0 -80 57.5 -137.5t136.5 -57.5t137 57.5t58 137.5q0 79 -57.5 136.5t-137.5 57.5q-79 0 -136.5 -57 t-57.5 -137z" />
<glyph unicode="@" horiz-adv-x="1638" d="M76 707q0 -163 51.5 -299t150.5 -236t253.5 -155.5t349.5 -55.5q279 0 508 164q-10 16 -35.5 56t-34.5 55q-70 -44 -189 -76.5t-241 -32.5q-282 0 -448.5 157t-166.5 423q0 130 42.5 239t116 182.5t173.5 114.5t213 41q256 0 413 -125t157 -340q0 -171 -67.5 -285 t-166.5 -114q-22 0 -36 6.5t-19.5 19.5t-6.5 22t-1 24q0 52 22 147q32 136 107 451h-166l-21 -74h-4q-30 104 -151 104q-84 0 -157.5 -38t-124 -98t-87 -134t-53.5 -146.5t-17 -134.5q0 -70 21 -123t56 -81.5t73 -42t78 -13.5q80 0 149 44.5t101 107.5h4q12 -64 61.5 -108 t134.5 -44q134 0 236.5 71t155.5 188.5t53 260.5q0 144 -56.5 261.5t-156 196t-235.5 121t-296 42.5q-152 0 -289.5 -59t-237 -158.5t-158 -237t-58.5 -288.5zM662 582q0 88 24 166t60 128.5t77 79.5t76 29q37 0 59.5 -28.5t22.5 -84.5q0 -41 -7 -92.5t-24.5 -112 t-42.5 -109.5t-65.5 -81.5t-89.5 -32.5q-42 0 -66 36t-24 102z" />
<glyph unicode="A" horiz-adv-x="1554" d="M-10 0l10 -10q210 10 254 10t254 -10l10 10v100l-10 11q-63 3 -97 14.5t-42.5 24t-8.5 32.5q0 21 13 58q8 22 43 114h458l46 -121q18 -45 18 -71q0 -43 -147 -51l-11 -11v-100l11 -10q317 10 383 10q62 0 380 -10l11 10v100l-11 11q-36 1 -54.5 2.5t-38.5 6.5t-31.5 17 t-24 30.5t-25.5 49.5q-88 203 -271 629t-247 575h-184l-514 -1196q-31 -74 -56 -92t-108 -22l-10 -11v-100zM471 502l172 432l172 -432h-344z" />
<glyph unicode="B" horiz-adv-x="1441" d="M33 1311l10 -11l100 -18q51 -9 60.5 -54.5t9.5 -269.5v-372q0 -258 -12 -457q0 -23 -29 -35q-11 -4 -31.5 -12.5t-27.5 -11.5l-11 -11v-59l11 -10q235 10 303 10q62 0 189 -5t194 -5q248 0 404.5 123.5t156.5 308.5q0 348 -442 362v4q196 47 286 120.5t90 213.5 q0 137 -111.5 218t-295.5 81q-78 0 -235 -5t-236 -5q-66 0 -373 10l-10 -10v-100zM618 338v358q30 6 58 6q131 0 193.5 -67t62.5 -229q0 -269 -240 -269q-39 0 -63 6q-11 83 -11 195zM618 850v192q0 105 11 226q27 6 61 6q101 0 142.5 -57.5t41.5 -169.5q0 -93 -51.5 -145 t-146.5 -52h-58z" />
<glyph unicode="C" horiz-adv-x="1554" d="M86 713q0 -162 55 -299.5t157.5 -238.5t258 -157.5t346.5 -56.5q331 0 529 117q20 66 53 143q-3 3 -19 16.5t-22 18.5q-78 -52 -176 -82.5t-193 -30.5q-113 0 -211 41.5t-171 117.5t-114.5 191t-41.5 255q0 248 117 396t319 148q99 0 182.5 -42t122.5 -93q10 -45 33 -184 q8 -6 12 -10h92l10 10q18 210 60 360q-6 15 -12 29q-100 37 -242.5 62.5t-280.5 25.5q-218 0 -385.5 -56.5t-271 -157.5t-155.5 -233t-52 -290z" />
<glyph unicode="D" horiz-adv-x="1781" d="M53 1311l10 -11l101 -18q18 -3 26.5 -5.5t18.5 -14.5t13 -29t6.5 -56t4 -88t0.5 -131v-393q0 -237 -12 -436q0 -21 -35 -37q-9 -4 -28 -11.5t-25 -10.5l-10 -11v-59l10 -10q235 10 303 10q57 0 192.5 -5t202.5 -5q179 0 326 47t244 124.5t163.5 181.5t96 215t29.5 228 q0 325 -181.5 480t-517.5 155q-114 0 -295 -5t-260 -5q-66 0 -373 10l-10 -10v-100zM639 594v299q0 286 10 362q97 9 137 9q76 0 138 -12.5t124 -48t104.5 -92.5t68.5 -152.5t26 -221.5q0 -291 -123 -440.5t-336 -149.5q-47 0 -139 9q-10 123 -10 438z" />
<glyph unicode="E" horiz-adv-x="1327" d="M53 1311l10 -11l101 -18q18 -3 26.5 -5.5t18.5 -14.5t13 -29t6.5 -56t4 -88t0.5 -131v-372q0 -258 -12 -457q-3 -22 -41 -39q-20 -9 -47 -20l-10 -11v-59l10 -10q450 10 543 10t543 -10q5 12 10 20q6 213 28 340q-4 4 -8 10h-106l-10 -10q-28 -116 -50 -164 q-88 -39 -254 -39h-182q-1 39 -4.5 145t-3.5 161v198q82 4 121 4q130 0 168 -16q23 -10 28.5 -32.5t10.5 -110.5l10 -11h100l10 11q0 11 -3 109t-3 118q0 61 6 227l-10 11h-100l-10 -11q0 -31 -0.5 -49t-6 -36t-8.5 -26.5t-17.5 -17t-24 -11t-38 -5t-48 -2.5h-64.5 q-56 0 -121 6v293q0 51 8 153q104 9 164 9q211 0 248 -37q5 -5 7.5 -30.5t3.5 -59.5t1 -39l10 -11h95l10 11q12 176 39 303q-2 6 -11 20q-483 -10 -575 -10q-93 0 -576 10l-10 -10v-100z" />
<glyph unicode="F" horiz-adv-x="1214" d="M53 0l10 -10q307 10 373 10q30 0 398 -10l10 10v100l-10 13l-125 16q-18 3 -26.5 5.5t-18.5 14.5t-13 29.5t-7 56t-4.5 87.5t-0.5 131v198q82 4 109 4q129 0 167 -16q23 -10 28.5 -32.5t10.5 -110.5l11 -11h100l10 11q0 11 -3 109t-3 118q0 61 6 227l-10 11h-100l-11 -11 q0 -25 -0.5 -40t-3.5 -31.5t-4.5 -25.5t-10 -18.5t-12.5 -13.5t-20 -8.5t-25 -5.5t-35 -2.5t-42 -1.5h-53q-44 0 -109 6v293q0 51 8 153q104 9 152 9q211 0 248 -37q5 -5 7.5 -30.5t3.5 -59.5t1 -39l10 -11h94l11 11q12 183 38 303q-5 12 -10 20q-475 -10 -569 -10 q-95 0 -570 10l-10 -10v-100l10 -11l101 -18q18 -3 26.5 -5.5t18.5 -14.5t13 -29t6.5 -56t4 -88t0.5 -131v-505q0 -82 -0.5 -131t-4 -88t-6.5 -56t-13 -29t-18.5 -14.5t-26.5 -5.5q-11 -2 -49 -8.5t-52 -9.5l-10 -11v-100z" />
<glyph unicode="G" horiz-adv-x="1781" d="M86 713q0 -162 55 -299.5t157.5 -238.5t258 -157.5t346.5 -56.5q359 0 676 123q2 4 6.5 11.5t5.5 10.5q-6 40 -6 150q0 164 10 184q9 21 78 41l10 11v100l-10 10q-195 -10 -350 -10t-350 10l-10 -10v-100l10 -11l129 -20q50 -4 65 -19q13 -13 13 -120q0 -118 -6 -170 q-93 -33 -166 -33q-202 0 -336.5 165t-134.5 427q0 121 26.5 220t72 165.5t107 111t128.5 64.5t141 20q113 0 218.5 -39t151.5 -92q18 -71 25 -182q8 -6 12 -10h97l10 12q10 189 43 360q-5 8 -15 23q-124 39 -270.5 62.5t-275.5 23.5q-235 0 -414.5 -56.5t-289 -157.5 t-164 -232.5t-54.5 -290.5z" />
<glyph unicode="H" horiz-adv-x="1744" d="M53 0l10 -10q307 10 373 10t373 -10l10 10v100l-10 11l-100 18q-18 3 -26.5 5.5t-18.5 14.5t-13 29.5t-7 56t-4.5 87.5t-0.5 131v202h467v-202q0 -82 -0.5 -131t-4.5 -87.5t-7 -56t-13 -29.5t-18.5 -14.5t-26.5 -5.5q-8 -1 -46.5 -8t-53.5 -10l-10 -11v-100l10 -10 q307 10 373 10q65 0 372 -10l11 10v100l-11 11l-100 18q-18 3 -26.5 5.5t-18.5 14.5t-13 29.5t-7 56t-4.5 87.5t-0.5 131v505q0 82 0.5 131t4.5 87.5t7 56t13 29.5t18.5 14.5t26.5 5.5q8 1 46.5 8t53.5 10l11 11v100l-11 10q-307 -10 -372 -10q-66 0 -373 10l-10 -10v-100 l10 -11l100 -18q18 -3 26.5 -5.5t18.5 -14.5t13 -29.5t7 -56t4.5 -87.5t0.5 -131v-155h-467v155q0 82 0.5 131t4.5 87.5t7 56t13 29.5t18.5 14.5t26.5 5.5q8 1 46.5 8t53.5 10l10 11v100l-10 10q-308 -10 -373 -10q-66 0 -373 10l-10 -10v-100l10 -11l101 -18 q18 -3 26.5 -5.5t18.5 -14.5t13 -29t6.5 -56t4 -88t0.5 -131v-505q0 -82 -0.5 -131t-4 -88t-6.5 -56t-13 -29t-18.5 -14.5t-26.5 -5.5q-11 -2 -49 -8.5t-52 -9.5l-10 -11v-100z" />
<glyph unicode="I" horiz-adv-x="872" d="M53 0l10 -10q307 10 373 10t373 -10l10 10v100l-10 11l-100 18q-18 3 -26.5 5.5t-18.5 14.5t-13 29.5t-7 56t-4.5 87.5t-0.5 131v505q0 82 0.5 131t4.5 87.5t7 56t13 29.5t18.5 14.5t26.5 5.5q8 1 46.5 8t53.5 10l10 11v100l-10 10q-308 -10 -373 -10q-66 0 -373 10 l-10 -10v-100l10 -11l101 -18q18 -3 26.5 -5.5t18.5 -14.5t13 -29t6.5 -56t4 -88t0.5 -131v-505q0 -82 -0.5 -131t-4 -88t-6.5 -56t-13 -29t-18.5 -14.5t-26.5 -5.5q-11 -2 -49 -8.5t-52 -9.5l-10 -11v-100z" />
<glyph unicode="J" horiz-adv-x="872" d="M-53 -461q67 -18 145 -18q75 0 155.5 25.5t156 76.5t135.5 120.5t96.5 166t36.5 203.5v845q0 82 0.5 131t4 88t6.5 56t13 29t18.5 14.5t26.5 5.5q11 2 49 8.5t52 9.5l10 11v100l-10 10q-307 -10 -373 -10t-373 10l-10 -10v-100l10 -11l101 -18q18 -3 26.5 -5.5 t18.5 -14.5t13 -29t6.5 -56t4 -88t0.5 -131v-991q0 -109 -12 -165t-35 -73.5t-67 -17.5q-40 0 -81 23t-71 59q-7 -4 -21.5 -11t-19.5 -9q0 -135 -12 -234z" />
<glyph unicode="K" horiz-adv-x="1705" d="M53 0l10 -10q307 10 373 10t373 -10l10 10v100l-10 11l-100 18q-18 3 -26.5 5.5t-18.5 14.5t-13 29.5t-7 56t-4.5 87.5t-0.5 131v161q337 -368 508 -624q235 10 283 10q47 0 282 -10l10 10v100l-10 11h-39q-44 0 -76 21t-104 99q-299 323 -532 615q141 152 325 317 q91 82 154 107t170 30l10 11v100l-10 10q-190 -10 -228 -10q-39 0 -229 10l-10 -10v-113l-135 -149q-182 -203 -263 -281q-54 -52 -106 -96v186q0 82 0.5 131t4.5 87.5t7 56t13 29.5t18.5 14.5t26.5 5.5q8 1 46.5 8t53.5 10l10 11v100l-10 10q-308 -10 -373 -10 q-66 0 -373 10l-10 -10v-100l10 -11l101 -18q18 -3 26.5 -5.5t18.5 -14.5t13 -29t6.5 -56t4 -88t0.5 -131v-505q0 -82 -0.5 -131t-4 -88t-6.5 -56t-13 -29t-18.5 -14.5t-26.5 -5.5q-11 -2 -49 -8.5t-52 -9.5l-10 -11v-100z" />
<glyph unicode="L" horiz-adv-x="1290" d="M53 1311l10 -11l101 -18q18 -3 26.5 -5.5t18.5 -14.5t13 -29t6.5 -56t4 -88t0.5 -131v-372q0 -258 -12 -457q-3 -22 -41 -39q-20 -9 -47 -20l-10 -11v-59l10 -10q450 10 543 10t543 -10q4 8 10 18q4 199 28 361q-4 4 -8 10h-106l-10 -10q-20 -116 -50 -183 q-88 -39 -254 -39h-182q-1 39 -4.5 145t-3.5 161v505q0 82 0.5 131t4.5 87.5t7 56t13 29.5t18.5 14.5t26.5 5.5q8 1 46.5 8t53.5 10l10 11v100l-10 10q-308 -10 -373 -10q-66 0 -373 10l-10 -10v-100z" />
<glyph unicode="M" horiz-adv-x="2123" d="M47 0l10 -10q135 10 246 10q97 0 252 -10l10 10v100l-10 11q-102 13 -123.5 22t-25.5 47q-13 123 -13 484v346h4q344 -684 504 -1030h109q313 668 487 1017h4v-364q0 -388 -8 -443q-3 -21 -6.5 -30.5t-9.5 -18.5t-26.5 -13.5t-42.5 -7.5t-73 -9l-10 -11v-100l10 -10 q313 10 365 10q121 0 366 -10l11 10v100l-11 11q-136 0 -155 49q-6 17 -8.5 42.5t-4.5 149.5t-2 383q0 375 11 492q3 34 25.5 43.5t129.5 29.5l11 11v100l-11 10q-165 -10 -284 -10q-56 0 -271 10q-31 -95 -191.5 -431.5t-228.5 -461.5q-72 132 -201.5 402.5t-228.5 490.5 q-215 -10 -307 -10q-108 0 -293 10l-10 -10v-100l10 -11q5 -1 34.5 -4.5t43.5 -5.5q38 -4 55.5 -23.5t20.5 -58.5q10 -169 10 -473q0 -417 -16 -551q-4 -37 -26.5 -47t-121.5 -26l-10 -11v-100z" />
<glyph unicode="N" horiz-adv-x="1744" d="M55 0l11 -10q135 10 253 10q93 0 248 -10l11 10v100l-11 11q-97 11 -119 22t-32 62q-2 12 -6 70.5t-7.5 163t-3.5 208.5q0 67 7 319q415 -489 423 -499q15 -17 86 -101.5t108 -128t92 -106.5t86 -94.5t42 -36.5q71 0 270 -29q14 12 21 19q-14 257 -14 575q0 465 12 641 q3 50 29.5 70.5t117.5 33.5l11 11v100l-11 10q-135 -10 -245 -10q-91 0 -246 10l-10 -10v-100l10 -11q93 -11 116 -21.5t29 -47.5q10 -67 12.5 -145.5t2.5 -366.5v-227q-383 420 -775 929q-185 -10 -256 -10q-96 0 -251 10l-11 -10v-100l11 -11l92 -18q18 -3 26.5 -5.5 t18.5 -14.5t13 -29t6.5 -56t4 -88t0.5 -131v-505q0 -82 -0.5 -131t-4 -88t-6.5 -56t-13 -29t-18.5 -14.5t-26.5 -5.5l-92 -18l-11 -11v-100z" />
<glyph unicode="O" horiz-adv-x="1744" d="M86 670q0 -326 206 -517.5t552 -191.5q389 0 602 204.5t213 575.5q0 326 -206 517.5t-552 191.5q-389 0 -602 -204.5t-213 -575.5zM537 684q0 310 92.5 464.5t255.5 154.5q151 0 237 -152t86 -432q0 -310 -92.5 -464.5t-255.5 -154.5q-152 0 -237.5 152t-85.5 432z" />
<glyph unicode="P" horiz-adv-x="1327" d="M43 0l10 -10q307 10 373 10q30 0 397 -10l11 10v100l-11 13l-125 16q-18 3 -26.5 5.5t-18.5 14.5t-13 29t-6.5 56t-4 88t-0.5 131v505q0 136 14 316q28 8 59 8q45 0 80 -15t56 -41.5t35 -55t20 -63t8 -57.5t2 -46q0 -118 -37 -182t-98 -64q-28 0 -63 12q-14 -11 -23 -18 l45 -93q77 -22 156 -22q88 0 161.5 26.5t122.5 70t83.5 100t49.5 114.5t15 115q0 65 -15 118.5t-40 90t-62.5 64.5t-77.5 44t-89.5 25.5t-93.5 13t-95 3.5q-9 0 -25 -0.5t-24 -0.5q-49 -1 -174 -5.5t-193 -4.5q-60 0 -373 10l-10 -10v-100l10 -11l101 -18q18 -3 26.5 -5.5 t18.5 -14.5t13 -29t6.5 -56t4 -88t0.5 -131v-505q0 -82 -0.5 -131t-4 -88t-6.5 -56t-13 -29t-18.5 -14.5t-26.5 -5.5q-11 -2 -49 -8.5t-52 -9.5l-10 -11v-100z" />
<glyph unicode="Q" horiz-adv-x="1744" d="M86 670q0 -304 180.5 -492.5t489.5 -214.5v-4q-78 -7 -162.5 -52.5t-196.5 -139.5v-13l52 -61h12q74 53 168 53q57 0 123 -16t221 -70q251 -88 338 -88q18 0 57 21t137 80t191 110v12l-33 58l-14 2q-92 -45 -205 -45q-99 0 -305 73q-183 69 -242 74v4q365 15 563.5 219 t198.5 561q0 326 -206 517.5t-552 191.5q-389 0 -602 -204.5t-213 -575.5zM537 684q0 310 92.5 464.5t255.5 154.5q151 0 237 -152t86 -432q0 -310 -92.5 -464.5t-255.5 -154.5q-152 0 -237.5 152t-85.5 432z" />
<glyph unicode="R" horiz-adv-x="1554" d="M53 0l10 -10q307 10 373 10t373 -10l10 10v100l-10 11l-100 18q-18 3 -26.5 5.5t-18.5 14.5t-13 29.5t-7 56t-4.5 87.5t-0.5 131v505q0 79 14 316q36 -1 55.5 -1.5t49.5 -3t46 -6.5t39.5 -11t36 -17t28.5 -25t24 -34.5t16.5 -45t11.5 -58t3 -71.5q0 -75 -20 -130 t-53 -82.5t-65 -39.5t-65 -12q-22 0 -72 8q-15 -18 -29 -36l394 -719q185 10 258 10q95 0 250 -10l10 10v100l-10 11q-57 0 -87.5 22.5t-87.5 108.5q-20 30 -140 232t-146 241q23 9 37 14.5t47 23t55.5 34.5t51.5 46.5t47 62.5t31 79.5t13 99.5q0 56 -12.5 103t-31 80.5 t-49.5 60t-59 43.5t-69.5 29t-70.5 17.5t-72.5 8.5t-65 3.5t-57.5 -0.5q-77 0 -229.5 -4.5t-229.5 -4.5q-66 0 -373 9l-10 -9v-100l10 -11l101 -18q18 -3 26.5 -5.5t18.5 -14.5t13 -29t6.5 -56t4 -88t0.5 -131v-505q0 -82 -0.5 -131t-4 -88t-6.5 -56t-13 -29t-18.5 -14.5 t-26.5 -5.5q-11 -2 -49 -8.5t-52 -9.5l-10 -11v-100z" />
<glyph unicode="S" horiz-adv-x="1290" d="M98 979q0 -191 101 -298.5t323 -137.5q89 -12 148 -30.5t89.5 -45.5t42 -56.5t11.5 -70.5q0 -103 -79 -167t-208 -64t-195.5 75.5t-68.5 208.5l-10 10h-98l-13 -10q-5 -208 -24 -336l12 -18q132 -78 418 -78q304 0 474.5 138.5t170.5 375.5q0 102 -28 174.5t-90 122 t-150.5 79t-218.5 46.5q-147 20 -209 65t-62 132q0 92 66.5 150.5t169.5 58.5q68 0 122 -14.5t83 -35t43.5 -37t17.5 -26.5q3 -12 9.5 -72t6.5 -78q12 -9 13 -10h96l12 10q9 157 35 320q-2 2 -7 9.5l-7 10.5q-198 70 -396 70q-154 0 -270.5 -35.5t-187.5 -100t-106.5 -148.5 t-35.5 -187z" />
<glyph unicode="T" horiz-adv-x="1400" d="M10 1411q15 -117 15 -369l10 -10h104l13 10q7 144 22 170q16 28 55 33q100 10 263 10q0 -39 3 -138.5t3 -158.5v-505q0 -82 -0.5 -131t-4.5 -87.5t-7 -56t-13 -29.5t-18.5 -14.5t-26.5 -5.5q-8 -1 -46.5 -8t-53.5 -10l-11 -11v-100l11 -10q308 10 372 10q66 0 373 -10 l10 10v100l-10 11l-100 18q-18 3 -26.5 5.5t-18.5 14.5t-13 29.5t-7 56t-4.5 87.5t-0.5 131v505q0 59 3 158.5t3 138.5q162 0 262 -10q41 -5 56 -33q15 -26 22 -170q12 -9 13 -10h104l10 10q0 252 15 369l-11 10q-567 -10 -680 -10t-680 10z" />
<glyph unicode="U" horiz-adv-x="1593" d="M-8 1311l10 -11l100 -18q18 -3 26.5 -5.5t18.5 -14.5t13 -29.5t7 -56t4.5 -87.5t0.5 -131v-528q0 -109 32 -193t101 -147t185.5 -96t277.5 -33q135 0 240 20t175.5 60t118 90.5t73 121t36 141t10.5 159.5v405q0 82 0.5 131t4.5 87.5t7 56t13 29.5t18.5 14.5t26.5 5.5 q8 1 46.5 8t53.5 10l11 11v100l-11 10q-220 -10 -264 -10q-68 0 -248 10l-10 -10v-100l10 -11l101 -18q18 -3 26.5 -5.5t18.5 -14.5t13 -29t6.5 -56t4 -88t0.5 -131v-364q0 -223 -82.5 -313.5t-279.5 -90.5q-166 0 -237.5 88t-71.5 248v432q0 82 0.5 131t4 88t6.5 56t13 29 t18.5 14.5t26.5 5.5q11 2 49 8.5t52 9.5l10 11v100l-10 10q-308 -10 -373 -10q-66 0 -373 10l-10 -10v-100z" />
<glyph unicode="V" horiz-adv-x="1517" d="M-27 1311l11 -11q104 -14 131 -38q29 -26 88 -172q52 -123 155 -369.5t180.5 -431.5t129.5 -309h190l455 1081q38 90 59 133.5t47.5 68.5t46.5 29t68 8l10 11v100l-10 10q-145 -10 -260 -10q-95 0 -250 10l-10 -10v-100l10 -11q86 -4 119 -18t33 -39q0 -44 -39 -135 q-40 -101 -129 -322t-121 -301l-266 660q-31 79 -31 96q0 15 9.5 24t45 18t103.5 17l10 11v100l-10 10q-225 -10 -383 -10q-107 0 -381 10l-11 -10v-100z" />
<glyph unicode="W" horiz-adv-x="2199" d="M-4 1311l10 -11q30 -3 41 -4.5t29.5 -8.5t26 -17.5t19.5 -33.5t21 -54.5t21 -81.5l272 -1120h193l454 962l420 -962h189l323 1105q16 55 26 87t23.5 57.5t21.5 36.5t27.5 19t33 10t46.5 5l11 11v100l-11 10q-135 -10 -235 -10q-89 0 -234 10l-10 -10v-100l10 -11 q92 -12 116 -21.5t24 -31.5q0 -25 -15 -92l-159 -627h-4l-388 893h-151l-426 -893h-4l-117 523q-29 141 -29 176q0 33 32 46.5t124 26.5l10 11v100l-10 10q-225 -10 -375 -10q-111 0 -346 10l-10 -10v-100z" />
<glyph unicode="X" horiz-adv-x="1402" d="M-23 1362l23 -100l10 -11q6 1 28 3.5t34 2.5q21 0 34 -4.5t37.5 -25t60.5 -70t89 -133.5q152 -242 231 -385q-119 -178 -303 -397q-29 -34 -48 -55t-38.5 -37t-30.5 -23t-31.5 -11t-34 -4.5t-44.5 -0.5l-10 -11v-100l10 -10q125 10 145 10q25 0 152 -10q52 88 92.5 148 t151.5 216q14 20 44.5 63t41.5 58q138 -248 229 -397q21 -34 53 -88q185 10 260 10q97 0 252 -10l10 10v100l-10 11q-32 1 -46 2.5t-37 10.5t-37 24t-39.5 47t-51.5 75.5t-67 114.5q-206 360 -242 428q215 273 235 297q59 69 93 105t67.5 55.5t56 23.5t68.5 6l10 11v100 l-10 10q-103 -10 -149 -10q-52 0 -160 10q-16 -23 -46.5 -68t-39.5 -59q-31 -44 -110 -159.5t-109 -159.5q-132 217 -158 260q-39 65 -77 113t-52 61t-45 41q-49 -9 -119.5 -22t-96.5 -17.5t-68 -12t-66 -11t-57.5 -7.5t-73.5 -8z" />
<glyph unicode="Y" horiz-adv-x="1366" d="M-63 1389l8 -101l10 -10q44 0 68.5 -11t48.5 -36q95 -101 176.5 -223.5t236.5 -399.5q9 -15 12 -43.5t3 -111.5q0 -82 -0.5 -131t-4.5 -87.5t-7 -56t-13 -29.5t-18.5 -14.5t-26.5 -5.5q-8 -1 -46.5 -8t-53.5 -10l-11 -11v-100l11 -10q308 10 372 10q66 0 373 -10l10 10 v100l-10 11l-100 18q-18 3 -26.5 5.5t-18.5 14.5t-13 29.5t-7 56t-4.5 87.5t-0.5 131q0 111 4 151t19 66q296 504 502 735v16q-113 -10 -134 -10q-22 0 -135 10q-177 -336 -346 -616q-18 34 -54 103t-63 120.5t-45 85.5q-130 252 -268 336q-65 -19 -199.5 -35t-208.5 -16 h-30z" />
<glyph unicode="Z" horiz-adv-x="1441" d="M37 0l10 -10q513 10 633 10q106 0 643 -10q8 6 12 10q8 222 33 383l-10 10h-103l-14 -10l-31 -139q-5 -24 -18 -43q-19 -29 -287 -29h-332l254 369q407 603 545 757v115l-10 8q-482 -10 -596 -10q-98 0 -606 10l-10 -10q0 -213 -11 -352l11 -10h96l14 10q21 142 39 160 q11 11 78 15.5t266 4.5h184q-537 -787 -790 -1128v-111z" />
<glyph unicode="[" horiz-adv-x="796" d="M188 -352l19 -13q62 11 254 11q85 0 299 -11q9 12 10 13v98l-10 10q-104 6 -151 13.5t-60.5 17.5t-16.5 33q-10 72 -10 698v119q0 626 10 698q3 23 16.5 33t60.5 17.5t151 13.5l10 10v98l-10 13q-215 -11 -299 -11q-192 0 -254 11l-19 -13q23 -421 23 -835v-189 q0 -414 -23 -835z" />
<glyph unicode="\" horiz-adv-x="720" d="M49 1440l400 -1469l12 -10h203l8 10l-400 1469l-12 10h-203z" />
<glyph unicode="]" horiz-adv-x="796" d="M27 -254v-98l10 -13q215 11 299 11q192 0 254 -11l18 13q-22 403 -22 835v189q0 432 22 835l-18 13q-62 -11 -254 -11q-84 0 -299 11q-9 -12 -10 -13v-98l10 -10q104 -6 150.5 -13.5t60 -17.5t16.5 -33q10 -72 10 -698v-119q0 -626 -10 -698q-3 -23 -16.5 -33t-60 -17.5 t-150.5 -13.5z" />
<glyph unicode="^" horiz-adv-x="1228" d="M150 625h237l227 510l228 -510h237l-356 747h-217z" />
<glyph unicode="_" horiz-adv-x="1024" d="M0 -154v-102h1024v102h-1024z" />
<glyph unicode="`" horiz-adv-x="569" d="M-61 1415q0 -26 9.5 -47t31.5 -40t36 -28.5t44 -27.5q7 -4 10 -6q28 -16 83 -48t96.5 -56t69.5 -40h140l-230 308q-75 98 -151 98q-54 0 -96.5 -30.5t-42.5 -82.5z" />
<glyph unicode="a" horiz-adv-x="1138" d="M61 227q0 -46 13 -89t41 -84.5t82.5 -67t128.5 -25.5q71 0 112 19t195 120q0 -22 -12 -100q13 -8 16 -10q195 10 219 10q54 0 234 -10l10 10v80l-10 10q-29 1 -48.5 4.5t-32.5 13t-19.5 17.5t-10 31t-4 39t-0.5 54v13q0 66 5 201t5 201q0 90 -33.5 155t-93 101t-131 52.5 t-158.5 16.5q-126 0 -161 -20q-49 -28 -143 -82t-111 -64q0 -86 -13 -139l6 -12l107 -21l12 4l76 125q12 19 92 19q53 0 90.5 -14t56 -32t28 -49t11 -50.5t1.5 -51.5q-177 -34 -268.5 -62.5t-151.5 -64.5q-140 -85 -140 -248zM403 303q0 31 10 57t30 44t39.5 31t50 23 t48 14.5t46.5 10.5v-256l-49 -30q-42 -25 -78 -25q-48 0 -72.5 40t-24.5 91z" />
<glyph unicode="b" horiz-adv-x="1214" d="M0 1321l10 -10q17 0 53.5 -8t42.5 -23q17 -38 17 -211v-737q0 -249 -14 -332q40 -20 53 -27l104 66q121 -49 170 -63.5t113 -14.5q71 0 147.5 19.5t157 66t143.5 114t103.5 175t40.5 237.5q0 54 -9 107t-33 110.5t-61.5 100.5t-100.5 70.5t-144 27.5q-66 0 -102.5 -13 t-90.5 -56q-19 -15 -42.5 -34t-48 -39t-34.5 -28q0 65 3 195t3 194q0 72 19 289l-33 12q-96 -37 -254.5 -67.5t-202.5 -30.5l-10 -10v-80zM475 418q0 139 6 280q34 25 55.5 35t53.5 10q172 0 172 -317t-160 -317q-49 0 -121 47q-6 126 -6 262z" />
<glyph unicode="c" horiz-adv-x="985" d="M74 457q0 -107 31.5 -193.5t81.5 -141.5t115.5 -92.5t129.5 -53t127 -15.5q86 0 186 24t164 50q26 112 47 141l-18 31q-78 -55 -201 -55q-76 0 -136 36t-96 95t-54.5 128.5t-18.5 141.5q0 53 12.5 99.5t37.5 85.5t68 62t99 23q32 0 65 -10.5t44 -26.5q5 -7 14.5 -51 t13.5 -86l11 -10h112l11 10q0 195 18 266q-6 15 -10 21q-60 26 -118 39.5t-148 13.5q-116 0 -221.5 -37t-187.5 -103.5t-130.5 -168t-48.5 -223.5z" />
<glyph unicode="d" horiz-adv-x="1251" d="M74 414q0 -22 3 -51t13.5 -73.5t27 -87.5t47 -87.5t70 -78t100 -54.5t132.5 -21q50 0 91 10.5t77 34.5t57.5 43t57.5 55v-104l10 -10q148 10 205 10q119 0 237 -10l10 10v80l-10 10q-36 6 -50 9.5t-25.5 11.5t-14.5 22q-12 55 -12 199v485q0 97 9 372t9 308l-33 12 q-96 -37 -254 -67.5t-202 -30.5l-11 -10v-80l11 -10q17 0 53.5 -8t42.5 -23q16 -36 16 -211v-104q-94 24 -151 24q-118 0 -216.5 -47t-163.5 -127t-100.5 -183.5t-35.5 -217.5zM453 535q0 47 7 92.5t24 94.5t53 79t86 30q52 0 85 -27.5t33 -58.5v-415q0 -20 -1 -34 t-6.5 -36.5t-15.5 -36.5t-31 -24.5t-50 -10.5q-53 0 -91.5 37.5t-57.5 95.5t-27 111.5t-8 102.5z" />
<glyph unicode="e" horiz-adv-x="1099" d="M59 444q0 -110 30.5 -195.5t80 -138.5t119.5 -87.5t143 -48t156 -13.5q189 0 362 90q9 53 49 150q-4 4 -12.5 11.5t-11.5 10.5q-106 -71 -242 -71q-72 0 -129 22t-89.5 54.5t-53.5 74.5t-28 78t-7 70h311q132 0 254 34q27 5 29 19q6 34 6 78q0 203 -113 305t-317 102 q-88 0 -156 -31q-21 -9 -82 -36.5t-84 -38.5q-82 -40 -114 -80q-38 -49 -69.5 -156t-31.5 -203zM418 596q3 138 32.5 200t100.5 62q34 0 58.5 -15.5t36.5 -43t17 -56t5 -61.5q0 -28 -6 -86q-14 -1 -39 -2.5t-45.5 -2.5t-38.5 -1t-38 1t-44.5 2.5t-38.5 2.5z" />
<glyph unicode="f" horiz-adv-x="757" d="M33 2l10 -12q255 10 313 10q56 0 328 -10q6 8 10 12v78l-10 10q-84 8 -105.5 14.5t-33.5 30.5q-17 35 -17 238v420h70q96 0 164 -7q4 3 12 11q2 53 35 137l-7 14t-7 13q-43 -11 -195 -11h-72v160q0 69 1 98t8 60.5t23 41t44 9.5q59 0 172 -113q10 5 30 13l25 10 q19 183 37 258q-77 22 -147 22q-33 0 -52 -1.5t-61 -11.5t-80.5 -30t-98.5 -61t-128 -100q-31 -27 -48 -43t-33 -41t-23 -40t-15.5 -56t-12.5 -72t-13 -103q-17 -12 -57.5 -40.5t-55.5 -39.5l-10 -16v-51l10 -10h127v-320q0 -68 -1.5 -142.5t-3.5 -120t-3 -50.5 q-4 -37 -22.5 -47.5t-96.5 -22.5l-10 -10v-78z" />
<glyph unicode="g" horiz-adv-x="1214" d="M27 -303q0 -13 2 -27.5t13 -41.5t29 -51t55 -51t86 -46t127 -32t173 -13q186 0 337 51t243 153.5t92 239.5q0 46 -9 84t-22 65t-36.5 48.5t-44 35.5t-53 23.5t-55 14t-58.5 7t-54.5 3t-52.5 0.5h-209q-28 0 -42 0.5t-41.5 2t-43 6t-33.5 12t-26.5 20.5t-8.5 30 q0 13 7.5 26.5t16.5 23t34 34.5q64 -8 82 -8q53 0 108 6t126.5 27t125.5 54.5t91.5 96t37.5 144.5q0 87 -18 117h200q16 81 41 143q-8 13 -10 16q-98 -16 -309 -16q-27 19 -67 37.5t-124.5 37.5t-177.5 19q-75 0 -144 -14t-130.5 -44.5t-107.5 -74.5t-72.5 -107t-26.5 -139 q0 -61 21.5 -111t47.5 -78t67.5 -51.5t62.5 -31t51 -16.5q-119 -70 -169 -129.5t-50 -122.5q0 -91 112 -168q-6 -3 -28.5 -14t-29 -14t-26 -14t-26.5 -16t-22.5 -16.5t-21.5 -20t-16 -21.5t-13.5 -26t-7 -29t-3.5 -34zM285 -250q0 31 9.5 57t19 39t28.5 35q19 -8 80 -8h213 q26 0 41 -0.5t42.5 -4t44.5 -12t35 -22t27 -37.5t9 -55q0 -48 -31 -86t-77.5 -58.5t-93.5 -31t-87 -10.5q-66 0 -122.5 18.5t-97 64t-40.5 111.5zM420 655q0 213 129 213q38 0 65.5 -21.5t41 -49.5t21.5 -67t9.5 -62t1.5 -47q0 -48 -10 -88.5t-40.5 -72.5t-78.5 -32 q-43 0 -72.5 22t-43 59.5t-18.5 72t-5 73.5z" />
<glyph unicode="h" horiz-adv-x="1290" d="M39 0l10 -10q240 10 287 10q50 0 285 -10l10 10v80l-10 10q-28 5 -38.5 7t-24 7t-19 11.5t-7.5 17.5q-12 56 -12 199v147q0 123 10 211q0 3 18.5 16t46 25t46.5 12q69 0 99 -42.5t30 -139.5q0 -153 -5 -284t-10 -198.5t-5 -68.5q12 -14 18 -20q200 10 238 10 q40 0 235 -10l10 10v80l-10 10q-75 7 -94 27.5t-19 81.5q0 94 3.5 244t3.5 198q0 188 -74 268t-225 80q-52 0 -93 -14.5t-64.5 -31.5t-72 -58t-86.5 -68v172q0 112 9.5 301.5t9.5 206.5l-33 12q-3 0 -86 -24.5t-193 -49t-178 -24.5l-10 -10v-80l10 -10q17 0 53.5 -8 t42.5 -23q17 -38 17 -211v-68v-669q0 -144 -12 -199q-4 -20 -23.5 -27.5t-77.5 -15.5l-10 -10v-80z" />
<glyph unicode="i" horiz-adv-x="681" d="M39 2l10 -12q240 10 287 10q32 0 297 -10q6 8 10 12v78l-10 10q-58 8 -77.5 15.5t-23.5 27.5q-12 56 -12 199v289q0 226 19 368q-4 1 -11 4t-12.5 5t-9.5 3q-87 -35 -240.5 -64t-216.5 -34l-10 -10v-80l10 -10q17 0 53.5 -8t42.5 -23q17 -38 17 -211v-229 q0 -144 -12 -199q-4 -20 -23.5 -27.5t-77.5 -15.5l-10 -10v-78zM147 1298q0 -77 56 -133.5t135 -56.5q78 0 133 56t55 134t-55 133.5t-133 55.5q-81 0 -136 -55.5t-55 -133.5z" />
<glyph unicode="j" horiz-adv-x="681" d="M-113 -420l45 -133q47 -12 101 -12q101 0 180.5 27t129.5 65t86 103t53 116t26.5 131t10.5 121t1 111v12v653q0 108 19 215q-4 1 -11 4t-12.5 5t-9.5 3q-89 -34 -244.5 -63t-232.5 -35l-11 -10v-80l11 -10q31 0 70 -8t46 -23q17 -38 17 -211v-555v-72.5t-1 -65.5 t-3.5 -63t-6 -54t-10 -50t-15 -40t-20.5 -34.5t-27.5 -23.5t-36 -16.5t-44.5 -4.5q-44 0 -96 23q-2 -4 -7.5 -13t-7.5 -12zM147 1298q0 -77 56 -133.5t135 -56.5q78 0 133 56t55 134t-55 133.5t-133 55.5q-81 0 -136 -55.5t-55 -133.5z" />
<glyph unicode="k" horiz-adv-x="1251" d="M25 0l10 -10q240 10 287 10q73 0 268 -10l10 10v80l-10 10q-27 5 -39 9t-25 14.5t-17 31.5t-6.5 53t-2.5 87v143h4q64 -80 158 -213t151 -225q175 10 211 10q42 0 242 -10l10 10v80l-10 10q-60 0 -109 49q-43 44 -168 213q-40 54 -115.5 158t-91.5 125q27 39 51.5 69.5 t49 52.5t43.5 38t44 27t40 17.5t42 10.5t41 5.5t44 4.5l10 10v80l-19 11q-42 -11 -153 -11q-101 0 -182 11q-18 -64 -99 -168q-99 -124 -190 -236h-4q1 82 2.5 239t2.5 265.5t1 146.5q0 83 18 289q-5 2 -11 4t-12.5 4.5t-8.5 3.5q-96 -37 -254.5 -67.5t-202.5 -30.5l-10 -10 v-80l10 -10q17 0 53.5 -8t42.5 -23q16 -36 16 -211v-737q0 -144 -12 -199q-4 -20 -23 -27.5t-77 -15.5l-10 -10v-80z" />
<glyph unicode="l" horiz-adv-x="681" d="M39 2l10 -12q240 10 287 10q50 0 285 -10q6 8 10 12v78l-10 10q-28 5 -38.5 7t-24 7t-19 11.5t-7.5 17.5q-12 56 -12 199v485q0 96 9.5 371.5t9.5 308.5l-33 12q-96 -37 -254.5 -67.5t-202.5 -30.5l-10 -10v-80l10 -10q17 0 53.5 -8t42.5 -23q17 -38 17 -211v-737 q0 -144 -12 -199q-4 -20 -23.5 -27.5t-77.5 -15.5l-10 -10v-78z" />
<glyph unicode="m" horiz-adv-x="1857" d="M18 0l11 -10q240 10 286 10q50 0 285 -10l10 10v80l-10 10q-35 6 -48.5 9.5t-25 11.5t-14.5 22q-12 56 -12 199v147q0 123 10 211q0 3 18.5 16t46 25t46.5 12q69 0 99 -42.5t30 -139.5q0 -153 -5 -284t-10.5 -198.5t-5.5 -68.5q6 -7 19 -20q200 10 219 10q6 0 241 -10 l11 10v80l-11 10q-35 6 -48.5 9.5t-25 11.5t-14.5 22q-12 55 -12 199v147q0 123 10 211q0 3 18.5 16t46 25t46.5 12q69 0 99 -42.5t30 -139.5q0 -153 -5 -284t-10.5 -198.5t-5.5 -68.5q6 -7 19 -20q200 10 237 10q41 0 236 -10l10 10v80l-10 10q-75 7 -94 27.5t-19 81.5 q0 94 3 244t3 198q0 188 -74 268t-225 80q-98 0 -147 -39q-30 -23 -89.5 -70.5t-78.5 -62.5q-41 101 -106 136.5t-187 35.5q-98 0 -147 -39q-30 -23 -89.5 -70.5t-78.5 -62.5q2 20 4.5 61.5t5.5 67t8 43.5q-4 1 -11 4t-12.5 5t-9.5 3q-87 -35 -240 -64t-216 -34l-11 -10v-80 l11 -10q17 0 53.5 -8t42.5 -23q16 -36 16 -211v-229q0 -144 -12 -199q-4 -20 -23 -27.5t-77 -15.5l-11 -10v-80z" />
<glyph unicode="n" horiz-adv-x="1290" d="M39 0l10 -10q240 10 287 10q50 0 285 -10l10 10v80l-10 10q-28 5 -38.5 7t-24 7t-19 11.5t-7.5 17.5q-12 56 -12 199v147q0 123 10 211q0 3 18.5 16t46 25t46.5 12q69 0 99 -42.5t30 -139.5q0 -321 -20 -551q12 -14 18 -20q200 10 238 10q40 0 235 -10l10 10v80l-10 10 q-75 7 -94 27.5t-19 81.5q0 94 3.5 244t3.5 198q0 188 -74 268t-225 80q-52 0 -93 -14.5t-64.5 -31.5t-72 -58t-86.5 -68q1 16 4.5 60.5t6.5 68.5t8 43q-4 1 -11 4t-12.5 5t-9.5 3q-87 -35 -240.5 -64t-216.5 -34l-10 -10v-80l10 -10q17 0 53.5 -8t42.5 -23q17 -38 17 -211 v-229q0 -144 -12 -199q-4 -20 -23.5 -27.5t-77.5 -15.5l-10 -10v-80z" />
<glyph unicode="o" horiz-adv-x="1214" d="M74 449q0 -129 37 -225t104.5 -152.5t154 -83.5t193.5 -27q272 0 425 136.5t153 404.5q0 255 -133 371t-387 116q-268 0 -407.5 -136t-139.5 -404zM469 410.5v58.5v59t1 56t3 55.5t5 50t8 47.5t12.5 39.5t17.5 35t23 24.5t30 17t37 5q25 0 45.5 -8t35 -26.5t24.5 -36.5 t16.5 -51.5t10 -57t5 -67.5t2 -68.5t0.5 -73.5q0 -48 -0.5 -73t-2 -68.5t-5 -67t-10 -56.5t-16.5 -51t-24.5 -36.5t-35 -26.5t-45.5 -8q-20 0 -37 5t-30 17t-23 24.5t-17.5 35t-12.5 39.5t-8 47t-5 49.5t-3 55.5t-1 55.5z" />
<glyph unicode="p" horiz-adv-x="1251" d="M39 -446v-78l10 -13q253 11 277 11q28 0 309 -11q9 12 10 13v78l-10 10q-67 8 -88 15t-25 28q-12 56 -12 198v183q4 -1 14.5 -5t16 -5.5t16 -5t19 -5t21 -3t26 -2.5t28.5 -1q64 0 131.5 18.5t139.5 63.5t128 111t92 170.5t36 232.5q0 197 -87 314.5t-268 117.5 q-41 0 -60.5 -2.5t-55.5 -18.5t-80.5 -50t-116.5 -97q0 103 12 168q-4 2 -9.5 4t-11 4.5t-7.5 3.5q-131 -54 -445 -98l-10 -10v-80l10 -10l7 -1q7 -1 19.5 -3.5t24.5 -5.5t22 -9t13 -12q17 -38 17 -211v-756q0 -138 -13 -198q-4 -20 -21.5 -27t-68.5 -16zM504 424 q0 53 3 155t3 123q33 22 56.5 31.5t62.5 9.5q40 0 70.5 -14t48.5 -42t29 -55.5t15.5 -70.5t5.5 -69t1 -68q0 -39 -2 -69.5t-8 -68t-19 -65t-33 -52t-52 -37.5t-73 -13t-71.5 24.5t-30.5 53.5q-1 25 -2.5 71.5t-2.5 84t-1 71.5z" />
<glyph unicode="q" horiz-adv-x="1251" d="M74 416q0 -90 25 -171t72.5 -145t125 -101.5t174.5 -37.5q152 0 285 109v-265q0 -138 -13 -198q-4 -20 -23 -27.5t-77 -15.5l-10 -10v-78l10 -13q291 11 297 11q64 0 262 -11q9 12 10 13v78l-10 10q-30 7 -40 9.5t-21.5 11t-14.5 22.5q-12 56 -12 198v756q0 226 29 389 q-9 7 -35 25.5t-35 25.5l-106 -83q-44 21 -76.5 34t-93.5 25t-129 12q-151 0 -288.5 -78t-221.5 -211t-84 -284zM453 526q0 305 186 305q62 0 89.5 -31t27.5 -102v-358q0 -21 -1 -34.5t-7 -38.5t-17 -40t-35 -27t-57 -12q-36 0 -65 12.5t-48 31.5t-33 48.5t-21.5 57.5 t-12 64.5t-5.5 63.5t-1 60z" />
<glyph unicode="r" horiz-adv-x="909" d="M47 2l10 -12q240 10 305 10q114 0 304 -10q6 8 10 12v78l-10 10q-9 2 -33.5 5.5t-34.5 6t-25.5 6.5t-22.5 10.5t-9 14.5q-13 60 -13 199v147q0 38 0.5 56.5t3.5 48.5t8.5 44.5t17 34t28 28.5t42 15.5t58.5 6.5q47 0 78 -16.5t65 -55.5q9 2 21 5t25 6.5t18 4.5v129 q0 20 12 191q-62 12 -86 12q-30 0 -54 -4t-48 -19t-40 -27t-43 -45t-44 -55.5t-55 -74.5h-5l17 225l-33 12q-87 -35 -240.5 -64t-216.5 -34l-10 -10v-80l10 -10q17 0 54 -8t43 -23q16 -36 16 -211v-229q0 -144 -12 -199q-4 -20 -23.5 -27.5t-77.5 -15.5l-10 -10v-78z" />
<glyph unicode="s" horiz-adv-x="985" d="M57 645q0 -87 24.5 -145.5t83.5 -91.5t98.5 -45.5t125.5 -30.5q5 -1 8 -2q132 -27 170.5 -46t38.5 -71q0 -56 -48 -84.5t-103 -28.5q-12 0 -21.5 0.5t-31.5 3.5t-38.5 8.5t-38.5 17.5t-38.5 28.5t-30.5 43.5t-20 60l-11 10h-100l-10 -10q-5 -105 -21 -235q2 -4 6.5 -12 t5.5 -11q38 -14 124 -28.5t186 -14.5q107 0 195.5 20t161.5 62.5t114 117t41 175.5q0 61 -19 108t-46 75t-70 49.5t-75 31t-77 18.5q-73 15 -115.5 24.5t-80 20t-54 17.5t-29 18.5t-15.5 22t-3 27.5q0 37 28 61.5t62 32.5t70 8t66.5 -6.5t50 -14.5t36.5 -23.5t25 -25 t16 -27.5t9.5 -24t5.5 -20l10 -11h90l10 11q0 31 8 102t13 100q-5 8 -15 23q-82 28 -150 41.5t-171 13.5q-193 0 -322 -94.5t-129 -249.5z" />
<glyph unicode="t" horiz-adv-x="796" d="M23 803l10 -10h127q-10 -415 -10 -500q0 -41 1.5 -70t8.5 -66.5t19 -63t34.5 -52.5t54.5 -43t79.5 -26.5t107.5 -10.5q51 0 124.5 12t108.5 31q43 62 107 143q-15 24 -31 48q-60 -35 -123 -35q-67 0 -95 48t-28 116v469h70q108 0 166 -7l10 11q2 58 35 137q-2 3 -5 9 t-5.5 10.5t-4.5 7.5q-45 -11 -202 -11h-64q0 178 25 367q-8 6 -31 20q-195 -89 -365 -120q1 -13 7 -114t6 -153q-35 -23 -127 -80l-10 -16v-51z" />
<glyph unicode="u" horiz-adv-x="1290" d="M39 813l10 -10q20 0 57.5 -8t43.5 -23q12 -28 12 -74q0 -78 -3 -242t-3 -177q0 -28 0.5 -45.5t6 -54.5t15.5 -62t31.5 -57t51.5 -51.5t77.5 -33.5t107.5 -14q66 0 124.5 25.5t90 51.5t95.5 88q11 10 16 15q-1 -16 -2 -46.5t-2 -53.5t-2 -39l10 -12q175 10 225 10 q35 0 119 -4.5t121 -5.5q6 8 10 12v78l-10 10q-58 8 -77 15.5t-23 27.5q-13 60 -13 199v289q0 226 19 368q-4 1 -11 4t-12.5 5t-9.5 3q-87 -35 -240.5 -64t-216.5 -34l-10 -10v-80l10 -10q17 0 54 -8t43 -23q16 -36 16 -211v-282q-2 -2 -15.5 -14t-18.5 -16t-18.5 -13.5 t-24 -13.5t-25.5 -7.5t-31 -3.5q-60 0 -88.5 37.5t-28.5 97.5v377q0 161 19 266q-4 1 -11 4t-12.5 5t-9.5 3q-87 -35 -240.5 -64t-216.5 -34l-10 -10v-80z" />
<glyph unicode="v" horiz-adv-x="1138" d="M-14 870l10 -10q60 -8 77 -19t38 -61q151 -339 319 -800h268q111 309 269 663q67 151 90.5 180.5t85.5 36.5l10 10v80l-10 11q-162 -11 -199 -11q-33 0 -201 11l-10 -11v-80l10 -10q61 -3 82 -11t21 -30q0 -27 -52.5 -166.5t-115.5 -279.5q-50 111 -89.5 214t-56 158 t-16.5 68q0 22 21 30.5t81 16.5l11 10v80l-11 11q-264 -11 -311 -11t-311 11l-10 -11v-80z" />
<glyph unicode="w" horiz-adv-x="1705" d="M-18 870l10 -10q27 -3 42 -5.5t31.5 -14.5t24 -22t22 -43t24 -60.5t30.5 -91.5q14 -41 55 -174.5t89 -289t55 -179.5h245q17 41 54.5 131t59.5 141.5t55.5 127t64.5 138.5q47 -108 139.5 -319t95.5 -219h234q62 217 223 657q52 144 77.5 177t100.5 46l10 10v80l-10 11 q-162 -11 -201 -11q-41 0 -198 11l-10 -11v-80l10 -10q67 -6 82.5 -15t15.5 -36q0 -37 -127 -412q-162 376 -242 564h-182l-244 -564q-30 84 -70 236t-40 172q0 28 19 36.5t87 18.5l11 10v80l-11 11q-247 -11 -288 -11q-48 0 -334 11l-10 -11v-80z" />
<glyph unicode="x" horiz-adv-x="1138" d="M-8 940l8 -80l10 -10q49 -6 75.5 -20.5t57.5 -55.5q22 -28 115 -163.5t131 -202.5q-143 -178 -201 -244q-19 -23 -32.5 -34t-47.5 -22.5t-90 -17.5l-10 -10v-78l10 -12q88 10 125 10q25 0 138 -10q34 51 102 153.5t90 135.5l174 -289q210 10 250 10q55 0 240 -10 q6 8 10 12v78l-10 10q-44 7 -63.5 13.5t-52.5 35t-69 79t-100 149.5q-50 76 -141 217q107 134 180 200q83 76 160 76l10 10v70l-10 10q-64 0 -256 13q-60 -106 -170 -252q-35 53 -101 153t-82 125q-267 -39 -440 -39z" />
<glyph unicode="y" horiz-adv-x="1138" d="M-18 870l10 -10q53 -4 75 -29t52 -96q70 -161 202 -468.5t162 -377.5q-16 -44 -25 -67t-31 -63t-44.5 -61.5t-58.5 -38.5t-80 -17q-45 0 -72 16t-45 55l-31 -6q-25 -138 -38 -178q-5 -16 -15 -45q39 -28 74.5 -38.5t85.5 -10.5q52 0 99.5 15t83 35.5t71 58.5t57.5 68 t49.5 81t41 79.5t36.5 80.5t144.5 343.5t142.5 340.5q35 81 57 131t42.5 88t31.5 55t28 28.5t27 14t33 6.5l10 10v80l-10 11q-182 -11 -197 -11q-12 0 -194 11l-11 -11v-80l11 -10q59 -7 78.5 -16.5t19.5 -28.5q0 -13 -5 -32.5t-16.5 -51.5t-23 -61t-33 -82.5t-37.5 -95.5 q-8 -20 -26 -68t-25 -66q-98 221 -137 318t-39 135q0 39 87 47q10 1 15 2l11 10v80l-11 11q-286 -11 -313 -11q-29 0 -309 11l-10 -11v-80z" />
<glyph unicode="z" horiz-adv-x="1062" d="M18 90q4 -15 13 -46.5t12 -43.5l12 -10q385 10 461 10q74 0 459 -10l10 10q0 227 25 317l-11 11h-131l-10 -11l-33 -135q-43 -35 -319 -35q57 83 197.5 288.5t193.5 283.5q64 95 100 131v100l-10 11q-146 -11 -442 -11q-281 0 -443 11l-10 -11q1 -16 2.5 -46t2.5 -54.5 t1 -46.5l-6 -129l10 -10h111l10 10q4 41 9.5 60t23.5 38t52.5 25t94.5 6q65 0 119 -6q-76 -108 -222 -316t-185 -264q-9 -13 -97 -127z" />
<glyph unicode="{" horiz-adv-x="796" d="M41 575q91 -22 122.5 -75t31.5 -162v-391q0 -68 9.5 -115.5t35.5 -83.5t62.5 -57t99 -34t136.5 -17.5t183 -4.5q5 8 10 15v82l-10 14q-11 2 -32 4t-30 4q-82 21 -110.5 61t-28.5 119v355q0 128 -33 192.5t-133 93.5v5q100 29 133 93.5t33 192.5v355q0 79 28.5 119 t110.5 61q9 2 30 4t32 4q2 3 10 14v82l-10 15q-109 0 -183 -4.5t-136.5 -17.5t-99 -34t-62.5 -57t-35.5 -83.5t-9.5 -115.5v-391q0 -112 -32 -165.5t-122 -71.5v-5z" />
<glyph unicode="|" horiz-adv-x="454" d="M104 -512h246v2048h-246v-2048z" />
<glyph unicode="}" horiz-adv-x="796" d="M66 -268v-82l10 -15q109 0 183 4.5t136.5 17.5t99 34t62.5 57t35.5 83.5t9.5 115.5v391q0 109 31.5 162t122.5 75v5q-90 18 -122 71.5t-32 165.5v391q0 68 -9.5 115.5t-35.5 83.5t-62.5 57t-99 34t-136.5 17.5t-183 4.5q-5 -8 -10 -15v-82l10 -14q11 -2 31 -4t30 -4 q82 -21 110.5 -61t28.5 -119v-355q0 -128 33 -192.5t133 -93.5v-5q-100 -29 -133 -93.5t-33 -192.5v-355q0 -79 -28.5 -119t-110.5 -61q-9 -2 -29.5 -4t-31.5 -4q-2 -3 -10 -14z" />
<glyph unicode="~" horiz-adv-x="1228" d="M141 537q45 -132 74 -220q31 66 71 107t101 41q102 0 199 -59q134 -80 248 -80q45 0 83.5 14t69.5 41.5t53 54t47 64.5q-30 87 -73 219q-25 -37 -38 -54.5t-37.5 -44t-50 -38t-54.5 -11.5q-28 0 -64 11.5t-59 22.5t-74 36q-140 70 -252 70q-86 0 -147 -49.5t-97 -124.5z " />
<glyph unicode="&#xa1;" horiz-adv-x="757" d="M176 -461h125l281 72q0 173 -41 450q-4 33 -27 143.5t-45 214t-23 109.5q-5 3 -12.5 8.5t-9.5 6.5l-105 -60q-50 -288 -96 -483q-29 -135 -38 -229.5t-9 -231.5zM186 795q0 -79 58 -137t137 -58t136.5 57.5t57.5 137.5q0 79 -57.5 136.5t-136.5 57.5q-80 0 -137.5 -57.5 t-57.5 -136.5z" />
<glyph unicode="&#xa2;" d="M152 457q0 -100 27 -181.5t75 -137.5t105 -92.5t126 -57.5l-61 -197l8 -10h78l14 10l54 176q46 -6 86 -6q86 0 186 24t164 50q24 101 47 133l-19 31q-79 -56 -223 -56q-103 0 -172 54q63 208 191 624q20 -7 26 -16q19 -26 29 -152l10 -10h113l10 10q0 191 18 262 q-7 15 -10 21q-53 23 -149 41q9 31 27 90t22 72l-6 10h-80l-14 -10l-46 -150h-10q-174 0 -315 -62.5t-226 -185t-85 -284.5zM487 571q0 53 13 99.5t40.5 86t77 62.5t115.5 23h10l-172 -572q-84 114 -84 301z" />
<glyph unicode="&#xa3;" d="M66 63q0 -16 1 -32.5t2.5 -37t2.5 -32.5h108q28 19 40 31.5t32 40.5q115 0 347 -36t319 -36q141 0 204 39q-4 144 -4 152q0 76 29 254q-8 6 -12 10h-109l-10 -10q-4 -17 -9 -36.5t-8 -30t-6 -22.5t-5.5 -18.5t-5 -12.5t-5.5 -9.5t-6 -6.5q-15 -10 -97 -10q-22 0 -164 9.5 t-169 9.5q-33 0 -75.5 -3.5t-47.5 -3.5q170 170 188 375q53 -1 120.5 -2.5t140.5 -3t100 -2.5l10 8v123l-10 8l-361 -8q2 85 5.5 144t12 118t23 96t37.5 67.5t56.5 44t78.5 13.5q86 0 142 -63q6 -69 12 -137l10 -11h104l11 11q0 188 20 293q-2 4 -6.5 11.5t-5.5 10.5 q-137 43 -277 43q-283 0 -467 -176q-19 -19 -34.5 -39.5t-27 -37t-20 -44.5t-14 -42.5t-9.5 -51.5t-5.5 -51.5t-2.5 -62t-1 -62.5v-74q-23 1 -51 2.5t-59 3t-42 2.5l-10 -8v-123l10 -8l158 8q10 -82 10 -170q0 -58 -1.5 -89.5t-10.5 -74.5t-27 -71q-75 -23 -153 -88 q-6 -46 -6 -91z" />
<glyph unicode="&#xa4;" d="M68 287l141 -140l117 117q122 -86 280 -86q156 0 281 86l117 -117l141 140l-117 116q86 130 86 283q0 155 -86 283l117 116l-141 140l-117 -117q-128 86 -281 86q-152 0 -282 -84l-115 115l-141 -140l116 -116q-86 -130 -86 -283t86 -283zM332 686q0 120 74.5 203.5 t199.5 83.5t200 -83.5t75 -203.5t-75 -203.5t-200 -83.5t-199.5 83.5t-74.5 203.5z" />
<glyph unicode="&#xa5;" d="M-57 1364l8 -104l10 -9q38 0 60 -10t45 -33q20 -19 40 -42t42 -54.5t37.5 -54.5t39.5 -66t35 -62.5t38.5 -70t35.5 -65.5h-176l-11 -11v-133l11 -10h252l34 -68v-102h-286l-11 -10v-133l11 -11h286q-2 -85 -9.5 -124t-17.5 -48t-36 -14q-7 -2 -41 -8.5t-47 -9.5l-10 -11 v-100l10 -10q273 10 330 10q59 0 331 -10q7 7 9 10v100l-9 11l-90 18q-24 5 -34 13.5t-17.5 48t-9.5 124.5h287l10 11v133l-10 10h-287v121l24 49h263l10 10v133l-10 11h-189q225 412 369 585v17q-113 -11 -119 -11q-8 0 -121 11q-132 -284 -307 -604q-27 57 -78.5 166 t-64.5 137q-118 249 -238 327q-62 -18 -176 -33.5t-182 -15.5h-31z" />
<glyph unicode="&#xa6;" horiz-adv-x="454" d="M104 358v-716h246v716h-246zM104 666h246v716h-246v-716z" />
<glyph unicode="&#xa7;" d="M82 451q0 -81 27.5 -140.5t93.5 -102.5t109 -62t140 -53q9 -3 13 -5l57 -19t57.5 -19.5t51 -19t48.5 -22.5t38 -25t32.5 -30.5t18.5 -36t8 -43.5q0 -67 -57 -108t-148 -41q-93 0 -149 18t-107 53l-12 148l-10 10h-105l-10 -10q0 -130 -20 -312q8 -12 18 -26 q157 -56 322 -56q117 0 221.5 31.5t183.5 88t125.5 141t46.5 184.5q0 172 -149 256q14 9 34 24t51.5 47.5t56.5 68.5t43.5 87.5t18.5 104.5q0 48 -9 86t-32 68.5t-47.5 52.5t-69.5 45t-82.5 38t-101.5 39q-207 76 -243 93q-100 46 -116 97q-5 14 -5 29q0 53 36 87.5 t81.5 46.5t97.5 12q121 0 201 -64q2 -21 6.5 -62.5t5.5 -55.5l10 -11h105l10 11q6 89 12.5 137t26.5 145q-2 3 -7 9t-8.5 10.5t-5.5 7.5q-155 47 -297 47q-101 0 -197.5 -31.5t-173 -87t-123 -140t-46.5 -183.5q0 -137 118 -228q-39 -32 -57.5 -48.5t-50 -51t-46.5 -63.5 t-27.5 -73t-12.5 -93zM340 588q0 75 63 125q35 -15 163.5 -66.5t166.5 -64.5q85 -31 112 -64.5t27 -77.5q0 -14 -3.5 -27.5t-12 -30t-14 -25.5t-19.5 -29.5t-18 -26.5q-18 9 -264 102q-39 15 -59.5 23.5t-52.5 26t-48 34.5t-28.5 43.5t-12.5 57.5z" />
<glyph unicode="&#xa8;" horiz-adv-x="569" d="M-100 1286q0 -68 48 -116t115 -48t115.5 48t48.5 116t-48.5 116t-115.5 48t-115 -48t-48 -116zM342 1286q0 -68 48 -116t116 -48t116 48t48 116t-48 116t-116 48t-116 -48t-48 -116z" />
<glyph unicode="&#xa9;" horiz-adv-x="1638" d="M76 707q0 -202 99.5 -373t270.5 -271t373 -100q151 0 289 59t237.5 158.5t158.5 237.5t59 289q0 202 -100 373t-271 270.5t-373 99.5q-151 0 -288.5 -59t-237 -158.5t-158.5 -237t-59 -288.5zM274 707q0 154 73 282t198.5 201.5t273.5 73.5t273.5 -73.5t198.5 -201.5 t73 -282t-73 -282t-198.5 -201.5t-273.5 -73.5t-273.5 73.5t-198.5 201.5t-73 282zM414 709q0 -87 26 -162.5t76.5 -135t133 -94t188.5 -34.5q148 0 274 69q30 15 33 39q4 30 13.5 93t12.5 85h-55q-37 -88 -100 -137t-139 -49q-201 0 -197 338q2 135 52.5 218t150.5 83 q81 0 128.5 -46t63.5 -124h62v195q0 21 -39 36q-97 39 -242 39q-206 0 -324 -117.5t-118 -295.5z" />
<glyph unicode="&#xaa;" horiz-adv-x="739" d="M33 954q0 -28 8.5 -54t26.5 -50.5t53 -39.5t82 -15t72.5 11.5t127.5 74.5q0 -18 -8 -64q1 -1 5 -3l6 -3q10 0 63 3t80 3q10 0 151 -6l7 6v47l-7 6q-55 3 -65 20.5t-10 84.5q0 40 4 119.5t4 119.5q0 104 -76 150.5t-195 46.5q-83 0 -106 -12l-164 -88q0 -49 -8 -90 q9 -2 26.5 -5t30.5 -5.5t21 -4.5l53 74q7 10 59 10q43 0 69.5 -10.5t36.5 -31t12.5 -34.5t2.5 -36q-202 -34 -272 -76q-90 -47 -90 -148zM254 995q0 23 10.5 42t23.5 29.5t37 20t37 13t37 8.5v-158l-32 -22q-26 -17 -50 -17q-31 0 -47 25t-16 59z" />
<glyph unicode="&#xab;" d="M90 444q115 -72 377 -327q14 -14 46 -45.5t44 -42.5h10l64 43v10q-225 375 -246 407q33 50 125.5 202.5t120.5 197.5v10l-66 51h-10q-40 -46 -217.5 -204.5t-247.5 -210.5v-91zM582 444q112 -70 376 -327q10 -10 30 -29.5t35.5 -34t25.5 -24.5h10l63 43v10 q-4 6 -60.5 101.5t-107.5 180.5t-77 125q33 49 124 200.5t121 199.5v10l-65 51h-10q-40 -46 -217.5 -204.5t-247.5 -210.5v-91z" />
<glyph unicode="&#xac;" horiz-adv-x="1228" d="M96 614h791v-393h246v639h-1037v-246z" />
<glyph unicode="&#xad;" horiz-adv-x="872" d="M53 383q11 -20 19 -33q245 10 317 10q42 0 172.5 -3.5t167.5 -6.5q22 97 35 138t55 139q-3 7 -9 20t-7 15q-56 -2 -155 -6.5t-169 -4.5q-125 0 -340 11q-16 -84 -33 -137t-53 -142z" />
<glyph unicode="&#xae;" horiz-adv-x="1638" d="M76 707q0 -202 99.5 -373t270.5 -271t373 -100q151 0 289 59t237.5 158.5t158.5 237.5t59 289q0 202 -100 373t-271 270.5t-373 99.5q-151 0 -288.5 -59t-237 -158.5t-158.5 -237t-59 -288.5zM274 707q0 154 73 282t198.5 201.5t273.5 73.5t273.5 -73.5t198.5 -201.5 t73 -282t-73 -282t-198.5 -201.5t-273.5 -73.5t-273.5 73.5t-198.5 201.5t-73 282zM492 332h342v69h-7q-48 3 -58.5 17.5t-10.5 60.5v176h28l136 -231q45 -81 75 -92h187v69h-6q-15 0 -30.5 10.5t-23.5 24.5q-39 65 -153 254q149 63 149 207q0 96 -62.5 145.5t-168.5 49.5 h-397v-70h6q22 0 35 -4.5t18.5 -16t6.5 -21t1 -30.5v-471q0 -46 -9 -60.5t-52 -17.5h-6v-69zM758 745v297h45q58 0 84 -29t26 -108q0 -86 -25 -123t-91 -37h-39z" />
<glyph unicode="&#xaf;" horiz-adv-x="569" d="M-39 1194h647v190h-647v-190z" />
<glyph unicode="&#xb0;" horiz-adv-x="819" d="M117 1106q0 -122 85.5 -207.5t207.5 -85.5q121 0 206.5 85.5t85.5 207.5t-85.5 207.5t-206.5 85.5q-122 0 -207.5 -85.5t-85.5 -207.5zM291 1106q0 50 34.5 84.5t84.5 34.5q49 0 83.5 -34.5t34.5 -84.5t-34.5 -84.5t-83.5 -34.5q-50 0 -84.5 34.5t-34.5 84.5z" />
<glyph unicode="&#xb1;" horiz-adv-x="1228" d="M96 0h1037v246h-1037v-246zM96 559h396v-231h245v231h396v246h-396v231h-245v-231h-396v-246z" />
<glyph unicode="&#xb2;" horiz-adv-x="788" d="M51 553l6 -6q153 6 336 6q143 0 326 -6l6 6l-2 36t-1.5 28.5t-0.5 19.5q0 12 1.5 42t2.5 58l-6 6q-177 -6 -209 -6h-201v4q214 158 274 214q98 89 112 169q3 18 3 37q0 26 -6 53t-26.5 61.5t-54 60.5t-95 44.5t-141.5 18.5q-166 0 -287 -78q-2 -28 -27 -225l7 -6h69l8 6 l35 94q44 31 115 31q70 0 112 -32t42 -95q0 -39 -25 -86t-63 -90t-94 -93.5t-105.5 -89t-110.5 -82.5v-100z" />
<glyph unicode="&#xb3;" horiz-adv-x="788" d="M59 754q25 -96 33 -191q7 -1 35 -8t50 -11.5t60 -9t76 -4.5q184 0 306 87.5t122 216.5q0 48 -17.5 85t-48.5 58.5t-65.5 33t-74.5 15.5v4q32 15 52.5 27t45 33t37 50.5t12.5 67.5q0 50 -24.5 88t-65.5 60t-87.5 32.5t-96.5 10.5q-64 0 -114 -9.5t-76.5 -21t-74.5 -35.5 q-7 -13 -16 -52t-18.5 -93t-10.5 -58l6 -6h70l8 6q16 55 52.5 77t93.5 22t93 -26.5t36 -78.5q0 -46 -48 -70t-112 -24q-24 0 -45 6q-14 -76 -35 -112q5 -3 14.5 -9.5t10.5 -7.5q6 1 18.5 5t25 6t29.5 2q181 0 181 -129q0 -62 -39.5 -105t-118.5 -43q-20 0 -38 2.5t-34 9 t-28 11t-25.5 16.5t-20 17t-18.5 20.5t-15 19.5t-15 21.5t-13 19.5q-6 4 -8 6l-55 -24z" />
<glyph unicode="&#xb4;" horiz-adv-x="569" d="M111 1122h139l250 144q73 43 96 67q35 37 35 82q0 52 -42.5 82.5t-96.5 30.5q-77 0 -152 -98q-154 -207 -229 -308z" />
<glyph unicode="&#xb5;" horiz-adv-x="1290" d="M39 813l10 -10q20 0 57.5 -8t43.5 -23q12 -28 12 -74v-479q0 -167 -1 -258.5t-7.5 -229.5t-20.5 -247l21 -21q157 11 184 11q74 0 190 -11l21 21q-34 390 -41 512l4 4q23 -39 63 -39q111 0 193 178h4l-6 -137l10 -12q175 10 225 10q35 0 119 -4.5t121 -5.5q6 8 10 12v78 l-10 10q-58 8 -77 15.5t-23 27.5q-13 60 -13 199v289q0 226 19 368q-4 1 -11 4t-12.5 5t-9.5 3q-87 -35 -240.5 -64t-216.5 -34l-10 -10v-80l10 -10q17 0 54 -8t43 -23q16 -36 16 -211v-282q-2 -2 -15.5 -14t-18.5 -16t-18.5 -13.5t-24 -13.5t-25.5 -7.5t-31 -3.5 q-60 0 -88.5 37.5t-28.5 97.5v377q0 161 19 266q-4 1 -11 4t-12.5 5t-9.5 3q-87 -35 -240.5 -64t-216.5 -34l-10 -10v-80z" />
<glyph unicode="&#xb6;" horiz-adv-x="1228" d="M25 977q0 -238 98 -351.5t309 -113.5v-696q0 -74 -31 -106t-104 -32h-25v-90h394v1676h122v-1676h394v90h-25q-73 0 -104 32t-31 106v1368q0 74 31 105.5t104 31.5h25v90h-729q-226 0 -327 -104.5t-101 -329.5zM246 973q0 153 46 222t140 69v-605q-79 0 -132.5 75 t-53.5 239z" />
<glyph unicode="&#xb7;" horiz-adv-x="606" d="M109 535q0 -80 57.5 -137.5t136.5 -57.5t137 58t58 137t-57.5 136.5t-137.5 57.5q-79 0 -136.5 -57.5t-57.5 -136.5z" />
<glyph unicode="&#xb8;" horiz-adv-x="569" d="M43 -414l8 -12q38 -12 56.5 -17t64 -11.5t96.5 -6.5q119 0 202 51t83 144q0 22 -8.5 45t-27.5 46t-57 37.5t-89 14.5q-28 0 -82 -8q32 68 63 131h-100l-96 -205l34 -20q28 12 48 12q42 0 61.5 -21t19.5 -47q0 -14 -2 -23t-9.5 -24t-29 -23.5t-55.5 -8.5q-44 0 -135 28 l-12 -8z" />
<glyph unicode="&#xb9;" horiz-adv-x="788" d="M49 1249q25 -84 25 -139q2 0 4 -1t4.5 -2t3.5 -1q189 102 201 102q8 0 10 -6t2 -24v-365q0 -129 -8 -158q-5 -14 -30 -19.5t-140 -17.5l-6 -6v-63l6 -6q245 10 293 10q63 0 303 -10l6 6v63l-6 6q-15 2 -42 5q-76 9 -97 17.5t-21 39.5v434q0 164 16 270q-3 3 -8.5 8 t-7.5 7q-276 -97 -508 -150z" />
<glyph unicode="&#xba;" horiz-adv-x="788" d="M47 1085q0 -150 87.5 -220t232.5 -70q176 0 275 81.5t99 241.5q0 153 -86.5 223t-251.5 70q-173 0 -264.5 -82.5t-91.5 -243.5zM305 1052.5v43.5v45t1 41.5t3.5 40.5t6.5 34.5t10 31t15 22t21.5 16t28.5 4.5q22 0 38.5 -8t26.5 -27.5t15.5 -36.5t8 -50t3 -53t0.5 -60 q0 -38 -0.5 -58t-3 -52.5t-8 -49.5t-15.5 -36.5t-26.5 -27.5t-38.5 -8q-16 0 -28.5 4.5t-21.5 16t-15 22t-10 30.5t-6.5 34.5t-3.5 40.5t-1 40.5z" />
<glyph unicode="&#xbb;" d="M90 80l66 -51h10q40 46 217.5 204.5t247.5 210.5v91q-115 72 -377 327q-14 14 -46 45.5t-44 42.5h-10l-64 -43v-10q2 -3 60 -101t109 -182.5t77 -124.5q-33 -50 -126 -203t-120 -196v-10zM582 80l65 -51h10q40 46 217.5 204.5t247.5 210.5v91q-115 72 -377 327 q-14 14 -46 45.5t-44 42.5h-10l-63 -43v-10q5 -9 60.5 -102.5t107 -179.5t77.5 -126q-33 -49 -124.5 -201t-120.5 -198v-10z" />
<glyph unicode="&#xbc;" horiz-adv-x="1820" d="M49 1249q25 -84 25 -139q2 0 4 -1t4.5 -2t3.5 -1q189 102 201 102q8 0 10 -6t2 -24v-365q0 -129 -8 -158q-5 -14 -30 -19.5t-140 -17.5l-6 -6v-63l6 -6q245 10 293 10q63 0 303 -10l6 6v63l-6 6q-15 2 -42 5q-76 9 -97 17.5t-21 39.5v434q0 164 16 270q-3 3 -8.5 8 t-7.5 7q-276 -97 -508 -150zM467 -72l6 -6h127l14 8l836 1497l-4 11h-127l-14 -8zM1014 299q3 -12 14 -51.5t16 -54.5h340v-39q0 -21 -0.5 -31.5t-8 -21.5t-15 -15.5t-30.5 -9.5t-45 -7.5t-68 -7.5l-7 -6v-59l7 -6q31 1 123.5 5.5t144.5 4.5q49 0 143.5 -4.5t134.5 -5.5l6 6 v59l-6 6q-91 7 -106 15q-18 9 -20 44q-1 8 -1 27v46h113l6 6q-6 42 -6 63q0 24 6 72l-6 6h-113v135q0 94 13 356q-3 3 -9 8t-8 7q-59 -16 -139.5 -27.5t-110.5 -11.5q-41 -57 -119 -158t-139.5 -185.5t-109.5 -164.5zM1163 340q32 54 106.5 164.5t123.5 171.5h4 q0 -48 -6.5 -163t-6.5 -173h-221z" />
<glyph unicode="&#xbd;" horiz-adv-x="1820" d="M49 1249q25 -84 25 -139q2 0 4 -1t4.5 -2t3.5 -1q189 102 201 102q8 0 10 -6t2 -24v-365q0 -129 -8 -158q-5 -14 -30 -19.5t-140 -17.5l-6 -6v-63l6 -6q245 10 293 10q63 0 303 -10l6 6v63l-6 6q-15 2 -42 5q-76 9 -97 17.5t-21 39.5v434q0 164 16 270q-3 3 -8.5 8 t-7.5 7q-276 -97 -508 -150zM438 -72l6 -6h127l15 8l835 1497l-4 11h-127l-14 -8zM1096 0l6 -6q153 6 336 6q142 0 325 -6l6 6l-2 36t-1.5 28.5t-0.5 19.5q0 12 1.5 42t2.5 58l-6 6q-177 -6 -209 -6h-200v4q214 158 274 214q98 89 112 169q3 18 3 37q0 26 -6 53t-27 61.5 t-54.5 61t-95 44.5t-141.5 18q-165 0 -286 -78q-2 -28 -27 -225l6 -6h70l8 6l35 94q44 31 114 31t112 -32t42 -95q0 -48 -35 -106t-98.5 -118.5t-124.5 -110.5t-139 -106v-100z" />
<glyph unicode="&#xbe;" horiz-adv-x="1820" d="M47 754q25 -96 33 -191q7 -1 35 -8t50 -11.5t60 -9t76 -4.5q184 0 306 87.5t122 216.5q0 48 -18 85t-48.5 58.5t-65 33t-75.5 15.5v4q32 15 53 27t45.5 33t37 50.5t12.5 67.5q0 66 -43.5 110.5t-103 62.5t-128.5 18q-64 0 -113.5 -9.5t-76 -20.5t-74.5 -36 q-7 -13 -16 -52t-18.5 -93t-10.5 -58l6 -6h70l8 6q16 55 52 77t93 22t93 -26.5t36 -78.5q0 -46 -47.5 -70t-111.5 -24q-24 0 -45 6q-14 -76 -35 -112q5 -3 13.5 -9.5t10.5 -7.5q5 1 18 5t26 6t30 2q180 0 180 -129q0 -62 -39 -105t-118 -43q-20 0 -38 2.5t-34 9t-28 11 t-25.5 16.5t-20 17t-18.5 20.5t-15 19.5t-15 21.5t-13 19.5q-6 4 -8 6l-56 -24zM442 -72l7 -6h126l15 8l835 1497l-4 11h-127l-14 -8zM1014 299q3 -12 14 -51.5t16 -54.5h340v-39q0 -21 -0.5 -31.5t-8 -21.5t-15 -15.5t-30.5 -9.5t-45 -7.5t-68 -7.5l-7 -6v-59l7 -6 q31 1 123.5 5.5t144.5 4.5q49 0 143.5 -4.5t134.5 -5.5l6 6v59l-6 6q-91 7 -106 15q-18 9 -20 44q-1 8 -1 27v46h113l6 6q-6 42 -6 63q0 24 6 72l-6 6h-113v135q0 94 13 356q-3 3 -9 8t-8 7q-59 -16 -139.5 -27.5t-110.5 -11.5q-41 -57 -119 -158t-139.5 -185.5 t-109.5 -164.5zM1163 340q32 54 106.5 164.5t123.5 171.5h4q0 -48 -6.5 -163t-6.5 -173h-221z" />
<glyph unicode="&#xbf;" horiz-adv-x="1062" d="M94 -178q0 -82 35.5 -145.5t96.5 -101t135 -56.5t157 -19q89 0 205.5 34t169.5 87q4 4 16 59.5t29 131.5t31 118q-2 2 -4.5 7t-3.5 6h-99l-16 -13l-37 -98q-24 -31 -78.5 -53.5t-99.5 -22.5q-68 0 -113 41t-45 109q0 46 19 81.5t104 151.5q57 79 75.5 126t18.5 89 q0 66 -49 148l-16 8l-107 -33l-8 -12q1 -7 2.5 -20t2.5 -22.5t1 -14.5q0 -38 -24.5 -73.5t-108.5 -103.5q-20 -16 -61.5 -48.5t-61 -49.5t-52 -47t-48 -54t-33.5 -57.5t-25.5 -71t-7.5 -81.5zM393 795q0 -79 57.5 -137t137.5 -58q79 0 136.5 57.5t57.5 137.5q0 79 -57 136.5 t-137 57.5t-137.5 -57.5t-57.5 -136.5z" />
<glyph unicode="&#xc0;" horiz-adv-x="1554" d="M-10 0l10 -10q210 10 254 10t254 -10l10 10v100l-10 11q-63 3 -97 14.5t-42.5 24t-8.5 32.5q0 21 13 58q8 22 43 114h458l46 -121q18 -45 18 -71q0 -43 -147 -51l-11 -11v-100l11 -10q317 10 383 10q62 0 380 -10l11 10v100l-11 11q-36 1 -54.5 2.5t-38.5 6.5t-31.5 17 t-24 30.5t-25.5 49.5q-88 203 -271 629t-247 575h-184l-514 -1196q-31 -74 -56 -92t-108 -22l-10 -11v-100zM422 1815q0 -18 4.5 -34t17.5 -31.5t20.5 -24t29.5 -23.5t27.5 -18.5t31.5 -18.5q42 -24 131 -74.5t119 -68.5h139l-229 307q-75 98 -152 98q-54 0 -96.5 -30 t-42.5 -82zM471 502l172 432l172 -432h-344z" />
<glyph unicode="&#xc1;" horiz-adv-x="1554" d="M-10 0l10 -10q210 10 254 10t254 -10l10 10v100l-10 11q-63 3 -97 14.5t-42.5 24t-8.5 32.5q0 21 13 58q8 22 43 114h458l46 -121q18 -45 18 -71q0 -43 -147 -51l-11 -11v-100l11 -10q317 10 383 10q62 0 380 -10l11 10v100l-11 11q-36 1 -54.5 2.5t-38.5 6.5t-31.5 17 t-24 30.5t-25.5 49.5q-88 203 -271 629t-247 575h-184l-514 -1196q-31 -74 -56 -92t-108 -22l-10 -11v-100zM471 502l172 432l172 -432h-344zM594 1522h139l250 143q74 44 98 70q33 36 33 80q0 52 -42.5 82t-96.5 30q-77 0 -152 -98q-23 -31 -109.5 -147t-119.5 -160z" />
<glyph unicode="&#xc2;" horiz-adv-x="1554" d="M-10 0l10 -10q210 10 254 10t254 -10l10 10v100l-10 11q-63 3 -97 14.5t-42.5 24t-8.5 32.5q0 21 13 58q8 22 43 114h458l46 -121q18 -45 18 -71q0 -43 -147 -51l-11 -11v-100l11 -10q317 10 383 10q62 0 380 -10l11 10v100l-11 11q-36 1 -54.5 2.5t-38.5 6.5t-31.5 17 t-24 30.5t-25.5 49.5q-88 203 -271 629t-247 575h-184l-514 -1196q-31 -74 -56 -92t-108 -22l-10 -11v-100zM391 1522h158l219 190l219 -190h158l-248 368h-258zM471 502l172 432l172 -432h-344z" />
<glyph unicode="&#xc3;" horiz-adv-x="1554" d="M-10 0l10 -10q210 10 254 10t254 -10l10 10v100l-10 11q-63 3 -97 14.5t-42.5 24t-8.5 32.5q0 21 13 58q8 22 43 114h458l46 -121q18 -45 18 -71q0 -43 -147 -51l-11 -11v-100l11 -10q317 10 383 10q62 0 380 -10l11 10v100l-11 11q-36 1 -54.5 2.5t-38.5 6.5t-31.5 17 t-24 30.5t-25.5 49.5q-88 203 -271 629t-247 575h-184l-514 -1196q-31 -74 -56 -92t-108 -22l-10 -11v-100zM360 1561h111q10 45 31 69.5t63 24.5q28 0 87 -26.5t129.5 -52.5t127.5 -26q58 0 106 26.5t80 71t52 95t29 106.5h-111q-12 -30 -22 -47t-30 -31t-48 -14 q-34 0 -95.5 26.5t-133 52.5t-128.5 26q-53 0 -98.5 -29t-75.5 -75t-48.5 -96.5t-25.5 -100.5zM471 502l172 432l172 -432h-344z" />
<glyph unicode="&#xc4;" horiz-adv-x="1554" d="M-10 0l10 -10q210 10 254 10t254 -10l10 10v100l-10 11q-63 3 -97 14.5t-42.5 24t-8.5 32.5q0 21 13 58q8 22 43 114h458l46 -121q18 -45 18 -71q0 -43 -147 -51l-11 -11v-100l11 -10q317 10 383 10q62 0 380 -10l11 10v100l-11 11q-36 1 -54.5 2.5t-38.5 6.5t-31.5 17 t-24 30.5t-25.5 49.5q-88 203 -271 629t-247 575h-184l-514 -1196q-31 -74 -56 -92t-108 -22l-10 -11v-100zM383 1686q0 -68 48.5 -116t115.5 -48t115.5 48t48.5 116q0 67 -48 115t-116 48t-116 -48t-48 -115zM471 502l172 432l172 -432h-344zM825 1686q0 -68 48.5 -116 t115.5 -48t115.5 48t48.5 116q0 67 -48 115t-116 48t-116 -48t-48 -115z" />
<glyph unicode="&#xc5;" horiz-adv-x="1554" d="M-10 0l10 -10q210 10 254 10t254 -10l10 10v100l-10 11q-63 3 -97 14.5t-42.5 24t-8.5 32.5q0 21 13 58q8 22 43 114h458l46 -121q18 -45 18 -71q0 -43 -147 -51l-11 -11v-100l11 -10q317 10 383 10q62 0 380 -10l11 10v100l-11 11q-36 1 -54.5 2.5t-38.5 6.5t-31.5 17 t-24 30.5t-25.5 49.5q-88 203 -271 629t-247 575h-184l-514 -1196q-31 -74 -56 -92t-108 -22l-10 -11v-100zM471 502l172 432l172 -432h-344zM541 1704q0 -91 67 -159t160 -68t160 68t67 159q0 92 -67.5 159.5t-159.5 67.5t-159.5 -67.5t-67.5 -159.5zM662 1704 q0 43 31.5 74.5t74.5 31.5t74.5 -31.5t31.5 -74.5q0 -44 -32 -75.5t-74 -31.5t-74 31.5t-32 75.5z" />
<glyph unicode="&#xc6;" horiz-adv-x="2009" d="M-90 0l10 -10q145 10 256 10q95 0 260 -10l10 10v100l-10 11q-82 0 -116.5 11t-34.5 48q0 29 34 88l60 96h541q0 -126 -13 -225q-3 -22 -41 -39q-20 -9 -47 -20l-10 -11v-59l10 -10q450 10 541 10t541 -10q8 13 10 16q6 220 28 344q-4 4 -8 10h-106l-10 -10 q-28 -116 -50 -164q-88 -39 -254 -39h-182q-1 39 -4.5 145t-3.5 161v198q82 4 121 4q130 0 168 -16q23 -10 28.5 -32.5t10.5 -110.5l10 -11h100l10 11q0 11 -3 109t-3 118q0 61 6 227l-10 11h-100l-10 -11q0 -31 -0.5 -49t-6 -36t-8.5 -26.5t-17.5 -17t-24 -11t-38 -5 t-48 -2.5h-64.5q-56 0 -121 6v293q0 51 8 153q103 9 164 9q211 0 248 -37q5 -5 7.5 -30.5t3.5 -59.5t1 -39l10 -11h95l10 11q12 176 39 303q-2 6 -11 20q-562 -10 -677 -10t-678 10l-11 -10v-100l11 -11q101 -11 136.5 -22.5t35.5 -38.5q0 -8 -5.5 -20.5t-17 -33t-23 -38 t-31 -48.5t-32.5 -52q-32 -52 -152.5 -251t-199.5 -325t-160 -246q-54 -79 -78.5 -96t-93.5 -18l-10 -11v-100zM469 502l444 743h7q1 -83 2.5 -234t2.5 -275t1 -234h-457z" />
<glyph unicode="&#xc7;" horiz-adv-x="1554" d="M86 713q0 -156 51 -289.5t146.5 -233t239 -159.5t321.5 -68q-12 -25 -27 -56t-31 -65.5t-22 -46.5l35 -20q28 12 47 12q42 0 62 -21t20 -47q0 -13 -2 -22.5t-10 -24.5t-29.5 -23.5t-55.5 -8.5q-44 0 -135 28l-12 -8l-33 -74l8 -12q38 -12 57 -17t64.5 -11.5t96.5 -6.5 q118 0 201 51t83 144q0 22 -8.5 45t-27.5 46t-57 37.5t-89 14.5q-28 0 -82 -8q36 75 45 94q301 5 490 115q20 66 53 143q-3 3 -19 16.5t-22 18.5q-78 -52 -176 -82.5t-193 -30.5q-113 0 -211 41.5t-171 117.5t-114.5 191t-41.5 255q0 248 117 396t319 148q99 0 182.5 -42 t122.5 -93q10 -45 33 -184q8 -6 12 -10h92l10 10q18 210 60 360q-6 15 -12 29q-100 37 -242.5 62.5t-280.5 25.5q-218 0 -385.5 -56.5t-271 -157.5t-155.5 -233t-52 -290z" />
<glyph unicode="&#xc8;" horiz-adv-x="1327" d="M53 1311l10 -11l101 -18q18 -3 26.5 -5.5t18.5 -14.5t13 -29t6.5 -56t4 -88t0.5 -131v-372q0 -258 -12 -457q-3 -22 -41 -39q-20 -9 -47 -20l-10 -11v-59l10 -10q450 10 543 10t543 -10q5 12 10 20q6 213 28 340q-4 4 -8 10h-106l-10 -10q-28 -116 -50 -164 q-88 -39 -254 -39h-182q-1 39 -4.5 145t-3.5 161v198q82 4 121 4q130 0 168 -16q23 -10 28.5 -32.5t10.5 -110.5l10 -11h100l10 11q0 11 -3 109t-3 118q0 61 6 227l-10 11h-100l-10 -11q0 -31 -0.5 -49t-6 -36t-8.5 -26.5t-17.5 -17t-24 -11t-38 -5t-48 -2.5h-64.5 q-56 0 -121 6v293q0 51 8 153q104 9 164 9q211 0 248 -37q5 -5 7.5 -30.5t3.5 -59.5t1 -39l10 -11h95l10 11q12 176 39 303q-2 6 -11 20q-483 -10 -575 -10q-93 0 -576 10l-10 -10v-100zM317 1815q0 -22 9.5 -42.5t18.5 -32.5t34 -30t32.5 -22.5l37.5 -22.5 q41 -24 129.5 -74.5t119.5 -68.5h140l-230 307q-75 98 -151 98q-54 0 -97 -30t-43 -82z" />
<glyph unicode="&#xc9;" horiz-adv-x="1327" d="M53 1311l10 -11l101 -18q18 -3 26.5 -5.5t18.5 -14.5t13 -29t6.5 -56t4 -88t0.5 -131v-372q0 -258 -12 -457q-3 -22 -41 -39q-20 -9 -47 -20l-10 -11v-59l10 -10q450 10 543 10t543 -10q5 12 10 20q6 213 28 340q-4 4 -8 10h-106l-10 -10q-28 -116 -50 -164 q-88 -39 -254 -39h-182q-1 39 -4.5 145t-3.5 161v198q82 4 121 4q130 0 168 -16q23 -10 28.5 -32.5t10.5 -110.5l10 -11h100l10 11q0 11 -3 109t-3 118q0 61 6 227l-10 11h-100l-10 -11q0 -31 -0.5 -49t-6 -36t-8.5 -26.5t-17.5 -17t-24 -11t-38 -5t-48 -2.5h-64.5 q-56 0 -121 6v293q0 51 8 153q104 9 164 9q211 0 248 -37q5 -5 7.5 -30.5t3.5 -59.5t1 -39l10 -11h95l10 11q12 176 39 303q-2 6 -11 20q-483 -10 -575 -10q-93 0 -576 10l-10 -10v-100zM489 1522h140l250 143q74 44 98 70q33 36 33 80q0 52 -43 82t-97 30q-76 0 -151 -98 q-35 -47 -117.5 -156.5t-112.5 -150.5z" />
<glyph unicode="&#xca;" horiz-adv-x="1327" d="M53 1311l10 -11l101 -18q18 -3 26.5 -5.5t18.5 -14.5t13 -29t6.5 -56t4 -88t0.5 -131v-372q0 -258 -12 -457q-3 -22 -41 -39q-20 -9 -47 -20l-10 -11v-59l10 -10q450 10 543 10t543 -10q5 12 10 20q6 213 28 340q-4 4 -8 10h-106l-10 -10q-28 -116 -50 -164 q-88 -39 -254 -39h-182q-1 39 -4.5 145t-3.5 161v198q82 4 121 4q130 0 168 -16q23 -10 28.5 -32.5t10.5 -110.5l10 -11h100l10 11q0 11 -3 109t-3 118q0 61 6 227l-10 11h-100l-10 -11q0 -31 -0.5 -49t-6 -36t-8.5 -26.5t-17.5 -17t-24 -11t-38 -5t-48 -2.5h-64.5 q-56 0 -121 6v293q0 51 8 153q104 9 164 9q211 0 248 -37q5 -5 7.5 -30.5t3.5 -59.5t1 -39l10 -11h95l10 11q12 176 39 303q-2 6 -11 20q-483 -10 -575 -10q-93 0 -576 10l-10 -10v-100zM287 1522h157l220 190l219 -190h157l-247 368h-258z" />
<glyph unicode="&#xcb;" horiz-adv-x="1327" d="M53 1311l10 -11l101 -18q18 -3 26.5 -5.5t18.5 -14.5t13 -29t6.5 -56t4 -88t0.5 -131v-372q0 -258 -12 -457q-3 -22 -41 -39q-20 -9 -47 -20l-10 -11v-59l10 -10q450 10 543 10t543 -10q5 12 10 20q6 213 28 340q-4 4 -8 10h-106l-10 -10q-28 -116 -50 -164 q-88 -39 -254 -39h-182q-1 39 -4.5 145t-3.5 161v198q82 4 121 4q130 0 168 -16q23 -10 28.5 -32.5t10.5 -110.5l10 -11h100l10 11q0 11 -3 109t-3 118q0 61 6 227l-10 11h-100l-10 -11q0 -31 -0.5 -49t-6 -36t-8.5 -26.5t-17.5 -17t-24 -11t-38 -5t-48 -2.5h-64.5 q-56 0 -121 6v293q0 51 8 153q104 9 164 9q211 0 248 -37q5 -5 7.5 -30.5t3.5 -59.5t1 -39l10 -11h95l10 11q12 176 39 303q-2 6 -11 20q-483 -10 -575 -10q-93 0 -576 10l-10 -10v-100zM279 1686q0 -68 48 -116t115 -48q68 0 116 48t48 116q0 67 -48 115t-116 48 t-115.5 -47.5t-47.5 -115.5zM721 1686q0 -68 48.5 -116t115.5 -48t115.5 48t48.5 116q0 67 -48 115t-116 48t-116 -48t-48 -115z" />
<glyph unicode="&#xcc;" horiz-adv-x="872" d="M53 0l10 -10q307 10 373 10t373 -10l10 10v100l-10 11l-100 18q-18 3 -26.5 5.5t-18.5 14.5t-13 29.5t-7 56t-4.5 87.5t-0.5 131v505q0 82 0.5 131t4.5 87.5t7 56t13 29.5t18.5 14.5t26.5 5.5q8 1 46.5 8t53.5 10l10 11v100l-10 10q-308 -10 -373 -10q-66 0 -373 10 l-10 -10v-100l10 -11l101 -18q18 -3 26.5 -5.5t18.5 -14.5t13 -29t6.5 -56t4 -88t0.5 -131v-505q0 -82 -0.5 -131t-4 -88t-6.5 -56t-13 -29t-18.5 -14.5t-26.5 -5.5q-11 -2 -49 -8.5t-52 -9.5l-10 -11v-100zM90 1815q0 -18 4.5 -34t17.5 -31.5t20.5 -24t29.5 -23.5 t27.5 -18.5t31.5 -18.5q42 -24 131 -74.5t119 -68.5h139l-229 307q-75 98 -152 98q-54 0 -96.5 -30t-42.5 -82z" />
<glyph unicode="&#xcd;" horiz-adv-x="872" d="M53 0l10 -10q307 10 373 10t373 -10l10 10v100l-10 11l-100 18q-18 3 -26.5 5.5t-18.5 14.5t-13 29.5t-7 56t-4.5 87.5t-0.5 131v505q0 82 0.5 131t4.5 87.5t7 56t13 29.5t18.5 14.5t26.5 5.5q8 1 46.5 8t53.5 10l10 11v100l-10 10q-308 -10 -373 -10q-66 0 -373 10 l-10 -10v-100l10 -11l101 -18q18 -3 26.5 -5.5t18.5 -14.5t13 -29t6.5 -56t4 -88t0.5 -131v-505q0 -82 -0.5 -131t-4 -88t-6.5 -56t-13 -29t-18.5 -14.5t-26.5 -5.5q-11 -2 -49 -8.5t-52 -9.5l-10 -11v-100zM262 1522h139l250 143q74 44 98 70q33 36 33 80q0 52 -42.5 82 t-96.5 30q-76 0 -151 -98q-35 -47 -117.5 -156.5t-112.5 -150.5z" />
<glyph unicode="&#xce;" horiz-adv-x="872" d="M53 0l10 -10q307 10 373 10t373 -10l10 10v100l-10 11l-100 18q-18 3 -26.5 5.5t-18.5 14.5t-13 29.5t-7 56t-4.5 87.5t-0.5 131v505q0 82 0.5 131t4.5 87.5t7 56t13 29.5t18.5 14.5t26.5 5.5q8 1 46.5 8t53.5 10l10 11v100l-10 10q-308 -10 -373 -10q-66 0 -373 10 l-10 -10v-100l10 -11l101 -18q18 -3 26.5 -5.5t18.5 -14.5t13 -29t6.5 -56t4 -88t0.5 -131v-505q0 -82 -0.5 -131t-4 -88t-6.5 -56t-13 -29t-18.5 -14.5t-26.5 -5.5q-11 -2 -49 -8.5t-52 -9.5l-10 -11v-100zM59 1522h158l219 190l219 -190h158l-248 368h-258z" />
<glyph unicode="&#xcf;" horiz-adv-x="872" d="M51 1686q0 -68 48.5 -116t115.5 -48t115.5 48t48.5 116q0 67 -48 115t-116 48t-116 -48t-48 -115zM53 0l10 -10q307 10 373 10t373 -10l10 10v100l-10 11l-100 18q-18 3 -26.5 5.5t-18.5 14.5t-13 29.5t-7 56t-4.5 87.5t-0.5 131v505q0 82 0.5 131t4.5 87.5t7 56t13 29.5 t18.5 14.5t26.5 5.5q8 1 46.5 8t53.5 10l10 11v100l-10 10q-308 -10 -373 -10q-66 0 -373 10l-10 -10v-100l10 -11l101 -18q18 -3 26.5 -5.5t18.5 -14.5t13 -29t6.5 -56t4 -88t0.5 -131v-505q0 -82 -0.5 -131t-4 -88t-6.5 -56t-13 -29t-18.5 -14.5t-26.5 -5.5 q-11 -2 -49 -8.5t-52 -9.5l-10 -11v-100zM494 1686q0 -68 48 -116t115 -48t115.5 48t48.5 116q0 67 -48 115t-116 48q-67 0 -115 -47.5t-48 -115.5z" />
<glyph unicode="&#xd0;" horiz-adv-x="1781" d="M53 707l10 -11h170v-131q0 -237 -12 -436q0 -21 -35 -37q-9 -4 -28 -11.5t-25 -10.5l-10 -11v-59l10 -10q235 10 303 10q57 0 192.5 -5t202.5 -5q179 0 326 47t244 124.5t163.5 181.5t96 215t29.5 228q0 325 -181.5 480t-517.5 155q-114 0 -295 -5t-260 -5q-66 0 -373 10 l-10 -10v-100l10 -11l101 -18q18 -3 26.5 -5.5t18.5 -14.5t13 -29t6.5 -56t4 -88t0.5 -131v-108h-170l-10 -10v-133zM639 594v102h330l10 11v133l-10 10h-330v43q0 286 10 362q97 9 137 9q76 0 138 -12.5t124 -48t104.5 -92.5t68.5 -152.5t26 -221.5q0 -291 -123 -440.5 t-336 -149.5q-47 0 -139 9q-10 123 -10 438z" />
<glyph unicode="&#xd1;" horiz-adv-x="1744" d="M55 0l11 -10q135 10 253 10q93 0 248 -10l11 10v100l-11 11q-97 11 -119 22t-32 62q-2 12 -6 70.5t-7.5 163t-3.5 208.5q0 67 7 319q415 -489 423 -499q15 -17 86 -101.5t108 -128t92 -106.5t86 -94.5t42 -36.5q71 0 270 -29q14 12 21 19q-14 257 -14 575q0 465 12 641 q3 50 29.5 70.5t117.5 33.5l11 11v100l-11 10q-135 -10 -245 -10q-91 0 -246 10l-10 -10v-100l10 -11q93 -11 116 -21.5t29 -47.5q10 -67 12.5 -145.5t2.5 -366.5v-227q-383 420 -775 929q-185 -10 -256 -10q-96 0 -251 10l-11 -10v-100l11 -11l92 -18q18 -3 26.5 -5.5 t18.5 -14.5t13 -29t6.5 -56t4 -88t0.5 -131v-505q0 -82 -0.5 -131t-4 -88t-6.5 -56t-13 -29t-18.5 -14.5t-26.5 -5.5l-92 -18l-11 -11v-100zM481 1561h111q10 45 31 69.5t63 24.5q28 0 87 -26.5t129.5 -52.5t127.5 -26q58 0 106 26.5t79.5 71t51.5 95t29 106.5h-110 q-18 -45 -39.5 -68.5t-61.5 -23.5q-34 0 -95.5 26.5t-132.5 52.5t-128 26q-53 0 -98.5 -29t-75.5 -75t-48.5 -96.5t-25.5 -100.5z" />
<glyph unicode="&#xd2;" horiz-adv-x="1744" d="M86 670q0 -326 206 -517.5t552 -191.5q389 0 602 204.5t213 575.5q0 326 -206 517.5t-552 191.5q-389 0 -602 -204.5t-213 -575.5zM526 1815q0 -18 4.5 -34t17.5 -31.5t20.5 -24t29.5 -23.5t27.5 -18.5t31.5 -18.5q42 -24 131 -74.5t119 -68.5h140l-230 307 q-75 98 -151 98q-54 0 -97 -30t-43 -82zM537 684q0 310 92.5 464.5t255.5 154.5q151 0 237 -152t86 -432q0 -310 -92.5 -464.5t-255.5 -154.5q-152 0 -237.5 152t-85.5 432z" />
<glyph unicode="&#xd3;" horiz-adv-x="1744" d="M86 670q0 -326 206 -517.5t552 -191.5q389 0 602 204.5t213 575.5q0 326 -206 517.5t-552 191.5q-389 0 -602 -204.5t-213 -575.5zM537 684q0 310 92.5 464.5t255.5 154.5q151 0 237 -152t86 -432q0 -310 -92.5 -464.5t-255.5 -154.5q-152 0 -237.5 152t-85.5 432z M698 1522h140l249 143l37.5 22.5t32.5 22.5t34 30t18.5 32.5t9.5 42.5q0 52 -43 82t-97 30q-76 0 -151 -98q-35 -47 -117.5 -156.5t-112.5 -150.5z" />
<glyph unicode="&#xd4;" horiz-adv-x="1744" d="M86 670q0 -326 206 -517.5t552 -191.5q389 0 602 204.5t213 575.5q0 326 -206 517.5t-552 191.5q-389 0 -602 -204.5t-213 -575.5zM496 1522h157l219 190l220 -190h157l-248 368h-258zM537 684q0 310 92.5 464.5t255.5 154.5q151 0 237 -152t86 -432q0 -310 -92.5 -464.5 t-255.5 -154.5q-152 0 -237.5 152t-85.5 432z" />
<glyph unicode="&#xd5;" horiz-adv-x="1744" d="M86 670q0 -326 206 -517.5t552 -191.5q389 0 602 204.5t213 575.5q0 326 -206 517.5t-552 191.5q-389 0 -602 -204.5t-213 -575.5zM465 1561h110q10 45 31.5 69.5t63.5 24.5q28 0 87 -26.5t129.5 -52.5t127.5 -26q58 0 106 26.5t79.5 71t51.5 95t29 106.5h-111 q-12 -30 -22 -47t-30 -31t-48 -14q-34 0 -95.5 26.5t-132.5 52.5t-128 26q-53 0 -98.5 -29t-75.5 -75t-48.5 -96.5t-25.5 -100.5zM537 684q0 310 92.5 464.5t255.5 154.5q151 0 237 -152t86 -432q0 -310 -92.5 -464.5t-255.5 -154.5q-152 0 -237.5 152t-85.5 432z" />
<glyph unicode="&#xd6;" horiz-adv-x="1744" d="M86 670q0 -326 206 -517.5t552 -191.5q389 0 602 204.5t213 575.5q0 326 -206 517.5t-552 191.5q-389 0 -602 -204.5t-213 -575.5zM487 1686q0 -68 48.5 -116t115.5 -48t115.5 48t48.5 116q0 67 -48 115t-116 48t-116 -48t-48 -115zM537 684q0 310 92.5 464.5 t255.5 154.5q151 0 237 -152t86 -432q0 -310 -92.5 -464.5t-255.5 -154.5q-152 0 -237.5 152t-85.5 432zM930 1686q0 -68 48 -116t116 -48q67 0 115 48t48 116t-47.5 115.5t-115.5 47.5t-116 -48t-48 -115z" />
<glyph unicode="&#xd7;" horiz-adv-x="1228" d="M131 203l168 -168l315 317l316 -317l168 168l-318 315l318 316l-168 167l-316 -315l-315 315l-168 -167l315 -316z" />
<glyph unicode="&#xd8;" horiz-adv-x="1744" d="M74 0v-12l76 -80h10l194 194q198 -141 490 -141q389 0 602 204.5t213 575.5q0 304 -178 488l190 190v11l-78 79h-12l-197 -196q-196 137 -483 137q-389 0 -602 -204.5t-213 -575.5q0 -298 174 -484zM537 684q0 310 92.5 464.5t255.5 154.5q184 0 268 -224l-600 -600 q-16 79 -16 205zM588 336l602 602q18 -99 18 -219q0 -310 -92.5 -464.5t-255.5 -154.5q-192 0 -272 236z" />
<glyph unicode="&#xd9;" horiz-adv-x="1593" d="M-8 1311l10 -11l100 -18q18 -3 26.5 -5.5t18.5 -14.5t13 -29.5t7 -56t4.5 -87.5t0.5 -131v-528q0 -109 32 -193t101 -147t185.5 -96t277.5 -33q135 0 240 20t175.5 60t118 90.5t73 121t36 141t10.5 159.5v405q0 82 0.5 131t4.5 87.5t7 56t13 29.5t18.5 14.5t26.5 5.5 q8 1 46.5 8t53.5 10l11 11v100l-11 10q-220 -10 -264 -10q-68 0 -248 10l-10 -10v-100l10 -11l101 -18q18 -3 26.5 -5.5t18.5 -14.5t13 -29t6.5 -56t4 -88t0.5 -131v-364q0 -223 -82.5 -313.5t-279.5 -90.5q-166 0 -237.5 88t-71.5 248v432q0 82 0.5 131t4 88t6.5 56t13 29 t18.5 14.5t26.5 5.5q11 2 49 8.5t52 9.5l10 11v100l-10 10q-308 -10 -373 -10q-66 0 -373 10l-10 -10v-100zM475 1815q0 -18 4.5 -34t17.5 -31.5t20.5 -24t29.5 -23.5t27.5 -18.5t31.5 -18.5q42 -24 131 -74.5t119 -68.5h139l-229 307q-75 98 -152 98q-54 0 -96.5 -30 t-42.5 -82z" />
<glyph unicode="&#xda;" horiz-adv-x="1593" d="M-8 1311l10 -11l100 -18q18 -3 26.5 -5.5t18.5 -14.5t13 -29.5t7 -56t4.5 -87.5t0.5 -131v-528q0 -109 32 -193t101 -147t185.5 -96t277.5 -33q135 0 240 20t175.5 60t118 90.5t73 121t36 141t10.5 159.5v405q0 82 0.5 131t4.5 87.5t7 56t13 29.5t18.5 14.5t26.5 5.5 q8 1 46.5 8t53.5 10l11 11v100l-11 10q-220 -10 -264 -10q-68 0 -248 10l-10 -10v-100l10 -11l101 -18q18 -3 26.5 -5.5t18.5 -14.5t13 -29t6.5 -56t4 -88t0.5 -131v-364q0 -223 -82.5 -313.5t-279.5 -90.5q-166 0 -237.5 88t-71.5 248v432q0 82 0.5 131t4 88t6.5 56t13 29 t18.5 14.5t26.5 5.5q11 2 49 8.5t52 9.5l10 11v100l-10 10q-308 -10 -373 -10q-66 0 -373 10l-10 -10v-100zM647 1522h139l250 143q74 44 98 70q33 36 33 80q0 52 -42.5 82t-96.5 30q-76 0 -151 -98q-35 -47 -117.5 -156.5t-112.5 -150.5z" />
<glyph unicode="&#xdb;" horiz-adv-x="1593" d="M-8 1311l10 -11l100 -18q18 -3 26.5 -5.5t18.5 -14.5t13 -29.5t7 -56t4.5 -87.5t0.5 -131v-528q0 -109 32 -193t101 -147t185.5 -96t277.5 -33q135 0 240 20t175.5 60t118 90.5t73 121t36 141t10.5 159.5v405q0 82 0.5 131t4.5 87.5t7 56t13 29.5t18.5 14.5t26.5 5.5 q8 1 46.5 8t53.5 10l11 11v100l-11 10q-220 -10 -264 -10q-68 0 -248 10l-10 -10v-100l10 -11l101 -18q18 -3 26.5 -5.5t18.5 -14.5t13 -29t6.5 -56t4 -88t0.5 -131v-364q0 -223 -82.5 -313.5t-279.5 -90.5q-166 0 -237.5 88t-71.5 248v432q0 82 0.5 131t4 88t6.5 56t13 29 t18.5 14.5t26.5 5.5q11 2 49 8.5t52 9.5l10 11v100l-10 10q-308 -10 -373 -10q-66 0 -373 10l-10 -10v-100zM444 1522h158l219 190l219 -190h158l-248 368h-258z" />
<glyph unicode="&#xdc;" horiz-adv-x="1593" d="M-8 1311l10 -11l100 -18q18 -3 26.5 -5.5t18.5 -14.5t13 -29.5t7 -56t4.5 -87.5t0.5 -131v-528q0 -109 32 -193t101 -147t185.5 -96t277.5 -33q135 0 240 20t175.5 60t118 90.5t73 121t36 141t10.5 159.5v405q0 82 0.5 131t4.5 87.5t7 56t13 29.5t18.5 14.5t26.5 5.5 q8 1 46.5 8t53.5 10l11 11v100l-11 10q-220 -10 -264 -10q-68 0 -248 10l-10 -10v-100l10 -11l101 -18q18 -3 26.5 -5.5t18.5 -14.5t13 -29t6.5 -56t4 -88t0.5 -131v-364q0 -223 -82.5 -313.5t-279.5 -90.5q-166 0 -237.5 88t-71.5 248v432q0 82 0.5 131t4 88t6.5 56t13 29 t18.5 14.5t26.5 5.5q11 2 49 8.5t52 9.5l10 11v100l-10 10q-308 -10 -373 -10q-66 0 -373 10l-10 -10v-100zM436 1686q0 -68 48 -116t116 -48t116 48t48 116q0 67 -48 115t-116 48t-116 -48t-48 -115zM879 1686q0 -68 48 -116t115 -48q68 0 116 48t48 116q0 67 -48 115 t-116 48t-115.5 -47.5t-47.5 -115.5z" />
<glyph unicode="&#xdd;" horiz-adv-x="1366" d="M-63 1389l8 -101l10 -10q44 0 68.5 -11t48.5 -36q95 -101 176.5 -223.5t236.5 -399.5q9 -15 12 -43.5t3 -111.5q0 -82 -0.5 -131t-4.5 -87.5t-7 -56t-13 -29.5t-18.5 -14.5t-26.5 -5.5q-8 -1 -46.5 -8t-53.5 -10l-11 -11v-100l11 -10q308 10 372 10q66 0 373 -10l10 10 v100l-10 11l-100 18q-18 3 -26.5 5.5t-18.5 14.5t-13 29.5t-7 56t-4.5 87.5t-0.5 131q0 111 4 151t19 66q296 504 502 735v16q-113 -10 -134 -10q-22 0 -135 10q-177 -336 -346 -616q-18 34 -54 103t-63 120.5t-45 85.5q-130 252 -268 336q-65 -19 -199.5 -35t-208.5 -16 h-30zM559 1522h139l250 143q74 44 98 70q33 36 33 80q0 52 -42.5 82t-96.5 30q-77 0 -152 -98q-23 -31 -109.5 -147t-119.5 -160z" />
<glyph unicode="&#xde;" horiz-adv-x="1327" d="M43 0l10 -10q307 10 373 10q30 0 397 -10l11 10v100l-11 13l-125 16q-18 3 -26.5 5.5t-18.5 14.5t-13 29t-6.5 56t-4 88t-0.5 131v516q46 6 73 6q53 0 92.5 -23t59.5 -54t32 -73.5t14.5 -71t2.5 -57.5q0 -118 -37 -181.5t-98 -63.5q-28 0 -63 12q-2 -2 -23 -19l45 -92 q77 -22 156 -22q88 0 161.5 26.5t122.5 70t83.5 100t49.5 114.5t15 115q0 70 -17.5 126.5t-45.5 93.5t-71.5 64.5t-86.5 42t-99 22t-101.5 9t-100.5 0.5q-79 0 -164 -6q0 62 2.5 94.5t12 50t19.5 21.5t35 8q11 2 49 8.5t52 9.5l10 11v100l-10 10q-307 -10 -373 -10t-373 10 l-10 -10v-100l10 -11l101 -18q18 -3 26.5 -5.5t18.5 -14.5t13 -29t6.5 -56t4 -88t0.5 -131v-505q0 -82 -0.5 -131t-4 -88t-6.5 -56t-13 -29t-18.5 -14.5t-26.5 -5.5q-11 -2 -49 -8.5t-52 -9.5l-10 -11v-100z" />
<glyph unicode="&#xdf;" horiz-adv-x="1327" d="M33 0l10 -10q255 10 313 10q122 0 244 -10q8 -1 35 -8.5t70 -14t94 -6.5q92 0 170.5 31t128 78t84.5 103.5t50 106t15 87.5q0 95 -50.5 154.5t-147.5 113.5q-113 65 -150 94.5t-37 65.5q0 29 25 47t55 18q61 0 107 -43l49 31l22 125q29 161 29 219q0 14 -1 27.5 t-8.5 47.5t-21 62.5t-43.5 63.5t-70 59t-105 40.5t-146 16.5q-115 0 -229 -44.5t-204.5 -129.5t-127.5 -192q-11 -32 -24 -105t-13 -88q-17 -12 -57.5 -40.5t-55.5 -39.5l-10 -16v-51l10 -10h127v-320q0 -68 -1.5 -142.5t-3.5 -120t-3 -50.5q-4 -37 -22.5 -47.5t-96.5 -22.5 l-10 -10v-80zM528 231v766q0 60 3.5 104.5t16 92.5t34.5 78.5t60 50.5t91 20q94 0 144.5 -65t50.5 -166q0 -25 -15 -143q-43 -5 -90.5 -29.5t-90 -63.5t-70 -98.5t-27.5 -126.5q0 -61 13 -107.5t39.5 -79t44 -47.5t48.5 -36q140 -95 170.5 -123t30.5 -70q0 -41 -32.5 -68.5 t-78.5 -27.5q-63 0 -108 45q-3 18 -9.5 52.5t-7.5 43.5l-106 -18l-12 -121q-63 7 -81 33t-18 104z" />
<glyph unicode="&#xe0;" horiz-adv-x="1138" d="M61 227q0 -46 13 -89t41 -84.5t82.5 -67t128.5 -25.5q71 0 112 19t195 120q0 -22 -12 -100q13 -8 16 -10q195 10 219 10q54 0 234 -10l10 10v80l-10 10q-29 1 -48.5 4.5t-32.5 13t-19.5 17.5t-10 31t-4 39t-0.5 54v13q0 66 5 201t5 201q0 90 -33.5 155t-93 101t-131 52.5 t-158.5 16.5q-126 0 -161 -20q-49 -28 -143 -82t-111 -64q0 -86 -13 -139l6 -12l107 -21l12 4l76 125q12 19 92 19q53 0 90.5 -14t56 -32t28 -49t11 -50.5t1.5 -51.5q-177 -34 -268.5 -62.5t-151.5 -64.5q-140 -85 -140 -248zM223 1415q0 -26 9.5 -47t31.5 -40t36 -28.5 t44 -27.5q7 -4 10 -6q39 -23 128.5 -74t121.5 -70h139l-229 308q-75 98 -152 98q-54 0 -96.5 -30.5t-42.5 -82.5zM403 303q0 31 10 57t30 44t39.5 31t50 23t48 14.5t46.5 10.5v-256l-49 -30q-42 -25 -78 -25q-48 0 -72.5 40t-24.5 91z" />
<glyph unicode="&#xe1;" horiz-adv-x="1138" d="M61 227q0 -46 13 -89t41 -84.5t82.5 -67t128.5 -25.5q71 0 112 19t195 120q0 -22 -12 -100q13 -8 16 -10q195 10 219 10q54 0 234 -10l10 10v80l-10 10q-29 1 -48.5 4.5t-32.5 13t-19.5 17.5t-10 31t-4 39t-0.5 54v13q0 66 5 201t5 201q0 90 -33.5 155t-93 101t-131 52.5 t-158.5 16.5q-126 0 -161 -20q-49 -28 -143 -82t-111 -64q0 -86 -13 -139l6 -12l107 -21l12 4l76 125q12 19 92 19q53 0 90.5 -14t56 -32t28 -49t11 -50.5t1.5 -51.5q-177 -34 -268.5 -62.5t-151.5 -64.5q-140 -85 -140 -248zM395 1122h140l249 144q73 43 96 67q35 37 35 82 q0 52 -42.5 82.5t-96.5 30.5q-76 0 -151 -98q-29 -40 -113.5 -152.5t-116.5 -155.5zM403 303q0 31 10 57t30 44t39.5 31t50 23t48 14.5t46.5 10.5v-256l-49 -30q-42 -25 -78 -25q-48 0 -72.5 40t-24.5 91z" />
<glyph unicode="&#xe2;" horiz-adv-x="1138" d="M61 227q0 -46 13 -89t41 -84.5t82.5 -67t128.5 -25.5q71 0 112 19t195 120q0 -22 -12 -100q13 -8 16 -10q195 10 219 10q54 0 234 -10l10 10v80l-10 10q-29 1 -48.5 4.5t-32.5 13t-19.5 17.5t-10 31t-4 39t-0.5 54v13q0 66 5 201t5 201q0 90 -33.5 155t-93 101t-131 52.5 t-158.5 16.5q-126 0 -161 -20q-49 -28 -143 -82t-111 -64q0 -86 -13 -139l6 -12l107 -21l12 4l76 125q12 19 92 19q53 0 90.5 -14t56 -32t28 -49t11 -50.5t1.5 -51.5q-177 -34 -268.5 -62.5t-151.5 -64.5q-140 -85 -140 -248zM193 1122h157l219 191l219 -191h158l-248 369 h-258zM403 303q0 31 10 57t30 44t39.5 31t50 23t48 14.5t46.5 10.5v-256l-49 -30q-42 -25 -78 -25q-48 0 -72.5 40t-24.5 91z" />
<glyph unicode="&#xe3;" horiz-adv-x="1138" d="M61 227q0 -46 13 -89t41 -84.5t82.5 -67t128.5 -25.5q71 0 112 19t195 120q0 -22 -12 -100q13 -8 16 -10q195 10 219 10q54 0 234 -10l10 10v80l-10 10q-29 1 -48.5 4.5t-32.5 13t-19.5 17.5t-10 31t-4 39t-0.5 54v13q0 66 5 201t5 201q0 90 -33.5 155t-93 101t-131 52.5 t-158.5 16.5q-126 0 -161 -20q-49 -28 -143 -82t-111 -64q0 -86 -13 -139l6 -12l107 -21l12 4l76 125q12 19 92 19q53 0 90.5 -14t56 -32t28 -49t11 -50.5t1.5 -51.5q-177 -34 -268.5 -62.5t-151.5 -64.5q-140 -85 -140 -248zM162 1161h110q10 45 31.5 69.5t63.5 24.5 q28 0 87 -26t129.5 -52t127.5 -26q58 0 106 26.5t79.5 71t51.5 95t29 106.5h-111q-12 -30 -22 -47t-30 -31t-48 -14q-34 0 -95.5 26t-132.5 52t-128 26q-53 0 -98.5 -29t-75.5 -75t-48.5 -96.5t-25.5 -100.5zM403 303q0 31 10 57t30 44t39.5 31t50 23t48 14.5t46.5 10.5 v-256l-49 -30q-42 -25 -78 -25q-48 0 -72.5 40t-24.5 91z" />
<glyph unicode="&#xe4;" horiz-adv-x="1138" d="M61 227q0 -46 13 -89t41 -84.5t82.5 -67t128.5 -25.5q71 0 112 19t195 120q0 -22 -12 -100q13 -8 16 -10q195 10 219 10q54 0 234 -10l10 10v80l-10 10q-29 1 -48.5 4.5t-32.5 13t-19.5 17.5t-10 31t-4 39t-0.5 54v13q0 66 5 201t5 201q0 90 -33.5 155t-93 101t-131 52.5 t-158.5 16.5q-126 0 -161 -20q-49 -28 -143 -82t-111 -64q0 -86 -13 -139l6 -12l107 -21l12 4l76 125q12 19 92 19q53 0 90.5 -14t56 -32t28 -49t11 -50.5t1.5 -51.5q-177 -34 -268.5 -62.5t-151.5 -64.5q-140 -85 -140 -248zM184 1286q0 -68 48 -116t116 -48t116 48t48 116 t-48 116t-116 48t-116 -48t-48 -116zM403 303q0 31 10 57t30 44t39.5 31t50 23t48 14.5t46.5 10.5v-256l-49 -30q-42 -25 -78 -25q-48 0 -72.5 40t-24.5 91zM627 1286q0 -68 48.5 -116t115.5 -48t115 48t48 116t-48 116t-115 48t-115.5 -48t-48.5 -116z" />
<glyph unicode="&#xe5;" horiz-adv-x="1138" d="M61 227q0 -46 13 -89t41 -84.5t82.5 -67t128.5 -25.5q71 0 112 19t195 120q0 -22 -12 -100q13 -8 16 -10q195 10 219 10q54 0 234 -10l10 10v80l-10 10q-29 1 -48.5 4.5t-32.5 13t-19.5 17.5t-10 31t-4 39t-0.5 54v13q0 66 5 201t5 201q0 90 -33.5 155t-93 101t-131 52.5 t-158.5 16.5q-126 0 -161 -20q-49 -28 -143 -82t-111 -64q0 -86 -13 -139l6 -12l107 -21l12 4l76 125q12 19 92 19q53 0 90.5 -14t56 -32t28 -49t11 -50.5t1.5 -51.5q-177 -34 -268.5 -62.5t-151.5 -64.5q-140 -85 -140 -248zM342 1315q0 -92 67 -160t160 -68t160.5 68.5 t67.5 159.5q0 92 -68 159.5t-160 67.5t-159.5 -67.5t-67.5 -159.5zM403 303q0 31 10 57t30 44t39.5 31t50 23t48 14.5t46.5 10.5v-256l-49 -30q-42 -25 -78 -25q-48 0 -72.5 40t-24.5 91zM463 1315q0 43 31.5 74.5t74.5 31.5t75 -31.5t32 -74.5q0 -44 -32.5 -75.5 t-74.5 -31.5t-74 31.5t-32 75.5z" />
<glyph unicode="&#xe6;" horiz-adv-x="1630" d="M61 227q0 -46 13.5 -89t43.5 -85t88.5 -67t139.5 -25q154 0 217 45q91 64 154 109q23 -24 41 -40t55.5 -40t77.5 -38t103 -25t136 -11q190 0 363 90q9 53 49 150q-4 4 -12.5 11.5t-11.5 10.5q-106 -71 -242 -71q-72 0 -129 22t-89.5 54.5t-53.5 74.5t-28 78t-7 70h311 q132 0 254 34q27 5 29 19q6 34 6 78q0 203 -113 305t-317 102q-68 0 -129.5 -17t-137.5 -69q-112 86 -305 86q-127 0 -174 -28q-30 -17 -117.5 -68t-121.5 -70q0 -86 -13 -139l6 -12l107 -21l12 4l76 125q10 19 90 19q39 0 69 -7.5t49.5 -17.5t33 -28.5t20 -33t10 -38 t4 -36.5t0.5 -36q-175 -34 -266 -62.5t-151 -64.5q-140 -85 -140 -248zM403 293q0 46 16 79.5t50 54.5t65.5 33t83.5 25q3 -106 8 -142.5t27 -111.5q-28 -23 -45 -35t-45.5 -24t-56.5 -12q-41 0 -72 37t-31 96zM961 596q3 138 32.5 200t100.5 62q116 0 116 -176 q0 -28 -6 -86l-123 -6q-18 0 -38 1t-44 2.5t-38 2.5z" />
<glyph unicode="&#xe7;" horiz-adv-x="985" d="M74 457q0 -96 26 -177.5t68 -136t98.5 -95t113.5 -61t116 -26.5q-13 -26 -42.5 -85.5t-39.5 -80.5l35 -20q28 12 47 12q42 0 62 -21t20 -47q0 -13 -2 -22.5t-10 -24.5t-29.5 -23.5t-55.5 -8.5q-44 0 -135 28q-2 -1 -4 -2.5t-4.5 -3t-3.5 -2.5l-33 -74l8 -12 q38 -12 56.5 -17t64 -11.5t96.5 -6.5q119 0 202 51t83 144q0 22 -8.5 45t-27.5 46t-57 37.5t-89 14.5q-28 0 -82 -8q8 15 24.5 47.5t22.5 44.5q140 0 315 74q26 112 47 141l-18 31q-78 -55 -201 -55q-76 0 -136 36t-96 95t-54.5 128.5t-18.5 141.5q0 53 12.5 99.5t37.5 85.5 t68 62t99 23q32 0 65 -10.5t44 -26.5q5 -7 14.5 -51t13.5 -86l11 -10h112l11 10q0 195 18 266q-6 15 -10 21q-48 20 -126 36.5t-130 16.5q-119 0 -227 -36.5t-190.5 -103.5t-131.5 -168.5t-49 -223.5z" />
<glyph unicode="&#xe8;" horiz-adv-x="1099" d="M59 444q0 -110 30.5 -195.5t80 -138.5t119.5 -87.5t143 -48t156 -13.5q189 0 362 90q9 53 49 150q-4 4 -12.5 11.5t-11.5 10.5q-106 -71 -242 -71q-72 0 -129 22t-89.5 54.5t-53.5 74.5t-28 78t-7 70h311q132 0 254 34q27 5 29 19q6 34 6 78q0 203 -113 305t-317 102 q-88 0 -156 -31q-21 -9 -82 -36.5t-84 -38.5q-82 -40 -114 -80q-38 -49 -69.5 -156t-31.5 -203zM205 1415q0 -26 9.5 -47t31.5 -40t36 -28.5t44 -27.5q7 -4 10 -6q39 -23 128.5 -74t121.5 -70h139l-229 308q-75 98 -152 98q-54 0 -96.5 -30.5t-42.5 -82.5zM418 596 q3 138 32.5 200t100.5 62q34 0 58.5 -15.5t36.5 -43t17 -56t5 -61.5q0 -28 -6 -86q-14 -1 -39 -2.5t-45.5 -2.5t-38.5 -1t-38 1t-44.5 2.5t-38.5 2.5z" />
<glyph unicode="&#xe9;" horiz-adv-x="1099" d="M59 444q0 -110 30.5 -195.5t80 -138.5t119.5 -87.5t143 -48t156 -13.5q189 0 362 90q9 53 49 150q-4 4 -12.5 11.5t-11.5 10.5q-106 -71 -242 -71q-72 0 -129 22t-89.5 54.5t-53.5 74.5t-28 78t-7 70h311q132 0 254 34q27 5 29 19q6 34 6 78q0 203 -113 305t-317 102 q-88 0 -156 -31q-21 -9 -82 -36.5t-84 -38.5q-82 -40 -114 -80q-38 -49 -69.5 -156t-31.5 -203zM377 1122h139l250 144q73 43 96 67q35 37 35 82q0 52 -42.5 82.5t-96.5 30.5q-77 0 -152 -98q-154 -207 -229 -308zM418 596q3 138 32.5 200t100.5 62q34 0 58.5 -15.5 t36.5 -43t17 -56t5 -61.5q0 -28 -6 -86q-14 -1 -39 -2.5t-45.5 -2.5t-38.5 -1t-38 1t-44.5 2.5t-38.5 2.5z" />
<glyph unicode="&#xea;" horiz-adv-x="1099" d="M59 444q0 -110 30.5 -195.5t80 -138.5t119.5 -87.5t143 -48t156 -13.5q189 0 362 90q9 53 49 150q-4 4 -12.5 11.5t-11.5 10.5q-106 -71 -242 -71q-72 0 -129 22t-89.5 54.5t-53.5 74.5t-28 78t-7 70h311q132 0 254 34q27 5 29 19q6 34 6 78q0 203 -113 305t-317 102 q-88 0 -156 -31q-21 -9 -82 -36.5t-84 -38.5q-82 -40 -114 -80q-38 -49 -69.5 -156t-31.5 -203zM174 1122h158l219 191l219 -191h158l-248 369h-258zM418 596q3 138 32.5 200t100.5 62q34 0 58.5 -15.5t36.5 -43t17 -56t5 -61.5q0 -28 -6 -86q-14 -1 -39 -2.5t-45.5 -2.5 t-38.5 -1t-38 1t-44.5 2.5t-38.5 2.5z" />
<glyph unicode="&#xeb;" horiz-adv-x="1099" d="M59 444q0 -110 30.5 -195.5t80 -138.5t119.5 -87.5t143 -48t156 -13.5q189 0 362 90q9 53 49 150q-4 4 -12.5 11.5t-11.5 10.5q-106 -71 -242 -71q-72 0 -129 22t-89.5 54.5t-53.5 74.5t-28 78t-7 70h311q132 0 254 34q27 5 29 19q6 34 6 78q0 203 -113 305t-317 102 q-88 0 -156 -31q-21 -9 -82 -36.5t-84 -38.5q-82 -40 -114 -80q-38 -49 -69.5 -156t-31.5 -203zM166 1286q0 -68 48 -116t116 -48t116 48t48 116t-48 116t-116 48t-116 -48t-48 -116zM418 596q3 138 32.5 200t100.5 62q34 0 58.5 -15.5t36.5 -43t17 -56t5 -61.5 q0 -28 -6 -86q-14 -1 -39 -2.5t-45.5 -2.5t-38.5 -1t-38 1t-44.5 2.5t-38.5 2.5zM608 1286q0 -68 48 -116t116 -48t116 48t48 116t-48 116t-116 48t-116 -48t-48 -116z" />
<glyph unicode="&#xec;" horiz-adv-x="681" d="M-4 1415q0 -26 9.5 -47t31.5 -40t36 -28.5t44 -27.5q7 -4 10 -6q39 -23 128.5 -74t121.5 -70h139l-229 308q-75 98 -152 98q-54 0 -96.5 -30.5t-42.5 -82.5zM39 2l10 -12q73 10 287 10q200 0 297 -10q6 8 10 12v78l-10 10q-58 8 -77.5 15.5t-23.5 27.5q-12 56 -12 199 v289q0 226 19 368q-4 1 -11 4t-12.5 5t-9.5 3q-87 -35 -240.5 -64t-216.5 -34l-10 -10v-80l10 -10q17 0 53.5 -8t42.5 -23q17 -38 17 -211v-229q0 -144 -12 -199q-4 -20 -23.5 -27.5t-77.5 -15.5l-10 -10v-78z" />
<glyph unicode="&#xed;" horiz-adv-x="681" d="M39 2l10 -12q73 10 287 10q200 0 297 -10q6 8 10 12v78l-10 10q-58 8 -77.5 15.5t-23.5 27.5q-12 56 -12 199v289q0 226 19 368q-4 1 -11 4t-12.5 5t-9.5 3q-87 -35 -240.5 -64t-216.5 -34l-10 -10v-80l10 -10q17 0 53.5 -8t42.5 -23q17 -38 17 -211v-229 q0 -144 -12 -199q-4 -20 -23.5 -27.5t-77.5 -15.5l-10 -10v-78zM168 1122h139l250 144q73 43 96 67q35 37 35 82q0 52 -42.5 82.5t-96.5 30.5q-77 0 -152 -98q-154 -207 -229 -308z" />
<glyph unicode="&#xee;" horiz-adv-x="681" d="M-35 1122h158l219 191l219 -191h158l-248 369h-258zM39 2l10 -12q73 10 287 10q200 0 297 -10q6 8 10 12v78l-10 10q-58 8 -77.5 15.5t-23.5 27.5q-12 56 -12 199v289q0 226 19 368q-4 1 -11 4t-12.5 5t-9.5 3q-87 -35 -240.5 -64t-216.5 -34l-10 -10v-80l10 -10 q17 0 53.5 -8t42.5 -23q17 -38 17 -211v-229q0 -144 -12 -199q-4 -20 -23.5 -27.5t-77.5 -15.5l-10 -10v-78z" />
<glyph unicode="&#xef;" horiz-adv-x="681" d="M-43 1286q0 -68 48.5 -116t115.5 -48t115.5 48t48.5 116t-48.5 116t-115.5 48t-115.5 -48t-48.5 -116zM39 2l10 -12q73 10 287 10q200 0 297 -10q6 8 10 12v78l-10 10q-58 8 -77.5 15.5t-23.5 27.5q-12 56 -12 199v289q0 226 19 368q-4 1 -11 4t-12.5 5t-9.5 3 q-87 -35 -240.5 -64t-216.5 -34l-10 -10v-80l10 -10q17 0 53.5 -8t42.5 -23q17 -38 17 -211v-229q0 -144 -12 -199q-4 -20 -23.5 -27.5t-77.5 -15.5l-10 -10v-78zM399 1286q0 -68 48.5 -116t115.5 -48t115.5 48t48.5 116t-48.5 116t-115.5 48t-115.5 -48t-48.5 -116z" />
<glyph unicode="&#xf0;" horiz-adv-x="1214" d="M74 449q0 -129 37 -225t104.5 -152.5t154 -83.5t193.5 -27q129 0 229 30.5t165 83.5t107 129.5t59.5 162.5t17.5 190q0 214 -74.5 403t-218.5 330q42 16 127.5 48.5t114.5 43.5v17l-62 78h-16l-264 -103q-102 78 -236 135q-111 -45 -246 -100v-16q130 -25 244 -111 q-88 -35 -289 -113v-16l58 -72l16 -4l309 119q122 -140 170 -334q-1 0 -3 -1.5t-3 -2.5q-66 92 -213 92q-213 0 -347 -133t-134 -368zM469 412v59q0 43 0.5 65t2 62t5 62t9.5 53t16.5 48.5t24.5 35t34 25t45 7.5t45.5 -7.5t35 -25t24.5 -35t16.5 -48.5t10 -53t5 -62t2 -62 t0.5 -65q0 -49 -0.5 -73.5t-2 -68.5t-5 -67.5t-10 -57t-16.5 -51.5t-24.5 -36.5t-35 -26.5t-45.5 -8q-20 0 -37 5t-30 17t-23 24.5t-17.5 35t-12.5 39.5t-8 47.5t-5 50t-3 55.5t-1 56z" />
<glyph unicode="&#xf1;" horiz-adv-x="1290" d="M39 0l10 -10q240 10 287 10q50 0 285 -10l10 10v80l-10 10q-28 5 -38.5 7t-24 7t-19 11.5t-7.5 17.5q-12 56 -12 199v147q0 123 10 211q0 3 18.5 16t46 25t46.5 12q69 0 99 -42.5t30 -139.5q0 -321 -20 -551q12 -14 18 -20q200 10 238 10q40 0 235 -10l10 10v80l-10 10 q-75 7 -94 27.5t-19 81.5q0 94 3.5 244t3.5 198q0 188 -74 268t-225 80q-52 0 -93 -14.5t-64.5 -31.5t-72 -58t-86.5 -68q1 16 4.5 60.5t6.5 68.5t8 43q-4 1 -11 4t-12.5 5t-9.5 3q-87 -35 -240.5 -64t-216.5 -34l-10 -10v-80l10 -10q17 0 53.5 -8t42.5 -23q17 -38 17 -211 v-229q0 -144 -12 -199q-4 -20 -23.5 -27.5t-77.5 -15.5l-10 -10v-80zM238 1161h110q10 45 31 69.5t63 24.5q28 0 87 -26t129.5 -52t127.5 -26q58 0 106 26.5t80 71t52 95t29 106.5h-111q-12 -30 -22 -47t-30 -31t-48 -14q-34 0 -95.5 26t-133 52t-128.5 26q-53 0 -98.5 -29 t-75 -75.5t-48 -96.5t-25.5 -100z" />
<glyph unicode="&#xf2;" horiz-adv-x="1214" d="M74 449q0 -129 37 -225t104.5 -152.5t154 -83.5t193.5 -27q272 0 425 136.5t153 404.5q0 255 -133 371t-387 116q-268 0 -407.5 -136t-139.5 -404zM262 1415q0 -26 9.5 -47t31.5 -40t36 -28.5t44 -27.5q7 -4 10 -6q39 -23 128.5 -74t121.5 -70h139l-229 308 q-75 98 -152 98q-54 0 -96.5 -30.5t-42.5 -82.5zM469 410.5v58.5v59t1 56t3 55.5t5 50t8 47.5t12.5 39.5t17.5 35t23 24.5t30 17t37 5q25 0 45.5 -8t35 -26.5t24.5 -36.5t16.5 -51.5t10 -57t5 -67.5t2 -68.5t0.5 -73.5q0 -48 -0.5 -73t-2 -68.5t-5 -67t-10 -56.5t-16.5 -51 t-24.5 -36.5t-35 -26.5t-45.5 -8q-20 0 -37 5t-30 17t-23 24.5t-17.5 35t-12.5 39.5t-8 47t-5 49.5t-3 55.5t-1 55.5z" />
<glyph unicode="&#xf3;" horiz-adv-x="1214" d="M74 449q0 -129 37 -225t104.5 -152.5t154 -83.5t193.5 -27q272 0 425 136.5t153 404.5q0 255 -133 371t-387 116q-268 0 -407.5 -136t-139.5 -404zM434 1122h139l250 144q73 43 96 67q35 37 35 82q0 52 -42.5 82.5t-96.5 30.5q-76 0 -151 -98q-29 -40 -113.5 -152.5 t-116.5 -155.5zM469 410.5v58.5v59t1 56t3 55.5t5 50t8 47.5t12.5 39.5t17.5 35t23 24.5t30 17t37 5q25 0 45.5 -8t35 -26.5t24.5 -36.5t16.5 -51.5t10 -57t5 -67.5t2 -68.5t0.5 -73.5q0 -48 -0.5 -73t-2 -68.5t-5 -67t-10 -56.5t-16.5 -51t-24.5 -36.5t-35 -26.5t-45.5 -8 q-20 0 -37 5t-30 17t-23 24.5t-17.5 35t-12.5 39.5t-8 47t-5 49.5t-3 55.5t-1 55.5z" />
<glyph unicode="&#xf4;" horiz-adv-x="1214" d="M74 449q0 -129 37 -225t104.5 -152.5t154 -83.5t193.5 -27q272 0 425 136.5t153 404.5q0 255 -133 371t-387 116q-268 0 -407.5 -136t-139.5 -404zM231 1122h158l219 191l219 -191h158l-248 369h-258zM469 410.5v58.5v59t1 56t3 55.5t5 50t8 47.5t12.5 39.5t17.5 35 t23 24.5t30 17t37 5q25 0 45.5 -8t35 -26.5t24.5 -36.5t16.5 -51.5t10 -57t5 -67.5t2 -68.5t0.5 -73.5q0 -48 -0.5 -73t-2 -68.5t-5 -67t-10 -56.5t-16.5 -51t-24.5 -36.5t-35 -26.5t-45.5 -8q-20 0 -37 5t-30 17t-23 24.5t-17.5 35t-12.5 39.5t-8 47t-5 49.5t-3 55.5 t-1 55.5z" />
<glyph unicode="&#xf5;" horiz-adv-x="1214" d="M74 449q0 -129 37 -225t104.5 -152.5t154 -83.5t193.5 -27q272 0 425 136.5t153 404.5q0 255 -133 371t-387 116q-268 0 -407.5 -136t-139.5 -404zM201 1161h110q10 45 31.5 69.5t63.5 24.5q28 0 87 -26t129.5 -52t127.5 -26q58 0 106 26.5t79.5 71t51.5 95t29 106.5 h-111q-12 -30 -22 -47t-30 -31t-48 -14q-34 0 -95.5 26t-132.5 52t-128 26q-53 0 -98.5 -29t-75.5 -75t-48.5 -96.5t-25.5 -100.5zM469 410.5v58.5v59t1 56t3 55.5t5 50t8 47.5t12.5 39.5t17.5 35t23 24.5t30 17t37 5q25 0 45.5 -8t35 -26.5t24.5 -36.5t16.5 -51.5t10 -57 t5 -67.5t2 -68.5t0.5 -73.5q0 -48 -0.5 -73t-2 -68.5t-5 -67t-10 -56.5t-16.5 -51t-24.5 -36.5t-35 -26.5t-45.5 -8q-20 0 -37 5t-30 17t-23 24.5t-17.5 35t-12.5 39.5t-8 47t-5 49.5t-3 55.5t-1 55.5z" />
<glyph unicode="&#xf6;" horiz-adv-x="1214" d="M74 449q0 -129 37 -225t104.5 -152.5t154 -83.5t193.5 -27q272 0 425 136.5t153 404.5q0 255 -133 371t-387 116q-268 0 -407.5 -136t-139.5 -404zM223 1286q0 -68 48.5 -116t115.5 -48t115.5 48t48.5 116t-48.5 116t-115.5 48t-115.5 -48t-48.5 -116zM469 410.5v58.5v59 t1 56t3 55.5t5 50t8 47.5t12.5 39.5t17.5 35t23 24.5t30 17t37 5q25 0 45.5 -8t35 -26.5t24.5 -36.5t16.5 -51.5t10 -57t5 -67.5t2 -68.5t0.5 -73.5q0 -48 -0.5 -73t-2 -68.5t-5 -67t-10 -56.5t-16.5 -51t-24.5 -36.5t-35 -26.5t-45.5 -8q-20 0 -37 5t-30 17t-23 24.5 t-17.5 35t-12.5 39.5t-8 47t-5 49.5t-3 55.5t-1 55.5zM666 1286q0 -68 48 -116t115 -48t115.5 48t48.5 116t-48.5 116t-115.5 48t-115 -48t-48 -116z" />
<glyph unicode="&#xf7;" horiz-adv-x="1228" d="M96 395h1037v246h-1037v-246zM430 92q0 -76 54 -130t130 -54q77 0 131 54t54 130t-54 130t-131 54q-76 0 -130 -54t-54 -130zM430 944q0 -76 54 -130t130 -54q77 0 131 54t54 130t-54 130t-131 54q-76 0 -130 -54t-54 -130z" />
<glyph unicode="&#xf8;" horiz-adv-x="1214" d="M27 8v-16l61 -60h16l134 123q122 -94 325 -94q272 0 425 136.5t153 404.5q0 207 -92 325q16 15 46.5 45t53.5 53t39 38v16l-62 61h-16l-141 -137q-125 86 -348 86q-268 0 -407.5 -136t-139.5 -404q0 -195 86 -314q-130 -124 -133 -127zM469 430v39v59t1 56t3 55.5t5 50 t8 47.5t12.5 39.5t17.5 35t23 24.5t30 17t37 5q110 0 131 -174q-136 -129 -268 -254zM475 281l270 258v-70q0 -48 -0.5 -73t-2 -68.5t-5 -67t-10 -56.5t-16.5 -51t-24.5 -36.5t-35 -26.5t-45.5 -8q-63 0 -93 52.5t-38 146.5z" />
<glyph unicode="&#xf9;" horiz-adv-x="1290" d="M39 813l10 -10q20 0 57.5 -8t43.5 -23q12 -28 12 -74q0 -78 -3 -242t-3 -177q0 -28 0.5 -45.5t6 -54.5t15.5 -62t31.5 -57t51.5 -51.5t77.5 -33.5t107.5 -14q66 0 124.5 25.5t90 51.5t95.5 88q11 10 16 15q-1 -16 -2 -46.5t-2 -53.5t-2 -39l10 -12q175 10 225 10 q35 0 119 -4.5t121 -5.5q6 8 10 12v78l-10 10q-58 8 -77 15.5t-23 27.5q-13 60 -13 199v289q0 226 19 368q-4 1 -11 4t-12.5 5t-9.5 3q-87 -35 -240.5 -64t-216.5 -34l-10 -10v-80l10 -10q17 0 54 -8t43 -23q16 -36 16 -211v-282q-2 -2 -15.5 -14t-18.5 -16t-18.5 -13.5 t-24 -13.5t-25.5 -7.5t-31 -3.5q-60 0 -88.5 37.5t-28.5 97.5v377q0 161 19 266q-4 1 -11 4t-12.5 5t-9.5 3q-87 -35 -240.5 -64t-216.5 -34l-10 -10v-80zM299 1415q0 -26 9.5 -47t31.5 -40t36 -28.5t44 -27.5q7 -4 10 -6q39 -23 128.5 -74t121.5 -70h139l-229 308 q-75 98 -152 98q-54 0 -96.5 -30.5t-42.5 -82.5z" />
<glyph unicode="&#xfa;" horiz-adv-x="1290" d="M39 813l10 -10q20 0 57.5 -8t43.5 -23q12 -28 12 -74q0 -78 -3 -242t-3 -177q0 -28 0.5 -45.5t6 -54.5t15.5 -62t31.5 -57t51.5 -51.5t77.5 -33.5t107.5 -14q66 0 124.5 25.5t90 51.5t95.5 88q11 10 16 15q-1 -16 -2 -46.5t-2 -53.5t-2 -39l10 -12q175 10 225 10 q35 0 119 -4.5t121 -5.5q6 8 10 12v78l-10 10q-58 8 -77 15.5t-23 27.5q-13 60 -13 199v289q0 226 19 368q-4 1 -11 4t-12.5 5t-9.5 3q-87 -35 -240.5 -64t-216.5 -34l-10 -10v-80l10 -10q17 0 54 -8t43 -23q16 -36 16 -211v-282q-2 -2 -15.5 -14t-18.5 -16t-18.5 -13.5 t-24 -13.5t-25.5 -7.5t-31 -3.5q-60 0 -88.5 37.5t-28.5 97.5v377q0 161 19 266q-4 1 -11 4t-12.5 5t-9.5 3q-87 -35 -240.5 -64t-216.5 -34l-10 -10v-80zM471 1122h139l250 144q73 43 96 67q35 37 35 82q0 52 -42.5 82.5t-96.5 30.5q-77 0 -152 -98q-154 -207 -229 -308z " />
<glyph unicode="&#xfb;" horiz-adv-x="1290" d="M39 813l10 -10q20 0 57.5 -8t43.5 -23q12 -28 12 -74q0 -78 -3 -242t-3 -177q0 -28 0.5 -45.5t6 -54.5t15.5 -62t31.5 -57t51.5 -51.5t77.5 -33.5t107.5 -14q66 0 124.5 25.5t90 51.5t95.5 88q11 10 16 15q-1 -16 -2 -46.5t-2 -53.5t-2 -39l10 -12q175 10 225 10 q35 0 119 -4.5t121 -5.5q6 8 10 12v78l-10 10q-58 8 -77 15.5t-23 27.5q-13 60 -13 199v289q0 226 19 368q-4 1 -11 4t-12.5 5t-9.5 3q-87 -35 -240.5 -64t-216.5 -34l-10 -10v-80l10 -10q17 0 54 -8t43 -23q16 -36 16 -211v-282q-2 -2 -15.5 -14t-18.5 -16t-18.5 -13.5 t-24 -13.5t-25.5 -7.5t-31 -3.5q-60 0 -88.5 37.5t-28.5 97.5v377q0 161 19 266q-4 1 -11 4t-12.5 5t-9.5 3q-87 -35 -240.5 -64t-216.5 -34l-10 -10v-80zM268 1122h158l219 191l219 -191h158l-248 369h-258z" />
<glyph unicode="&#xfc;" horiz-adv-x="1290" d="M39 813l10 -10q20 0 57.5 -8t43.5 -23q12 -28 12 -74q0 -78 -3 -242t-3 -177q0 -28 0.5 -45.5t6 -54.5t15.5 -62t31.5 -57t51.5 -51.5t77.5 -33.5t107.5 -14q66 0 124.5 25.5t90 51.5t95.5 88q11 10 16 15q-1 -16 -2 -46.5t-2 -53.5t-2 -39l10 -12q175 10 225 10 q35 0 119 -4.5t121 -5.5q6 8 10 12v78l-10 10q-58 8 -77 15.5t-23 27.5q-13 60 -13 199v289q0 226 19 368q-4 1 -11 4t-12.5 5t-9.5 3q-87 -35 -240.5 -64t-216.5 -34l-10 -10v-80l10 -10q17 0 54 -8t43 -23q16 -36 16 -211v-282q-2 -2 -15.5 -14t-18.5 -16t-18.5 -13.5 t-24 -13.5t-25.5 -7.5t-31 -3.5q-60 0 -88.5 37.5t-28.5 97.5v377q0 161 19 266q-4 1 -11 4t-12.5 5t-9.5 3q-87 -35 -240.5 -64t-216.5 -34l-10 -10v-80zM260 1286q0 -68 48 -116t116 -48t116 48t48 116t-48 116t-116 48t-116 -48t-48 -116zM702 1286q0 -68 48 -116 t116 -48t116 48t48 116t-48 116t-116 48t-116 -48t-48 -116z" />
<glyph unicode="&#xfd;" horiz-adv-x="1138" d="M-18 870l10 -10q53 -4 75 -29t52 -96q70 -161 202 -468.5t162 -377.5q-16 -44 -25 -67t-31 -63t-44.5 -61.5t-58.5 -38.5t-80 -17q-45 0 -72 16t-45 55l-31 -6q-25 -138 -38 -178q-5 -16 -15 -45q39 -28 74.5 -38.5t85.5 -10.5q52 0 99.5 15t83 35.5t71 58.5t57.5 68 t49.5 81t41 79.5t36.5 80.5t144.5 343.5t142.5 340.5q35 81 57 131t42.5 88t31.5 55t28 28.5t27 14t33 6.5l10 10v80l-10 11q-182 -11 -197 -11q-12 0 -194 11l-11 -11v-80l11 -10q59 -7 78.5 -16.5t19.5 -28.5q0 -13 -5 -32.5t-16.5 -51.5t-23 -61t-33 -82.5t-37.5 -95.5 q-8 -20 -26 -68t-25 -66q-98 221 -137 318t-39 135q0 39 87 47q10 1 15 2l11 10v80l-11 11q-286 -11 -313 -11q-29 0 -309 11l-10 -11v-80zM395 1122h140l249 144q73 43 96 67q35 37 35 82q0 52 -42.5 82.5t-96.5 30.5q-76 0 -151 -98q-29 -40 -113.5 -152.5t-116.5 -155.5z " />
<glyph unicode="&#xfe;" horiz-adv-x="1251" d="M39 -446v-78l12 -13q231 11 275 11q42 0 90 -2t111.5 -5t105.5 -4l12 13v78l-10 10q-67 8 -88 15t-25 28q-12 56 -12 198v183q4 -1 14.5 -5t16 -5.5t16 -5t19 -5t21 -3t26 -2.5t28.5 -1q64 0 131.5 18.5t139.5 63.5t128 111t92 170.5t36 232.5q0 197 -87 314.5 t-268 117.5q-41 0 -60.5 -2.5t-55.5 -18.5t-80.5 -50t-116.5 -97v510q0 91 12 166q-4 2 -9.5 4t-11 4.5t-7.5 3.5q-94 -36 -250.5 -67t-194.5 -31l-10 -10v-80l10 -10l7 -1q7 -1 19.5 -3.5t24.5 -5.5t22 -9t13 -12q17 -38 17 -211v-1264q0 -138 -13 -198q-4 -20 -21.5 -27 t-68.5 -16zM504 424q0 53 3 155t3 123q33 22 56.5 31.5t62.5 9.5q40 0 70.5 -14t48.5 -42t29 -55.5t15.5 -70.5t5.5 -69t1 -68q0 -39 -2 -69.5t-8 -68t-19 -65t-33 -52t-52 -37.5t-73 -13t-71.5 24.5t-30.5 53.5q-1 25 -2.5 71.5t-2.5 84t-1 71.5z" />
<glyph unicode="&#xff;" horiz-adv-x="1138" d="M-18 870l10 -10q53 -4 75 -29t52 -96q70 -161 202 -468.5t162 -377.5q-16 -44 -25 -67t-31 -63t-44.5 -61.5t-58.5 -38.5t-80 -17q-45 0 -72 16t-45 55l-31 -6q-25 -138 -38 -178q-5 -16 -15 -45q39 -28 74.5 -38.5t85.5 -10.5q52 0 99.5 15t83 35.5t71 58.5t57.5 68 t49.5 81t41 79.5t36.5 80.5t144.5 343.5t142.5 340.5q35 81 57 131t42.5 88t31.5 55t28 28.5t27 14t33 6.5l10 10v80l-10 11q-182 -11 -197 -11q-12 0 -194 11l-11 -11v-80l11 -10q59 -7 78.5 -16.5t19.5 -28.5q0 -13 -5 -32.5t-16.5 -51.5t-23 -61t-33 -82.5t-37.5 -95.5 q-8 -20 -26 -68t-25 -66q-98 221 -137 318t-39 135q0 39 87 47q10 1 15 2l11 10v80l-11 11q-286 -11 -313 -11q-29 0 -309 11l-10 -11v-80zM209 1286q0 -68 48.5 -116t115.5 -48t115.5 48t48.5 116t-48.5 116t-115.5 48t-115.5 -48t-48.5 -116zM651 1286q0 -68 48.5 -116 t115.5 -48t115.5 48t48.5 116t-48.5 116t-115.5 48t-115.5 -48t-48.5 -116z" />
<glyph unicode="&#x152;" horiz-adv-x="2275" d="M78 670q0 -326 206 -517.5t552 -191.5q81 0 249 21q180 18 308 18q178 0 315 -2q334 -5 459 -8q5 12 10 20q6 206 29 340q-4 4 -8 10h-107l-10 -10q-29 -121 -49 -164q-88 -39 -254 -39h-183q-1 39 -4.5 145t-3.5 161v198q82 4 121 4q130 0 168 -16q23 -10 28.5 -32.5 t10.5 -110.5l10 -11h100l11 11q0 11 -3 109t-3 118q0 61 6 227l-11 11h-100l-10 -11q0 -31 -0.5 -49t-6 -36t-8.5 -26.5t-17.5 -17t-24 -11t-38 -5t-48 -2.5h-64.5q-56 0 -121 6v293q0 51 8 153q103 9 164 9q211 0 248 -37q5 -5 7.5 -30.5t3.5 -59.5t1 -39l11 -11h94l10 11 q12 176 39 303q-5 12 -10 20q-685 -10 -783 -10q-144 0 -295 21q-157 18 -227 18q-365 0 -572.5 -205.5t-207.5 -574.5zM528 741q0 120 22.5 217.5t60 160.5t88 105.5t104 60.5t110.5 18t102 -9t78.5 -26.5t51 -30.5t41.5 -35q6 -258 6 -467q0 -431 -6 -545 q-45 -33 -116 -57t-155 -24q-68 0 -124.5 22t-96 58.5t-69.5 88.5t-48 107t-29.5 120t-15.5 121t-4 115z" />
<glyph unicode="&#x153;" horiz-adv-x="1744" d="M61 449q0 -129 37 -225t105 -152.5t154.5 -83.5t193.5 -27q234 0 371 96q108 -96 323 -96q190 0 363 90q9 53 49 150q-4 4 -13 11.5t-12 10.5q-106 -71 -241 -71q-72 0 -129 22t-89.5 54.5t-53.5 74.5t-28.5 78t-7.5 70h312q132 0 254 34q26 5 28 19q6 34 6 78 q0 203 -113 305t-317 102q-88 0 -152.5 -23.5t-135.5 -68.5q-123 92 -357 92q-268 0 -407.5 -136t-139.5 -404zM457 410.5v58.5v59t1 56t3 55.5t5 50t8 47.5t12.5 39.5t17.5 35t23 24.5t30 17t37 5q25 0 45.5 -8t35 -26.5t24.5 -36.5t16.5 -51.5t10 -57t5 -67.5t2 -68.5 t0.5 -73.5q0 -48 -0.5 -73t-2 -68.5t-5 -67t-10 -56.5t-16.5 -51t-24.5 -36.5t-35 -26.5t-45.5 -8q-20 0 -37 5t-30 17t-23 24.5t-17.5 35t-12.5 39.5t-8 47t-5 49.5t-3 55.5t-1 55.5zM1075 596q3 138 32.5 200t100.5 62q34 0 58.5 -15.5t36.5 -43t17 -56t5 -61.5 q0 -28 -6 -86l-123 -6q-18 0 -38 1t-44.5 2.5t-38.5 2.5z" />
<glyph unicode="&#x178;" horiz-adv-x="1366" d="M-63 1389l8 -101l10 -10q44 0 68.5 -11t48.5 -36q95 -101 176.5 -223.5t236.5 -399.5q9 -15 12 -43.5t3 -111.5q0 -82 -0.5 -131t-4.5 -87.5t-7 -56t-13 -29.5t-18.5 -14.5t-26.5 -5.5q-8 -1 -46.5 -8t-53.5 -10l-11 -11v-100l11 -10q308 10 372 10q66 0 373 -10l10 10 v100l-10 11l-100 18q-18 3 -26.5 5.5t-18.5 14.5t-13 29.5t-7 56t-4.5 87.5t-0.5 131q0 111 4 151t19 66q296 504 502 735v16q-113 -10 -134 -10q-22 0 -135 10q-177 -336 -346 -616q-18 34 -54 103t-63 120.5t-45 85.5q-130 252 -268 336q-65 -19 -199.5 -35t-208.5 -16 h-30zM340 1686q0 -68 48 -116t116 -48t116 48t48 116q0 67 -48 115t-116 48t-116 -48t-48 -115zM782 1686q0 -68 48 -116t116 -48t116 48t48 116q0 67 -48 115t-116 48t-116 -48t-48 -115z" />
<glyph unicode="&#x2c6;" horiz-adv-x="569" d="M-92 1122h158l219 191l219 -191h158l-248 369h-258z" />
<glyph unicode="&#x2dc;" horiz-adv-x="569" d="M-123 1161h111q10 45 31 69.5t63 24.5q28 0 87 -26t129.5 -52t127.5 -26q58 0 106 26.5t79.5 71t51.5 95t29 106.5h-110q-18 -45 -39.5 -68.5t-61.5 -23.5q-34 0 -95.5 26t-132.5 52t-128 26q-53 0 -98.5 -29t-75.5 -75t-48.5 -96.5t-25.5 -100.5z" />
<glyph unicode="&#x2000;" horiz-adv-x="965" />
<glyph unicode="&#x2001;" horiz-adv-x="1931" />
<glyph unicode="&#x2002;" horiz-adv-x="965" />
<glyph unicode="&#x2003;" horiz-adv-x="1931" />
<glyph unicode="&#x2004;" horiz-adv-x="643" />
<glyph unicode="&#x2005;" horiz-adv-x="482" />
<glyph unicode="&#x2006;" horiz-adv-x="321" />
<glyph unicode="&#x2007;" horiz-adv-x="321" />
<glyph unicode="&#x2008;" horiz-adv-x="241" />
<glyph unicode="&#x2009;" horiz-adv-x="386" />
<glyph unicode="&#x200a;" horiz-adv-x="107" />
<glyph unicode="&#x2010;" horiz-adv-x="872" d="M53 383q11 -20 19 -33q245 10 317 10q42 0 172.5 -3.5t167.5 -6.5q22 97 35 138t55 139q-3 7 -9 20t-7 15q-56 -2 -155 -6.5t-169 -4.5q-125 0 -340 11q-16 -84 -33 -137t-53 -142z" />
<glyph unicode="&#x2011;" horiz-adv-x="872" d="M53 383q11 -20 19 -33q245 10 317 10q42 0 172.5 -3.5t167.5 -6.5q22 97 35 138t55 139q-3 7 -9 20t-7 15q-56 -2 -155 -6.5t-169 -4.5q-125 0 -340 11q-16 -84 -33 -137t-53 -142z" />
<glyph unicode="&#x2012;" horiz-adv-x="872" d="M53 383q11 -20 19 -33q245 10 317 10q42 0 172.5 -3.5t167.5 -6.5q22 97 35 138t55 139q-3 7 -9 20t-7 15q-56 -2 -155 -6.5t-169 -4.5q-125 0 -340 11q-16 -84 -33 -137t-53 -142z" />
<glyph unicode="&#x2013;" horiz-adv-x="1024" d="M0 379h1024v256h-1024v-256z" />
<glyph unicode="&#x2014;" horiz-adv-x="2048" d="M0 379h2048v256h-2048v-256z" />
<glyph unicode="&#x2018;" horiz-adv-x="606" d="M0 797l29 -31q112 55 364 59q5 263 144 592q-3 4 -29 33q-31 -18 -82 -36t-82 -23q-52 -69 -141 -216.5t-156 -283.5l-15.5 -31t-18 -36.5t-13.5 -26.5z" />
<glyph unicode="&#x2019;" horiz-adv-x="606" d="M0 799q3 -4 29 -33q31 18 82 36t82 23q52 69 140 216.5t156 283.5q32 62 48 94l-29 31q-112 -55 -365 -59q-5 -265 -143 -592z" />
<glyph unicode="&#x201a;" horiz-adv-x="606" d="M0 -301q3 -4 29 -33q31 18 82.5 36.5t81.5 23.5q52 69 140 216t156 283q32 62 48 94l-29 31q-112 -55 -365 -59q-5 -265 -143 -592z" />
<glyph unicode="&#x201c;" horiz-adv-x="1138" d="M0 797l29 -31q112 55 364 59q5 263 144 592q-3 4 -29 33q-31 -18 -82 -36t-82 -23q-52 -69 -141 -216.5t-156 -283.5l-15.5 -31t-18 -36.5t-13.5 -26.5zM514 797l29 -31q112 55 364 59q5 263 144 592q-3 4 -29 33q-31 -18 -82 -36t-82 -23q-52 -69 -141 -216.5 t-156 -283.5l-15.5 -31t-18 -36.5t-13.5 -26.5z" />
<glyph unicode="&#x201d;" horiz-adv-x="1138" d="M0 799q3 -4 29 -33q31 18 82 36t82 23q52 69 140 216.5t156 283.5q32 62 48 94l-29 31q-112 -55 -365 -59q-5 -265 -143 -592zM514 799q3 -4 29 -33q31 18 82 36t82 23q52 69 141 216.5t156 283.5l47 94l-29 31q-112 -55 -365 -59q-5 -265 -143 -592z" />
<glyph unicode="&#x201e;" horiz-adv-x="1138" d="M0 -301q3 -4 29 -33q31 18 82.5 36.5t81.5 23.5q52 69 140 216t156 283q32 62 48 94l-29 31q-112 -55 -365 -59q-5 -265 -143 -592zM514 -301q3 -4 29 -33q31 18 82.5 36.5t81.5 23.5q52 70 141 217t156 282l15.5 31t18 36.5t13.5 26.5l-29 31q-112 -55 -365 -59 q-5 -265 -143 -592z" />
<glyph unicode="&#x2022;" horiz-adv-x="1024" d="M160 707q0 -146 103 -249.5t249 -103.5t249 103.5t103 249.5t-103 249t-249 103t-249 -103t-103 -249z" />
<glyph unicode="&#x2026;" horiz-adv-x="2048" d="M147 156q0 -80 57.5 -137.5t137.5 -57.5t137.5 57.5t57.5 137.5q0 79 -57.5 136.5t-137.5 57.5t-137.5 -57.5t-57.5 -136.5zM829 156q0 -80 57.5 -137.5t137.5 -57.5t137.5 57.5t57.5 137.5q0 79 -57.5 136.5t-137.5 57.5t-137.5 -57.5t-57.5 -136.5zM1511 156 q0 -80 57.5 -137.5t137.5 -57.5t137.5 57.5t57.5 137.5q0 79 -57.5 136.5t-137.5 57.5t-137.5 -57.5t-57.5 -136.5z" />
<glyph unicode="&#x202f;" horiz-adv-x="386" />
<glyph unicode="&#x2039;" horiz-adv-x="720" d="M90 444q115 -72 377 -327q14 -14 46 -45.5t44 -42.5h10l64 43v10q-225 375 -246 407q33 50 125.5 202.5t120.5 197.5v10l-66 51h-10q-40 -46 -217.5 -204.5t-247.5 -210.5v-91z" />
<glyph unicode="&#x203a;" horiz-adv-x="720" d="M90 80l66 -51h10q40 46 217.5 204.5t247.5 210.5v91q-115 72 -377 327q-14 14 -46 45.5t-44 42.5h-10l-64 -43v-10q2 -3 60 -101t109 -182.5t77 -124.5q-33 -50 -126 -203t-120 -196v-10z" />
<glyph unicode="&#x205f;" horiz-adv-x="482" />
<glyph unicode="&#x20ac;" d="M-29 782l11 -10q24 1 73 4t74 4q-2 -27 -2 -82q0 -67 4 -102q-11 1 -33 2t-39 2t-28 2l-11 -10l-43 -117l11 -10q26 1 81 4t81 4q52 -238 207.5 -375t394.5 -137q212 0 385 90q2 12 8.5 61.5t13.5 75.5l-39 39q-50 -42 -116.5 -65t-133.5 -23q-277 0 -342 334 q250 -5 297 -8l11 10l43 117l-11 10q-120 -6 -356 -10q-4 57 -4 170v18q357 -5 426 -8l10 10l43 117l-10 10q-103 -5 -461 -10q40 361 301 361q108 0 149 -48.5t54 -160.5q7 -7 10 -9h94l11 9q10 147 34 264l-14 28q-152 70 -364 70q-259 0 -430.5 -132.5t-215.5 -377.5 q-13 1 -40 2t-47 2t-33 2l-11 -10z" />
<glyph unicode="&#x2122;" horiz-adv-x="2048" d="M0 1202h76v6q8 53 42 91t89 38h63v-592q0 -45 -19.5 -67t-86.5 -25v-75h459v75q-67 3 -87 25t-20 67v592h64q55 0 89 -38t42 -91v-6h75v215h-786v-215zM862 1337q43 0 93.5 -45.5t50.5 -70.5v-447q0 -64 -18 -91t-81 -30v-75h289v75q-67 3 -85.5 30.5t-18.5 94.5v363h4 l274 -557h33l289 557h4v-396q0 -45 -20 -67t-87 -25v-75h459v75q-67 3 -86.5 25t-19.5 67v504q0 45 19.5 66.5t86.5 21.5v80h-297l-278 -543l-252 543h-359v-80z" />
<glyph unicode="&#x25fc;" horiz-adv-x="993" d="M0 0v993h993v-993h-993z" />
<glyph unicode="&#xfb01;" horiz-adv-x="1402" d="M33 0l10 -10q255 10 313 10q56 0 328 -10l10 10v80l-10 10q-84 8 -105.5 14.5t-33.5 30.5q-17 35 -17 238v420h236q92 0 102 -21q17 -38 17 -211v-229q0 -139 -13 -199q-4 -20 -23 -27.5t-77 -15.5l-10 -10v-80l10 -10q240 10 287 10q32 0 297 -10l10 10v80l-10 10 q-58 8 -77.5 15.5t-23.5 27.5q-12 55 -12 199v289q0 226 19 368q-4 1 -11 4t-12.5 5t-9.5 3q-136 -51 -432 -51h-267v160q0 69 1 98t8 60.5t23 41t44 9.5q42 0 95 -44t63 -69q9 4 25.5 12t21.5 11q5 130 39 258q-48 22 -127 22q-33 0 -52 -1.5t-61 -11.5t-80.5 -30 t-98.5 -61t-128 -100q-31 -27 -48 -43t-33 -41t-23 -40t-15.5 -56t-12.5 -72t-13 -103q-17 -12 -57.5 -40.5t-55.5 -39.5l-10 -16v-51l10 -10h127v-320q0 -68 -1.5 -142.5t-3.5 -120t-3 -50.5q-4 -37 -22.5 -47.5t-96.5 -22.5l-10 -10v-80zM868 1298q0 -77 56 -133.5 t135 -56.5q78 0 133 56t55 134t-55 133.5t-133 55.5q-81 0 -136 -55.5t-55 -133.5z" />
<glyph unicode="&#xfb02;" horiz-adv-x="1402" d="M33 0l10 -10q255 10 313 10q56 0 328 -10l10 10v80l-10 10q-84 8 -105.5 14.5t-33.5 30.5q-17 35 -17 238v420h70q96 0 164 -7q4 3 12 11q2 53 35 137l-7 14t-7 13q-43 -11 -195 -11h-72v160q0 69 1 98t8 60.5t23 41t44 9.5q42 0 95 -44t63 -69q9 4 25.5 12t21.5 11 q0 41 6 76q43 -9 51 -25q17 -38 17 -211v-737q0 -139 -13 -199q-4 -20 -23 -27.5t-77 -15.5l-10 -10v-80l10 -10q240 10 287 10q49 0 284 -10l11 10v80l-11 10q-35 6 -48.5 9.5t-25 11.5t-14.5 22q-12 55 -12 199v485q0 96 9.5 371.5t9.5 308.5q-4 1 -11 4t-12.5 5t-9.5 3 q-78 -30 -195 -54.5t-198 -33.5q7 46 14 66q-48 22 -127 22q-33 0 -52 -1.5t-61 -11.5t-80.5 -30t-98.5 -61t-128 -100q-31 -27 -48 -43t-33 -41t-23 -40t-15.5 -56t-12.5 -72t-13 -103q-17 -12 -57.5 -40.5t-55.5 -39.5l-10 -16v-51l10 -10h127v-320q0 -68 -1.5 -142.5 t-3.5 -120t-3 -50.5q-4 -37 -22.5 -47.5t-96.5 -22.5l-10 -10v-80z" />
</font>
</defs>
</svg>
